<svg width="155" height="190" viewBox="0 0 155 190" fill="none" xmlns="http://www.w3.org/2000/svg">
<rect width="155" height="190" fill="white"/>
<rect x="6" y="41" width="143" height="108" fill="#EBEBEB"/>
<rect x="6" y="41" width="143" height="108" fill="#EBEBEB"/>
<path d="M117.502 144.198H115V143.202H115.498V143.7H117.502V144.198ZM115.498 143.202V142.698H116.002V143.202H115.498ZM116.002 142.698V142.2H116.5V142.698H116.002ZM116.5 142.2V141.702H116.998V142.2H116.5ZM116.998 141.702V140.202H117.502V141.702H116.998ZM115.498 140.202V141.198H115V140.202H115.498ZM116.998 140.202H115.498V139.698H116.998V140.202ZM119.998 144.198H118.498V143.7H119.998V144.198ZM119.998 143.7V141.702H119.5V142.2H119.002V142.698H118.498V143.7H118V140.202H118.498V142.2H119.002V141.702H119.5V141.198H119.998V140.202H120.502V143.7H119.998ZM119.998 140.202H118.498V139.698H119.998V140.202ZM123.502 144.198H121V143.202H121.498V143.7H123.502V144.198ZM121.498 143.202V142.698H122.002V143.202H121.498ZM122.002 142.698V142.2H122.5V142.698H122.002ZM122.5 142.2V141.702H122.998V142.2H122.5ZM122.998 141.702V140.202H123.502V141.702H122.998ZM121.498 140.202V141.198H121V140.202H121.498ZM122.998 140.202H121.498V139.698H122.998V140.202ZM124 143.7V143.202H124.498V143.7H125.998V144.198H124.498V143.7H124ZM124.498 142.2V141.702H125.002V141.198H125.5V141.702H125.998V142.2H126.502V143.7H125.998V142.2H124.498ZM124 140.202V139.698H126.502V140.7H125.998V141.198H125.5V140.7H125.998V140.202H124ZM127 142.2V141.702H129.502V142.2H127ZM131.998 144.198H130.498V143.7H131.998V144.198ZM131.998 143.7V141.702H131.5V142.2H131.002V142.698H130.498V143.7H130V140.202H130.498V142.2H131.002V141.702H131.5V141.198H131.998V140.202H132.502V143.7H131.998ZM131.998 140.202H130.498V139.698H131.998V140.202ZM135.502 144.198H133V143.202H133.498V143.7H135.502V144.198ZM133.498 143.202V142.698H134.002V143.202H133.498ZM134.002 142.698V142.2H134.5V142.698H134.002ZM134.5 142.2V141.702H134.998V142.2H134.5ZM134.998 141.702V140.202H135.502V141.702H134.998ZM133.498 140.202V141.198H133V140.202H133.498ZM134.998 140.202H133.498V139.698H134.998V140.202ZM136 142.2V141.702H138.502V142.2H136ZM139 141.198V140.7H139.498V141.198H139ZM140.5 139.698V144.198H140.002V140.7H139.498V140.202H140.002V139.698H140.5ZM143.998 144.198H142.498V143.7H143.998V144.198ZM143.998 143.7V141.702H143.5V142.2H143.002V142.698H142.498V143.7H142V140.202H142.498V142.2H143.002V141.702H143.5V141.198H143.998V140.202H144.502V143.7H143.998ZM143.998 140.202H142.498V139.698H143.998V140.202Z" fill="#F56E00"/>
<path d="M8 166.508C7.916 166.652 7.812 166.776 7.692 166.888C7.424 167.116 6.968 167.296 6.324 167.428L6.18 167.092C6.74 166.988 7.144 166.848 7.392 166.664C7.472 166.6 7.54 166.532 7.596 166.46H6.32V166.112H7.784C7.808 166.032 7.828 165.952 7.844 165.864H8.212C8.196 165.952 8.18 166.036 8.16 166.112H8.848C8.808 166.048 8.768 165.988 8.728 165.932L9.04 165.816C9.096 165.9 9.144 166 9.192 166.112H9.684V166.46H8.368C8.696 166.764 9.188 166.976 9.844 167.096L9.636 167.432C8.916 167.264 8.368 166.956 8 166.508ZM6.748 163.936H7.628C7.668 163.852 7.696 163.768 7.72 163.684L8.128 163.736C8.104 163.808 8.076 163.872 8.04 163.936H9.284V165.772H6.748V163.936ZM8.916 165.448V165.244H7.112V165.448H8.916ZM7.112 164.956H8.916V164.752H7.112V164.956ZM7.112 164.464H8.916V164.26H7.112V164.464ZM11.78 167.368H11.192L11.1 166.972C11.292 166.988 11.468 167 11.636 167C11.788 167 11.868 166.92 11.868 166.764V163.78H12.264V166.864C12.264 167.2 12.1 167.368 11.78 167.368ZM10.792 164.708L11.172 164.86C10.988 165.648 10.744 166.252 10.444 166.668L10.112 166.376C10.416 165.96 10.644 165.404 10.792 164.708ZM13.2 164.608C13.488 165.312 13.712 165.924 13.868 166.452L13.524 166.688C13.356 166.132 13.132 165.512 12.852 164.824L13.2 164.608ZM14.24 165.396H15.892V164.884C16.208 164.7 16.512 164.484 16.804 164.228H14.66V163.872H17.316V164.228C17.012 164.528 16.664 164.812 16.272 165.076V165.396H17.76V165.768H16.272V166.992C16.272 167.252 16.14 167.384 15.88 167.384H15.18L15.076 167.016C15.276 167.024 15.496 167.028 15.728 167.028C15.836 167.028 15.892 166.976 15.892 166.872V165.768H14.24V165.396ZM18.504 163.744C18.752 163.944 18.96 164.14 19.128 164.34L18.856 164.616C18.708 164.428 18.5 164.224 18.232 164.008L18.504 163.744ZM18.404 164.72C18.672 164.92 18.9 165.116 19.084 165.316L18.812 165.588C18.652 165.4 18.428 165.2 18.132 164.984L18.404 164.72ZM18.808 165.796L19.14 165.924C18.968 166.436 18.776 166.92 18.56 167.372L18.204 167.216C18.436 166.752 18.64 166.28 18.808 165.796ZM19.156 164.74H21.808V165.092H21.036V165.44H21.708V166.976C21.708 167.236 21.584 167.368 21.34 167.368H21.016L20.924 167.036L21.232 167.052C21.32 167.052 21.368 167 21.368 166.9V165.768H21.036L21.024 165.952C21.124 166.084 21.228 166.232 21.332 166.392L21.164 166.644C21.092 166.476 21.028 166.34 20.976 166.232C20.904 166.552 20.764 166.848 20.556 167.12L20.308 166.904C20.568 166.568 20.704 166.192 20.716 165.768H20.268L20.256 165.892C20.356 166.012 20.456 166.144 20.56 166.288L20.388 166.54C20.316 166.392 20.256 166.268 20.204 166.168C20.136 166.432 20.024 166.676 19.864 166.9L19.632 166.696V167.392H19.292V165.44H19.964V165.092H19.156V164.74ZM19.956 165.768H19.632V166.66C19.82 166.392 19.928 166.096 19.956 165.768ZM20.276 165.44H20.72V165.092H20.276V165.44ZM19.252 164.016H19.816V163.732H20.188V164.016H20.776V163.732H21.144V164.016H21.748V164.376H21.144V164.612H20.776V164.376H20.188V164.616H19.816V164.376H19.252V164.016ZM23.296 165.18V165.808H24.916V165.18H23.296ZM24.916 164.824V164.224H23.296V164.824H24.916ZM23.276 166.16C23.224 166.672 23.072 167.096 22.82 167.436L22.528 167.168C22.78 166.816 22.908 166.368 22.916 165.824V163.86H25.3V166.992C25.3 167.248 25.168 167.376 24.912 167.376H24.4L24.296 167.004C24.472 167.012 24.636 167.02 24.788 167.02C24.872 167.02 24.916 166.964 24.916 166.86V166.16H23.276ZM27.872 165.048C28.26 164.824 28.628 164.572 28.976 164.292H26.416V163.924H29.5V164.292C29.132 164.624 28.716 164.94 28.252 165.24V166.96C28.252 167.24 28.112 167.38 27.836 167.38C27.592 167.38 27.38 167.372 27.2 167.356L27.096 166.988C27.292 167.012 27.504 167.024 27.732 167.024C27.824 167.024 27.872 166.976 27.872 166.888V165.048ZM30.768 166.428C30.872 166.428 30.956 166.468 31.028 166.552C31.092 166.64 31.128 166.748 31.128 166.884C31.128 167.088 31.068 167.264 30.948 167.416C30.828 167.568 30.668 167.672 30.468 167.728V167.48C30.576 167.44 30.668 167.38 30.74 167.292C30.804 167.2 30.84 167.108 30.84 167.012C30.816 167.02 30.784 167.024 30.744 167.024C30.66 167.024 30.592 166.996 30.536 166.94C30.48 166.884 30.452 166.812 30.452 166.728C30.452 166.636 30.48 166.564 30.54 166.508C30.596 166.452 30.672 166.428 30.768 166.428ZM35.052 164.408C34.992 164.5 34.932 164.588 34.872 164.672H37.404C37.396 165.012 37.384 165.312 37.376 165.576H37.86V165.932H37.364C37.352 166.156 37.344 166.348 37.336 166.504H37.748V166.856H37.312C37.3 166.952 37.292 167.012 37.284 167.04C37.248 167.168 37.18 167.26 37.08 167.316C36.98 167.376 36.832 167.408 36.64 167.408C36.496 167.408 36.328 167.412 36.14 167.412L36.028 167.064C36.236 167.072 36.42 167.08 36.584 167.08C36.664 167.08 36.736 167.068 36.796 167.052C36.856 167.028 36.9 166.976 36.932 166.896C36.932 166.888 36.936 166.872 36.94 166.856H34.628C34.684 166.544 34.732 166.236 34.768 165.932H34.148V165.576H34.804C34.832 165.28 34.848 164.984 34.856 164.692C34.72 164.872 34.576 165.032 34.424 165.172L34.18 164.876C34.5 164.588 34.772 164.192 35.004 163.684L35.388 163.772C35.344 163.868 35.3 163.956 35.256 164.044H37.664V164.408H35.052ZM35.704 165.948C36 166.044 36.272 166.156 36.52 166.292L36.38 166.504H36.968C36.976 166.352 36.984 166.16 36.992 165.932H35.148C35.124 166.136 35.1 166.328 35.068 166.504H36.232C36.004 166.372 35.772 166.268 35.536 166.196L35.704 165.948ZM35.18 165.576H36.216C36 165.456 35.78 165.36 35.564 165.284L35.732 165.036C36.028 165.132 36.296 165.248 36.544 165.388L36.42 165.576H37.004C37.012 165.404 37.016 165.22 37.024 165.024H35.212C35.204 165.216 35.192 165.4 35.18 165.576ZM38.304 165.104H39.724C39.768 164.852 39.8 164.576 39.816 164.276H38.408V163.912H41.592V164.276H40.2C40.18 164.58 40.148 164.856 40.108 165.104H41.708V165.468H40.288C40.568 166.184 41.084 166.736 41.84 167.124L41.604 167.432C40.824 167.008 40.288 166.408 39.992 165.636C39.928 165.86 39.856 166.048 39.768 166.2C39.5 166.676 39.044 167.088 38.404 167.436L38.164 167.124C38.748 166.82 39.164 166.464 39.412 166.048C39.504 165.892 39.58 165.7 39.644 165.468H38.304V165.104ZM43.444 164.016V164.784C43.684 164.524 43.892 164.164 44.064 163.708L44.42 163.788C44.364 163.936 44.308 164.076 44.244 164.212H45.728V164.58H44.048C43.936 164.764 43.816 164.932 43.688 165.08L43.444 164.792V167.004H43.084V166.784H42.66V167.1H42.288V164.016H43.444ZM42.66 166.428H43.084V164.376H42.66V166.428ZM43.828 165.108H45.412V165.44C45.064 165.768 44.8 166.036 44.62 166.24C44.448 166.432 44.332 166.576 44.268 166.672C44.204 166.768 44.176 166.836 44.176 166.884C44.176 166.964 44.228 167.004 44.332 167.004H45.164C45.252 167.004 45.32 166.972 45.364 166.908C45.404 166.844 45.436 166.64 45.456 166.288L45.812 166.416C45.776 166.86 45.708 167.128 45.608 167.216C45.512 167.304 45.364 167.348 45.164 167.352H44.244C43.924 167.352 43.764 167.22 43.764 166.956C43.764 166.868 43.8 166.772 43.872 166.668C43.936 166.556 44.072 166.38 44.276 166.132C44.44 165.932 44.644 165.708 44.884 165.464H43.828V165.108ZM47.872 165.048C48.26 164.824 48.628 164.572 48.976 164.292H46.416V163.924H49.5V164.292C49.132 164.624 48.716 164.94 48.252 165.24V166.96C48.252 167.24 48.112 167.38 47.836 167.38C47.592 167.38 47.38 167.372 47.2 167.356L47.096 166.988C47.292 167.012 47.504 167.024 47.732 167.024C47.824 167.024 47.872 166.976 47.872 166.888V165.048ZM51.82 164.868H51.528V164.516H52.484V164.24C52.224 164.26 51.948 164.272 51.656 164.272L51.548 163.952C52.348 163.952 53.02 163.876 53.568 163.724L53.74 164.024C53.48 164.104 53.18 164.168 52.84 164.208V164.516H53.784V164.868H53.508V165.38H53.784V165.688H53.508V166.188H53.784V166.532H52.84V166.92H53.676V167.276H51.656V166.92H52.484V166.532H51.552V166.188H51.82V165.688H51.532V165.38H51.82V164.868ZM53.172 164.868H52.84V165.38H53.172V164.868ZM52.484 164.868H52.156V165.38H52.484V164.868ZM53.172 165.688H52.84V166.188H53.172V165.688ZM52.484 165.688H52.156V166.188H52.484V165.688ZM51.36 163.888V167.148H51.008V166.972H50.644V167.244H50.288V163.888H51.36ZM50.644 166.632H51.008V166.072H50.644V166.632ZM50.644 165.736H51.008V165.16H50.644V165.736ZM50.644 164.828H51.008V164.232H50.644V164.828ZM54.768 166.428C54.872 166.428 54.956 166.468 55.028 166.552C55.092 166.64 55.128 166.748 55.128 166.884C55.128 167.088 55.068 167.264 54.948 167.416C54.828 167.568 54.668 167.672 54.468 167.728V167.48C54.576 167.44 54.668 167.38 54.74 167.292C54.804 167.2 54.84 167.108 54.84 167.012C54.816 167.02 54.784 167.024 54.744 167.024C54.66 167.024 54.592 166.996 54.536 166.94C54.48 166.884 54.452 166.812 54.452 166.728C54.452 166.636 54.48 166.564 54.54 166.508C54.596 166.452 54.672 166.428 54.768 166.428ZM59.82 164.868H59.528V164.516H60.484V164.24C60.224 164.26 59.948 164.272 59.656 164.272L59.548 163.952C60.348 163.952 61.02 163.876 61.568 163.724L61.74 164.024C61.48 164.104 61.18 164.168 60.84 164.208V164.516H61.784V164.868H61.508V165.38H61.784V165.688H61.508V166.188H61.784V166.532H60.84V166.92H61.676V167.276H59.656V166.92H60.484V166.532H59.552V166.188H59.82V165.688H59.532V165.38H59.82V164.868ZM61.172 164.868H60.84V165.38H61.172V164.868ZM60.484 164.868H60.156V165.38H60.484V164.868ZM61.172 165.688H60.84V166.188H61.172V165.688ZM60.484 165.688H60.156V166.188H60.484V165.688ZM59.36 163.888V167.148H59.008V166.972H58.644V167.244H58.288V163.888H59.36ZM58.644 166.632H59.008V166.072H58.644V166.632ZM58.644 165.736H59.008V165.16H58.644V165.736ZM58.644 164.828H59.008V164.232H58.644V164.828ZM63.872 165.048C64.26 164.824 64.628 164.572 64.976 164.292H62.416V163.924H65.5V164.292C65.132 164.624 64.716 164.94 64.252 165.24V166.96C64.252 167.24 64.112 167.38 63.836 167.38C63.592 167.38 63.38 167.372 63.2 167.356L63.096 166.988C63.292 167.012 63.504 167.024 63.732 167.024C63.824 167.024 63.872 166.976 63.872 166.888V165.048ZM67.444 164.016V164.784C67.684 164.524 67.892 164.164 68.064 163.708L68.42 163.788C68.364 163.936 68.308 164.076 68.244 164.212H69.728V164.58H68.048C67.936 164.764 67.816 164.932 67.688 165.08L67.444 164.792V167.004H67.084V166.784H66.66V167.1H66.288V164.016H67.444ZM66.66 166.428H67.084V164.376H66.66V166.428ZM67.828 165.108H69.412V165.44C69.064 165.768 68.8 166.036 68.62 166.24C68.448 166.432 68.332 166.576 68.268 166.672C68.204 166.768 68.176 166.836 68.176 166.884C68.176 166.964 68.228 167.004 68.332 167.004H69.164C69.252 167.004 69.32 166.972 69.364 166.908C69.404 166.844 69.436 166.64 69.456 166.288L69.812 166.416C69.776 166.86 69.708 167.128 69.608 167.216C69.512 167.304 69.364 167.348 69.164 167.352H68.244C67.924 167.352 67.764 167.22 67.764 166.956C67.764 166.868 67.8 166.772 67.872 166.668C67.936 166.556 68.072 166.38 68.276 166.132C68.44 165.932 68.644 165.708 68.884 165.464H67.828V165.108Z" fill="#1C1E22"/>
<g clip-path="url(#clip0_1152_2045)">
<path d="M7.99986 171C7.21203 171 6.57129 171.643 6.57129 172.433C6.57129 172.726 6.65924 173.008 6.82371 173.246C6.83191 173.26 6.84023 173.273 6.85005 173.287L7.89278 174.665C7.9211 174.697 7.95911 174.714 7.99986 174.714C8.04011 174.714 8.07837 174.697 8.11154 174.659L9.14942 173.287C9.15961 173.273 9.16843 173.258 9.17315 173.249C9.33969 173.01 9.42882 172.725 9.42843 172.433C9.42843 171.643 8.78756 171 7.99986 171ZM7.99986 172.945C7.86469 172.945 7.73506 172.891 7.6394 172.795C7.54373 172.699 7.48985 172.569 7.48955 172.433C7.49314 172.3 7.54848 172.173 7.64378 172.079C7.73907 171.986 7.86681 171.934 7.9998 171.934C8.13279 171.934 8.26052 171.986 8.35582 172.079C8.45112 172.173 8.50645 172.3 8.51005 172.433C8.50972 172.569 8.45583 172.699 8.3602 172.795C8.26457 172.891 8.13499 172.945 7.99986 172.945Z" fill="#1C1E22"/>
</g>
<path d="M11.381 171.588C11.588 171.738 11.765 171.885 11.909 172.035L11.702 172.236C11.576 172.098 11.402 171.948 11.177 171.786L11.381 171.588ZM11.327 172.323C11.519 172.467 11.684 172.608 11.816 172.752L11.612 172.956C11.498 172.818 11.333 172.674 11.123 172.518L11.327 172.323ZM11.594 173.139L11.855 173.241C11.729 173.619 11.591 173.973 11.438 174.306L11.15 174.18C11.321 173.841 11.468 173.493 11.594 173.139ZM11.948 171.705H13.874V171.981H13.655V173.979C13.655 174.192 13.553 174.3 13.352 174.3H12.851L12.791 174.027C12.953 174.039 13.106 174.045 13.253 174.045C13.331 174.045 13.373 173.997 13.373 173.907V171.981H11.948V171.705ZM12.068 172.371H13.052V173.529H12.068V172.371ZM12.788 173.271V172.626H12.332V173.271H12.788ZM14.156 171.792H15.383C15.395 171.702 15.407 171.609 15.416 171.516L15.707 171.555C15.698 171.639 15.689 171.717 15.677 171.792H16.844V172.059H15.632C15.614 172.146 15.596 172.23 15.578 172.311H16.697V173.961C16.697 174.177 16.595 174.288 16.397 174.288H16.112L16.037 174.012L16.304 174.018C16.379 174.018 16.418 173.976 16.418 173.898V172.578H14.588V174.306H14.309V172.311H15.287C15.305 172.227 15.323 172.143 15.338 172.059H14.156V171.792ZM15.2 172.632C15.26 172.734 15.314 172.851 15.365 172.986H15.638C15.698 172.869 15.752 172.746 15.8 172.62L16.058 172.716C16.013 172.812 15.965 172.902 15.911 172.986H16.205V173.235H15.638V173.487H16.286V173.736H15.638V174.261H15.362V173.736H14.717V173.487H15.362V173.235H14.804V172.986H15.092C15.05 172.893 15.002 172.806 14.945 172.725L15.2 172.632ZM17.75 172.692C17.813 172.692 17.867 172.713 17.909 172.761C17.954 172.803 17.978 172.854 17.978 172.92C17.978 172.98 17.954 173.034 17.909 173.079C17.867 173.124 17.813 173.148 17.75 173.148C17.684 173.148 17.633 173.124 17.591 173.079C17.543 173.034 17.522 172.98 17.522 172.92C17.522 172.854 17.543 172.803 17.591 172.761C17.633 172.713 17.684 172.692 17.75 172.692ZM21.02 173.157V174.3H20.747V174.186H19.958V174.3H19.685V173.157H21.02ZM19.958 173.928H20.747V173.415H19.958V173.928ZM20.015 171.513L20.288 171.567C20.264 171.639 20.234 171.708 20.204 171.777H21.053V171.984C20.945 172.215 20.789 172.422 20.582 172.605C20.813 172.743 21.083 172.851 21.392 172.926L21.227 173.166C20.885 173.076 20.597 172.947 20.357 172.782C20.117 172.947 19.829 173.088 19.493 173.208L19.319 172.977C19.64 172.872 19.913 172.749 20.138 172.605C20.03 172.506 19.937 172.398 19.856 172.284C19.76 172.383 19.655 172.473 19.544 172.557L19.373 172.335C19.691 172.11 19.904 171.837 20.015 171.513ZM20.018 172.089C20.111 172.221 20.225 172.341 20.357 172.449C20.513 172.32 20.642 172.179 20.738 172.029H20.06C20.042 172.053 20.03 172.071 20.018 172.089ZM18.89 171.585C19.097 171.735 19.274 171.882 19.418 172.032L19.211 172.236C19.088 172.095 18.914 171.945 18.686 171.783L18.89 171.585ZM18.836 172.32C19.028 172.464 19.193 172.605 19.325 172.749L19.121 172.956C19.007 172.818 18.842 172.674 18.632 172.518L18.836 172.32ZM19.1 173.139L19.358 173.241C19.235 173.619 19.097 173.973 18.947 174.303L18.662 174.177C18.83 173.841 18.977 173.493 19.1 173.139ZM21.734 171.645H22.757V171.864C22.661 172.122 22.55 172.395 22.421 172.683C22.619 172.956 22.724 173.196 22.742 173.4C22.742 173.538 22.709 173.64 22.649 173.7C22.556 173.778 22.394 173.817 22.166 173.82L22.076 173.535C22.136 173.544 22.187 173.55 22.226 173.55C22.319 173.544 22.382 173.532 22.415 173.511C22.445 173.487 22.46 173.451 22.46 173.4C22.46 173.199 22.352 172.974 22.139 172.725C22.28 172.425 22.391 172.152 22.472 171.906H22.007V174.318H21.734V171.645ZM24.272 171.684V174.3H23.996V174.075H23.159V174.294H22.883V171.684H24.272ZM23.159 173.802H23.996V173.007H23.159V173.802ZM23.159 172.743H23.996V171.96H23.159V172.743Z" fill="#1C1E22"/>
<defs>
<clipPath id="clip0_1152_2045">
<rect width="4" height="4" fill="white" transform="translate(6 171)"/>
</clipPath>
</defs>
</svg>
