<svg width="176" height="130" viewBox="0 0 176 130" fill="none" xmlns="http://www.w3.org/2000/svg">
<rect width="176" height="130" fill="white"/>
<rect width="176" height="98" fill="#EBEBEB"/>
<path d="M9.208 109.452C8.952 109.564 8.676 109.664 8.38 109.748L8.188 109.452C8.916 109.26 9.476 109.012 9.872 108.712H10.172C10.496 108.992 11.048 109.236 11.832 109.452L11.64 109.748C11.316 109.656 11.032 109.556 10.784 109.444V109.556H9.208V109.452ZM10.48 109.292C10.3 109.192 10.148 109.088 10.02 108.976C9.868 109.092 9.704 109.196 9.528 109.292H10.48ZM8.776 109.72H11.216V110.444H8.776V109.72ZM10.856 110.184V109.984H9.136V110.184H10.856ZM11.276 110.512L11.424 110.772C11.08 110.82 10.684 110.86 10.232 110.884V111.088H11.472V111.36H10.232V111.548H11.752V111.852H10.232V112.044C10.232 112.284 10.096 112.404 9.828 112.404H9.348L9.272 112.08C9.428 112.096 9.576 112.104 9.712 112.104C9.808 112.104 9.86 112.056 9.86 111.964V111.852H8.252V111.548H9.86V111.36H8.572V111.088H9.86V110.9C9.492 110.916 9.092 110.924 8.66 110.924L8.564 110.64C9.636 110.64 10.54 110.596 11.276 110.512ZM14.272 111.656V112.032C13.648 112.16 12.984 112.272 12.272 112.36L12.184 111.996C12.492 111.964 12.796 111.924 13.096 111.88V111.22H12.356V110.856H13.096V110.432H13.48V110.856H14.156V111.22H13.48V111.816C13.748 111.768 14.012 111.712 14.272 111.656ZM12.244 108.864H14.256V109.224H13.252C13.084 109.568 12.928 109.832 12.788 110.02C13.108 109.988 13.42 109.944 13.728 109.892C13.648 109.772 13.568 109.648 13.48 109.524L13.772 109.336C14.036 109.688 14.24 109.992 14.38 110.252L14.064 110.472C14.012 110.376 13.956 110.276 13.9 110.172C13.396 110.264 12.852 110.34 12.264 110.4L12.18 110.06C12.244 110.052 12.296 110.04 12.328 110.024C12.456 109.916 12.628 109.648 12.844 109.224H12.244V108.864ZM15.296 112.376H14.704L14.62 112.008C14.812 112.02 14.992 112.028 15.164 112.028C15.264 112.028 15.316 111.976 15.316 111.872V108.732H15.7V111.968C15.7 112.24 15.564 112.376 15.296 112.376ZM14.536 109.092H14.904V111.544H14.536V109.092ZM16.232 109.74H17.764C17.788 109.528 17.804 109.304 17.808 109.072V108.724H18.192V108.984C18.192 109.248 18.176 109.5 18.144 109.74H19.768V110.108H18.24C18.52 110.964 19.06 111.624 19.852 112.092L19.616 112.4C18.848 111.928 18.308 111.268 18.004 110.42C17.74 111.336 17.2 112.008 16.388 112.436L16.144 112.116C16.968 111.716 17.488 111.044 17.7 110.108H16.232V109.74ZM23.732 109.504V110.472H23.352V109.868H20.644V110.472H20.268V109.504H20.988C20.86 109.288 20.728 109.096 20.592 108.928L20.936 108.76C21.072 108.944 21.208 109.152 21.336 109.376L21.08 109.504H22.58C22.744 109.256 22.884 108.988 23.004 108.7L23.396 108.844C23.264 109.104 23.132 109.324 22.996 109.504H23.732ZM20.92 110.12H23.084V110.456C22.832 110.62 22.552 110.776 22.24 110.928V111.068H23.732V111.428H22.24V112.04C22.24 112.276 22.112 112.396 21.86 112.396H21.352L21.26 112.052C21.404 112.056 21.56 112.06 21.732 112.06C21.816 112.06 21.86 112.008 21.86 111.908V111.428H20.28V111.068H21.86V110.764C22.14 110.644 22.368 110.54 22.536 110.456H20.92V110.12ZM21.892 108.68C22.024 108.876 22.152 109.092 22.272 109.328L21.932 109.5C21.812 109.256 21.684 109.04 21.548 108.848L21.892 108.68ZM24.676 108.848H27.04V110.14H27.728V110.488H26.164V110.896C26.248 110.988 26.336 111.076 26.432 111.16C26.7 111.008 26.932 110.792 27.124 110.508L27.416 110.752C27.204 111.016 26.964 111.224 26.692 111.372C26.996 111.596 27.344 111.792 27.744 111.964L27.552 112.3C26.976 112.028 26.516 111.7 26.164 111.316V112.008C26.164 112.28 26.044 112.416 25.812 112.416H25.348L25.264 112.056C25.412 112.072 25.552 112.084 25.684 112.084C25.752 112.084 25.788 112.028 25.788 111.92V111.336C25.388 111.688 24.916 112.004 24.372 112.288L24.22 111.936C24.824 111.66 25.348 111.328 25.788 110.94V110.488H24.276V110.14H26.652V109.832H24.812V109.504H26.652V109.188H24.676V108.848ZM24.756 110.572C24.992 110.736 25.192 110.9 25.352 111.06L25.104 111.308C24.96 111.156 24.76 110.992 24.504 110.816L24.756 110.572ZM29.78 109.676C29.604 109.352 29.388 109.1 29.136 108.92L29.452 108.72C29.788 108.956 30.084 109.404 30.344 110.068C30.724 111.004 31.216 111.664 31.824 112.056L31.588 112.356C30.96 111.98 30.436 111.26 30.012 110.192C30 110.164 29.992 110.14 29.984 110.116C29.712 111.084 29.172 111.832 28.364 112.36L28.136 112.036C28.968 111.488 29.516 110.7 29.78 109.676ZM32.54 108.76C32.812 108.972 33.04 109.184 33.224 109.392L32.956 109.656C32.796 109.456 32.572 109.24 32.28 109.008L32.54 108.76ZM34.84 112.344C34.62 112.344 34.38 112.34 34.124 112.336C33.864 112.332 33.652 112.308 33.484 112.268C33.324 112.22 33.184 112.124 33.064 111.988C33.008 111.92 32.96 111.888 32.912 111.888C32.828 111.888 32.684 112.068 32.48 112.428L32.2 112.168C32.4 111.844 32.58 111.64 32.74 111.56V110.428H32.204V110.076H33.096V111.588C33.116 111.604 33.136 111.624 33.156 111.648C33.248 111.756 33.344 111.836 33.444 111.888C33.564 111.944 33.74 111.98 33.976 111.988C34.204 111.992 34.472 111.996 34.784 111.996C34.98 111.996 35.18 111.992 35.38 111.988C35.58 111.984 35.736 111.976 35.844 111.968L35.752 112.344H34.84ZM34.148 109.156H33.376V108.84H35.572V109.108C35.34 109.308 35.092 109.476 34.828 109.62C34.836 109.628 34.844 109.632 34.852 109.64H35.656V111.416C35.656 111.652 35.524 111.772 35.264 111.772H34.956L34.876 111.456L35.16 111.472C35.248 111.472 35.296 111.428 35.296 111.34V111.136H34.72V111.792H34.372V111.136H33.808V111.8H33.448V109.64H34.368C34.236 109.552 34.088 109.46 33.924 109.372L34.148 109.156ZM34.596 109.44C34.764 109.356 34.92 109.26 35.064 109.156H34.168C34.32 109.252 34.464 109.344 34.596 109.44ZM33.808 110.548V110.828H34.372V110.548H33.808ZM34.72 110.548V110.828H35.296V110.548H34.72ZM35.296 110.236V109.956H34.72V110.236H35.296ZM34.372 110.236V109.956H33.808V110.236H34.372ZM39.692 109.112V112.232H39.324V112.004H38.624V112.236H38.256V109.112H39.692ZM38.624 111.648H39.324V109.468H38.624V111.648ZM36.82 109.588C36.728 109.788 36.624 109.972 36.512 110.14L36.18 109.928C36.436 109.552 36.62 109.148 36.728 108.716L37.104 108.796C37.064 108.948 37.016 109.088 36.968 109.224H38.06V109.588H37.516C37.508 109.836 37.496 110.068 37.472 110.28H38.096V110.644H37.42C37.404 110.732 37.384 110.82 37.368 110.9C37.612 111.148 37.86 111.424 38.116 111.728L37.884 112.08C37.636 111.728 37.428 111.452 37.26 111.252C37.092 111.672 36.808 112.028 36.4 112.316L36.152 112.012C36.568 111.704 36.84 111.328 36.972 110.88C36.988 110.804 37.008 110.724 37.024 110.644H36.236V110.28H37.08C37.104 110.068 37.116 109.836 37.124 109.588H36.82ZM41.592 108.704H41.972V109.372H43.148V109.556L43.072 110.448H43.628C43.624 111.248 43.556 111.712 43.428 111.848C43.376 111.904 43.296 111.948 43.184 111.972C43.088 111.992 42.988 112.004 42.892 112.004H42.636L42.532 111.648C42.684 111.648 42.824 111.652 42.956 111.652C43.056 111.644 43.128 111.616 43.172 111.564C43.216 111.508 43.244 111.256 43.256 110.812H41.972V112.416H41.592V110.812H40.212V110.448H41.592V109.736H40.44V109.372H41.592V108.704ZM41.972 110.448H42.7L42.768 109.736H41.972V110.448ZM42.968 108.712C43.26 108.852 43.524 109.02 43.764 109.212L43.564 109.524C43.308 109.3 43.044 109.128 42.772 109L42.968 108.712ZM45.872 110.048C46.26 109.824 46.628 109.572 46.976 109.292H44.416V108.924H47.5V109.292C47.132 109.624 46.716 109.94 46.252 110.24V111.96C46.252 112.24 46.112 112.38 45.836 112.38C45.592 112.38 45.38 112.372 45.2 112.356L45.096 111.988C45.292 112.012 45.504 112.024 45.732 112.024C45.824 112.024 45.872 111.976 45.872 111.888V110.048ZM48.768 111.428C48.872 111.428 48.956 111.468 49.028 111.552C49.092 111.64 49.128 111.748 49.128 111.884C49.128 112.088 49.068 112.264 48.948 112.416C48.828 112.568 48.668 112.672 48.468 112.728V112.48C48.576 112.44 48.668 112.38 48.74 112.292C48.804 112.2 48.84 112.108 48.84 112.012C48.816 112.02 48.784 112.024 48.744 112.024C48.66 112.024 48.592 111.996 48.536 111.94C48.48 111.884 48.452 111.812 48.452 111.728C48.452 111.636 48.48 111.564 48.54 111.508C48.596 111.452 48.672 111.428 48.768 111.428ZM54.94 110.312V109.492H55.304V110.628H54.024C54 110.704 53.976 110.776 53.952 110.844H55.552V112.032C55.552 112.284 55.424 112.412 55.168 112.412H54.848L54.756 112.056L55.048 112.076C55.14 112.076 55.188 112.036 55.188 111.956V111.188H54.616C54.752 111.404 54.88 111.632 55 111.88L54.696 112.028C54.664 111.964 54.636 111.904 54.612 111.848C54.3 111.904 53.816 111.968 53.164 112.04L53.08 111.7C53.152 111.692 53.2 111.676 53.224 111.644C53.304 111.516 53.384 111.364 53.46 111.188H52.82V112.412H52.456V110.844H53.588C53.612 110.772 53.632 110.7 53.656 110.628H52.7V109.492H53.064V110.312H53.336L53.176 110.052C53.384 109.996 53.576 109.928 53.756 109.844C53.58 109.764 53.408 109.696 53.232 109.636L53.392 109.404C53.632 109.484 53.856 109.576 54.072 109.676C54.22 109.588 54.356 109.488 54.484 109.376L54.744 109.536C54.624 109.648 54.504 109.744 54.384 109.828C54.532 109.9 54.676 109.98 54.812 110.064L54.648 110.312H54.94ZM54.248 111.188H53.824C53.744 111.372 53.668 111.532 53.592 111.668C53.892 111.64 54.184 111.604 54.464 111.556C54.392 111.42 54.32 111.3 54.248 111.188ZM54.092 110.008C53.9 110.104 53.66 110.208 53.364 110.312H54.632C54.452 110.2 54.272 110.096 54.092 110.008ZM54.104 108.692C54.148 108.788 54.188 108.888 54.228 109H55.728V109.348H52.272V109H53.844C53.804 108.912 53.76 108.828 53.716 108.756L54.104 108.692ZM58.612 110.884C58.552 110.9 58.492 110.912 58.436 110.928C58.496 111.112 58.528 111.312 58.532 111.528C58.532 111.848 58.484 112.072 58.396 112.192C58.292 112.336 58.06 112.408 57.696 112.408H57.568L57.44 112.072H57.644C57.868 112.072 58.008 112.04 58.064 111.98C58.128 111.9 58.164 111.752 58.164 111.528C58.164 111.488 58.16 111.448 58.16 111.412C57.728 111.736 57.16 112.004 56.464 112.22L56.272 111.896C57.052 111.676 57.66 111.392 58.096 111.048C58.072 110.968 58.04 110.888 58.008 110.816C57.632 111.096 57.132 111.324 56.512 111.504L56.324 111.176C56.976 111.008 57.484 110.796 57.848 110.536C57.808 110.484 57.772 110.436 57.732 110.388C57.716 110.396 57.704 110.4 57.692 110.408C57.432 110.532 57.064 110.664 56.592 110.804L56.4 110.488C56.768 110.412 57.112 110.308 57.432 110.176C57.528 110.136 57.62 110.096 57.708 110.052H56.812V109.7H59.188V110.052H58.3C58.204 110.116 58.112 110.176 58.024 110.232C58.14 110.36 58.236 110.496 58.316 110.64C58.668 110.536 59.004 110.384 59.324 110.18L59.58 110.436C59.372 110.568 59.152 110.68 58.916 110.776C59.1 111.244 59.4 111.62 59.808 111.908L59.536 112.224C59.112 111.868 58.804 111.42 58.612 110.884ZM58.092 108.692C58.136 108.796 58.176 108.912 58.216 109.04H59.716V109.784H59.336V109.392H56.664V109.784H56.284V109.04H57.832C57.792 108.936 57.748 108.844 57.704 108.76L58.092 108.692ZM62.664 108.692L63.032 108.82C62.956 108.956 62.876 109.076 62.788 109.188H63.8V109.556H60.196V109.188H61.236C61.164 109.044 61.084 108.912 61 108.792L61.4 108.728C61.484 108.864 61.564 109.016 61.644 109.188H62.368C62.48 109.032 62.576 108.868 62.664 108.692ZM61.596 112.388H61.284L61.184 112.016L61.472 112.028C61.56 112.028 61.608 111.964 61.608 111.84V111.572H60.824V112.42H60.452V109.804H61.976V111.924C61.976 112.232 61.848 112.388 61.596 112.388ZM60.824 111.236H61.608V110.864H60.824V111.236ZM60.824 110.528H61.608V110.156H60.824V110.528ZM63.156 112.376H62.616L62.536 112.012C62.704 112.028 62.864 112.036 63.024 112.036C63.12 112.036 63.168 111.98 63.168 111.872V109.72H63.548V111.968C63.548 112.24 63.416 112.376 63.156 112.376ZM62.344 110.02H62.712V111.728H62.344V110.02ZM65.652 109.38V112.164H65.288V111.956H64.656V112.28H64.292V109.38H64.672C64.744 109.164 64.8 108.944 64.832 108.712L65.212 108.764C65.172 108.984 65.112 109.188 65.036 109.38H65.652ZM64.656 111.604H65.288V110.816H64.656V111.604ZM64.656 110.476H65.288V109.74H64.656V110.476ZM66.372 110.34C66.636 110.668 66.84 110.952 66.98 111.2L66.68 111.412C66.528 111.148 66.32 110.856 66.064 110.532L66.372 110.34ZM67.716 109.384C67.716 110.764 67.696 111.616 67.656 111.936C67.616 112.224 67.424 112.368 67.084 112.368C67.004 112.368 66.86 112.36 66.66 112.348L66.568 112C66.744 112.008 66.896 112.016 67.024 112.016C67.184 112.016 67.276 111.932 67.3 111.764C67.324 111.564 67.336 110.892 67.344 109.752H66.34C66.228 109.992 66.1 110.212 65.948 110.412L65.72 110.112C65.984 109.728 66.168 109.26 66.264 108.708L66.64 108.756C66.6 108.98 66.544 109.188 66.48 109.384H67.716ZM71.448 110.584V112.412H71.076V112.264H68.94V112.416H68.568V110.584H71.448ZM68.94 111.908H69.832V111.592H68.94V111.908ZM70.208 111.908H71.076V111.592H70.208V111.908ZM68.94 111.256H69.832V110.936H68.94V111.256ZM70.208 110.936V111.256H71.076V110.936H70.208ZM69.592 109.32C69.756 109.704 69.884 110.06 69.972 110.38L69.608 110.512C69.576 110.4 69.544 110.292 69.512 110.188C69.208 110.312 68.828 110.428 68.376 110.536L68.24 110.188C68.328 110.124 68.372 110.036 68.372 109.924V109.016C68.896 108.968 69.332 108.856 69.68 108.688L69.868 109.004C69.572 109.156 69.196 109.264 68.74 109.32V110.076C69.008 109.996 69.228 109.924 69.4 109.852C69.348 109.704 69.292 109.56 69.236 109.42L69.592 109.32ZM70.38 109.236H69.992V108.864H71.644C71.628 109.544 71.592 109.972 71.532 110.144C71.46 110.356 71.3 110.464 71.06 110.468C70.972 110.468 70.872 110.46 70.76 110.452L70.648 110.116C70.796 110.128 70.92 110.136 71.02 110.136C71.124 110.132 71.192 110.06 71.22 109.924C71.244 109.832 71.256 109.604 71.264 109.236H70.744C70.704 109.512 70.656 109.736 70.592 109.908C70.504 110.124 70.376 110.32 70.204 110.492L69.98 110.208C70.104 110.068 70.2 109.912 70.264 109.744C70.312 109.608 70.348 109.44 70.38 109.236ZM73.896 109.324C74.08 109.452 74.24 109.576 74.368 109.704L74.14 109.936H75.088V110.24C74.868 110.616 74.372 110.904 73.604 111.096L73.468 110.764C74.02 110.676 74.416 110.512 74.652 110.264H72.924V109.936H74.108C73.992 109.816 73.84 109.688 73.656 109.556L73.896 109.324ZM73.836 108.724H74.164C74.524 109.096 75.064 109.404 75.784 109.652L75.572 109.968C74.916 109.736 74.392 109.432 74 109.052C73.564 109.44 73.044 109.752 72.436 109.992L72.22 109.672C72.884 109.424 73.42 109.108 73.836 108.724ZM74.472 112.344H73.588C73.3 112.344 73.156 112.2 73.156 111.92V111.224H73.54V111.84C73.54 111.948 73.592 112.004 73.7 112.004H74.404C74.504 112.004 74.576 111.98 74.624 111.94C74.688 111.896 74.728 111.764 74.744 111.544L75.096 111.652C75.056 111.988 74.988 112.188 74.892 112.252C74.796 112.312 74.656 112.344 74.472 112.344ZM72.712 110.964L73.08 111.04C72.956 111.5 72.776 111.896 72.54 112.228L72.212 112.024C72.448 111.696 72.616 111.34 72.712 110.964ZM74.204 111.072C74.316 111.236 74.412 111.412 74.492 111.6L74.14 111.756C74.056 111.54 73.964 111.348 73.86 111.18L74.204 111.072ZM75.112 110.876C75.412 111.26 75.64 111.596 75.8 111.88L75.476 112.104C75.316 111.792 75.096 111.444 74.824 111.06L75.112 110.876Z" fill="black"/>
<path d="M13.381 116.588C13.588 116.738 13.765 116.885 13.909 117.035L13.702 117.236C13.576 117.098 13.402 116.948 13.177 116.786L13.381 116.588ZM13.327 117.323C13.519 117.467 13.684 117.608 13.816 117.752L13.612 117.956C13.498 117.818 13.333 117.674 13.123 117.518L13.327 117.323ZM13.594 118.139L13.855 118.241C13.729 118.619 13.591 118.973 13.438 119.306L13.15 119.18C13.321 118.841 13.468 118.493 13.594 118.139ZM13.948 116.705H15.874V116.981H15.655V118.979C15.655 119.192 15.553 119.3 15.352 119.3H14.851L14.791 119.027C14.953 119.039 15.106 119.045 15.253 119.045C15.331 119.045 15.373 118.997 15.373 118.907V116.981H13.948V116.705ZM14.068 117.371H15.052V118.529H14.068V117.371ZM14.788 118.271V117.626H14.332V118.271H14.788ZM16.156 116.792H17.383C17.395 116.702 17.407 116.609 17.416 116.516L17.707 116.555C17.698 116.639 17.689 116.717 17.677 116.792H18.844V117.059H17.632C17.614 117.146 17.596 117.23 17.578 117.311H18.697V118.961C18.697 119.177 18.595 119.288 18.397 119.288H18.112L18.037 119.012L18.304 119.018C18.379 119.018 18.418 118.976 18.418 118.898V117.578H16.588V119.306H16.309V117.311H17.287C17.305 117.227 17.323 117.143 17.338 117.059H16.156V116.792ZM17.2 117.632C17.26 117.734 17.314 117.851 17.365 117.986H17.638C17.698 117.869 17.752 117.746 17.8 117.62L18.058 117.716C18.013 117.812 17.965 117.902 17.911 117.986H18.205V118.235H17.638V118.487H18.286V118.736H17.638V119.261H17.362V118.736H16.717V118.487H17.362V118.235H16.804V117.986H17.092C17.05 117.893 17.002 117.806 16.945 117.725L17.2 117.632ZM19.75 117.692C19.813 117.692 19.867 117.713 19.909 117.761C19.954 117.803 19.978 117.854 19.978 117.92C19.978 117.98 19.954 118.034 19.909 118.079C19.867 118.124 19.813 118.148 19.75 118.148C19.684 118.148 19.633 118.124 19.591 118.079C19.543 118.034 19.522 117.98 19.522 117.92C19.522 117.854 19.543 117.803 19.591 117.761C19.633 117.713 19.684 117.692 19.75 117.692ZM21.373 118.58C21.241 118.898 21.037 119.141 20.761 119.309L20.596 119.093C20.926 118.901 21.136 118.592 21.229 118.163H20.686V117.887H21.271C21.28 117.794 21.286 117.698 21.286 117.602V117.434H20.728V117.167H21.46C21.568 116.975 21.658 116.765 21.733 116.543L22 116.642C21.916 116.846 21.832 117.023 21.745 117.167H22.111V117.434H21.553V117.536C21.553 117.662 21.547 117.779 21.538 117.887H22.156V118.163H21.499C21.487 118.223 21.472 118.283 21.457 118.337C21.667 118.502 21.883 118.688 22.102 118.898L21.943 119.135C21.712 118.889 21.523 118.703 21.373 118.58ZM21.019 116.558C21.151 116.732 21.256 116.885 21.328 117.017L21.115 117.164C21.037 117.023 20.932 116.867 20.8 116.699L21.019 116.558ZM22.273 116.654H23.293V116.864C23.197 117.173 23.092 117.458 22.978 117.722C23.206 118.022 23.323 118.265 23.326 118.454C23.326 118.634 23.284 118.76 23.206 118.826C23.122 118.898 22.954 118.934 22.699 118.934L22.615 118.655C22.717 118.664 22.801 118.67 22.87 118.67C22.948 118.667 22.999 118.652 23.02 118.622C23.041 118.595 23.053 118.538 23.056 118.454C23.053 118.268 22.93 118.022 22.69 117.722C22.792 117.494 22.891 117.224 22.99 116.912H22.546V119.306H22.273V116.654ZM23.887 117.266L24.13 117.332C24.094 117.638 24.022 117.932 23.92 118.217L23.665 118.13C23.773 117.86 23.845 117.572 23.887 117.266ZM25.117 116.651H25.393V117.386L25.576 117.305C25.696 117.527 25.804 117.77 25.894 118.037L25.663 118.154C25.582 117.908 25.492 117.686 25.393 117.488V119.21H25.117V116.651ZM25.945 116.555H26.218V119.312H25.945V116.555ZM24.742 117.332C24.862 117.554 24.97 117.8 25.063 118.07L24.832 118.187C24.748 117.926 24.652 117.695 24.547 117.491V117.503C24.541 118.331 24.352 118.934 23.983 119.315L23.773 119.129C24.103 118.79 24.268 118.247 24.274 117.503V116.579H24.547V117.419L24.742 117.332Z" fill="black"/>
<g clip-path="url(#clip0_919_439)">
<path d="M9.99986 116C9.21203 116 8.57129 116.643 8.57129 117.433C8.57129 117.726 8.65924 118.008 8.82371 118.246C8.83191 118.26 8.84023 118.273 8.85005 118.287L9.89278 119.665C9.9211 119.697 9.95911 119.714 9.99986 119.714C10.0401 119.714 10.0784 119.697 10.1115 119.659L11.1494 118.287C11.1596 118.273 11.1684 118.258 11.1732 118.249C11.3397 118.01 11.4288 117.725 11.4284 117.433C11.4284 116.643 10.7876 116 9.99986 116ZM9.99986 117.945C9.86469 117.945 9.73506 117.891 9.6394 117.795C9.54373 117.699 9.48985 117.569 9.48955 117.433C9.49314 117.3 9.54848 117.173 9.64378 117.079C9.73907 116.986 9.86681 116.934 9.9998 116.934C10.1328 116.934 10.2605 116.986 10.3558 117.079C10.4511 117.173 10.5065 117.3 10.51 117.433C10.5097 117.569 10.4558 117.699 10.3602 117.795C10.2646 117.891 10.135 117.945 9.99986 117.945Z" fill="#1C1E22"/>
</g>
<path d="M145.312 91.898V91.346C145.312 91.098 145.418 90.89 145.63 90.722L146.764 89.798C146.956 89.646 147.052 89.47 147.052 89.27V89.072C147.052 88.784 146.902 88.64 146.602 88.64H146.308C146.156 88.64 146.046 88.674 145.978 88.742C145.91 88.81 145.876 88.92 145.876 89.072V89.294C145.876 89.366 145.842 89.402 145.774 89.402H145.39C145.322 89.402 145.288 89.366 145.288 89.294V89.06C145.288 88.768 145.37 88.542 145.534 88.382C145.698 88.222 145.928 88.142 146.224 88.142H146.692C146.984 88.142 147.212 88.222 147.376 88.382C147.54 88.542 147.622 88.768 147.622 89.06V89.306C147.622 89.618 147.5 89.874 147.256 90.074L146.104 91.016C146.012 91.092 145.966 91.182 145.966 91.286V91.478H147.526C147.598 91.478 147.634 91.512 147.634 91.58V91.898C147.634 91.966 147.598 92 147.526 92H145.42C145.348 92 145.312 91.966 145.312 91.898ZM149.298 91.49H149.724C150.012 91.49 150.156 91.342 150.156 91.046V89.096C150.156 88.8 150.012 88.652 149.724 88.652H149.298C149.01 88.652 148.866 88.8 148.866 89.096V91.046C148.866 91.342 149.01 91.49 149.298 91.49ZM149.808 92H149.208C148.912 92 148.682 91.918 148.518 91.754C148.354 91.59 148.272 91.362 148.272 91.07V89.072C148.272 88.776 148.354 88.548 148.518 88.388C148.682 88.224 148.912 88.142 149.208 88.142H149.808C150.1 88.142 150.328 88.224 150.492 88.388C150.656 88.548 150.738 88.776 150.738 89.072V91.07C150.738 91.362 150.656 91.59 150.492 91.754C150.328 91.918 150.1 92 149.808 92ZM153.08 90.752V88.628L151.898 90.752H153.08ZM153.536 92H153.182C153.114 92 153.08 91.966 153.08 91.898V91.268H151.496C151.38 91.268 151.322 91.21 151.322 91.094V90.908C151.322 90.82 151.34 90.742 151.376 90.674L152.714 88.292C152.746 88.232 152.776 88.192 152.804 88.172C152.832 88.152 152.874 88.142 152.93 88.142H153.458C153.574 88.142 153.632 88.2 153.632 88.316V90.752H154.07C154.138 90.752 154.172 90.786 154.172 90.854V91.154C154.172 91.23 154.138 91.268 154.07 91.268H153.632V91.898C153.632 91.966 153.6 92 153.536 92ZM154.461 89.084V88.73C154.461 88.666 154.489 88.618 154.545 88.586L155.169 88.208C155.245 88.164 155.309 88.142 155.361 88.142H155.721C155.789 88.142 155.823 88.176 155.823 88.244V91.898C155.823 91.966 155.791 92 155.727 92H155.337C155.269 92 155.235 91.966 155.235 91.898V88.766L154.581 89.144C154.501 89.18 154.461 89.16 154.461 89.084ZM157.786 90.326H156.598C156.53 90.326 156.496 90.29 156.496 90.218V89.954C156.496 89.882 156.53 89.846 156.598 89.846H157.786C157.854 89.846 157.888 89.882 157.888 89.954V90.218C157.888 90.29 157.854 90.326 157.786 90.326ZM159.499 91.49H159.925C160.213 91.49 160.357 91.342 160.357 91.046V89.096C160.357 88.8 160.213 88.652 159.925 88.652H159.499C159.211 88.652 159.067 88.8 159.067 89.096V91.046C159.067 91.342 159.211 91.49 159.499 91.49ZM160.009 92H159.409C159.113 92 158.883 91.918 158.719 91.754C158.555 91.59 158.473 91.362 158.473 91.07V89.072C158.473 88.776 158.555 88.548 158.719 88.388C158.883 88.224 159.113 88.142 159.409 88.142H160.009C160.301 88.142 160.529 88.224 160.693 88.388C160.857 88.548 160.939 88.776 160.939 89.072V91.07C160.939 91.362 160.857 91.59 160.693 91.754C160.529 91.918 160.301 92 160.009 92ZM162.657 91.49H163.131C163.279 91.49 163.387 91.456 163.455 91.388C163.527 91.32 163.563 91.212 163.563 91.064V90.74C163.563 90.44 163.419 90.29 163.131 90.29H162.657C162.369 90.29 162.225 90.44 162.225 90.74V91.064C162.225 91.212 162.259 91.32 162.327 91.388C162.399 91.456 162.509 91.49 162.657 91.49ZM162.657 89.822H163.131C163.419 89.822 163.563 89.672 163.563 89.372V89.078C163.563 88.93 163.527 88.822 163.455 88.754C163.387 88.686 163.279 88.652 163.131 88.652H162.657C162.509 88.652 162.399 88.686 162.327 88.754C162.259 88.822 162.225 88.93 162.225 89.078V89.372C162.225 89.672 162.369 89.822 162.657 89.822ZM163.215 92H162.579C162.283 92 162.053 91.924 161.889 91.772C161.725 91.62 161.643 91.398 161.643 91.106V90.782C161.643 90.414 161.781 90.174 162.057 90.062C161.781 89.95 161.643 89.708 161.643 89.336V89.03C161.643 88.742 161.725 88.522 161.889 88.37C162.053 88.218 162.283 88.142 162.579 88.142H163.215C163.511 88.142 163.739 88.218 163.899 88.37C164.063 88.522 164.145 88.742 164.145 89.03V89.336C164.145 89.52 164.107 89.676 164.031 89.804C163.959 89.932 163.861 90.018 163.737 90.062C164.009 90.17 164.145 90.412 164.145 90.788V91.106C164.145 91.398 164.063 91.62 163.899 91.772C163.739 91.924 163.511 92 163.215 92ZM166.024 90.326H164.836C164.768 90.326 164.734 90.29 164.734 90.218V89.954C164.734 89.882 164.768 89.846 164.836 89.846H166.024C166.092 89.846 166.126 89.882 166.126 89.954V90.218C166.126 90.29 166.092 90.326 166.024 90.326ZM166.531 89.084V88.73C166.531 88.666 166.559 88.618 166.615 88.586L167.239 88.208C167.315 88.164 167.379 88.142 167.431 88.142H167.791C167.859 88.142 167.893 88.176 167.893 88.244V91.898C167.893 91.966 167.861 92 167.797 92H167.407C167.339 92 167.305 91.966 167.305 91.898V88.766L166.651 89.144C166.571 89.18 166.531 89.16 166.531 89.084ZM169.7 91.49H170.126C170.414 91.49 170.558 91.342 170.558 91.046V89.096C170.558 88.8 170.414 88.652 170.126 88.652H169.7C169.412 88.652 169.268 88.8 169.268 89.096V91.046C169.268 91.342 169.412 91.49 169.7 91.49ZM170.21 92H169.61C169.314 92 169.084 91.918 168.92 91.754C168.756 91.59 168.674 91.362 168.674 91.07V89.072C168.674 88.776 168.756 88.548 168.92 88.388C169.084 88.224 169.314 88.142 169.61 88.142H170.21C170.502 88.142 170.73 88.224 170.894 88.388C171.058 88.548 171.14 88.776 171.14 89.072V91.07C171.14 91.362 171.058 91.59 170.894 91.754C170.73 91.918 170.502 92 170.21 92Z" fill="#F56E00"/>
<defs>
<clipPath id="clip0_919_439">
<rect width="4" height="4" fill="white" transform="translate(8 116)"/>
</clipPath>
</defs>
</svg>
