<svg width="155" height="190" viewBox="0 0 155 190" fill="none" xmlns="http://www.w3.org/2000/svg">
<rect width="155" height="190" fill="white"/>
<rect width="155" height="190" fill="white"/>
<rect x="28" y="16" width="100" height="100" rx="50" fill="#EBEBEB"/>
<path d="M65.502 177.198H63V176.202H63.498V176.7H65.502V177.198ZM63.498 176.202V175.698H64.002V176.202H63.498ZM64.002 175.698V175.2H64.5V175.698H64.002ZM64.5 175.2V174.702H64.998V175.2H64.5ZM64.998 174.702V173.202H65.502V174.702H64.998ZM63.498 173.202V174.198H63V173.202H63.498ZM64.998 173.202H63.498V172.698H64.998V173.202ZM67.998 177.198H66.498V176.7H67.998V177.198ZM67.998 176.7V174.702H67.5V175.2H67.002V175.698H66.498V176.7H66V173.202H66.498V175.2H67.002V174.702H67.5V174.198H67.998V173.202H68.502V176.7H67.998ZM67.998 173.202H66.498V172.698H67.998V173.202ZM71.502 177.198H69V176.202H69.498V176.7H71.502V177.198ZM69.498 176.202V175.698H70.002V176.202H69.498ZM70.002 175.698V175.2H70.5V175.698H70.002ZM70.5 175.2V174.702H70.998V175.2H70.5ZM70.998 174.702V173.202H71.502V174.702H70.998ZM69.498 173.202V174.198H69V173.202H69.498ZM70.998 173.202H69.498V172.698H70.998V173.202ZM72.498 177.198V176.7H73.5V177.198H72.498ZM73.5 176.7V176.202H73.998V176.7H73.5ZM73.998 176.202V175.698H72.498V175.2H73.998V173.202H74.502V176.202H73.998ZM72.498 175.2H72V173.202H72.498V175.2ZM73.998 173.202H72.498V172.698H73.998V173.202ZM75 175.2V174.702H77.502V175.2H75ZM79.998 177.198H78.498V176.7H79.998V177.198ZM79.998 176.7V174.702H79.5V175.2H79.002V175.698H78.498V176.7H78V173.202H78.498V175.2H79.002V174.702H79.5V174.198H79.998V173.202H80.502V176.7H79.998ZM79.998 173.202H78.498V172.698H79.998V173.202ZM81.498 177.198V176.7H82.5V177.198H81.498ZM82.5 176.7V176.202H82.998V176.7H82.5ZM82.998 176.202V175.698H81.498V175.2H82.998V173.202H83.502V176.202H82.998ZM81.498 175.2H81V173.202H81.498V175.2ZM82.998 173.202H81.498V172.698H82.998V173.202ZM84 175.2V174.702H86.502V175.2H84ZM88.998 177.198H87.498V176.7H88.998V177.198ZM88.998 176.7V174.702H88.5V175.2H88.002V175.698H87.498V176.7H87V173.202H87.498V175.2H88.002V174.702H88.5V174.198H88.998V173.202H89.502V176.7H88.998ZM88.998 173.202H87.498V172.698H88.998V173.202ZM90 176.7V176.202H90.498V176.7H91.998V177.198H90.498V176.7H90ZM90.498 175.2V174.702H91.002V174.198H91.5V174.702H91.998V175.2H92.502V176.7H91.998V175.2H90.498ZM90 173.202V172.698H92.502V173.7H91.998V174.198H91.5V173.7H91.998V173.202H90Z" fill="#F56E00"/>
<path d="M51.616 132.72H52.008V133.924H53.488V134.292H52.008V135.9H53.796V136.268H50.212V135.9H51.616V132.72ZM55.78 136.368H55.192L55.1 135.972C55.292 135.988 55.468 136 55.636 136C55.788 136 55.868 135.92 55.868 135.764V132.78H56.264V135.864C56.264 136.2 56.1 136.368 55.78 136.368ZM54.792 133.708L55.172 133.86C54.988 134.648 54.744 135.252 54.444 135.668L54.112 135.376C54.416 134.96 54.644 134.404 54.792 133.708ZM57.2 133.608C57.488 134.312 57.712 134.924 57.868 135.452L57.524 135.688C57.356 135.132 57.132 134.512 56.852 133.824L57.2 133.608ZM61.732 133.504V134.472H61.352V133.868H58.644V134.472H58.268V133.504H58.988C58.86 133.288 58.728 133.096 58.592 132.928L58.936 132.76C59.072 132.944 59.208 133.152 59.336 133.376L59.08 133.504H60.58C60.744 133.256 60.884 132.988 61.004 132.7L61.396 132.844C61.264 133.104 61.132 133.324 60.996 133.504H61.732ZM58.92 134.12H61.084V134.456C60.832 134.62 60.552 134.776 60.24 134.928V135.068H61.732V135.428H60.24V136.04C60.24 136.276 60.112 136.396 59.86 136.396H59.352L59.26 136.052C59.404 136.056 59.56 136.06 59.732 136.06C59.816 136.06 59.86 136.008 59.86 135.908V135.428H58.28V135.068H59.86V134.764C60.14 134.644 60.368 134.54 60.536 134.456H58.92V134.12ZM59.892 132.68C60.024 132.876 60.152 133.092 60.272 133.328L59.932 133.5C59.812 133.256 59.684 133.04 59.548 132.848L59.892 132.68ZM63.872 134.048C64.26 133.824 64.628 133.572 64.976 133.292H62.416V132.924H65.5V133.292C65.132 133.624 64.716 133.94 64.252 134.24V135.96C64.252 136.24 64.112 136.38 63.836 136.38C63.592 136.38 63.38 136.372 63.2 136.356L63.096 135.988C63.292 136.012 63.504 136.024 63.732 136.024C63.824 136.024 63.872 135.976 63.872 135.888V134.048ZM66.768 135.428C66.872 135.428 66.956 135.468 67.028 135.552C67.092 135.64 67.128 135.748 67.128 135.884C67.128 136.088 67.068 136.264 66.948 136.416C66.828 136.568 66.668 136.672 66.468 136.728V136.48C66.576 136.44 66.668 136.38 66.74 136.292C66.804 136.2 66.84 136.108 66.84 136.012C66.816 136.02 66.784 136.024 66.744 136.024C66.66 136.024 66.592 135.996 66.536 135.94C66.48 135.884 66.452 135.812 66.452 135.728C66.452 135.636 66.48 135.564 66.54 135.508C66.596 135.452 66.672 135.428 66.768 135.428ZM73.316 133.332V132.848H73.668V133.66H71.64V132.848H71.992V133.332H72.472V132.72H72.832V133.332H73.316ZM71.908 134.816V135.188H72.248V134.816H71.908ZM72.248 134.508V134.164H71.908V134.508H72.248ZM71.888 135.496C71.848 135.86 71.748 136.164 71.588 136.408L71.324 136.168C71.5 135.908 71.592 135.572 71.596 135.164V133.856H72.564V136.02C72.564 136.244 72.456 136.36 72.244 136.36H72.016L71.932 136.056C72.008 136.064 72.08 136.068 72.144 136.068C72.212 136.068 72.248 136.012 72.248 135.908V135.496H71.888ZM73.052 134.816V135.188H73.4V134.816H73.052ZM73.4 134.508V134.164H73.052V134.508H73.4ZM73.036 135.496C73.004 135.856 72.92 136.16 72.784 136.404L72.544 136.184C72.672 135.924 72.74 135.592 72.744 135.188V133.856H73.716V136.028C73.716 136.248 73.608 136.36 73.4 136.36H73.164L73.08 136.056C73.16 136.064 73.232 136.068 73.3 136.068C73.364 136.068 73.4 136.016 73.4 135.916V135.496H73.036ZM70.292 132.864H71.432V134.184H71.112V134.748H71.444V135.104H71.112V135.696C71.224 135.656 71.336 135.616 71.44 135.576V135.936C71.092 136.076 70.688 136.208 70.228 136.328L70.124 135.976C70.172 135.964 70.22 135.952 70.268 135.944V134.556H70.588V135.86C70.648 135.84 70.708 135.824 70.764 135.808V134.184H70.292V132.864ZM71.088 133.848V133.2H70.644V133.848H71.088ZM77.316 133.332V132.848H77.668V133.66H75.64V132.848H75.992V133.332H76.472V132.72H76.832V133.332H77.316ZM75.908 134.816V135.188H76.248V134.816H75.908ZM76.248 134.508V134.164H75.908V134.508H76.248ZM75.888 135.496C75.848 135.86 75.748 136.164 75.588 136.408L75.324 136.168C75.5 135.908 75.592 135.572 75.596 135.164V133.856H76.564V136.02C76.564 136.244 76.456 136.36 76.244 136.36H76.016L75.932 136.056C76.008 136.064 76.08 136.068 76.144 136.068C76.212 136.068 76.248 136.012 76.248 135.908V135.496H75.888ZM77.052 134.816V135.188H77.4V134.816H77.052ZM77.4 134.508V134.164H77.052V134.508H77.4ZM77.036 135.496C77.004 135.856 76.92 136.16 76.784 136.404L76.544 136.184C76.672 135.924 76.74 135.592 76.744 135.188V133.856H77.716V136.028C77.716 136.248 77.608 136.36 77.4 136.36H77.164L77.08 136.056C77.16 136.064 77.232 136.068 77.3 136.068C77.364 136.068 77.4 136.016 77.4 135.916V135.496H77.036ZM74.292 132.864H75.432V134.184H75.112V134.748H75.444V135.104H75.112V135.696C75.224 135.656 75.336 135.616 75.44 135.576V135.936C75.092 136.076 74.688 136.208 74.228 136.328L74.124 135.976C74.172 135.964 74.22 135.952 74.268 135.944V134.556H74.588V135.86C74.648 135.84 74.708 135.824 74.764 135.808V134.184H74.292V132.864ZM75.088 133.848V133.2H74.644V133.848H75.088ZM78.316 132.88H79.456V134.168H79.128V134.756H79.48V135C79.728 134.864 79.952 134.696 80.152 134.488V134.124L79.888 134.256C79.772 133.96 79.648 133.696 79.516 133.464L79.82 133.316C79.936 133.548 80.048 133.808 80.152 134.088V132.732H80.512V134.556C80.504 135.412 80.28 136.036 79.844 136.432L79.56 136.18C79.88 135.9 80.068 135.488 80.128 134.944C79.984 135.1 79.832 135.236 79.664 135.352L79.48 135.052V135.084H79.128V135.696C79.252 135.652 79.368 135.608 79.48 135.56V135.904C79.12 136.056 78.712 136.2 78.248 136.336L78.14 135.996L78.292 135.956V134.548H78.6V135.872C78.668 135.848 78.736 135.828 78.8 135.808V134.168H78.316V132.88ZM79.124 133.856V133.192H78.648V133.856H79.124ZM81.5 133.196L81.816 133.348C81.688 133.672 81.536 133.952 81.36 134.192L81.104 134.012V134.344C81.36 134.512 81.6 134.708 81.82 134.936L81.604 135.264C81.436 135.06 81.272 134.884 81.104 134.74V135.892C81.104 135.968 81.136 136.008 81.208 136.008H81.336C81.396 136.008 81.436 135.98 81.46 135.928C81.492 135.868 81.516 135.688 81.524 135.392L81.856 135.496C81.828 135.908 81.78 136.152 81.708 136.232C81.64 136.304 81.54 136.344 81.404 136.344H81.1C80.86 136.344 80.744 136.216 80.744 135.968V132.732H81.104V133.944C81.256 133.728 81.388 133.48 81.5 133.196ZM82.316 132.88H83.456V134.168H83.128V134.756H83.48V135C83.728 134.864 83.952 134.696 84.152 134.488V134.124L83.888 134.256C83.772 133.96 83.648 133.696 83.516 133.464L83.82 133.316C83.936 133.548 84.048 133.808 84.152 134.088V132.732H84.512V134.556C84.504 135.412 84.28 136.036 83.844 136.432L83.56 136.18C83.88 135.9 84.068 135.488 84.128 134.944C83.984 135.1 83.832 135.236 83.664 135.352L83.48 135.052V135.084H83.128V135.696C83.252 135.652 83.368 135.608 83.48 135.56V135.904C83.12 136.056 82.712 136.2 82.248 136.336L82.14 135.996L82.292 135.956V134.548H82.6V135.872C82.668 135.848 82.736 135.828 82.8 135.808V134.168H82.316V132.88ZM83.124 133.856V133.192H82.648V133.856H83.124ZM85.5 133.196L85.816 133.348C85.688 133.672 85.536 133.952 85.36 134.192L85.104 134.012V134.344C85.36 134.512 85.6 134.708 85.82 134.936L85.604 135.264C85.436 135.06 85.272 134.884 85.104 134.74V135.892C85.104 135.968 85.136 136.008 85.208 136.008H85.336C85.396 136.008 85.436 135.98 85.46 135.928C85.492 135.868 85.516 135.688 85.524 135.392L85.856 135.496C85.828 135.908 85.78 136.152 85.708 136.232C85.64 136.304 85.54 136.344 85.404 136.344H85.1C84.86 136.344 84.744 136.216 84.744 135.968V132.732H85.104V133.944C85.256 133.728 85.388 133.48 85.5 133.196ZM87.652 133.38V136.164H87.288V135.956H86.656V136.28H86.292V133.38H86.672C86.744 133.164 86.8 132.944 86.832 132.712L87.212 132.764C87.172 132.984 87.112 133.188 87.036 133.38H87.652ZM86.656 135.604H87.288V134.816H86.656V135.604ZM86.656 134.476H87.288V133.74H86.656V134.476ZM88.372 134.34C88.636 134.668 88.84 134.952 88.98 135.2L88.68 135.412C88.528 135.148 88.32 134.856 88.064 134.532L88.372 134.34ZM89.716 133.384C89.716 134.764 89.696 135.616 89.656 135.936C89.616 136.224 89.424 136.368 89.084 136.368C89.004 136.368 88.86 136.36 88.66 136.348L88.568 136C88.744 136.008 88.896 136.016 89.024 136.016C89.184 136.016 89.276 135.932 89.3 135.764C89.324 135.564 89.336 134.892 89.344 133.752H88.34C88.228 133.992 88.1 134.212 87.948 134.412L87.72 134.112C87.984 133.728 88.168 133.26 88.264 132.708L88.64 132.756C88.6 132.98 88.544 133.188 88.48 133.384H89.716ZM90.548 132.76C90.812 132.968 91.036 133.176 91.22 133.384L90.948 133.656C90.792 133.456 90.572 133.244 90.284 133.012L90.548 132.76ZM92.836 136.344C92.62 136.344 92.384 136.34 92.132 136.336C91.876 136.332 91.668 136.308 91.504 136.268C91.344 136.22 91.208 136.124 91.088 135.988C91.036 135.92 90.988 135.888 90.94 135.888C90.86 135.888 90.716 136.068 90.512 136.428L90.232 136.168C90.432 135.844 90.612 135.64 90.772 135.56V134.428H90.232V134.076H91.128V135.592C91.144 135.608 91.164 135.624 91.184 135.648C91.272 135.756 91.368 135.836 91.468 135.888C91.584 135.944 91.756 135.98 91.988 135.988C92.212 135.992 92.476 135.996 92.784 135.996C92.976 135.996 93.176 135.992 93.38 135.988C93.58 135.984 93.736 135.976 93.844 135.968L93.752 136.344H92.836ZM91.456 133.32H91.896V132.716H92.26V133.32H92.804V132.72H93.172V133.32H93.648V133.676H93.172V134.384H93.776V134.744H93.172V135.832H92.804V134.744H92.168C92.056 135.204 91.856 135.544 91.56 135.768L91.332 135.464C91.556 135.304 91.712 135.064 91.8 134.744H91.316V134.384H91.872C91.888 134.248 91.896 134.108 91.896 133.96V133.676H91.456V133.32ZM92.26 133.676V133.872C92.26 134.056 92.248 134.224 92.232 134.384H92.804V133.676H92.26ZM95.872 134.048C96.26 133.824 96.628 133.572 96.976 133.292H94.416V132.924H97.5V133.292C97.132 133.624 96.716 133.94 96.252 134.24V135.96C96.252 136.24 96.112 136.38 95.836 136.38C95.592 136.38 95.38 136.372 95.2 136.356L95.096 135.988C95.292 136.012 95.504 136.024 95.732 136.024C95.824 136.024 95.872 135.976 95.872 135.888V134.048ZM98.232 133.464H98.744V132.728H99.124V133.464H99.508V133.828H99.124V134.124C99.244 134.26 99.368 134.404 99.496 134.56C99.72 134.304 99.912 134.008 100.072 133.668L100.388 133.824C100.268 134.08 100.132 134.316 99.984 134.528L100.276 134.44C100.324 134.748 100.448 135.024 100.648 135.268C100.804 135.028 100.912 134.74 100.972 134.412L101.332 134.484C101.256 134.9 101.12 135.256 100.928 135.544C101.176 135.752 101.492 135.928 101.872 136.072L101.676 136.412C101.276 136.252 100.948 136.06 100.692 135.836C100.412 136.116 100.06 136.316 99.636 136.436L99.416 136.096C99.832 135.988 100.164 135.808 100.416 135.556C100.176 135.268 100.024 134.936 99.956 134.568C99.884 134.664 99.808 134.756 99.736 134.844L99.652 134.784L99.452 135.072C99.328 134.832 99.22 134.628 99.124 134.468V136.392H98.744V134.512C98.62 134.856 98.468 135.172 98.284 135.46L98.124 135.048C98.404 134.688 98.604 134.284 98.728 133.828H98.232V133.464ZM99.588 133.204H100.516C100.452 133.04 100.38 132.888 100.3 132.748L100.684 132.684C100.756 132.836 100.828 133.012 100.896 133.204H101.764V133.572H99.588V133.204ZM101.176 133.648C101.472 134.008 101.704 134.328 101.864 134.6L101.548 134.816C101.384 134.52 101.16 134.192 100.88 133.832L101.176 133.648ZM105.676 132.872V136.412H105.296V136.268H102.704V136.412H102.324V132.872H105.676ZM102.704 135.932H105.296V133.216H102.704V135.932ZM103.148 133.508H104.856V133.844H103.148V133.508ZM102.92 134.192H105.08V134.528H104.472V135.268C104.472 135.348 104.504 135.388 104.576 135.388H104.684C104.732 135.388 104.768 135.376 104.8 135.352C104.84 135.332 104.864 135.208 104.88 134.98L105.192 135.084C105.156 135.388 105.112 135.564 105.056 135.62C105 135.668 104.9 135.692 104.756 135.696H104.464C104.352 135.696 104.272 135.664 104.216 135.6C104.152 135.532 104.124 135.448 104.124 135.348V134.528H103.82C103.78 134.84 103.704 135.088 103.588 135.264C103.452 135.472 103.24 135.64 102.956 135.76L102.78 135.456C103.012 135.364 103.188 135.232 103.3 135.064C103.388 134.928 103.448 134.752 103.48 134.528H102.92V134.192Z" fill="#1C1E22"/>
<path d="M70.4999 140C69.712 140 69.0713 140.643 69.0713 141.433C69.0713 141.726 69.1592 142.008 69.3237 142.246C69.3319 142.26 69.3402 142.273 69.35 142.287L70.3928 143.665C70.4211 143.697 70.4591 143.714 70.4999 143.714C70.5401 143.714 70.5784 143.697 70.6115 143.659L71.6494 142.287C71.6596 142.273 71.6684 142.258 71.6732 142.249C71.8397 142.01 71.9288 141.725 71.9284 141.433C71.9284 140.643 71.2876 140 70.4999 140ZM70.4999 141.945C70.3647 141.945 70.2351 141.891 70.1394 141.795C70.0437 141.699 69.9898 141.569 69.9895 141.433C69.9931 141.3 70.0485 141.173 70.1438 141.079C70.2391 140.986 70.3668 140.934 70.4998 140.934C70.6328 140.934 70.7605 140.986 70.8558 141.079C70.9511 141.173 71.0065 141.3 71.01 141.433C71.0097 141.569 70.9558 141.699 70.8602 141.795C70.7646 141.891 70.635 141.945 70.4999 141.945Z" fill="#1C1E22"/>
<path d="M73.881 140.588C74.088 140.738 74.265 140.885 74.409 141.035L74.202 141.236C74.076 141.098 73.902 140.948 73.677 140.786L73.881 140.588ZM73.827 141.323C74.019 141.467 74.184 141.608 74.316 141.752L74.112 141.956C73.998 141.818 73.833 141.674 73.623 141.518L73.827 141.323ZM74.094 142.139L74.355 142.241C74.229 142.619 74.091 142.973 73.938 143.306L73.65 143.18C73.821 142.841 73.968 142.493 74.094 142.139ZM74.448 140.705H76.374V140.981H76.155V142.979C76.155 143.192 76.053 143.3 75.852 143.3H75.351L75.291 143.027C75.453 143.039 75.606 143.045 75.753 143.045C75.831 143.045 75.873 142.997 75.873 142.907V140.981H74.448V140.705ZM74.568 141.371H75.552V142.529H74.568V141.371ZM75.288 142.271V141.626H74.832V142.271H75.288ZM76.656 140.792H77.883C77.895 140.702 77.907 140.609 77.916 140.516L78.207 140.555C78.198 140.639 78.189 140.717 78.177 140.792H79.344V141.059H78.132C78.114 141.146 78.096 141.23 78.078 141.311H79.197V142.961C79.197 143.177 79.095 143.288 78.897 143.288H78.612L78.537 143.012L78.804 143.018C78.879 143.018 78.918 142.976 78.918 142.898V141.578H77.088V143.306H76.809V141.311H77.787C77.805 141.227 77.823 141.143 77.838 141.059H76.656V140.792ZM77.7 141.632C77.76 141.734 77.814 141.851 77.865 141.986H78.138C78.198 141.869 78.252 141.746 78.3 141.62L78.558 141.716C78.513 141.812 78.465 141.902 78.411 141.986H78.705V142.235H78.138V142.487H78.786V142.736H78.138V143.261H77.862V142.736H77.217V142.487H77.862V142.235H77.304V141.986H77.592C77.55 141.893 77.502 141.806 77.445 141.725L77.7 141.632ZM80.25 141.692C80.313 141.692 80.367 141.713 80.409 141.761C80.454 141.803 80.478 141.854 80.478 141.92C80.478 141.98 80.454 142.034 80.409 142.079C80.367 142.124 80.313 142.148 80.25 142.148C80.184 142.148 80.133 142.124 80.091 142.079C80.043 142.034 80.022 141.98 80.022 141.92C80.022 141.854 80.043 141.803 80.091 141.761C80.133 141.713 80.184 141.692 80.25 141.692ZM83.52 142.157V143.3H83.247V143.186H82.458V143.3H82.185V142.157H83.52ZM82.458 142.928H83.247V142.415H82.458V142.928ZM82.515 140.513L82.788 140.567C82.764 140.639 82.734 140.708 82.704 140.777H83.553V140.984C83.445 141.215 83.289 141.422 83.082 141.605C83.313 141.743 83.583 141.851 83.892 141.926L83.727 142.166C83.385 142.076 83.097 141.947 82.857 141.782C82.617 141.947 82.329 142.088 81.993 142.208L81.819 141.977C82.14 141.872 82.413 141.749 82.638 141.605C82.53 141.506 82.437 141.398 82.356 141.284C82.26 141.383 82.155 141.473 82.044 141.557L81.873 141.335C82.191 141.11 82.404 140.837 82.515 140.513ZM82.518 141.089C82.611 141.221 82.725 141.341 82.857 141.449C83.013 141.32 83.142 141.179 83.238 141.029H82.56C82.542 141.053 82.53 141.071 82.518 141.089ZM81.39 140.585C81.597 140.735 81.774 140.882 81.918 141.032L81.711 141.236C81.588 141.095 81.414 140.945 81.186 140.783L81.39 140.585ZM81.336 141.32C81.528 141.464 81.693 141.605 81.825 141.749L81.621 141.956C81.507 141.818 81.342 141.674 81.132 141.518L81.336 141.32ZM81.6 142.139L81.858 142.241C81.735 142.619 81.597 142.973 81.447 143.303L81.162 143.177C81.33 142.841 81.477 142.493 81.6 142.139ZM84.234 140.645H85.257V140.864C85.161 141.122 85.05 141.395 84.921 141.683C85.119 141.956 85.224 142.196 85.242 142.4C85.242 142.538 85.209 142.64 85.149 142.7C85.056 142.778 84.894 142.817 84.666 142.82L84.576 142.535C84.636 142.544 84.687 142.55 84.726 142.55C84.819 142.544 84.882 142.532 84.915 142.511C84.945 142.487 84.96 142.451 84.96 142.4C84.96 142.199 84.852 141.974 84.639 141.725C84.78 141.425 84.891 141.152 84.972 140.906H84.507V143.318H84.234V140.645ZM86.772 140.684V143.3H86.496V143.075H85.659V143.294H85.383V140.684H86.772ZM85.659 142.802H86.496V142.007H85.659V142.802ZM85.659 141.743H86.496V140.96H85.659V141.743Z" fill="#1C1E22"/>
</svg>
