<svg width="155" height="190" viewBox="0 0 155 190" fill="none" xmlns="http://www.w3.org/2000/svg">
<rect width="155" height="190" fill="white"/>
<rect width="155" height="95" fill="#EBEBEB"/>
<path d="M65.502 177.198H63V176.202H63.498V176.7H65.502V177.198ZM63.498 176.202V175.698H64.002V176.202H63.498ZM64.002 175.698V175.2H64.5V175.698H64.002ZM64.5 175.2V174.702H64.998V175.2H64.5ZM64.998 174.702V173.202H65.502V174.702H64.998ZM63.498 173.202V174.198H63V173.202H63.498ZM64.998 173.202H63.498V172.698H64.998V173.202ZM67.998 177.198H66.498V176.7H67.998V177.198ZM67.998 176.7V174.702H67.5V175.2H67.002V175.698H66.498V176.7H66V173.202H66.498V175.2H67.002V174.702H67.5V174.198H67.998V173.202H68.502V176.7H67.998ZM67.998 173.202H66.498V172.698H67.998V173.202ZM70.998 176.202V177.198H70.5V176.202H69V174.702H69.498V175.698H70.5V173.7H70.002V174.702H69.498V173.7H70.002V172.698H70.998V175.698H71.502V176.202H70.998ZM73.998 177.198H72.498V176.7H73.998V177.198ZM73.998 176.7V174.702H74.502V176.7H73.998ZM72.498 176.7H72V175.698H72.498V176.7ZM73.998 174.702H72V172.698H74.502V173.202H72.498V174.198H73.998V174.702ZM75 175.2V174.702H77.502V175.2H75ZM79.998 177.198H78.498V176.7H79.998V177.198ZM79.998 176.7V174.702H79.5V175.2H79.002V175.698H78.498V176.7H78V173.202H78.498V175.2H79.002V174.702H79.5V174.198H79.998V173.202H80.502V176.7H79.998ZM79.998 173.202H78.498V172.698H79.998V173.202ZM81 173.202V172.698H83.502V173.7H82.998V174.702H82.5V175.698H82.002V177.198H81.498V175.698H82.002V174.702H82.5V173.7H82.998V173.202H81ZM84 175.2V174.702H86.502V175.2H84ZM87 174.198V173.7H87.498V174.198H87ZM88.5 172.698V177.198H88.002V173.7H87.498V173.202H88.002V172.698H88.5ZM91.998 177.198H90.498V176.7H91.998V177.198ZM91.998 176.7V174.702H91.5V175.2H91.002V175.698H90.498V176.7H90V173.202H90.498V175.2H91.002V174.702H91.5V174.198H91.998V173.202H92.502V176.7H91.998ZM91.998 173.202H90.498V172.698H91.998V173.202Z" fill="#F56E00"/>
<path d="M48.232 112.74H49.764C49.788 112.528 49.804 112.304 49.808 112.072V111.724H50.192V111.984C50.192 112.248 50.176 112.5 50.144 112.74H51.768V113.108H50.24C50.52 113.964 51.06 114.624 51.852 115.092L51.616 115.4C50.848 114.928 50.308 114.268 50.004 113.42C49.74 114.336 49.2 115.008 48.388 115.436L48.144 115.116C48.968 114.716 49.488 114.044 49.7 113.108H48.232V112.74ZM55.732 112.504V113.472H55.352V112.868H52.644V113.472H52.268V112.504H52.988C52.86 112.288 52.728 112.096 52.592 111.928L52.936 111.76C53.072 111.944 53.208 112.152 53.336 112.376L53.08 112.504H54.58C54.744 112.256 54.884 111.988 55.004 111.7L55.396 111.844C55.264 112.104 55.132 112.324 54.996 112.504H55.732ZM52.92 113.12H55.084V113.456C54.832 113.62 54.552 113.776 54.24 113.928V114.068H55.732V114.428H54.24V115.04C54.24 115.276 54.112 115.396 53.86 115.396H53.352L53.26 115.052C53.404 115.056 53.56 115.06 53.732 115.06C53.816 115.06 53.86 115.008 53.86 114.908V114.428H52.28V114.068H53.86V113.764C54.14 113.644 54.368 113.54 54.536 113.456H52.92V113.12ZM53.892 111.68C54.024 111.876 54.152 112.092 54.272 112.328L53.932 112.5C53.812 112.256 53.684 112.04 53.548 111.848L53.892 111.68ZM56.852 112.58V113.24C57.188 113.172 57.52 113.092 57.852 112.996L57.94 113.324C57.484 113.456 57 113.572 56.484 113.672L56.368 113.332C56.444 113.3 56.484 113.248 56.484 113.18V111.752H56.852V112.22H57.864V112.58H56.852ZM59.256 113.572H58.5C58.236 113.572 58.104 113.432 58.104 113.152V111.752H58.476V112.348C58.824 112.244 59.156 112.1 59.476 111.92L59.688 112.216C59.26 112.428 58.856 112.588 58.476 112.696V113.084C58.476 113.172 58.516 113.216 58.6 113.216H59.168C59.224 113.216 59.28 113.2 59.328 113.168C59.38 113.136 59.416 112.996 59.432 112.748L59.764 112.852C59.724 113.204 59.664 113.408 59.592 113.472C59.512 113.536 59.4 113.568 59.256 113.572ZM56.172 114.064H57.804V113.568H58.18V114.064H59.792V114.432H58.18V115.4H57.804V114.432H56.172V114.064ZM61.376 111.752H61.756V114.896H62.236V111.752H62.616V114.896H63.784V115.268H60.216V114.896H61.376V111.752ZM63.364 112.496L63.7 112.592C63.548 113.28 63.352 113.88 63.112 114.396L62.772 114.276C62.996 113.812 63.196 113.216 63.364 112.496ZM60.62 112.488C60.824 113.024 61.004 113.636 61.164 114.324L60.816 114.412C60.68 113.784 60.504 113.176 60.296 112.592L60.62 112.488ZM66.336 112.34H66.928C66.844 112.196 66.74 112.048 66.616 111.888L66.9 111.716C67.052 111.904 67.168 112.068 67.248 112.212L67.064 112.34H67.784V112.688H66.336V112.34ZM66.176 114.896H66.968C67.12 114.364 67.252 113.704 67.364 112.912L67.7 113C67.596 113.712 67.468 114.344 67.316 114.896H67.836V115.26H66.176V114.896ZM66.708 112.968C66.792 113.44 66.864 113.972 66.92 114.572L66.6 114.612C66.532 114.008 66.46 113.472 66.38 113.008L66.708 112.968ZM65.604 115.352H65.348L65.272 115.02C65.348 115.036 65.42 115.044 65.484 115.044C65.584 115.044 65.636 114.996 65.636 114.9V114C65.548 114.032 65.456 114.06 65.368 114.088L65.28 113.732C65.4 113.708 65.52 113.676 65.636 113.636V112.788H65.328V112.436H65.636V111.756H65.988V112.436H66.256V112.788H65.988V113.504C66.084 113.464 66.176 113.416 66.272 113.368V113.728C66.176 113.776 66.084 113.82 65.988 113.86V114.988C65.988 115.228 65.86 115.352 65.604 115.352ZM65.224 112.02V115.024H64.884V114.788H64.62V115.12H64.28V112.02H65.224ZM64.62 114.46H64.884V112.348H64.62V114.46ZM68.768 114.428C68.872 114.428 68.956 114.468 69.028 114.552C69.092 114.64 69.128 114.748 69.128 114.884C69.128 115.088 69.068 115.264 68.948 115.416C68.828 115.568 68.668 115.672 68.468 115.728V115.48C68.576 115.44 68.668 115.38 68.74 115.292C68.804 115.2 68.84 115.108 68.84 115.012C68.816 115.02 68.784 115.024 68.744 115.024C68.66 115.024 68.592 114.996 68.536 114.94C68.48 114.884 68.452 114.812 68.452 114.728C68.452 114.636 68.48 114.564 68.54 114.508C68.596 114.452 68.672 114.428 68.768 114.428ZM72.548 111.76C72.812 111.968 73.036 112.176 73.22 112.384L72.948 112.656C72.792 112.456 72.572 112.244 72.284 112.012L72.548 111.76ZM74.836 115.344C74.62 115.344 74.384 115.34 74.132 115.336C73.876 115.332 73.668 115.308 73.504 115.268C73.344 115.22 73.208 115.124 73.088 114.988C73.036 114.92 72.988 114.888 72.94 114.888C72.86 114.888 72.716 115.068 72.512 115.428L72.232 115.168C72.432 114.844 72.612 114.64 72.772 114.56V113.428H72.232V113.076H73.128V114.592C73.144 114.608 73.164 114.624 73.184 114.648C73.272 114.756 73.368 114.836 73.468 114.888C73.584 114.944 73.756 114.98 73.988 114.988C74.212 114.992 74.476 114.996 74.784 114.996C74.976 114.996 75.176 114.992 75.38 114.988C75.58 114.984 75.736 114.976 75.844 114.968L75.752 115.344H74.836ZM73.456 112.32H73.896V111.716H74.26V112.32H74.804V111.72H75.172V112.32H75.648V112.676H75.172V113.384H75.776V113.744H75.172V114.832H74.804V113.744H74.168C74.056 114.204 73.856 114.544 73.56 114.768L73.332 114.464C73.556 114.304 73.712 114.064 73.8 113.744H73.316V113.384H73.872C73.888 113.248 73.896 113.108 73.896 112.96V112.676H73.456V112.32ZM74.26 112.676V112.872C74.26 113.056 74.248 113.224 74.232 113.384H74.804V112.676H74.26ZM77.78 112.676C77.604 112.352 77.388 112.1 77.136 111.92L77.452 111.72C77.788 111.956 78.084 112.404 78.344 113.068C78.724 114.004 79.216 114.664 79.824 115.056L79.588 115.356C78.96 114.98 78.436 114.26 78.012 113.192C78 113.164 77.992 113.14 77.984 113.116C77.712 114.084 77.172 114.832 76.364 115.36L76.136 115.036C76.968 114.488 77.516 113.7 77.78 112.676ZM82.272 114.656V115.032C81.648 115.16 80.984 115.272 80.272 115.36L80.184 114.996C80.492 114.964 80.796 114.924 81.096 114.88V114.22H80.356V113.856H81.096V113.432H81.48V113.856H82.156V114.22H81.48V114.816C81.748 114.768 82.012 114.712 82.272 114.656ZM80.244 111.864H82.256V112.224H81.252C81.084 112.568 80.928 112.832 80.788 113.02C81.108 112.988 81.42 112.944 81.728 112.892C81.648 112.772 81.568 112.648 81.48 112.524L81.772 112.336C82.036 112.688 82.24 112.992 82.38 113.252L82.064 113.472C82.012 113.376 81.956 113.276 81.9 113.172C81.396 113.264 80.852 113.34 80.264 113.4L80.18 113.06C80.244 113.052 80.296 113.04 80.328 113.024C80.456 112.916 80.628 112.648 80.844 112.224H80.244V111.864ZM83.296 115.376H82.704L82.62 115.008C82.812 115.02 82.992 115.028 83.164 115.028C83.264 115.028 83.316 114.976 83.316 114.872V111.732H83.7V114.968C83.7 115.24 83.564 115.376 83.296 115.376ZM82.536 112.092H82.904V114.544H82.536V112.092ZM86.18 111.728C86.18 112.08 86.168 112.376 86.152 112.624C86.384 113.688 86.96 114.5 87.872 115.06L87.62 115.392C86.852 114.88 86.316 114.192 86.012 113.336C85.748 114.168 85.196 114.856 84.356 115.4L84.124 115.06C85.204 114.404 85.76 113.504 85.792 112.356C85.792 112.088 85.796 111.88 85.796 111.728H86.18ZM89 112.792C88.84 113.152 88.64 113.452 88.396 113.692L88.148 113.376C88.508 112.996 88.752 112.484 88.88 111.84L89.268 111.908C89.228 112.092 89.184 112.264 89.136 112.424H89.88V111.752H90.26V112.424H91.544V112.792H90.26V113.62H91.464V113.988H90.26V114.9H91.8V115.276H88.252V114.9H89.88V113.988H88.736V113.62H89.88V112.792H89ZM93.652 112.38V115.164H93.288V114.956H92.656V115.28H92.292V112.38H92.672C92.744 112.164 92.8 111.944 92.832 111.712L93.212 111.764C93.172 111.984 93.112 112.188 93.036 112.38H93.652ZM92.656 114.604H93.288V113.816H92.656V114.604ZM92.656 113.476H93.288V112.74H92.656V113.476ZM94.372 113.34C94.636 113.668 94.84 113.952 94.98 114.2L94.68 114.412C94.528 114.148 94.32 113.856 94.064 113.532L94.372 113.34ZM95.716 112.384C95.716 113.764 95.696 114.616 95.656 114.936C95.616 115.224 95.424 115.368 95.084 115.368C95.004 115.368 94.86 115.36 94.66 115.348L94.568 115C94.744 115.008 94.896 115.016 95.024 115.016C95.184 115.016 95.276 114.932 95.3 114.764C95.324 114.564 95.336 113.892 95.344 112.752H94.34C94.228 112.992 94.1 113.212 93.948 113.412L93.72 113.112C93.984 112.728 94.168 112.26 94.264 111.708L94.64 111.756C94.6 111.98 94.544 112.188 94.48 112.384H95.716ZM99.572 111.752L99.756 112.088C99.412 112.208 99.032 112.28 98.616 112.308V112.956H99.852V113.32H99.468V115.416H99.096V113.32H98.616V113.724C98.596 114.428 98.44 114.988 98.148 115.408L97.88 115.12C98.108 114.784 98.232 114.32 98.248 113.724V111.996C98.74 111.988 99.18 111.904 99.572 111.752ZM96.232 112.036H96.944C96.896 111.932 96.84 111.832 96.78 111.74L97.172 111.676C97.22 111.784 97.272 111.904 97.32 112.036H98.06V112.388H96.232V112.036ZM96.192 112.944H96.616C96.564 112.804 96.504 112.672 96.436 112.552L96.768 112.428C96.832 112.572 96.896 112.744 96.952 112.944H97.332C97.396 112.776 97.452 112.604 97.5 112.424L97.84 112.544C97.792 112.692 97.736 112.824 97.676 112.944H98.084V113.292H97.344V113.652H98.016V113.996H97.344V115.068C97.344 115.308 97.212 115.428 96.948 115.428H96.74L96.656 115.076C96.716 115.092 96.772 115.1 96.824 115.1C96.92 115.1 96.968 115.06 96.968 114.98V113.996H96.256V113.652H96.968V113.292H96.192V112.944ZM96.496 114.172L96.84 114.244C96.744 114.648 96.612 115 96.436 115.3L96.124 115.1C96.3 114.812 96.424 114.5 96.496 114.172ZM97.748 114.144C97.852 114.4 97.936 114.632 97.996 114.84L97.676 114.96C97.612 114.712 97.532 114.468 97.436 114.228L97.748 114.144ZM102.828 113.14H103.196V115.376H102.828V113.14ZM101.956 113.148H102.328V113.716C102.32 114.492 102.112 115.056 101.708 115.416L101.42 115.164C101.772 114.86 101.948 114.38 101.956 113.716V113.148ZM102.372 111.74H102.724C102.948 112.26 103.328 112.716 103.872 113.112L103.66 113.436C103.164 113.076 102.792 112.632 102.548 112.108C102.276 112.692 101.94 113.14 101.532 113.46L101.32 113.136C101.772 112.78 102.124 112.316 102.372 111.74ZM100.296 111.856H101.56V112.156C101.444 112.5 101.308 112.864 101.148 113.244C101.392 113.612 101.524 113.932 101.544 114.212C101.544 114.396 101.504 114.532 101.424 114.612C101.312 114.712 101.116 114.764 100.836 114.768L100.708 114.384C100.792 114.396 100.86 114.404 100.912 114.404C101.016 114.396 101.088 114.38 101.124 114.352C101.156 114.324 101.176 114.276 101.176 114.212C101.176 113.94 101.04 113.636 100.776 113.3C100.952 112.9 101.088 112.536 101.188 112.216H100.664V115.396H100.296V111.856ZM104.816 113.04V113.448H105.676V113.796H104.816V114.328C105.216 114.288 105.552 114.236 105.816 114.168V114.52C105.584 114.58 105.252 114.636 104.816 114.688V115.388H104.448V114.728L104.216 114.752L104.156 114.372L104.448 114.356V112.028C104.94 111.96 105.344 111.856 105.656 111.72L105.848 112.044C105.536 112.156 105.192 112.248 104.816 112.316V112.688H105.676V113.04H104.816ZM105.876 113.408H107.58V113.74C107.48 114.092 107.316 114.4 107.088 114.656C107.304 114.824 107.568 114.976 107.88 115.104L107.676 115.432C107.34 115.276 107.06 115.1 106.832 114.904C106.564 115.124 106.232 115.3 105.84 115.436L105.628 115.116C105.996 114.988 106.304 114.828 106.556 114.628C106.328 114.364 106.172 114.076 106.092 113.76H105.876V113.408ZM106.44 113.76C106.512 113.992 106.632 114.204 106.804 114.396C106.976 114.204 107.108 113.992 107.2 113.76H106.44ZM106.148 111.852H107.36V112.684C107.36 112.78 107.404 112.828 107.5 112.828H107.816V113.168H107.396C107.124 113.168 106.992 113.032 106.992 112.768V112.204H106.52V112.396C106.52 112.788 106.348 113.092 106.012 113.308L105.76 113.02C106.016 112.884 106.148 112.692 106.148 112.436V111.852Z" fill="#1C1E22"/>
<path d="M70.4999 119C69.712 119 69.0713 119.643 69.0713 120.433C69.0713 120.726 69.1592 121.008 69.3237 121.246C69.3319 121.26 69.3402 121.273 69.35 121.287L70.3928 122.665C70.4211 122.697 70.4591 122.714 70.4999 122.714C70.5401 122.714 70.5784 122.697 70.6115 122.659L71.6494 121.287C71.6596 121.273 71.6684 121.258 71.6732 121.249C71.8397 121.01 71.9288 120.725 71.9284 120.433C71.9284 119.643 71.2876 119 70.4999 119ZM70.4999 120.945C70.3647 120.945 70.2351 120.891 70.1394 120.795C70.0437 120.699 69.9898 120.569 69.9895 120.433C69.9931 120.3 70.0485 120.173 70.1438 120.079C70.2391 119.986 70.3668 119.934 70.4998 119.934C70.6328 119.934 70.7605 119.986 70.8558 120.079C70.9511 120.173 71.0065 120.3 71.01 120.433C71.0097 120.569 70.9558 120.699 70.8602 120.795C70.7646 120.891 70.635 120.945 70.4999 120.945Z" fill="#1C1E22"/>
<path d="M73.881 119.588C74.088 119.738 74.265 119.885 74.409 120.035L74.202 120.236C74.076 120.098 73.902 119.948 73.677 119.786L73.881 119.588ZM73.827 120.323C74.019 120.467 74.184 120.608 74.316 120.752L74.112 120.956C73.998 120.818 73.833 120.674 73.623 120.518L73.827 120.323ZM74.094 121.139L74.355 121.241C74.229 121.619 74.091 121.973 73.938 122.306L73.65 122.18C73.821 121.841 73.968 121.493 74.094 121.139ZM74.448 119.705H76.374V119.981H76.155V121.979C76.155 122.192 76.053 122.3 75.852 122.3H75.351L75.291 122.027C75.453 122.039 75.606 122.045 75.753 122.045C75.831 122.045 75.873 121.997 75.873 121.907V119.981H74.448V119.705ZM74.568 120.371H75.552V121.529H74.568V120.371ZM75.288 121.271V120.626H74.832V121.271H75.288ZM76.656 119.792H77.883C77.895 119.702 77.907 119.609 77.916 119.516L78.207 119.555C78.198 119.639 78.189 119.717 78.177 119.792H79.344V120.059H78.132C78.114 120.146 78.096 120.23 78.078 120.311H79.197V121.961C79.197 122.177 79.095 122.288 78.897 122.288H78.612L78.537 122.012L78.804 122.018C78.879 122.018 78.918 121.976 78.918 121.898V120.578H77.088V122.306H76.809V120.311H77.787C77.805 120.227 77.823 120.143 77.838 120.059H76.656V119.792ZM77.7 120.632C77.76 120.734 77.814 120.851 77.865 120.986H78.138C78.198 120.869 78.252 120.746 78.3 120.62L78.558 120.716C78.513 120.812 78.465 120.902 78.411 120.986H78.705V121.235H78.138V121.487H78.786V121.736H78.138V122.261H77.862V121.736H77.217V121.487H77.862V121.235H77.304V120.986H77.592C77.55 120.893 77.502 120.806 77.445 120.725L77.7 120.632ZM80.25 120.692C80.313 120.692 80.367 120.713 80.409 120.761C80.454 120.803 80.478 120.854 80.478 120.92C80.478 120.98 80.454 121.034 80.409 121.079C80.367 121.124 80.313 121.148 80.25 121.148C80.184 121.148 80.133 121.124 80.091 121.079C80.043 121.034 80.022 120.98 80.022 120.92C80.022 120.854 80.043 120.803 80.091 120.761C80.133 120.713 80.184 120.692 80.25 120.692ZM83.52 121.157V122.3H83.247V122.186H82.458V122.3H82.185V121.157H83.52ZM82.458 121.928H83.247V121.415H82.458V121.928ZM82.515 119.513L82.788 119.567C82.764 119.639 82.734 119.708 82.704 119.777H83.553V119.984C83.445 120.215 83.289 120.422 83.082 120.605C83.313 120.743 83.583 120.851 83.892 120.926L83.727 121.166C83.385 121.076 83.097 120.947 82.857 120.782C82.617 120.947 82.329 121.088 81.993 121.208L81.819 120.977C82.14 120.872 82.413 120.749 82.638 120.605C82.53 120.506 82.437 120.398 82.356 120.284C82.26 120.383 82.155 120.473 82.044 120.557L81.873 120.335C82.191 120.11 82.404 119.837 82.515 119.513ZM82.518 120.089C82.611 120.221 82.725 120.341 82.857 120.449C83.013 120.32 83.142 120.179 83.238 120.029H82.56C82.542 120.053 82.53 120.071 82.518 120.089ZM81.39 119.585C81.597 119.735 81.774 119.882 81.918 120.032L81.711 120.236C81.588 120.095 81.414 119.945 81.186 119.783L81.39 119.585ZM81.336 120.32C81.528 120.464 81.693 120.605 81.825 120.749L81.621 120.956C81.507 120.818 81.342 120.674 81.132 120.518L81.336 120.32ZM81.6 121.139L81.858 121.241C81.735 121.619 81.597 121.973 81.447 122.303L81.162 122.177C81.33 121.841 81.477 121.493 81.6 121.139ZM84.234 119.645H85.257V119.864C85.161 120.122 85.05 120.395 84.921 120.683C85.119 120.956 85.224 121.196 85.242 121.4C85.242 121.538 85.209 121.64 85.149 121.7C85.056 121.778 84.894 121.817 84.666 121.82L84.576 121.535C84.636 121.544 84.687 121.55 84.726 121.55C84.819 121.544 84.882 121.532 84.915 121.511C84.945 121.487 84.96 121.451 84.96 121.4C84.96 121.199 84.852 120.974 84.639 120.725C84.78 120.425 84.891 120.152 84.972 119.906H84.507V122.318H84.234V119.645ZM86.772 119.684V122.3H86.496V122.075H85.659V122.294H85.383V119.684H86.772ZM85.659 121.802H86.496V121.007H85.659V121.802ZM85.659 120.743H86.496V119.96H85.659V120.743Z" fill="#1C1E22"/>
</svg>
