<svg width="24" height="24" viewBox="0 0 24 24" fill="none" xmlns="http://www.w3.org/2000/svg">
<path d="M12.2715 0.00393543C14.8065 0.096658 17.2106 1.1543 18.9912 2.96097C20.7718 4.76764 21.7946 7.18665 21.8506 9.72269C21.882 11.9868 21.0482 13.7573 19.792 15.7188L19.752 15.7735L14.1445 22.9629C13.8891 23.2861 13.5632 23.547 13.1924 23.7266C12.8216 23.9061 12.4149 24 12.0029 24C11.5909 24 11.1843 23.9061 10.8135 23.7266C10.4426 23.547 10.1168 23.2862 9.86133 22.9629L4.2168 15.7276C2.83777 13.6319 2.13776 11.6563 2.1377 9.86038C2.13757 8.5425 2.40137 7.23754 2.91406 6.02347C3.42676 4.80942 4.17835 3.7109 5.12305 2.79202C6.06764 1.87326 7.18644 1.15271 8.41406 0.673857C9.64187 0.194994 10.9541 -0.0327043 12.2715 0.00393543ZM11.9951 5.34573C11.1023 5.34573 10.2287 5.61045 9.48633 6.10647C8.74405 6.60249 8.16586 7.30804 7.82422 8.13284C7.4826 8.95766 7.39321 9.86563 7.56738 10.7412C7.74161 11.6167 8.17159 12.4206 8.80273 13.0518C9.43405 13.6831 10.2386 14.113 11.1143 14.2871C11.9898 14.4612 12.897 14.3719 13.7217 14.0303C14.5465 13.6886 15.252 13.1105 15.748 12.3682C16.244 11.6259 16.5087 10.7531 16.5088 9.86038C16.5073 8.66361 16.0308 7.5162 15.1846 6.66995C14.3384 5.82389 13.1917 5.34737 11.9951 5.34573ZM11.9951 7.25003C12.6868 7.25091 13.3497 7.52659 13.8389 8.01565C14.3281 8.50491 14.6037 9.16847 14.6045 9.86038C14.6044 10.3764 14.4508 10.8805 14.1641 11.3096C13.8773 11.7388 13.47 12.074 12.9932 12.2715C12.5164 12.4689 11.9915 12.5206 11.4854 12.42C10.9792 12.3192 10.5144 12.0701 10.1494 11.7051C9.78451 11.3402 9.53623 10.8753 9.43555 10.3692C9.33485 9.86294 9.38646 9.33822 9.58398 8.86136C9.78152 8.38458 10.1158 7.97718 10.5449 7.69046C10.9741 7.4037 11.479 7.25003 11.9951 7.25003Z" fill="#005EFF"/>
</svg>
