<svg width="176" height="130" viewBox="0 0 176 130" fill="none" xmlns="http://www.w3.org/2000/svg">
<rect width="176" height="130" fill="white"/>
<rect x="32" y="32" width="112" height="66" fill="#EBEBEB"/>
<path d="M110.416 24.864V24.128C110.416 23.7973 110.557 23.52 110.84 23.296L112.352 22.064C112.608 21.8613 112.736 21.6267 112.736 21.36V21.096C112.736 20.712 112.536 20.52 112.136 20.52H111.744C111.541 20.52 111.395 20.5653 111.304 20.656C111.213 20.7467 111.168 20.8933 111.168 21.096V21.392C111.168 21.488 111.123 21.536 111.032 21.536H110.52C110.429 21.536 110.384 21.488 110.384 21.392V21.08C110.384 20.6907 110.493 20.3893 110.712 20.176C110.931 19.9627 111.237 19.856 111.632 19.856H112.256C112.645 19.856 112.949 19.9627 113.168 20.176C113.387 20.3893 113.496 20.6907 113.496 21.08V21.408C113.496 21.824 113.333 22.1653 113.008 22.432L111.472 23.688C111.349 23.7893 111.288 23.9093 111.288 24.048V24.304H113.368C113.464 24.304 113.512 24.3493 113.512 24.44V24.864C113.512 24.9547 113.464 25 113.368 25H110.56C110.464 25 110.416 24.9547 110.416 24.864ZM115.73 24.32H116.298C116.682 24.32 116.874 24.1227 116.874 23.728V21.128C116.874 20.7333 116.682 20.536 116.298 20.536H115.73C115.346 20.536 115.154 20.7333 115.154 21.128V23.728C115.154 24.1227 115.346 24.32 115.73 24.32ZM116.41 25H115.61C115.216 25 114.909 24.8907 114.69 24.672C114.472 24.4533 114.362 24.1493 114.362 23.76V21.096C114.362 20.7013 114.472 20.3973 114.69 20.184C114.909 19.9653 115.216 19.856 115.61 19.856H116.41C116.8 19.856 117.104 19.9653 117.322 20.184C117.541 20.3973 117.65 20.7013 117.65 21.096V23.76C117.65 24.1493 117.541 24.4533 117.322 24.672C117.104 24.8907 116.8 25 116.41 25ZM120.333 22.28H119.837C119.736 22.28 119.65 22.2987 119.581 22.336C119.517 22.3733 119.474 22.4133 119.453 22.456C119.394 22.5787 119.322 22.64 119.237 22.64H118.733C118.642 22.64 118.597 22.5947 118.597 22.504V19.992C118.597 19.9013 118.642 19.856 118.733 19.856H121.445C121.541 19.856 121.589 19.9013 121.589 19.992V20.448C121.589 20.5387 121.541 20.584 121.445 20.584H119.381V22.04C119.472 21.7787 119.696 21.648 120.053 21.648H120.525C120.909 21.648 121.202 21.7493 121.405 21.952C121.608 22.1493 121.709 22.4427 121.709 22.832V23.76C121.709 24.1493 121.6 24.4533 121.381 24.672C121.162 24.8907 120.858 25 120.469 25H119.789C119.394 25 119.088 24.8907 118.869 24.672C118.656 24.4533 118.549 24.1493 118.549 23.76V23.552C118.549 23.456 118.594 23.408 118.685 23.408H119.189C119.28 23.408 119.325 23.456 119.325 23.552V23.752C119.325 24.1413 119.517 24.336 119.901 24.336H120.357C120.752 24.336 120.949 24.1413 120.949 23.752V22.944C120.949 22.704 120.901 22.5333 120.805 22.432C120.714 22.3307 120.557 22.28 120.333 22.28ZM122.326 21.112V20.64C122.326 20.5547 122.363 20.4907 122.438 20.448L123.27 19.944C123.371 19.8853 123.456 19.856 123.526 19.856H124.006C124.096 19.856 124.142 19.9013 124.142 19.992V24.864C124.142 24.9547 124.099 25 124.014 25H123.494C123.403 25 123.358 24.9547 123.358 24.864V20.688L122.486 21.192C122.379 21.24 122.326 21.2133 122.326 21.112ZM126.759 22.768H125.175C125.084 22.768 125.039 22.72 125.039 22.624V22.272C125.039 22.176 125.084 22.128 125.175 22.128H126.759C126.849 22.128 126.895 22.176 126.895 22.272V22.624C126.895 22.72 126.849 22.768 126.759 22.768ZM127.435 21.112V20.64C127.435 20.5547 127.472 20.4907 127.547 20.448L128.379 19.944C128.48 19.8853 128.566 19.856 128.635 19.856H129.115C129.206 19.856 129.251 19.9013 129.251 19.992V24.864C129.251 24.9547 129.208 25 129.123 25H128.603C128.512 25 128.467 24.9547 128.467 24.864V20.688L127.595 21.192C127.488 21.24 127.435 21.2133 127.435 21.112ZM131.66 24.32H132.228C132.612 24.32 132.804 24.1227 132.804 23.728V21.128C132.804 20.7333 132.612 20.536 132.228 20.536H131.66C131.276 20.536 131.084 20.7333 131.084 21.128V23.728C131.084 24.1227 131.276 24.32 131.66 24.32ZM132.34 25H131.54C131.145 25 130.839 24.8907 130.62 24.672C130.401 24.4533 130.292 24.1493 130.292 23.76V21.096C130.292 20.7013 130.401 20.3973 130.62 20.184C130.839 19.9653 131.145 19.856 131.54 19.856H132.34C132.729 19.856 133.033 19.9653 133.252 20.184C133.471 20.3973 133.58 20.7013 133.58 21.096V23.76C133.58 24.1493 133.471 24.4533 133.252 24.672C133.033 24.8907 132.729 25 132.34 25ZM136.095 22.768H134.511C134.42 22.768 134.375 22.72 134.375 22.624V22.272C134.375 22.176 134.42 22.128 134.511 22.128H136.095C136.185 22.128 136.231 22.176 136.231 22.272V22.624C136.231 22.72 136.185 22.768 136.095 22.768ZM138.379 24.32H138.947C139.331 24.32 139.523 24.1227 139.523 23.728V21.128C139.523 20.7333 139.331 20.536 138.947 20.536H138.379C137.995 20.536 137.803 20.7333 137.803 21.128V23.728C137.803 24.1227 137.995 24.32 138.379 24.32ZM139.059 25H138.259C137.864 25 137.558 24.8907 137.339 24.672C137.12 24.4533 137.011 24.1493 137.011 23.76V21.096C137.011 20.7013 137.12 20.3973 137.339 20.184C137.558 19.9653 137.864 19.856 138.259 19.856H139.059C139.448 19.856 139.752 19.9653 139.971 20.184C140.19 20.3973 140.299 20.7013 140.299 21.096V23.76C140.299 24.1493 140.19 24.4533 139.971 24.672C139.752 24.8907 139.448 25 139.059 25ZM140.997 21.112V20.64C140.997 20.5547 141.035 20.4907 141.109 20.448L141.941 19.944C142.043 19.8853 142.128 19.856 142.197 19.856H142.677C142.768 19.856 142.813 19.9013 142.813 19.992V24.864C142.813 24.9547 142.771 25 142.685 25H142.165C142.075 25 142.029 24.9547 142.029 24.864V20.688L141.157 21.192C141.051 21.24 140.997 21.2133 140.997 21.112Z" fill="#F56E00"/>
<path d="M32.648 109.556V109.916C32.24 110.06 31.78 110.18 31.26 110.272L31.212 109.904C31.76 109.816 32.24 109.7 32.648 109.556ZM31.848 106.7L32.204 106.836C32.012 107.32 31.82 107.712 31.62 108.016C31.772 108 31.928 107.98 32.088 107.956C32.16 107.82 32.232 107.68 32.312 107.532L32.644 107.652C32.304 108.276 32.02 108.736 31.788 109.024C32.056 108.968 32.328 108.892 32.6 108.796V109.136C32.152 109.288 31.732 109.388 31.332 109.44L31.232 109.1C31.3 109.072 31.356 109.036 31.404 108.992C31.532 108.856 31.696 108.628 31.892 108.3C31.692 108.328 31.48 108.356 31.264 108.388L31.172 108.04C31.228 108.016 31.28 107.968 31.328 107.9C31.528 107.54 31.704 107.14 31.848 106.7ZM32.588 107.184H33.512V106.732H33.892V107.184H34.812V107.552H33.892V108.056H34.696V108.424H32.72V108.056H33.512V107.552H32.588V107.184ZM34.612 108.736V110.4H34.244V110.24H33.188V110.4H32.816V108.736H34.612ZM33.188 109.88H34.244V109.096H33.188V109.88ZM37.056 107.816V108.224C37.224 108.188 37.384 108.152 37.544 108.112L37.6 108.428C37.332 108.492 37.016 108.556 36.648 108.62L36.556 108.308C36.644 108.276 36.692 108.224 36.692 108.144V106.94C37.292 106.908 37.86 106.832 38.4 106.712L38.58 107.012C38.384 107.056 38.184 107.096 37.976 107.128C37.976 107.264 37.984 107.384 38 107.484H38.66V107.816H38.08C38.124 107.952 38.176 108.052 38.236 108.124C38.308 108.208 38.376 108.252 38.436 108.252C38.484 108.252 38.54 108.144 38.6 107.928L38.876 108.092C38.768 108.428 38.632 108.6 38.472 108.6C38.336 108.6 38.204 108.544 38.084 108.44C37.956 108.328 37.852 108.16 37.772 107.936C37.756 107.896 37.744 107.856 37.736 107.816H37.056ZM37.652 107.172C37.456 107.192 37.256 107.212 37.056 107.228V107.484H37.676C37.664 107.384 37.656 107.28 37.652 107.172ZM38.528 108.692V110.408H38.16V110.244H37.092V110.408H36.732V108.692H38.528ZM37.092 109.916H38.16V109.628H37.092V109.916ZM37.092 109.312H38.16V109.012H37.092V109.312ZM35.62 106.708L35.992 106.744C35.96 106.996 35.924 107.232 35.892 107.452H36.472V107.664C36.448 108.304 36.34 108.86 36.156 109.328C36.324 109.5 36.46 109.656 36.572 109.796L36.32 110.088C36.224 109.964 36.116 109.828 35.988 109.684C35.828 109.972 35.636 110.22 35.412 110.428L35.172 110.128C35.4 109.928 35.588 109.688 35.732 109.408C35.58 109.252 35.416 109.088 35.236 108.916C35.324 108.576 35.4 108.208 35.468 107.816H35.176V107.452H35.524C35.56 107.212 35.592 106.964 35.62 106.708ZM35.884 109.06C36.016 108.692 36.096 108.28 36.12 107.816H35.836C35.764 108.212 35.688 108.544 35.612 108.808C35.708 108.896 35.796 108.98 35.884 109.06ZM40.872 108.048C41.26 107.824 41.628 107.572 41.976 107.292H39.416V106.924H42.5V107.292C42.132 107.624 41.716 107.94 41.252 108.24V109.96C41.252 110.24 41.112 110.38 40.836 110.38C40.592 110.38 40.38 110.372 40.2 110.356L40.096 109.988C40.292 110.012 40.504 110.024 40.732 110.024C40.824 110.024 40.872 109.976 40.872 109.888V108.048ZM43.768 109.428C43.872 109.428 43.956 109.468 44.028 109.552C44.092 109.64 44.128 109.748 44.128 109.884C44.128 110.088 44.068 110.264 43.948 110.416C43.828 110.568 43.668 110.672 43.468 110.728V110.48C43.576 110.44 43.668 110.38 43.74 110.292C43.804 110.2 43.84 110.108 43.84 110.012C43.816 110.02 43.784 110.024 43.744 110.024C43.66 110.024 43.592 109.996 43.536 109.94C43.48 109.884 43.452 109.812 43.452 109.728C43.452 109.636 43.48 109.564 43.54 109.508C43.596 109.452 43.672 109.428 43.768 109.428ZM48.448 108.212V108.564H49.944V108.212H48.448ZM49.944 108.896H48.448V109.24H49.944V108.896ZM49.944 109.568H48.448V110.404H48.092V108.408C47.884 108.652 47.656 108.876 47.4 109.084L47.156 108.764C47.62 108.396 47.988 107.972 48.252 107.5H47.264V107.132H48.436C48.496 106.988 48.548 106.84 48.596 106.696L48.984 106.74C48.944 106.876 48.9 107.008 48.852 107.132H50.784V107.5H48.688C48.624 107.632 48.552 107.76 48.476 107.884H50.3V110.048C50.3 110.268 50.172 110.38 49.916 110.388H49.468L49.376 110.044C49.524 110.056 49.664 110.064 49.796 110.064C49.892 110.064 49.944 110.02 49.944 109.932V109.568ZM52.872 108.048C53.26 107.824 53.628 107.572 53.976 107.292H51.416V106.924H54.5V107.292C54.132 107.624 53.716 107.94 53.252 108.24V109.96C53.252 110.24 53.112 110.38 52.836 110.38C52.592 110.38 52.38 110.372 52.2 110.356L52.096 109.988C52.292 110.012 52.504 110.024 52.732 110.024C52.824 110.024 52.872 109.976 52.872 109.888V108.048ZM58.376 107.168V110.408H57.992V110.184H56.008V110.408H55.624V107.168H56.488C56.568 107.02 56.632 106.868 56.672 106.708L57.06 106.764C57.02 106.908 56.96 107.04 56.888 107.168H58.376ZM56.008 109.824H57.992V109.264H56.008V109.824ZM56.008 108.912H57.992V108.388H56.008V108.912ZM56.008 108.036H57.992V107.532H56.008V108.036ZM62.816 109.248C62.768 109.676 62.704 109.956 62.62 110.092C62.54 110.216 62.36 110.28 62.088 110.28H59.996C59.656 110.28 59.488 110.124 59.488 109.812V108.22H61.992V107.272H59.44V106.908H62.372V108.584H59.872V109.664C59.872 109.824 59.972 109.908 60.164 109.916H62.028C62.2 109.916 62.308 109.86 62.356 109.748C62.396 109.64 62.428 109.432 62.444 109.124L62.816 109.248ZM64.652 107.38V110.164H64.288V109.956H63.656V110.28H63.292V107.38H63.672C63.744 107.164 63.8 106.944 63.832 106.712L64.212 106.764C64.172 106.984 64.112 107.188 64.036 107.38H64.652ZM63.656 109.604H64.288V108.816H63.656V109.604ZM63.656 108.476H64.288V107.74H63.656V108.476ZM65.372 108.34C65.636 108.668 65.84 108.952 65.98 109.2L65.68 109.412C65.528 109.148 65.32 108.856 65.064 108.532L65.372 108.34ZM66.716 107.384C66.716 108.764 66.696 109.616 66.656 109.936C66.616 110.224 66.424 110.368 66.084 110.368C66.004 110.368 65.86 110.36 65.66 110.348L65.568 110C65.744 110.008 65.896 110.016 66.024 110.016C66.184 110.016 66.276 109.932 66.3 109.764C66.324 109.564 66.336 108.892 66.344 107.752H65.34C65.228 107.992 65.1 108.212 64.948 108.412L64.72 108.112C64.984 107.728 65.168 107.26 65.264 106.708L65.64 106.756C65.6 106.98 65.544 107.188 65.48 107.384H66.716ZM68.78 110.368H68.192L68.1 109.972C68.292 109.988 68.468 110 68.636 110C68.788 110 68.868 109.92 68.868 109.764V106.78H69.264V109.864C69.264 110.2 69.1 110.368 68.78 110.368ZM67.792 107.708L68.172 107.86C67.988 108.648 67.744 109.252 67.444 109.668L67.112 109.376C67.416 108.96 67.644 108.404 67.792 107.708ZM70.2 107.608C70.488 108.312 70.712 108.924 70.868 109.452L70.524 109.688C70.356 109.132 70.132 108.512 69.852 107.824L70.2 107.608ZM73.612 108.884C73.552 108.9 73.492 108.912 73.436 108.928C73.496 109.112 73.528 109.312 73.532 109.528C73.532 109.848 73.484 110.072 73.396 110.192C73.292 110.336 73.06 110.408 72.696 110.408H72.568L72.44 110.072H72.644C72.868 110.072 73.008 110.04 73.064 109.98C73.128 109.9 73.164 109.752 73.164 109.528C73.164 109.488 73.16 109.448 73.16 109.412C72.728 109.736 72.16 110.004 71.464 110.22L71.272 109.896C72.052 109.676 72.66 109.392 73.096 109.048C73.072 108.968 73.04 108.888 73.008 108.816C72.632 109.096 72.132 109.324 71.512 109.504L71.324 109.176C71.976 109.008 72.484 108.796 72.848 108.536C72.808 108.484 72.772 108.436 72.732 108.388C72.716 108.396 72.704 108.4 72.692 108.408C72.432 108.532 72.064 108.664 71.592 108.804L71.4 108.488C71.768 108.412 72.112 108.308 72.432 108.176C72.528 108.136 72.62 108.096 72.708 108.052H71.812V107.7H74.188V108.052H73.3C73.204 108.116 73.112 108.176 73.024 108.232C73.14 108.36 73.236 108.496 73.316 108.64C73.668 108.536 74.004 108.384 74.324 108.18L74.58 108.436C74.372 108.568 74.152 108.68 73.916 108.776C74.1 109.244 74.4 109.62 74.808 109.908L74.536 110.224C74.112 109.868 73.804 109.42 73.612 108.884ZM73.092 106.692C73.136 106.796 73.176 106.912 73.216 107.04H74.716V107.784H74.336V107.392H71.664V107.784H71.284V107.04H72.832C72.792 106.936 72.748 106.844 72.704 106.76L73.092 106.692Z" fill="black"/>
<path d="M36.381 114.588C36.588 114.738 36.765 114.885 36.909 115.035L36.702 115.236C36.576 115.098 36.402 114.948 36.177 114.786L36.381 114.588ZM36.327 115.323C36.519 115.467 36.684 115.608 36.816 115.752L36.612 115.956C36.498 115.818 36.333 115.674 36.123 115.518L36.327 115.323ZM36.594 116.139L36.855 116.241C36.729 116.619 36.591 116.973 36.438 117.306L36.15 117.18C36.321 116.841 36.468 116.493 36.594 116.139ZM36.948 114.705H38.874V114.981H38.655V116.979C38.655 117.192 38.553 117.3 38.352 117.3H37.851L37.791 117.027C37.953 117.039 38.106 117.045 38.253 117.045C38.331 117.045 38.373 116.997 38.373 116.907V114.981H36.948V114.705ZM37.068 115.371H38.052V116.529H37.068V115.371ZM37.788 116.271V115.626H37.332V116.271H37.788ZM39.156 114.792H40.383C40.395 114.702 40.407 114.609 40.416 114.516L40.707 114.555C40.698 114.639 40.689 114.717 40.677 114.792H41.844V115.059H40.632C40.614 115.146 40.596 115.23 40.578 115.311H41.697V116.961C41.697 117.177 41.595 117.288 41.397 117.288H41.112L41.037 117.012L41.304 117.018C41.379 117.018 41.418 116.976 41.418 116.898V115.578H39.588V117.306H39.309V115.311H40.287C40.305 115.227 40.323 115.143 40.338 115.059H39.156V114.792ZM40.2 115.632C40.26 115.734 40.314 115.851 40.365 115.986H40.638C40.698 115.869 40.752 115.746 40.8 115.62L41.058 115.716C41.013 115.812 40.965 115.902 40.911 115.986H41.205V116.235H40.638V116.487H41.286V116.736H40.638V117.261H40.362V116.736H39.717V116.487H40.362V116.235H39.804V115.986H40.092C40.05 115.893 40.002 115.806 39.945 115.725L40.2 115.632ZM42.75 115.692C42.813 115.692 42.867 115.713 42.909 115.761C42.954 115.803 42.978 115.854 42.978 115.92C42.978 115.98 42.954 116.034 42.909 116.079C42.867 116.124 42.813 116.148 42.75 116.148C42.684 116.148 42.633 116.124 42.591 116.079C42.543 116.034 42.522 115.98 42.522 115.92C42.522 115.854 42.543 115.803 42.591 115.761C42.633 115.713 42.684 115.692 42.75 115.692ZM44.373 116.58C44.241 116.898 44.037 117.141 43.761 117.309L43.596 117.093C43.926 116.901 44.136 116.592 44.229 116.163H43.686V115.887H44.271C44.28 115.794 44.286 115.698 44.286 115.602V115.434H43.728V115.167H44.46C44.568 114.975 44.658 114.765 44.733 114.543L45 114.642C44.916 114.846 44.832 115.023 44.745 115.167H45.111V115.434H44.553V115.536C44.553 115.662 44.547 115.779 44.538 115.887H45.156V116.163H44.499C44.487 116.223 44.472 116.283 44.457 116.337C44.667 116.502 44.883 116.688 45.102 116.898L44.943 117.135C44.712 116.889 44.523 116.703 44.373 116.58ZM44.019 114.558C44.151 114.732 44.256 114.885 44.328 115.017L44.115 115.164C44.037 115.023 43.932 114.867 43.8 114.699L44.019 114.558ZM45.273 114.654H46.293V114.864C46.197 115.173 46.092 115.458 45.978 115.722C46.206 116.022 46.323 116.265 46.326 116.454C46.326 116.634 46.284 116.76 46.206 116.826C46.122 116.898 45.954 116.934 45.699 116.934L45.615 116.655C45.717 116.664 45.801 116.67 45.87 116.67C45.948 116.667 45.999 116.652 46.02 116.622C46.041 116.595 46.053 116.538 46.056 116.454C46.053 116.268 45.93 116.022 45.69 115.722C45.792 115.494 45.891 115.224 45.99 114.912H45.546V117.306H45.273V114.654ZM46.887 115.266L47.13 115.332C47.094 115.638 47.022 115.932 46.92 116.217L46.665 116.13C46.773 115.86 46.845 115.572 46.887 115.266ZM48.117 114.651H48.393V115.386L48.576 115.305C48.696 115.527 48.804 115.77 48.894 116.037L48.663 116.154C48.582 115.908 48.492 115.686 48.393 115.488V117.21H48.117V114.651ZM48.945 114.555H49.218V117.312H48.945V114.555ZM47.742 115.332C47.862 115.554 47.97 115.8 48.063 116.07L47.832 116.187C47.748 115.926 47.652 115.695 47.547 115.491V115.503C47.541 116.331 47.352 116.934 46.983 117.315L46.773 117.129C47.103 116.79 47.268 116.247 47.274 115.503V114.579H47.547V115.419L47.742 115.332Z" fill="black"/>
<g clip-path="url(#clip0_1019_414)">
<path d="M32.9999 114C32.212 114 31.5713 114.643 31.5713 115.433C31.5713 115.726 31.6592 116.008 31.8237 116.246C31.8319 116.26 31.8402 116.273 31.85 116.287L32.8928 117.665C32.9211 117.697 32.9591 117.714 32.9999 117.714C33.0401 117.714 33.0784 117.697 33.1115 117.659L34.1494 116.287C34.1596 116.273 34.1684 116.258 34.1732 116.249C34.3397 116.01 34.4288 115.725 34.4284 115.433C34.4284 114.643 33.7876 114 32.9999 114ZM32.9999 115.945C32.8647 115.945 32.7351 115.891 32.6394 115.795C32.5437 115.699 32.4898 115.569 32.4895 115.433C32.4931 115.3 32.5485 115.173 32.6438 115.079C32.7391 114.986 32.8668 114.934 32.9998 114.934C33.1328 114.934 33.2605 114.986 33.3558 115.079C33.4511 115.173 33.5065 115.3 33.51 115.433C33.5097 115.569 33.4558 115.699 33.3602 115.795C33.2646 115.891 33.135 115.945 32.9999 115.945Z" fill="#1C1E22"/>
</g>
<defs>
<clipPath id="clip0_1019_414">
<rect width="4" height="4" fill="white" transform="translate(31 114)"/>
</clipPath>
</defs>
</svg>
