<svg width="155" height="190" viewBox="0 0 155 190" fill="none" xmlns="http://www.w3.org/2000/svg">
<rect width="155" height="190" fill="white"/>
<rect x="16" y="16" width="123" height="100" fill="#EBEBEB"/>
<path d="M65.502 177.198H63V176.202H63.498V176.7H65.502V177.198ZM63.498 176.202V175.698H64.002V176.202H63.498ZM64.002 175.698V175.2H64.5V175.698H64.002ZM64.5 175.2V174.702H64.998V175.2H64.5ZM64.998 174.702V173.202H65.502V174.702H64.998ZM63.498 173.202V174.198H63V173.202H63.498ZM64.998 173.202H63.498V172.698H64.998V173.202ZM67.998 177.198H66.498V176.7H67.998V177.198ZM67.998 176.7V174.702H67.5V175.2H67.002V175.698H66.498V176.7H66V173.202H66.498V175.2H67.002V174.702H67.5V174.198H67.998V173.202H68.502V176.7H67.998ZM67.998 173.202H66.498V172.698H67.998V173.202ZM70.998 176.202V177.198H70.5V176.202H69V174.702H69.498V175.698H70.5V173.7H70.002V174.702H69.498V173.7H70.002V172.698H70.998V175.698H71.502V176.202H70.998ZM73.998 177.198H72.498V176.7H73.998V177.198ZM73.998 176.7V174.702H74.502V176.7H73.998ZM72.498 176.7H72V175.698H72.498V176.7ZM73.998 174.702H72V172.698H74.502V173.202H72.498V174.198H73.998V174.702ZM75 175.2V174.702H77.502V175.2H75ZM79.998 177.198H78.498V176.7H79.998V177.198ZM79.998 176.7V174.702H79.5V175.2H79.002V175.698H78.498V176.7H78V173.202H78.498V175.2H79.002V174.702H79.5V174.198H79.998V173.202H80.502V176.7H79.998ZM79.998 173.202H78.498V172.698H79.998V173.202ZM81.498 177.198V176.7H82.5V177.198H81.498ZM82.5 176.7V176.202H82.998V176.7H82.5ZM82.998 176.202V175.698H81.498V175.2H82.998V173.202H83.502V176.202H82.998ZM81.498 175.2H81V173.202H81.498V175.2ZM82.998 173.202H81.498V172.698H82.998V173.202ZM84 175.2V174.702H86.502V175.2H84ZM88.998 177.198H87.498V176.7H88.998V177.198ZM88.998 176.7V174.702H88.5V175.2H88.002V175.698H87.498V176.7H87V173.202H87.498V175.2H88.002V174.702H88.5V174.198H88.998V173.202H89.502V176.7H88.998ZM88.998 173.202H87.498V172.698H88.998V173.202ZM91.998 177.198H90.498V176.7H91.998V177.198ZM91.998 176.7V174.702H92.502V176.7H91.998ZM90.498 176.7H90V175.698H90.498V176.7ZM91.998 174.702H90V172.698H92.502V173.202H90.498V174.198H91.998V174.702Z" fill="#F56E00"/>
<path d="M37.208 133.452C36.952 133.564 36.676 133.664 36.38 133.748L36.188 133.452C36.916 133.26 37.476 133.012 37.872 132.712H38.172C38.496 132.992 39.048 133.236 39.832 133.452L39.64 133.748C39.316 133.656 39.032 133.556 38.784 133.444V133.556H37.208V133.452ZM38.48 133.292C38.3 133.192 38.148 133.088 38.02 132.976C37.868 133.092 37.704 133.196 37.528 133.292H38.48ZM36.776 133.72H39.216V134.444H36.776V133.72ZM38.856 134.184V133.984H37.136V134.184H38.856ZM39.276 134.512L39.424 134.772C39.08 134.82 38.684 134.86 38.232 134.884V135.088H39.472V135.36H38.232V135.548H39.752V135.852H38.232V136.044C38.232 136.284 38.096 136.404 37.828 136.404H37.348L37.272 136.08C37.428 136.096 37.576 136.104 37.712 136.104C37.808 136.104 37.86 136.056 37.86 135.964V135.852H36.252V135.548H37.86V135.36H36.572V135.088H37.86V134.9C37.492 134.916 37.092 134.924 36.66 134.924L36.564 134.64C37.636 134.64 38.54 134.596 39.276 134.512ZM42.272 135.656V136.032C41.648 136.16 40.984 136.272 40.272 136.36L40.184 135.996C40.492 135.964 40.796 135.924 41.096 135.88V135.22H40.356V134.856H41.096V134.432H41.48V134.856H42.156V135.22H41.48V135.816C41.748 135.768 42.012 135.712 42.272 135.656ZM40.244 132.864H42.256V133.224H41.252C41.084 133.568 40.928 133.832 40.788 134.02C41.108 133.988 41.42 133.944 41.728 133.892C41.648 133.772 41.568 133.648 41.48 133.524L41.772 133.336C42.036 133.688 42.24 133.992 42.38 134.252L42.064 134.472C42.012 134.376 41.956 134.276 41.9 134.172C41.396 134.264 40.852 134.34 40.264 134.4L40.18 134.06C40.244 134.052 40.296 134.04 40.328 134.024C40.456 133.916 40.628 133.648 40.844 133.224H40.244V132.864ZM43.296 136.376H42.704L42.62 136.008C42.812 136.02 42.992 136.028 43.164 136.028C43.264 136.028 43.316 135.976 43.316 135.872V132.732H43.7V135.968C43.7 136.24 43.564 136.376 43.296 136.376ZM42.536 133.092H42.904V135.544H42.536V133.092ZM45.844 134.096H44.528V133.748H47.52V134.74H46.212V135.064H47.664C47.664 135.552 47.628 135.864 47.564 135.996C47.496 136.132 47.344 136.2 47.104 136.204C46.936 136.204 46.768 136.2 46.608 136.196L46.516 135.836C46.704 135.844 46.88 135.852 47.044 135.852C47.156 135.852 47.224 135.812 47.248 135.736C47.264 135.664 47.276 135.548 47.276 135.388H46.212V136.416H45.844V135.456C45.564 135.8 45.092 136.096 44.432 136.348L44.22 136.004C44.804 135.82 45.22 135.612 45.46 135.388H44.412L44.604 134.396H45.844V134.096ZM45.844 134.74H44.94L44.86 135.064H45.844V134.74ZM46.212 134.396H47.132V134.096H46.212V134.396ZM44.82 133.308C44.732 133.44 44.632 133.564 44.524 133.68L44.192 133.476C44.436 133.236 44.612 132.98 44.716 132.704L45.084 132.784C45.056 132.852 45.028 132.916 45.004 132.976H46V133.308H45.436C45.512 133.404 45.576 133.496 45.628 133.584L45.288 133.708C45.212 133.572 45.124 133.436 45.028 133.308H44.82ZM46.52 133.292C46.44 133.432 46.352 133.564 46.252 133.684L45.924 133.48C46.136 133.24 46.288 132.98 46.38 132.704L46.744 132.784C46.72 132.844 46.7 132.904 46.68 132.96H47.808V133.292H47.16C47.24 133.396 47.308 133.492 47.36 133.584L47.024 133.708C46.952 133.564 46.864 133.424 46.76 133.292H46.52ZM48.188 134.344H51.808V134.72H48.188V134.344ZM54.008 134.62H53.532V134.272C53.476 134.336 53.416 134.4 53.36 134.456L53.068 134.2C53.44 133.84 53.72 133.356 53.904 132.756L54.256 132.896C54.068 133.456 53.832 133.908 53.548 134.252H55.356C55.356 135.148 55.336 135.704 55.296 135.916C55.256 136.208 55.08 136.356 54.768 136.356C54.684 136.356 54.544 136.348 54.344 136.34L54.252 135.98C54.428 135.996 54.58 136.004 54.708 136.004C54.84 136.004 54.916 135.916 54.936 135.74C54.96 135.628 54.976 135.252 54.984 134.62H54.38C54.312 135.036 54.22 135.372 54.108 135.628C53.964 135.912 53.748 136.168 53.464 136.396L53.22 136.084C53.46 135.892 53.644 135.68 53.768 135.448C53.872 135.236 53.952 134.96 54.008 134.62ZM53.04 132.7L53.384 132.86C53.284 133.16 53.156 133.448 52.996 133.724V136.42H52.612V134.288C52.496 134.432 52.372 134.572 52.24 134.708L52.12 134.308C52.536 133.848 52.84 133.312 53.04 132.7ZM54.94 132.704C55.116 133.272 55.42 133.736 55.856 134.096L55.6 134.396C55.128 134.004 54.8 133.504 54.616 132.888L54.94 132.704ZM57.812 133.364H56.472V133H59.54V133.364H58.196V135.796H59.792V136.164H56.212V135.796H57.812V133.364ZM60.492 132.776C60.732 132.852 60.956 132.944 61.156 133.056L60.952 133.364C60.74 133.232 60.524 133.132 60.304 133.06L60.492 132.776ZM61.716 132.704L62.088 132.752C62.064 132.832 62.036 132.904 62.004 132.976H63.572V133.204C63.528 133.396 63.468 133.592 63.396 133.784L63.032 133.676C63.092 133.568 63.144 133.444 63.184 133.308H62.6C62.584 133.388 62.564 133.46 62.54 133.532C62.752 133.816 63.152 134.012 63.744 134.12L63.608 134.452C63.044 134.336 62.636 134.128 62.384 133.832C62.344 133.888 62.304 133.936 62.26 133.984C62.072 134.172 61.748 134.32 61.292 134.432L61.152 134.092C61.528 134.012 61.8 133.904 61.968 133.76C62.096 133.644 62.188 133.492 62.24 133.308H61.804C61.7 133.448 61.572 133.576 61.428 133.688L61.204 133.392C61.456 133.208 61.628 132.976 61.716 132.704ZM63.308 134.492V135.688H62.924V134.844H61.064V135.728H60.684V134.492H63.308ZM61.836 134.952L62.216 134.984C62.16 135.496 62.036 135.836 61.852 136C61.652 136.212 61.18 136.348 60.432 136.412L60.284 136.068C60.912 136.036 61.324 135.94 61.524 135.776C61.7 135.616 61.804 135.344 61.836 134.952ZM61 133.54L61.224 133.8C61.024 134.004 60.776 134.192 60.48 134.368L60.228 134.076C60.532 133.908 60.792 133.732 61 133.54ZM62.292 135.66C62.808 135.788 63.28 135.944 63.708 136.128L63.5 136.444C63.044 136.232 62.58 136.068 62.1 135.948L62.292 135.66ZM65.432 133.024V135.948H65.076V135.756H64.648V136.032H64.288V133.024H65.432ZM64.648 135.4H65.076V133.376H64.648V135.4ZM65.988 133.452L66.36 133.472L66.164 134.44H66.912L67.104 133.228H65.68V132.86H67.532L67.292 134.44H67.736C67.736 135.424 67.672 135.996 67.548 136.148C67.424 136.3 67.16 136.376 66.756 136.376C66.644 136.376 66.532 136.368 66.412 136.356L66.292 135.96C66.468 135.984 66.592 136 66.66 136C66.996 136 67.196 135.94 67.26 135.828C67.328 135.708 67.364 135.368 67.364 134.8H65.752L65.988 133.452ZM65.548 135.208H67.12V135.564H65.548V135.208ZM68.768 135.428C68.872 135.428 68.956 135.468 69.028 135.552C69.092 135.64 69.128 135.748 69.128 135.884C69.128 136.088 69.068 136.264 68.948 136.416C68.828 136.568 68.668 136.672 68.468 136.728V136.48C68.576 136.44 68.668 136.38 68.74 136.292C68.804 136.2 68.84 136.108 68.84 136.012C68.816 136.02 68.784 136.024 68.744 136.024C68.66 136.024 68.592 135.996 68.536 135.94C68.48 135.884 68.452 135.812 68.452 135.728C68.452 135.636 68.48 135.564 68.54 135.508C68.596 135.452 68.672 135.428 68.768 135.428ZM73.624 135.556V135.916C73.224 136.06 72.772 136.18 72.26 136.272L72.212 135.904C72.752 135.816 73.224 135.7 73.624 135.556ZM72.84 132.708L73.196 132.844C73.004 133.328 72.812 133.72 72.612 134.02C72.748 134.004 72.884 133.984 73.02 133.96C73.088 133.824 73.16 133.68 73.232 133.528L73.572 133.656C73.252 134.28 72.984 134.736 72.768 135.024C73.024 134.968 73.284 134.892 73.548 134.8V135.14C73.116 135.288 72.708 135.388 72.324 135.444L72.224 135.1C72.292 135.072 72.348 135.036 72.396 134.992C72.516 134.86 72.664 134.632 72.84 134.304C72.652 134.336 72.456 134.364 72.256 134.392L72.164 134.044C72.22 134.02 72.272 133.972 72.32 133.904C72.52 133.544 72.692 133.148 72.84 132.708ZM75.548 134.712V136.364H75.176V136.176H74.176V136.364H73.812V134.712H75.548ZM74.176 135.812H75.176V135.072H74.176V135.812ZM74.504 132.736H74.856C75.084 133.208 75.428 133.6 75.884 133.912L75.664 134.236C75.544 134.148 75.428 134.056 75.324 133.952V134.3H74.012V133.968C73.908 134.072 73.8 134.164 73.688 134.252L73.468 133.936C73.892 133.624 74.236 133.224 74.504 132.736ZM74.036 133.944H75.316C75.06 133.7 74.848 133.412 74.68 133.084C74.488 133.416 74.272 133.704 74.036 133.944ZM78.044 134.548V134.936C77.828 135.008 77.6 135.072 77.36 135.136V135.972C77.36 136.228 77.224 136.36 76.956 136.36H76.508L76.424 135.996C76.564 136.012 76.696 136.02 76.824 136.02C76.924 136.02 76.976 135.972 76.976 135.876V135.224C76.736 135.276 76.492 135.324 76.236 135.364L76.184 134.984C76.46 134.94 76.724 134.892 76.976 134.84V134.124H76.184V133.76H76.976V133.336C76.776 133.376 76.572 133.408 76.36 133.44L76.28 133.08C76.84 133.02 77.336 132.904 77.768 132.728L77.9 133.084C77.728 133.144 77.548 133.2 77.36 133.252V133.76H78.224C78.2 133.448 78.188 133.104 78.188 132.728H78.572C78.572 133.12 78.584 133.464 78.608 133.76H79.816V134.124H78.64C78.664 134.388 78.7 134.608 78.748 134.784C78.764 134.86 78.784 134.928 78.804 134.992C78.976 134.784 79.128 134.548 79.256 134.284L79.584 134.456C79.404 134.824 79.192 135.14 78.944 135.404C78.992 135.512 79.036 135.604 79.084 135.676C79.204 135.856 79.296 135.948 79.36 135.948C79.412 135.948 79.464 135.74 79.516 135.324L79.852 135.5C79.752 136.068 79.604 136.356 79.412 136.356C79.24 136.356 79.06 136.236 78.872 136C78.796 135.904 78.728 135.796 78.668 135.668C78.392 135.9 78.084 136.084 77.74 136.216L77.528 135.888C77.904 135.752 78.232 135.556 78.512 135.3C78.464 135.168 78.424 135.032 78.388 134.888C78.332 134.672 78.288 134.416 78.256 134.124H77.36V134.752C77.6 134.688 77.828 134.62 78.044 134.548ZM79.012 132.764C79.296 132.944 79.536 133.124 79.736 133.304L79.46 133.576C79.292 133.4 79.06 133.212 78.756 133.008L79.012 132.764ZM83.684 132.96V136.244H83.316V135.952H82.448V136.292H82.084V132.96H83.684ZM82.448 135.592H83.316V133.316H82.448V135.592ZM80.272 133.788H80.94V133.308C80.756 133.336 80.568 133.356 80.384 133.372L80.264 133.032C80.88 132.984 81.376 132.884 81.756 132.74L81.936 133.056C81.732 133.128 81.524 133.192 81.308 133.24V133.788H81.96V134.144H81.308V134.304C81.532 134.5 81.76 134.72 81.992 134.964L81.768 135.292C81.588 135.036 81.436 134.832 81.308 134.672V136.372H80.94V134.752C80.78 135.088 80.572 135.396 80.324 135.676L80.16 135.26C80.512 134.94 80.772 134.572 80.94 134.164V134.144H80.272V133.788ZM84.98 132.688L85.324 132.848C85.232 133.14 85.116 133.42 84.972 133.688V136.42H84.6V134.276C84.488 134.424 84.368 134.568 84.24 134.712L84.116 134.324C84.508 133.852 84.796 133.308 84.98 132.688ZM87.272 136.336H85.916C85.596 136.336 85.436 136.168 85.436 135.84V134.34L85.108 134.44V134.052L85.436 133.948V133.088H85.816V133.828L86.316 133.672V132.716H86.692V133.552L87.568 133.276C87.568 134.156 87.544 134.692 87.504 134.88C87.464 135.064 87.288 135.156 86.984 135.156H86.936L86.824 134.788C86.912 134.792 86.992 134.796 87.064 134.796C87.12 134.796 87.152 134.752 87.164 134.664C87.172 134.584 87.18 134.296 87.184 133.796L86.692 133.948V135.528H86.316V134.064L85.816 134.22V135.788C85.816 135.908 85.88 135.972 86.008 135.972H87.208C87.296 135.972 87.364 135.944 87.404 135.892C87.44 135.836 87.464 135.648 87.476 135.32L87.836 135.44C87.808 135.86 87.76 136.116 87.688 136.204C87.608 136.292 87.472 136.336 87.272 136.336ZM90.032 133.452L90.4 133.472L90.216 134.44H90.94L91.124 133.228H89.736V132.86H91.552L91.32 134.44H91.744C91.744 135.424 91.684 135.996 91.568 136.148C91.444 136.3 91.184 136.376 90.784 136.376C90.676 136.376 90.564 136.368 90.448 136.356L90.332 135.96C90.504 135.984 90.624 136 90.692 136C91.016 136 91.212 135.94 91.276 135.828C91.34 135.708 91.376 135.368 91.376 134.8H89.804L90.032 133.452ZM89.616 135.204H91.148V135.564H89.616V135.204ZM88.676 132.696L89.048 132.732C89.008 132.988 88.972 133.228 88.936 133.452H89.604V133.66C89.576 134.296 89.456 134.848 89.248 135.312C89.416 135.46 89.56 135.596 89.672 135.716L89.42 136.008C89.32 135.896 89.204 135.776 89.072 135.648C88.888 135.948 88.664 136.208 88.396 136.424L88.152 136.124C88.416 135.92 88.636 135.676 88.804 135.396C88.636 135.244 88.448 135.08 88.244 134.912C88.34 134.576 88.424 134.208 88.5 133.816H88.172V133.452H88.564C88.604 133.204 88.644 132.952 88.676 132.696ZM88.968 135.08C89.128 134.712 89.224 134.288 89.256 133.816H88.868C88.788 134.208 88.704 134.54 88.62 134.804C88.744 134.9 88.86 134.992 88.968 135.08ZM94.032 133.452L94.4 133.472L94.216 134.44H94.94L95.124 133.228H93.736V132.86H95.552L95.32 134.44H95.744C95.744 135.424 95.684 135.996 95.568 136.148C95.444 136.3 95.184 136.376 94.784 136.376C94.676 136.376 94.564 136.368 94.448 136.356L94.332 135.96C94.504 135.984 94.624 136 94.692 136C95.016 136 95.212 135.94 95.276 135.828C95.34 135.708 95.376 135.368 95.376 134.8H93.804L94.032 133.452ZM93.616 135.204H95.148V135.564H93.616V135.204ZM92.676 132.696L93.048 132.732C93.008 132.988 92.972 133.228 92.936 133.452H93.604V133.66C93.576 134.296 93.456 134.848 93.248 135.312C93.416 135.46 93.56 135.596 93.672 135.716L93.42 136.008C93.32 135.896 93.204 135.776 93.072 135.648C92.888 135.948 92.664 136.208 92.396 136.424L92.152 136.124C92.416 135.92 92.636 135.676 92.804 135.396C92.636 135.244 92.448 135.08 92.244 134.912C92.34 134.576 92.424 134.208 92.5 133.816H92.172V133.452H92.564C92.604 133.204 92.644 132.952 92.676 132.696ZM92.968 135.08C93.128 134.712 93.224 134.288 93.256 133.816H92.868C92.788 134.208 92.704 134.54 92.62 134.804C92.744 134.9 92.86 134.992 92.968 135.08ZM96.64 133.968C96.944 134.088 97.22 134.236 97.468 134.404L97.272 134.704C97.008 134.504 96.74 134.348 96.46 134.236L96.64 133.968ZM97 133.424C97.312 133.54 97.592 133.68 97.848 133.844L97.652 134.144C97.384 133.952 97.108 133.8 96.82 133.688L97 133.424ZM98.044 133.464H98.416V134.312C98.408 134.504 98.384 134.684 98.348 134.844H99.792V135.212H98.224C98.2 135.264 98.172 135.312 98.148 135.36C98.72 135.6 99.24 135.864 99.712 136.144L99.452 136.436C98.964 136.136 98.464 135.872 97.952 135.644C97.944 135.652 97.936 135.66 97.932 135.668C97.64 135.984 97.164 136.228 96.508 136.4L96.292 136.064C96.956 135.892 97.412 135.676 97.652 135.412C97.704 135.348 97.752 135.28 97.792 135.212H96.276V134.844H97.952C98 134.68 98.032 134.504 98.044 134.312V133.464ZM96.416 132.928H99.508V133.164C99.448 133.4 99.372 133.636 99.28 133.868L98.924 133.768C99 133.624 99.064 133.46 99.12 133.28H96.416V132.928ZM101.872 134.048C102.26 133.824 102.628 133.572 102.976 133.292H100.416V132.924H103.5V133.292C103.132 133.624 102.716 133.94 102.252 134.24V135.96C102.252 136.24 102.112 136.38 101.836 136.38C101.592 136.38 101.38 136.372 101.2 136.356L101.096 135.988C101.292 136.012 101.504 136.024 101.732 136.024C101.824 136.024 101.872 135.976 101.872 135.888V134.048ZM105.808 133.912H106.192V136.408H105.808V133.912ZM105.832 132.72H106.168C106.5 133.256 107.068 133.732 107.872 134.14L107.644 134.488C106.908 134.108 106.36 133.636 106 133.076C105.568 133.688 105.02 134.16 104.356 134.492L104.128 134.148C104.864 133.78 105.432 133.304 105.832 132.72ZM109.78 136.368H109.192L109.1 135.972C109.292 135.988 109.468 136 109.636 136C109.788 136 109.868 135.92 109.868 135.764V132.78H110.264V135.864C110.264 136.2 110.1 136.368 109.78 136.368ZM108.792 133.708L109.172 133.86C108.988 134.648 108.744 135.252 108.444 135.668L108.112 135.376C108.416 134.96 108.644 134.404 108.792 133.708ZM111.2 133.608C111.488 134.312 111.712 134.924 111.868 135.452L111.524 135.688C111.356 135.132 111.132 134.512 110.852 133.824L111.2 133.608ZM112.928 134.764C112.732 134.92 112.512 135.076 112.272 135.236L112.156 134.848C112.82 134.424 113.272 134.012 113.512 133.612H112.304V133.24H112.924C112.876 133.084 112.82 132.932 112.756 132.788L113.128 132.684C113.2 132.884 113.256 133.072 113.296 133.24H113.92V133.568C113.804 133.832 113.624 134.092 113.376 134.352C113.632 134.488 113.864 134.644 114.08 134.824L113.864 135.152C113.68 134.98 113.492 134.832 113.308 134.712V136.42H112.928V134.764ZM115.308 136.352H114.652C114.364 136.352 114.22 136.192 114.22 135.872V132.74H114.6V135.82C114.6 135.928 114.648 135.984 114.744 135.984H115.244C115.32 135.984 115.376 135.952 115.412 135.892C115.444 135.828 115.464 135.612 115.476 135.24L115.84 135.36C115.816 135.824 115.768 136.108 115.7 136.208C115.628 136.304 115.496 136.352 115.308 136.352ZM117.964 132.712L118.324 132.804C118.284 132.996 118.24 133.172 118.192 133.332H119.716C119.716 134.708 119.696 135.556 119.656 135.876C119.608 136.22 119.384 136.392 118.98 136.392C118.924 136.392 118.824 136.384 118.68 136.376L118.592 136.036C118.72 136.048 118.828 136.056 118.924 136.056C119.144 136.056 119.272 135.94 119.304 135.708C119.328 135.508 119.344 134.84 119.352 133.7H119.172C119.084 134.348 118.968 134.864 118.816 135.244C118.632 135.668 118.356 136.044 117.996 136.38L117.76 136.08C118.088 135.784 118.332 135.452 118.5 135.084C118.644 134.736 118.756 134.276 118.828 133.7H118.596C118.432 134.556 118.132 135.18 117.692 135.572L117.448 135.288C117.84 134.952 118.112 134.424 118.26 133.7H118.06C117.956 133.94 117.84 134.144 117.708 134.304L117.428 134.068C117.68 133.752 117.86 133.3 117.964 132.712ZM116.588 133.892C116.556 134.084 116.512 134.268 116.464 134.448L116.132 134.356C116.252 133.932 116.32 133.488 116.336 133.024L116.672 133.048C116.664 133.208 116.652 133.368 116.636 133.524H116.844V132.724H117.212V133.524H117.504V133.892H117.212V134.736C117.308 134.692 117.4 134.648 117.488 134.604V134.964C117.396 135.008 117.304 135.052 117.212 135.092V136.412H116.844V135.24C116.656 135.312 116.464 135.376 116.268 135.436L116.18 135.068C116.404 135.02 116.628 134.96 116.844 134.884V133.892H116.588Z" fill="#1C1E22"/>
<path d="M70.4999 140C69.712 140 69.0713 140.643 69.0713 141.433C69.0713 141.726 69.1592 142.008 69.3237 142.246C69.3319 142.26 69.3402 142.273 69.35 142.287L70.3928 143.665C70.4211 143.697 70.4591 143.714 70.4999 143.714C70.5401 143.714 70.5784 143.697 70.6115 143.659L71.6494 142.287C71.6596 142.273 71.6684 142.258 71.6732 142.249C71.8397 142.01 71.9288 141.725 71.9284 141.433C71.9284 140.643 71.2876 140 70.4999 140ZM70.4999 141.945C70.3647 141.945 70.2351 141.891 70.1394 141.795C70.0437 141.699 69.9898 141.569 69.9895 141.433C69.9931 141.3 70.0485 141.173 70.1438 141.079C70.2391 140.986 70.3668 140.934 70.4998 140.934C70.6328 140.934 70.7605 140.986 70.8558 141.079C70.9511 141.173 71.0065 141.3 71.01 141.433C71.0097 141.569 70.9558 141.699 70.8602 141.795C70.7646 141.891 70.635 141.945 70.4999 141.945Z" fill="#1C1E22"/>
<path d="M73.881 140.588C74.088 140.738 74.265 140.885 74.409 141.035L74.202 141.236C74.076 141.098 73.902 140.948 73.677 140.786L73.881 140.588ZM73.827 141.323C74.019 141.467 74.184 141.608 74.316 141.752L74.112 141.956C73.998 141.818 73.833 141.674 73.623 141.518L73.827 141.323ZM74.094 142.139L74.355 142.241C74.229 142.619 74.091 142.973 73.938 143.306L73.65 143.18C73.821 142.841 73.968 142.493 74.094 142.139ZM74.448 140.705H76.374V140.981H76.155V142.979C76.155 143.192 76.053 143.3 75.852 143.3H75.351L75.291 143.027C75.453 143.039 75.606 143.045 75.753 143.045C75.831 143.045 75.873 142.997 75.873 142.907V140.981H74.448V140.705ZM74.568 141.371H75.552V142.529H74.568V141.371ZM75.288 142.271V141.626H74.832V142.271H75.288ZM76.656 140.792H77.883C77.895 140.702 77.907 140.609 77.916 140.516L78.207 140.555C78.198 140.639 78.189 140.717 78.177 140.792H79.344V141.059H78.132C78.114 141.146 78.096 141.23 78.078 141.311H79.197V142.961C79.197 143.177 79.095 143.288 78.897 143.288H78.612L78.537 143.012L78.804 143.018C78.879 143.018 78.918 142.976 78.918 142.898V141.578H77.088V143.306H76.809V141.311H77.787C77.805 141.227 77.823 141.143 77.838 141.059H76.656V140.792ZM77.7 141.632C77.76 141.734 77.814 141.851 77.865 141.986H78.138C78.198 141.869 78.252 141.746 78.3 141.62L78.558 141.716C78.513 141.812 78.465 141.902 78.411 141.986H78.705V142.235H78.138V142.487H78.786V142.736H78.138V143.261H77.862V142.736H77.217V142.487H77.862V142.235H77.304V141.986H77.592C77.55 141.893 77.502 141.806 77.445 141.725L77.7 141.632ZM80.25 141.692C80.313 141.692 80.367 141.713 80.409 141.761C80.454 141.803 80.478 141.854 80.478 141.92C80.478 141.98 80.454 142.034 80.409 142.079C80.367 142.124 80.313 142.148 80.25 142.148C80.184 142.148 80.133 142.124 80.091 142.079C80.043 142.034 80.022 141.98 80.022 141.92C80.022 141.854 80.043 141.803 80.091 141.761C80.133 141.713 80.184 141.692 80.25 141.692ZM83.52 142.157V143.3H83.247V143.186H82.458V143.3H82.185V142.157H83.52ZM82.458 142.928H83.247V142.415H82.458V142.928ZM82.515 140.513L82.788 140.567C82.764 140.639 82.734 140.708 82.704 140.777H83.553V140.984C83.445 141.215 83.289 141.422 83.082 141.605C83.313 141.743 83.583 141.851 83.892 141.926L83.727 142.166C83.385 142.076 83.097 141.947 82.857 141.782C82.617 141.947 82.329 142.088 81.993 142.208L81.819 141.977C82.14 141.872 82.413 141.749 82.638 141.605C82.53 141.506 82.437 141.398 82.356 141.284C82.26 141.383 82.155 141.473 82.044 141.557L81.873 141.335C82.191 141.11 82.404 140.837 82.515 140.513ZM82.518 141.089C82.611 141.221 82.725 141.341 82.857 141.449C83.013 141.32 83.142 141.179 83.238 141.029H82.56C82.542 141.053 82.53 141.071 82.518 141.089ZM81.39 140.585C81.597 140.735 81.774 140.882 81.918 141.032L81.711 141.236C81.588 141.095 81.414 140.945 81.186 140.783L81.39 140.585ZM81.336 141.32C81.528 141.464 81.693 141.605 81.825 141.749L81.621 141.956C81.507 141.818 81.342 141.674 81.132 141.518L81.336 141.32ZM81.6 142.139L81.858 142.241C81.735 142.619 81.597 142.973 81.447 143.303L81.162 143.177C81.33 142.841 81.477 142.493 81.6 142.139ZM84.234 140.645H85.257V140.864C85.161 141.122 85.05 141.395 84.921 141.683C85.119 141.956 85.224 142.196 85.242 142.4C85.242 142.538 85.209 142.64 85.149 142.7C85.056 142.778 84.894 142.817 84.666 142.82L84.576 142.535C84.636 142.544 84.687 142.55 84.726 142.55C84.819 142.544 84.882 142.532 84.915 142.511C84.945 142.487 84.96 142.451 84.96 142.4C84.96 142.199 84.852 141.974 84.639 141.725C84.78 141.425 84.891 141.152 84.972 140.906H84.507V143.318H84.234V140.645ZM86.772 140.684V143.3H86.496V143.075H85.659V143.294H85.383V140.684H86.772ZM85.659 142.802H86.496V142.007H85.659V142.802ZM85.659 141.743H86.496V140.96H85.659V141.743Z" fill="#1C1E22"/>
</svg>
