<svg width="155" height="190" viewBox="0 0 155 190" fill="none" xmlns="http://www.w3.org/2000/svg">
<rect width="155" height="190" fill="white"/>
<rect width="155" height="149" fill="#EBEBEB"/>
<path d="M119.502 14.198H117V13.202H117.498V13.7H119.502V14.198ZM117.498 13.202V12.698H118.002V13.202H117.498ZM118.002 12.698V12.2H118.5V12.698H118.002ZM118.5 12.2V11.702H118.998V12.2H118.5ZM118.998 11.702V10.202H119.502V11.702H118.998ZM117.498 10.202V11.198H117V10.202H117.498ZM118.998 10.202H117.498V9.698H118.998V10.202ZM121.998 14.198H120.498V13.7H121.998V14.198ZM121.998 13.7V11.702H121.5V12.2H121.002V12.698H120.498V13.7H120V10.202H120.498V12.2H121.002V11.702H121.5V11.198H121.998V10.202H122.502V13.7H121.998ZM121.998 10.202H120.498V9.698H121.998V10.202ZM125.502 14.198H123V13.202H123.498V13.7H125.502V14.198ZM123.498 13.202V12.698H124.002V13.202H123.498ZM124.002 12.698V12.2H124.5V12.698H124.002ZM124.5 12.2V11.702H124.998V12.2H124.5ZM124.998 11.702V10.202H125.502V11.702H124.998ZM123.498 10.202V11.198H123V10.202H123.498ZM124.998 10.202H123.498V9.698H124.998V10.202ZM127.998 14.198H126.498V13.7H127.998V14.198ZM127.998 13.7V11.702H128.502V13.7H127.998ZM126.498 13.7H126V10.7H126.498V11.198H127.998V11.702H126.498V13.7ZM126.498 10.7V10.202H127.002V10.7H126.498ZM127.998 10.202H127.002V9.698H127.998V10.202ZM129 12.2V11.702H131.502V12.2H129ZM133.998 14.198H132.498V13.7H133.998V14.198ZM133.998 13.7V11.702H133.5V12.2H133.002V12.698H132.498V13.7H132V10.202H132.498V12.2H133.002V11.702H133.5V11.198H133.998V10.202H134.502V13.7H133.998ZM133.998 10.202H132.498V9.698H133.998V10.202ZM135.498 14.198V13.7H136.5V14.198H135.498ZM136.5 13.7V13.202H136.998V13.7H136.5ZM136.998 13.202V12.698H135.498V12.2H136.998V10.202H137.502V13.202H136.998ZM135.498 12.2H135V10.202H135.498V12.2ZM136.998 10.202H135.498V9.698H136.998V10.202ZM138 12.2V11.702H140.502V12.2H138ZM141 11.198V10.7H141.498V11.198H141ZM142.5 9.698V14.198H142.002V10.7H141.498V10.202H142.002V9.698H142.5ZM145.998 14.198H144.498V13.7H145.998V14.198ZM145.998 13.7V11.702H145.5V12.2H145.002V12.698H144.498V13.7H144V10.202H144.498V12.2H145.002V11.702H145.5V11.198H145.998V10.202H146.502V13.7H145.998ZM145.998 10.202H144.498V9.698H145.998V10.202Z" fill="#F56E00"/>
<path d="M7.844 165.096H6.528V164.748H9.52V165.74H8.212V166.064H9.664C9.664 166.552 9.628 166.864 9.564 166.996C9.496 167.132 9.344 167.2 9.104 167.204C8.936 167.204 8.768 167.2 8.608 167.196L8.516 166.836C8.704 166.844 8.88 166.852 9.044 166.852C9.156 166.852 9.224 166.812 9.248 166.736C9.264 166.664 9.276 166.548 9.276 166.388H8.212V167.416H7.844V166.456C7.564 166.8 7.092 167.096 6.432 167.348L6.22 167.004C6.804 166.82 7.22 166.612 7.46 166.388H6.412L6.604 165.396H7.844V165.096ZM7.844 165.74H6.94L6.86 166.064H7.844V165.74ZM8.212 165.396H9.132V165.096H8.212V165.396ZM6.82 164.308C6.732 164.44 6.632 164.564 6.524 164.68L6.192 164.476C6.436 164.236 6.612 163.98 6.716 163.704L7.084 163.784C7.056 163.852 7.028 163.916 7.004 163.976H8V164.308H7.436C7.512 164.404 7.576 164.496 7.628 164.584L7.288 164.708C7.212 164.572 7.124 164.436 7.028 164.308H6.82ZM8.52 164.292C8.44 164.432 8.352 164.564 8.252 164.684L7.924 164.48C8.136 164.24 8.288 163.98 8.38 163.704L8.744 163.784C8.72 163.844 8.7 163.904 8.68 163.96H9.808V164.292H9.16C9.24 164.396 9.308 164.492 9.36 164.584L9.024 164.708C8.952 164.564 8.864 164.424 8.76 164.292H8.52ZM10.188 165.344H13.808V165.72H10.188V165.344ZM14.304 165.104H15.724C15.768 164.852 15.8 164.576 15.816 164.276H14.408V163.912H17.592V164.276H16.2C16.18 164.58 16.148 164.856 16.108 165.104H17.708V165.468H16.288C16.568 166.184 17.084 166.736 17.84 167.124L17.604 167.432C16.824 167.008 16.288 166.408 15.992 165.636C15.928 165.86 15.856 166.048 15.768 166.2C15.5 166.676 15.044 167.088 14.404 167.436L14.164 167.124C14.748 166.82 15.164 166.464 15.412 166.048C15.504 165.892 15.58 165.7 15.644 165.468H14.304V165.104ZM19.616 163.72H20.008V164.924H21.488V165.292H20.008V166.9H21.796V167.268H18.212V166.9H19.616V163.72ZM23.696 165.812C23.824 166.116 23.936 166.444 24.028 166.788C24.316 166.328 24.46 165.708 24.468 164.924V164.788H24V164.42H24.468V163.716H24.852V164.42H25.72C25.72 165.776 25.7 166.612 25.66 166.928C25.616 167.212 25.416 167.356 25.056 167.356C24.992 167.356 24.88 167.348 24.72 167.336L24.628 166.98C24.768 166.992 24.888 167 24.992 167C25.172 167 25.276 166.916 25.304 166.748C25.328 166.556 25.34 165.9 25.348 164.788H24.852V164.924C24.84 166.064 24.572 166.896 24.044 167.424L23.736 167.152C23.84 167.048 23.936 166.932 24.016 166.808L23.684 166.956C23.668 166.888 23.652 166.824 23.636 166.768C23.172 166.896 22.724 166.984 22.3 167.032L22.204 166.7C22.268 166.676 22.324 166.64 22.368 166.596C22.556 166.388 22.796 166.016 23.088 165.476C22.828 165.512 22.556 165.548 22.276 165.588L22.18 165.232C22.244 165.208 22.296 165.16 22.344 165.088C22.576 164.676 22.776 164.216 22.948 163.708L23.316 163.852C23.084 164.412 22.848 164.864 22.608 165.208C22.828 165.184 23.052 165.156 23.276 165.116C23.372 164.928 23.472 164.728 23.576 164.512L23.924 164.64C23.444 165.584 23.044 166.252 22.732 166.636C23.004 166.588 23.272 166.532 23.544 166.46C23.48 166.264 23.42 166.084 23.356 165.924L23.696 165.812ZM27.096 163.828H27.476V165.256C27.46 166.24 27.14 166.956 26.516 167.412L26.216 167.152C26.792 166.756 27.088 166.124 27.096 165.256V163.828ZM29.292 167.3H28.704C28.412 167.3 28.268 167.132 28.268 166.804V163.82H28.652V166.72C28.652 166.856 28.708 166.928 28.82 166.928H29.224C29.296 166.928 29.348 166.896 29.38 166.836C29.42 166.768 29.444 166.564 29.456 166.22L29.816 166.336C29.784 166.8 29.724 167.08 29.644 167.168C29.568 167.256 29.452 167.3 29.292 167.3ZM33.676 163.872V167.412H33.296V167.268H30.704V167.412H30.324V163.872H33.676ZM30.704 166.932H33.296V164.216H30.704V166.932ZM31.148 164.508H32.856V164.844H31.148V164.508ZM30.92 165.192H33.08V165.528H32.472V166.268C32.472 166.348 32.504 166.388 32.576 166.388H32.684C32.732 166.388 32.768 166.376 32.8 166.352C32.84 166.332 32.864 166.208 32.88 165.98L33.192 166.084C33.156 166.388 33.112 166.564 33.056 166.62C33 166.668 32.9 166.692 32.756 166.696H32.464C32.352 166.696 32.272 166.664 32.216 166.6C32.152 166.532 32.124 166.448 32.124 166.348V165.528H31.82C31.78 165.84 31.704 166.088 31.588 166.264C31.452 166.472 31.24 166.64 30.956 166.76L30.78 166.456C31.012 166.364 31.188 166.232 31.3 166.064C31.388 165.928 31.448 165.752 31.48 165.528H30.92V165.192ZM34.768 166.428C34.872 166.428 34.956 166.468 35.028 166.552C35.092 166.64 35.128 166.748 35.128 166.884C35.128 167.088 35.068 167.264 34.948 167.416C34.828 167.568 34.668 167.672 34.468 167.728V167.48C34.576 167.44 34.668 167.38 34.74 167.292C34.804 167.2 34.84 167.108 34.84 167.012C34.816 167.02 34.784 167.024 34.744 167.024C34.66 167.024 34.592 166.996 34.536 166.94C34.48 166.884 34.452 166.812 34.452 166.728C34.452 166.636 34.48 166.564 34.54 166.508C34.596 166.452 34.672 166.428 34.768 166.428ZM40.964 165.104H40.152V163.852H41.428V165.104H41.004C41.164 165.268 41.292 165.412 41.388 165.536L41.192 165.672H41.656V166.028H40.264C40.584 166.516 41.092 166.852 41.788 167.036L41.588 167.36C40.88 167.144 40.344 166.752 39.976 166.18C39.9 166.348 39.808 166.496 39.7 166.624C39.416 166.936 38.98 167.18 38.396 167.36L38.204 167.032C38.74 166.884 39.136 166.676 39.388 166.404C39.488 166.292 39.572 166.168 39.64 166.028H38.308V165.672H39.768C39.8 165.536 39.828 165.392 39.844 165.24L40.2 165.264C40.184 165.408 40.164 165.544 40.14 165.672H41.072C40.976 165.544 40.856 165.404 40.712 165.26L40.964 165.104ZM41.068 164.788V164.176H40.508V164.788H41.068ZM38.504 163.852H39.792V165.104H38.504V163.852ZM39.436 164.788V164.176H38.868V164.788H39.436ZM42.252 164.016H43.808V163.724H44.192V164.016H45.744V164.36H44.192V164.644H45.536V164.984H42.472V164.644H43.808V164.36H42.252V164.016ZM43.848 165.548H42.928V165.792C42.928 165.84 42.924 165.892 42.924 165.94H43.848V165.548ZM44.232 165.94H45.096V165.548H44.232V165.94ZM42.892 166.276C42.832 166.716 42.692 167.104 42.468 167.444L42.152 167.164C42.416 166.812 42.548 166.352 42.552 165.792V165.216H45.464V166.276H42.892ZM46.84 166.512C46.768 166.876 46.636 167.184 46.44 167.44L46.176 167.204C46.412 166.904 46.536 166.488 46.548 165.952V165.384H49.548V165.648H46.896V165.952C46.896 166.052 46.888 166.148 46.88 166.24H49.684V166.512H49.14L49.412 166.68C49.328 166.768 49.22 166.86 49.088 166.96C49.292 167.032 49.52 167.088 49.776 167.124L49.624 167.428C48.872 167.284 48.332 166.98 48.004 166.512H47.516V167.064C47.796 167.008 48.04 166.948 48.248 166.88L48.3 167.176C47.976 167.264 47.588 167.34 47.14 167.412L47.056 167.148C47.144 167.112 47.188 167.044 47.188 166.948V166.512H46.84ZM48.364 166.512C48.488 166.644 48.64 166.756 48.824 166.848C48.968 166.712 49.072 166.6 49.128 166.512H48.364ZM47.116 165.82H49.352V166.076H47.116V165.82ZM46.44 163.848H49.556V164.128H48.18V164.296H49.676V165.012H49.328V164.56H48.18V165.28H47.82V164.56H46.672V165.012H46.324V164.296H47.82V164.128H46.44V163.848ZM46.82 164.696H47.652V164.9H46.82V164.696ZM46.816 165.036H47.648V165.24H46.816V165.036ZM48.348 164.696H49.176V164.9H48.348V164.696ZM48.348 165.036H49.184V165.24H48.348V165.036ZM50.304 165.104H51.724C51.768 164.852 51.8 164.576 51.816 164.276H50.408V163.912H53.592V164.276H52.2C52.18 164.58 52.148 164.856 52.108 165.104H53.708V165.468H52.288C52.568 166.184 53.084 166.736 53.84 167.124L53.604 167.432C52.824 167.008 52.288 166.408 51.992 165.636C51.928 165.86 51.856 166.048 51.768 166.2C51.5 166.676 51.044 167.088 50.404 167.436L50.164 167.124C50.748 166.82 51.164 166.464 51.412 166.048C51.504 165.892 51.58 165.7 51.644 165.468H50.304V165.104ZM56.164 164.944H57.112V166.568H56.164V164.944ZM56.788 166.26V165.252H56.484V166.26H56.788ZM56.392 163.688L56.804 163.744C56.772 163.912 56.732 164.072 56.684 164.22H57.732V166.832C57.732 167.192 57.588 167.372 57.308 167.372H56.856L56.756 167.004L57.18 167.016C57.3 167.016 57.36 166.928 57.36 166.752V164.576H55.916V167.388H55.548V164.22H56.288C56.332 164.052 56.368 163.872 56.392 163.688ZM55.356 164.032V167.02H54.984V166.796H54.648V167.116H54.276V164.032H55.356ZM54.648 166.444H54.984V164.392H54.648V166.444ZM58.768 166.428C58.872 166.428 58.956 166.468 59.028 166.552C59.092 166.64 59.128 166.748 59.128 166.884C59.128 167.088 59.068 167.264 58.948 167.416C58.828 167.568 58.668 167.672 58.468 167.728V167.48C58.576 167.44 58.668 167.38 58.74 167.292C58.804 167.2 58.84 167.108 58.84 167.012C58.816 167.02 58.784 167.024 58.744 167.024C58.66 167.024 58.592 166.996 58.536 166.94C58.48 166.884 58.452 166.812 58.452 166.728C58.452 166.636 58.48 166.564 58.54 166.508C58.596 166.452 58.672 166.428 58.768 166.428ZM64.888 164.944V166.04H65.024C65.112 166.04 65.172 166.016 65.2 165.968C65.224 165.916 65.236 165.828 65.244 165.708C65.248 165.584 65.256 165.188 65.264 164.524H64.076C64.004 164.676 63.92 164.816 63.832 164.944H64.888ZM64.22 164.172H65.648C65.632 165.204 65.612 165.804 65.584 165.972C65.56 166.14 65.512 166.252 65.432 166.316C65.356 166.376 65.184 166.408 64.912 166.408H64.844L64.764 166.144H64.008V166.8C64.008 166.904 64.06 166.96 64.164 166.96H65.192C65.304 166.952 65.376 166.92 65.416 166.856C65.444 166.808 65.472 166.668 65.504 166.436L65.868 166.556C65.836 166.792 65.796 166.96 65.756 167.06C65.692 167.224 65.548 167.312 65.316 167.32H64.008C63.764 167.32 63.644 167.192 63.644 166.944V165.184C63.632 165.2 63.62 165.212 63.608 165.228L63.364 164.908C63.652 164.58 63.848 164.176 63.952 163.7L64.336 163.748C64.304 163.896 64.264 164.036 64.22 164.172ZM64.008 165.8H64.524V165.292H64.008V165.8ZM63.424 165.284V165.668C63.308 165.728 63.188 165.788 63.068 165.844V166.968C63.068 167.232 62.932 167.368 62.668 167.368H62.312L62.228 167C62.336 167.012 62.44 167.02 62.536 167.02C62.632 167.02 62.684 166.968 62.684 166.872V166.004C62.532 166.06 62.38 166.116 62.224 166.164L62.128 165.78C62.316 165.736 62.5 165.684 62.684 165.62V164.788H62.204V164.424H62.684V163.724H63.068V164.424H63.416V164.788H63.068V165.464C63.188 165.408 63.308 165.348 63.424 165.284ZM66.408 164H67.212C67.164 163.908 67.108 163.82 67.052 163.74L67.428 163.676C67.48 163.772 67.532 163.88 67.58 164H68.44C68.504 163.896 68.556 163.784 68.588 163.672L68.96 163.72C68.924 163.82 68.876 163.912 68.82 164H69.596V164.312H68.1C68.084 164.384 68.064 164.448 68.044 164.512H69.384V164.82H67.932C67.9 164.888 67.868 164.956 67.836 165.02H69.808V165.332H67.648C67.596 165.404 67.544 165.472 67.488 165.54H69.38V167.416H69.012V167.284H67.316V167.416H66.944V166.06C66.748 166.208 66.532 166.344 66.296 166.468L66.12 166.132C66.584 165.928 66.952 165.66 67.224 165.332H66.192V165.02H67.444C67.484 164.956 67.52 164.888 67.552 164.82H66.628V164.512H67.676C67.7 164.444 67.72 164.376 67.736 164.312H66.408V164ZM67.316 166.296V166.496H69.012V166.296H67.316ZM69.012 166.024V165.836H67.316V166.024H69.012ZM69.012 166.988V166.772H67.316V166.988H69.012ZM73.188 167.38H72.86L72.764 167.024L73.112 167.032C73.216 167.032 73.272 166.96 73.272 166.82V164.248H71.768V163.896H73.64V166.924C73.64 167.228 73.488 167.38 73.188 167.38ZM70.352 164.384H70.72V167.416H70.352V164.384ZM71.02 163.68C71.204 163.896 71.368 164.136 71.508 164.392L71.168 164.572C71.016 164.292 70.852 164.048 70.676 163.832L71.02 163.68ZM75.056 165.464V167.4H74.688V165.592C74.576 165.92 74.444 166.22 74.284 166.492L74.12 166.08C74.376 165.716 74.56 165.3 74.676 164.836H74.208V164.472H74.688V163.72H75.056V164.472H75.452V164.836H75.056V165.048C75.216 165.232 75.376 165.436 75.536 165.66L75.328 165.968C75.224 165.768 75.136 165.6 75.056 165.464ZM76.18 164.504H77.66V164.84H77.1V165.416H77.596V165.744H77.1V166.384H77.728V166.72H76.132V166.384H76.744V165.744H76.264V165.416H76.744V164.84H76.18V164.504ZM75.62 163.836H77.784V164.192H75.984V166.98H77.848V167.336H75.62V163.836ZM78.28 163.904H81.72V164.276H80.428C80.356 164.428 80.28 164.576 80.196 164.716V167.42H79.804V165.26C79.436 165.688 78.972 166.072 78.408 166.408L78.156 166.076C79.032 165.58 79.648 164.98 80 164.276H78.28V163.904ZM80.7 164.992C81.148 165.344 81.528 165.7 81.836 166.052L81.536 166.352C81.272 166.012 80.904 165.648 80.428 165.256L80.7 164.992ZM82.556 167.368H82.256L82.176 167.016C82.264 167.032 82.348 167.04 82.428 167.04C82.508 167.04 82.552 166.984 82.552 166.88V166.024C82.444 166.072 82.336 166.12 82.232 166.164L82.14 165.804C82.276 165.764 82.416 165.716 82.552 165.66V164.788H82.2V164.428H82.552V163.724H82.916V164.428H83.164V164.788H82.916V165.48C83.004 165.428 83.092 165.376 83.176 165.32V165.68C83.088 165.736 83.004 165.788 82.916 165.836V166.972C82.916 167.236 82.796 167.368 82.556 167.368ZM83.244 164.112H83.456V163.768H83.768V164.112H84.056V163.768H84.372V164.112H84.528V164.416H84.372V164.784H84.544V164.996C84.68 164.652 84.78 164.232 84.836 163.744L85.18 163.8C85.152 163.984 85.12 164.16 85.084 164.328H85.84V164.668H85.676C85.66 165.348 85.556 165.924 85.372 166.396C85.504 166.676 85.668 166.924 85.86 167.14L85.624 167.412C85.456 167.216 85.316 167.004 85.2 166.772C85.064 167.02 84.896 167.232 84.704 167.408L84.512 167.104C84.724 166.916 84.896 166.676 85.032 166.384C84.904 166.044 84.812 165.672 84.764 165.264C84.708 165.368 84.652 165.46 84.596 165.548L84.456 165.372V167.048C84.456 167.276 84.344 167.392 84.124 167.392H83.876L83.788 167.076L84.016 167.088C84.084 167.088 84.12 167.052 84.12 166.98V166.692H83.652V167.396H83.316V165.292H84.404L84.5 165.1H83.172V164.784H83.456V164.416H83.244V164.112ZM84.98 164.728C85.008 165.168 85.08 165.568 85.192 165.928C85.292 165.564 85.348 165.144 85.364 164.668H85C84.992 164.688 84.988 164.708 84.98 164.728ZM83.768 164.784H84.056V164.416H83.768V164.784ZM83.652 166.152V166.396H84.12V166.152H83.652ZM84.12 165.86V165.6H83.652V165.86H84.12ZM89.324 163.748L89.512 164.068C89.152 164.164 88.736 164.236 88.264 164.284V164.864H89.504V165.232H88.264V165.8H89.804V166.164H88.264V166.984C88.264 167.248 88.124 167.38 87.848 167.38H87.228L87.14 167.012C87.34 167.024 87.532 167.032 87.716 167.032C87.828 167.032 87.884 166.984 87.884 166.892V166.164H86.2V165.8H87.884V165.232H86.532V164.864H87.884V164.316C87.476 164.344 87.04 164.36 86.568 164.36L86.448 164.016C87.588 164.016 88.548 163.924 89.324 163.748Z" fill="#1C1E22"/>
<g clip-path="url(#clip0_1152_2069)">
<path d="M7.99986 171C7.21203 171 6.57129 171.643 6.57129 172.433C6.57129 172.726 6.65924 173.008 6.82371 173.246C6.83191 173.26 6.84023 173.273 6.85005 173.287L7.89278 174.665C7.9211 174.697 7.95911 174.714 7.99986 174.714C8.04011 174.714 8.07837 174.697 8.11154 174.659L9.14942 173.287C9.15961 173.273 9.16843 173.258 9.17315 173.249C9.33969 173.01 9.42882 172.725 9.42843 172.433C9.42843 171.643 8.78756 171 7.99986 171ZM7.99986 172.945C7.86469 172.945 7.73506 172.891 7.6394 172.795C7.54373 172.699 7.48985 172.569 7.48955 172.433C7.49314 172.3 7.54848 172.173 7.64378 172.079C7.73907 171.986 7.86681 171.934 7.9998 171.934C8.13279 171.934 8.26052 171.986 8.35582 172.079C8.45112 172.173 8.50645 172.3 8.51005 172.433C8.50972 172.569 8.45583 172.699 8.3602 172.795C8.26457 172.891 8.13499 172.945 7.99986 172.945Z" fill="#1C1E22"/>
</g>
<path d="M11.381 171.588C11.588 171.738 11.765 171.885 11.909 172.035L11.702 172.236C11.576 172.098 11.402 171.948 11.177 171.786L11.381 171.588ZM11.327 172.323C11.519 172.467 11.684 172.608 11.816 172.752L11.612 172.956C11.498 172.818 11.333 172.674 11.123 172.518L11.327 172.323ZM11.594 173.139L11.855 173.241C11.729 173.619 11.591 173.973 11.438 174.306L11.15 174.18C11.321 173.841 11.468 173.493 11.594 173.139ZM11.948 171.705H13.874V171.981H13.655V173.979C13.655 174.192 13.553 174.3 13.352 174.3H12.851L12.791 174.027C12.953 174.039 13.106 174.045 13.253 174.045C13.331 174.045 13.373 173.997 13.373 173.907V171.981H11.948V171.705ZM12.068 172.371H13.052V173.529H12.068V172.371ZM12.788 173.271V172.626H12.332V173.271H12.788ZM14.156 171.792H15.383C15.395 171.702 15.407 171.609 15.416 171.516L15.707 171.555C15.698 171.639 15.689 171.717 15.677 171.792H16.844V172.059H15.632C15.614 172.146 15.596 172.23 15.578 172.311H16.697V173.961C16.697 174.177 16.595 174.288 16.397 174.288H16.112L16.037 174.012L16.304 174.018C16.379 174.018 16.418 173.976 16.418 173.898V172.578H14.588V174.306H14.309V172.311H15.287C15.305 172.227 15.323 172.143 15.338 172.059H14.156V171.792ZM15.2 172.632C15.26 172.734 15.314 172.851 15.365 172.986H15.638C15.698 172.869 15.752 172.746 15.8 172.62L16.058 172.716C16.013 172.812 15.965 172.902 15.911 172.986H16.205V173.235H15.638V173.487H16.286V173.736H15.638V174.261H15.362V173.736H14.717V173.487H15.362V173.235H14.804V172.986H15.092C15.05 172.893 15.002 172.806 14.945 172.725L15.2 172.632ZM17.75 172.692C17.813 172.692 17.867 172.713 17.909 172.761C17.954 172.803 17.978 172.854 17.978 172.92C17.978 172.98 17.954 173.034 17.909 173.079C17.867 173.124 17.813 173.148 17.75 173.148C17.684 173.148 17.633 173.124 17.591 173.079C17.543 173.034 17.522 172.98 17.522 172.92C17.522 172.854 17.543 172.803 17.591 172.761C17.633 172.713 17.684 172.692 17.75 172.692ZM21.02 173.157V174.3H20.747V174.186H19.958V174.3H19.685V173.157H21.02ZM19.958 173.928H20.747V173.415H19.958V173.928ZM20.015 171.513L20.288 171.567C20.264 171.639 20.234 171.708 20.204 171.777H21.053V171.984C20.945 172.215 20.789 172.422 20.582 172.605C20.813 172.743 21.083 172.851 21.392 172.926L21.227 173.166C20.885 173.076 20.597 172.947 20.357 172.782C20.117 172.947 19.829 173.088 19.493 173.208L19.319 172.977C19.64 172.872 19.913 172.749 20.138 172.605C20.03 172.506 19.937 172.398 19.856 172.284C19.76 172.383 19.655 172.473 19.544 172.557L19.373 172.335C19.691 172.11 19.904 171.837 20.015 171.513ZM20.018 172.089C20.111 172.221 20.225 172.341 20.357 172.449C20.513 172.32 20.642 172.179 20.738 172.029H20.06C20.042 172.053 20.03 172.071 20.018 172.089ZM18.89 171.585C19.097 171.735 19.274 171.882 19.418 172.032L19.211 172.236C19.088 172.095 18.914 171.945 18.686 171.783L18.89 171.585ZM18.836 172.32C19.028 172.464 19.193 172.605 19.325 172.749L19.121 172.956C19.007 172.818 18.842 172.674 18.632 172.518L18.836 172.32ZM19.1 173.139L19.358 173.241C19.235 173.619 19.097 173.973 18.947 174.303L18.662 174.177C18.83 173.841 18.977 173.493 19.1 173.139ZM21.734 171.645H22.757V171.864C22.661 172.122 22.55 172.395 22.421 172.683C22.619 172.956 22.724 173.196 22.742 173.4C22.742 173.538 22.709 173.64 22.649 173.7C22.556 173.778 22.394 173.817 22.166 173.82L22.076 173.535C22.136 173.544 22.187 173.55 22.226 173.55C22.319 173.544 22.382 173.532 22.415 173.511C22.445 173.487 22.46 173.451 22.46 173.4C22.46 173.199 22.352 172.974 22.139 172.725C22.28 172.425 22.391 172.152 22.472 171.906H22.007V174.318H21.734V171.645ZM24.272 171.684V174.3H23.996V174.075H23.159V174.294H22.883V171.684H24.272ZM23.159 173.802H23.996V173.007H23.159V173.802ZM23.159 172.743H23.996V171.96H23.159V172.743Z" fill="#1C1E22"/>
<defs>
<clipPath id="clip0_1152_2069">
<rect width="4" height="4" fill="white" transform="translate(6 171)"/>
</clipPath>
</defs>
</svg>
