<svg width="155" height="190" viewBox="0 0 155 190" fill="none" xmlns="http://www.w3.org/2000/svg">
<rect width="155" height="190" fill="white"/>
<rect x="28" y="45" width="100" height="100" fill="#EBEBEB"/>
<path d="M65.502 170.198H63V169.202H63.498V169.7H65.502V170.198ZM63.498 169.202V168.698H64.002V169.202H63.498ZM64.002 168.698V168.2H64.5V168.698H64.002ZM64.5 168.2V167.702H64.998V168.2H64.5ZM64.998 167.702V166.202H65.502V167.702H64.998ZM63.498 166.202V167.198H63V166.202H63.498ZM64.998 166.202H63.498V165.698H64.998V166.202ZM67.998 170.198H66.498V169.7H67.998V170.198ZM67.998 169.7V167.702H67.5V168.2H67.002V168.698H66.498V169.7H66V166.202H66.498V168.2H67.002V167.702H67.5V167.198H67.998V166.202H68.502V169.7H67.998ZM67.998 166.202H66.498V165.698H67.998V166.202ZM69 169.7V169.202H69.498V169.7H70.998V170.198H69.498V169.7H69ZM69.498 168.2V167.702H70.002V167.198H70.5V167.702H70.998V168.2H71.502V169.7H70.998V168.2H69.498ZM69 166.202V165.698H71.502V166.7H70.998V167.198H70.5V166.7H70.998V166.202H69ZM73.998 170.198H72.498V169.7H73.998V170.198ZM73.998 169.7V167.702H74.502V169.7H73.998ZM72.498 169.7H72V168.698H72.498V169.7ZM73.998 167.702H72V165.698H74.502V166.202H72.498V167.198H73.998V167.702ZM75 168.2V167.702H77.502V168.2H75ZM79.998 170.198H78.498V169.7H79.998V170.198ZM79.998 169.7V167.702H79.5V168.2H79.002V168.698H78.498V169.7H78V166.202H78.498V168.2H79.002V167.702H79.5V167.198H79.998V166.202H80.502V169.7H79.998ZM79.998 166.202H78.498V165.698H79.998V166.202ZM82.998 169.202V170.198H82.5V169.202H81V167.702H81.498V168.698H82.5V166.7H82.002V167.702H81.498V166.7H82.002V165.698H82.998V168.698H83.502V169.202H82.998ZM84 168.2V167.702H86.502V168.2H84ZM87 167.198V166.7H87.498V167.198H87ZM88.5 165.698V170.198H88.002V166.7H87.498V166.202H88.002V165.698H88.5ZM91.998 170.198H90.498V169.7H91.998V170.198ZM91.998 169.7V167.702H91.5V168.2H91.002V168.698H90.498V169.7H90V166.202H90.498V168.2H91.002V167.702H91.5V167.198H91.998V166.202H92.502V169.7H91.998ZM91.998 166.202H90.498V165.698H91.998V166.202Z" fill="#F56E00"/>
<path d="M40.236 18.36H39.672V17.996H41.708C41.708 19.372 41.684 20.22 41.644 20.54C41.596 21.076 41.376 21.348 40.988 21.348C40.9 21.348 40.744 21.34 40.52 21.328L40.428 20.98C40.62 20.992 40.788 21 40.924 21C41.124 21 41.244 20.788 41.276 20.368C41.3 20.168 41.312 19.496 41.32 18.36H40.612V18.668C40.596 19.924 40.252 20.84 39.572 21.416L39.28 21.16C39.904 20.64 40.224 19.812 40.236 18.668V18.36ZM38.696 19.896C38.56 20.036 38.412 20.18 38.252 20.324L38.14 19.94C38.628 19.5 38.956 19.072 39.124 18.656H38.232V18.312H38.728C38.664 18.14 38.592 17.972 38.512 17.808L38.88 17.712C38.976 17.932 39.052 18.132 39.104 18.312H39.496V18.62C39.4 18.9 39.256 19.176 39.06 19.452V19.46C39.116 19.5 39.172 19.536 39.224 19.576C39.348 19.48 39.468 19.344 39.588 19.168L39.816 19.396C39.704 19.548 39.584 19.672 39.456 19.764C39.556 19.852 39.652 19.94 39.74 20.036L39.536 20.356C39.376 20.148 39.22 19.968 39.06 19.816V21.408H38.696V19.896ZM42.188 19.344H45.808V19.72H42.188V19.344ZM46.768 20.428C46.872 20.428 46.956 20.468 47.028 20.552C47.092 20.64 47.128 20.748 47.128 20.884C47.128 21.088 47.068 21.264 46.948 21.416C46.828 21.568 46.668 21.672 46.468 21.728V21.48C46.576 21.44 46.668 21.38 46.74 21.292C46.804 21.2 46.84 21.108 46.84 21.012C46.816 21.02 46.784 21.024 46.744 21.024C46.66 21.024 46.592 20.996 46.536 20.94C46.48 20.884 46.452 20.812 46.452 20.728C46.452 20.636 46.48 20.564 46.54 20.508C46.596 20.452 46.672 20.428 46.768 20.428ZM51.624 20.556V20.916C51.224 21.06 50.772 21.18 50.26 21.272L50.212 20.904C50.752 20.816 51.224 20.7 51.624 20.556ZM50.84 17.708L51.196 17.844C51.004 18.328 50.812 18.72 50.612 19.02C50.748 19.004 50.884 18.984 51.02 18.96C51.088 18.824 51.16 18.68 51.232 18.528L51.572 18.656C51.252 19.28 50.984 19.736 50.768 20.024C51.024 19.968 51.284 19.892 51.548 19.8V20.14C51.116 20.288 50.708 20.388 50.324 20.444L50.224 20.1C50.292 20.072 50.348 20.036 50.396 19.992C50.516 19.86 50.664 19.632 50.84 19.304C50.652 19.336 50.456 19.364 50.256 19.392L50.164 19.044C50.22 19.02 50.272 18.972 50.32 18.904C50.52 18.544 50.692 18.148 50.84 17.708ZM53.548 19.712V21.364H53.176V21.176H52.176V21.364H51.812V19.712H53.548ZM52.176 20.812H53.176V20.072H52.176V20.812ZM52.504 17.736H52.856C53.084 18.208 53.428 18.6 53.884 18.912L53.664 19.236C53.544 19.148 53.428 19.056 53.324 18.952V19.3H52.012V18.968C51.908 19.072 51.8 19.164 51.688 19.252L51.468 18.936C51.892 18.624 52.236 18.224 52.504 17.736ZM52.036 18.944H53.316C53.06 18.7 52.848 18.412 52.68 18.084C52.488 18.416 52.272 18.704 52.036 18.944ZM55.78 21.368H55.192L55.1 20.972C55.292 20.988 55.468 21 55.636 21C55.788 21 55.868 20.92 55.868 20.764V17.78H56.264V20.864C56.264 21.2 56.1 21.368 55.78 21.368ZM54.792 18.708L55.172 18.86C54.988 19.648 54.744 20.252 54.444 20.668L54.112 20.376C54.416 19.96 54.644 19.404 54.792 18.708ZM57.2 18.608C57.488 19.312 57.712 19.924 57.868 20.452L57.524 20.688C57.356 20.132 57.132 19.512 56.852 18.824L57.2 18.608ZM58.664 17.708L59.032 17.744C58.996 18 58.96 18.24 58.928 18.46H59.56V18.668C59.532 19.296 59.42 19.84 59.22 20.3C59.412 20.476 59.568 20.632 59.692 20.772L59.44 21.064C59.328 20.936 59.196 20.796 59.044 20.648C58.876 20.936 58.664 21.188 58.412 21.4L58.176 21.108C58.42 20.908 58.62 20.668 58.776 20.396C58.608 20.244 58.424 20.08 58.22 19.912C58.316 19.576 58.404 19.216 58.484 18.824H58.192V18.46H58.552C58.592 18.216 58.632 17.964 58.664 17.708ZM58.94 20.056C59.084 19.696 59.168 19.284 59.196 18.824H58.864C58.792 19.212 58.712 19.536 58.632 19.8L58.94 20.056ZM59.664 18.492H60.536V17.74H60.912V18.492H61.82V18.856H60.912V19.604H61.616V21.404H61.248V21.252H60.212V21.404H59.844V19.604H60.536V18.856H59.664V18.492ZM60.212 20.892H61.248V19.96H60.212V20.892ZM64.508 19.804H64.112V20.976C64.32 20.92 64.524 20.856 64.728 20.776L64.808 21.112C64.52 21.216 64.16 21.316 63.724 21.408L63.624 21.044C63.708 21.008 63.752 20.948 63.752 20.868V18.088H64.436C64.388 17.968 64.34 17.86 64.284 17.756L64.672 17.692C64.72 17.812 64.768 17.944 64.816 18.088H65.58V19.804H64.864C64.908 19.988 64.976 20.156 65.072 20.312C65.224 20.216 65.372 20.08 65.512 19.904L65.752 20.144C65.608 20.328 65.448 20.472 65.272 20.58C65.432 20.756 65.628 20.908 65.86 21.04L65.648 21.372C65.024 20.988 64.644 20.464 64.508 19.804ZM64.112 19.108V19.48H65.22V19.108H64.112ZM65.22 18.796V18.416H64.112V18.796H65.22ZM62.652 17.732L63.024 17.764C62.992 18.012 62.96 18.24 62.928 18.452H63.52V18.664C63.496 19.32 63.384 19.884 63.184 20.36C63.364 20.548 63.512 20.716 63.628 20.864L63.376 21.16C63.272 21.024 63.148 20.876 63.008 20.724C62.852 20.996 62.664 21.232 62.44 21.436L62.2 21.136C62.42 20.944 62.604 20.716 62.752 20.452C62.592 20.288 62.416 20.12 62.232 19.944C62.328 19.592 62.412 19.216 62.488 18.816H62.212V18.452H62.548C62.584 18.216 62.62 17.976 62.652 17.732ZM62.916 20.092C63.06 19.72 63.144 19.296 63.172 18.816H62.868C62.796 19.22 62.72 19.556 62.64 19.828C62.74 19.92 62.832 20.008 62.916 20.092ZM67.416 19.068C67.372 19.224 67.328 19.372 67.288 19.508H69.42C69.404 20.508 69.336 21.072 69.224 21.2C69.116 21.32 68.884 21.384 68.528 21.388H68.188L68.084 21.032C68.248 21.04 68.4 21.044 68.544 21.044C68.736 21.044 68.86 21.008 68.924 20.94C68.988 20.86 69.024 20.5 69.036 19.86H66.808C66.984 19.284 67.112 18.776 67.196 18.336L67.572 18.372C67.548 18.492 67.524 18.604 67.5 18.708H69.088V19.068H67.416ZM66.28 20.248H68.688V20.612H66.28V20.248ZM69.636 17.864V18.78H69.26V18.22H66.74V18.776H66.364V17.864H69.636ZM72.048 20.28V20.492H73.232V20.28H72.048ZM73.232 19.992V19.764H72.048V19.992H73.232ZM72.048 20.78V21.404H71.692V19.456H73.592V21.016C73.592 21.26 73.464 21.384 73.208 21.384H72.908L72.816 21.052L73.1 21.072C73.188 21.072 73.232 21.024 73.232 20.936V20.78H72.048ZM72.46 17.72H72.836V17.952H73.732V18.26H72.836V18.464H73.596V18.768H72.836V18.964H73.848V19.276H71.432V19.16L71.228 19.208C71.168 18.968 71.096 18.744 71.012 18.532V21.396H70.644V17.732H71.012V18.488L71.26 18.404C71.332 18.572 71.4 18.756 71.46 18.964H72.46V18.768H71.688V18.464H72.46V18.26H71.552V17.952H72.46V17.72ZM70.248 18.504L70.536 18.524C70.528 18.924 70.484 19.304 70.404 19.664L70.12 19.584C70.196 19.24 70.24 18.88 70.248 18.504ZM75.592 17.704H75.972V18.372H77.148V18.556L77.072 19.448H77.628C77.624 20.248 77.556 20.712 77.428 20.848C77.376 20.904 77.296 20.948 77.184 20.972C77.088 20.992 76.988 21.004 76.892 21.004H76.636L76.532 20.648C76.684 20.648 76.824 20.652 76.956 20.652C77.056 20.644 77.128 20.616 77.172 20.564C77.216 20.508 77.244 20.256 77.256 19.812H75.972V21.416H75.592V19.812H74.212V19.448H75.592V18.736H74.44V18.372H75.592V17.704ZM75.972 19.448H76.7L76.768 18.736H75.972V19.448ZM76.968 17.712C77.26 17.852 77.524 18.02 77.764 18.212L77.564 18.524C77.308 18.3 77.044 18.128 76.772 18L76.968 17.712ZM78.768 20.428C78.872 20.428 78.956 20.468 79.028 20.552C79.092 20.64 79.128 20.748 79.128 20.884C79.128 21.088 79.068 21.264 78.948 21.416C78.828 21.568 78.668 21.672 78.468 21.728V21.48C78.576 21.44 78.668 21.38 78.74 21.292C78.804 21.2 78.84 21.108 78.84 21.012C78.816 21.02 78.784 21.024 78.744 21.024C78.66 21.024 78.592 20.996 78.536 20.94C78.48 20.884 78.452 20.812 78.452 20.728C78.452 20.636 78.48 20.564 78.54 20.508C78.596 20.452 78.672 20.428 78.768 20.428ZM82.608 19.948C82.504 20.068 82.388 20.192 82.264 20.316L82.152 19.932C82.572 19.492 82.856 19.068 83 18.66H82.232V18.316H82.664C82.608 18.144 82.548 17.976 82.48 17.808L82.84 17.712C82.924 17.932 82.988 18.132 83.036 18.316H83.364V18.624C83.284 18.904 83.152 19.184 82.976 19.46V19.476C83.016 19.508 83.052 19.544 83.088 19.58C83.176 19.492 83.26 19.376 83.34 19.232L83.556 19.444C83.472 19.584 83.38 19.696 83.284 19.78C83.364 19.868 83.44 19.96 83.516 20.06L83.312 20.372C83.2 20.188 83.088 20.024 82.976 19.884V21.416H82.608V19.948ZM84.492 17.72H84.868V18.172H85.736V18.352C85.704 18.584 85.656 18.816 85.584 19.048L85.24 18.952C85.288 18.824 85.328 18.68 85.364 18.52H84.868V19.26H85.564V19.588C85.484 19.988 85.332 20.332 85.108 20.616C85.324 20.792 85.58 20.944 85.88 21.08L85.668 21.412C85.352 21.252 85.084 21.076 84.864 20.88C84.624 21.1 84.332 21.28 83.984 21.416L83.792 21.076C84.112 20.956 84.38 20.8 84.596 20.608C84.34 20.312 84.172 19.98 84.084 19.612H83.968C83.964 20.308 83.808 20.9 83.5 21.396L83.192 21.128C83.456 20.724 83.596 20.216 83.604 19.6V18.172H84.492V17.72ZM84.492 18.52H83.968V19.26H84.492V18.52ZM84.832 20.356C85 20.14 85.128 19.892 85.208 19.612H84.424C84.5 19.884 84.636 20.132 84.832 20.356ZM87.056 18.628C87.184 18.828 87.304 19.048 87.42 19.288L87.112 19.444H87.808V18.528H86.4V18.164H87.808V17.736H88.192V18.164H89.632V18.528H88.192V19.444H88.536C88.68 19.18 88.8 18.896 88.904 18.6L89.272 18.732C89.164 18.996 89.044 19.232 88.912 19.444H89.748V19.808H88.492C88.772 20.224 89.232 20.6 89.876 20.936L89.616 21.264C88.944 20.832 88.472 20.356 88.192 19.828V21.404H87.808V19.816C87.552 20.376 87.06 20.86 86.332 21.268L86.124 20.924C86.8 20.592 87.26 20.22 87.5 19.808H86.244V19.444H87.092C86.976 19.2 86.852 18.98 86.724 18.788L87.056 18.628ZM91.508 17.996V20.992H91.14V20.744H90.66V21.088H90.288V17.996H91.508ZM90.66 20.392H91.14V19.524H90.66V20.392ZM90.66 19.168H91.14V18.34H90.66V19.168ZM92.108 19.204C92.352 19.576 92.54 19.9 92.668 20.18L92.352 20.4C92.212 20.104 92.024 19.768 91.792 19.4L92.108 19.204ZM92.98 21.372H92.272L92.188 21.004C92.42 21.016 92.64 21.024 92.852 21.024C92.948 21.024 92.996 20.972 92.996 20.868V18.788H91.664V18.424H92.996V17.752H93.384V18.424H93.832V18.788H93.384V20.964C93.384 21.236 93.248 21.372 92.98 21.372ZM94.412 19.004L94.728 17.836L95.108 17.9L94.9 18.64H95.492C95.568 18.344 95.628 18.032 95.676 17.704L96.064 17.752C96.016 18.068 95.956 18.364 95.888 18.64H97.72V19.004H95.792C95.752 19.136 95.708 19.26 95.668 19.38H97.268V19.7C97.164 20.028 96.968 20.324 96.672 20.588C96.976 20.756 97.344 20.912 97.772 21.056L97.576 21.416C97.092 21.24 96.684 21.044 96.356 20.836C96.04 21.056 95.652 21.256 95.192 21.436L94.992 21.076C95.392 20.932 95.736 20.772 96.02 20.6C95.76 20.392 95.564 20.168 95.436 19.932C95.148 20.524 94.784 20.996 94.348 21.348L94.152 20.996C94.704 20.508 95.116 19.844 95.388 19.004H94.412ZM95.712 19.724C95.844 19.96 96.052 20.18 96.336 20.38C96.588 20.176 96.772 19.956 96.884 19.724H95.712ZM96.736 17.708C97.012 17.916 97.244 18.128 97.432 18.34L97.16 18.612C97 18.404 96.776 18.188 96.48 17.96L96.736 17.708ZM101.548 17.856V20.108H101.164V18.22H100.076V20.108H99.7V17.856H101.548ZM101.428 21.348H101.012C100.764 21.348 100.64 21.216 100.64 20.96V20.328C100.588 20.48 100.524 20.616 100.452 20.732C100.256 21.036 99.932 21.268 99.484 21.432L99.276 21.112C99.716 20.944 100.012 20.732 100.168 20.484C100.324 20.212 100.408 19.86 100.424 19.428V18.472H100.788V19.428C100.78 19.676 100.752 19.896 100.708 20.092H101.02V20.88C101.02 20.96 101.052 21 101.124 21H101.36C101.408 21 101.444 20.98 101.468 20.94C101.492 20.892 101.512 20.756 101.524 20.528L101.876 20.644C101.848 20.984 101.8 21.188 101.732 21.256C101.664 21.316 101.564 21.348 101.428 21.348ZM98.24 19.168H98.668V18.32H98.188V17.956H99.524V18.32H99.052V19.168H99.468V19.536H99.052V20.328C99.216 20.272 99.376 20.212 99.532 20.148V20.512C99.132 20.672 98.704 20.808 98.252 20.92L98.16 20.556C98.332 20.524 98.5 20.488 98.668 20.444V19.536H98.24V19.168ZM103.872 19.048C104.26 18.824 104.628 18.572 104.976 18.292H102.416V17.924H105.5V18.292C105.132 18.624 104.716 18.94 104.252 19.24V20.96C104.252 21.24 104.112 21.38 103.836 21.38C103.592 21.38 103.38 21.372 103.2 21.356L103.096 20.988C103.292 21.012 103.504 21.024 103.732 21.024C103.824 21.024 103.872 20.976 103.872 20.888V19.048ZM106.768 20.428C106.872 20.428 106.956 20.468 107.028 20.552C107.092 20.64 107.128 20.748 107.128 20.884C107.128 21.088 107.068 21.264 106.948 21.416C106.828 21.568 106.668 21.672 106.468 21.728V21.48C106.576 21.44 106.668 21.38 106.74 21.292C106.804 21.2 106.84 21.108 106.84 21.012C106.816 21.02 106.784 21.024 106.744 21.024C106.66 21.024 106.592 20.996 106.536 20.94C106.48 20.884 106.452 20.812 106.452 20.728C106.452 20.636 106.48 20.564 106.54 20.508C106.596 20.452 106.672 20.428 106.768 20.428ZM113.488 19.756V21.416H113.124V21.204H112.08V21.416H111.72V19.756H113.488ZM112.08 20.852H113.124V20.104H112.08V20.852ZM112.428 17.744H112.776C113.02 18.224 113.388 18.62 113.884 18.94L113.664 19.268C113.532 19.18 113.408 19.084 113.296 18.98V19.316H111.888V18.984C111.772 19.088 111.652 19.188 111.532 19.28L111.404 19.092V20.948H111.052V20.756H110.644V21.032H110.284V18.024H111.404V18.892C111.82 18.588 112.164 18.204 112.428 17.744ZM111.912 18.96H113.276C113.008 18.712 112.784 18.424 112.6 18.092C112.396 18.428 112.168 18.716 111.912 18.96ZM110.644 20.4H111.052V18.376H110.644V20.4ZM117.488 19.756V21.416H117.124V21.204H116.08V21.416H115.72V19.756H117.488ZM116.08 20.852H117.124V20.104H116.08V20.852ZM116.428 17.744H116.776C117.02 18.224 117.388 18.62 117.884 18.94L117.664 19.268C117.532 19.18 117.408 19.084 117.296 18.98V19.316H115.888V18.984C115.772 19.088 115.652 19.188 115.532 19.28L115.404 19.092V20.948H115.052V20.756H114.644V21.032H114.284V18.024H115.404V18.892C115.82 18.588 116.164 18.204 116.428 17.744ZM115.912 18.96H117.276C117.008 18.712 116.784 18.424 116.6 18.092C116.396 18.428 116.168 18.716 115.912 18.96ZM114.644 20.4H115.052V18.376H114.644V20.4Z" fill="#1C1E22"/>
<path d="M70.4999 25C69.712 25 69.0713 25.6427 69.0713 26.4326C69.0713 26.7258 69.1592 27.0081 69.3237 27.2455C69.3319 27.2598 69.3402 27.2735 69.35 27.2868L70.3928 28.6652C70.4211 28.6968 70.4591 28.7143 70.4999 28.7143C70.5401 28.7143 70.5784 28.6967 70.6115 28.6594L71.6494 27.2867C71.6596 27.273 71.6684 27.258 71.6732 27.2493C71.8397 27.0098 71.9288 26.7247 71.9284 26.4326C71.9284 25.6427 71.2876 25 70.4999 25ZM70.4999 26.9448C70.3647 26.9447 70.2351 26.8908 70.1394 26.7949C70.0437 26.699 69.9898 26.5688 69.9895 26.4331C69.9931 26.2995 70.0485 26.1727 70.1438 26.0795C70.2391 25.9863 70.3668 25.9342 70.4998 25.9342C70.6328 25.9342 70.7605 25.9863 70.8558 26.0795C70.9511 26.1727 71.0065 26.2995 71.01 26.4331C71.0097 26.5688 70.9558 26.6989 70.8602 26.7948C70.7646 26.8907 70.635 26.9447 70.4999 26.9448Z" fill="#1C1E22"/>
<path d="M73.881 25.588C74.088 25.738 74.265 25.885 74.409 26.035L74.202 26.236C74.076 26.098 73.902 25.948 73.677 25.786L73.881 25.588ZM73.827 26.323C74.019 26.467 74.184 26.608 74.316 26.752L74.112 26.956C73.998 26.818 73.833 26.674 73.623 26.518L73.827 26.323ZM74.094 27.139L74.355 27.241C74.229 27.619 74.091 27.973 73.938 28.306L73.65 28.18C73.821 27.841 73.968 27.493 74.094 27.139ZM74.448 25.705H76.374V25.981H76.155V27.979C76.155 28.192 76.053 28.3 75.852 28.3H75.351L75.291 28.027C75.453 28.039 75.606 28.045 75.753 28.045C75.831 28.045 75.873 27.997 75.873 27.907V25.981H74.448V25.705ZM74.568 26.371H75.552V27.529H74.568V26.371ZM75.288 27.271V26.626H74.832V27.271H75.288ZM76.656 25.792H77.883C77.895 25.702 77.907 25.609 77.916 25.516L78.207 25.555C78.198 25.639 78.189 25.717 78.177 25.792H79.344V26.059H78.132C78.114 26.146 78.096 26.23 78.078 26.311H79.197V27.961C79.197 28.177 79.095 28.288 78.897 28.288H78.612L78.537 28.012L78.804 28.018C78.879 28.018 78.918 27.976 78.918 27.898V26.578H77.088V28.306H76.809V26.311H77.787C77.805 26.227 77.823 26.143 77.838 26.059H76.656V25.792ZM77.7 26.632C77.76 26.734 77.814 26.851 77.865 26.986H78.138C78.198 26.869 78.252 26.746 78.3 26.62L78.558 26.716C78.513 26.812 78.465 26.902 78.411 26.986H78.705V27.235H78.138V27.487H78.786V27.736H78.138V28.261H77.862V27.736H77.217V27.487H77.862V27.235H77.304V26.986H77.592C77.55 26.893 77.502 26.806 77.445 26.725L77.7 26.632ZM80.25 26.692C80.313 26.692 80.367 26.713 80.409 26.761C80.454 26.803 80.478 26.854 80.478 26.92C80.478 26.98 80.454 27.034 80.409 27.079C80.367 27.124 80.313 27.148 80.25 27.148C80.184 27.148 80.133 27.124 80.091 27.079C80.043 27.034 80.022 26.98 80.022 26.92C80.022 26.854 80.043 26.803 80.091 26.761C80.133 26.713 80.184 26.692 80.25 26.692ZM83.52 27.157V28.3H83.247V28.186H82.458V28.3H82.185V27.157H83.52ZM82.458 27.928H83.247V27.415H82.458V27.928ZM82.515 25.513L82.788 25.567C82.764 25.639 82.734 25.708 82.704 25.777H83.553V25.984C83.445 26.215 83.289 26.422 83.082 26.605C83.313 26.743 83.583 26.851 83.892 26.926L83.727 27.166C83.385 27.076 83.097 26.947 82.857 26.782C82.617 26.947 82.329 27.088 81.993 27.208L81.819 26.977C82.14 26.872 82.413 26.749 82.638 26.605C82.53 26.506 82.437 26.398 82.356 26.284C82.26 26.383 82.155 26.473 82.044 26.557L81.873 26.335C82.191 26.11 82.404 25.837 82.515 25.513ZM82.518 26.089C82.611 26.221 82.725 26.341 82.857 26.449C83.013 26.32 83.142 26.179 83.238 26.029H82.56C82.542 26.053 82.53 26.071 82.518 26.089ZM81.39 25.585C81.597 25.735 81.774 25.882 81.918 26.032L81.711 26.236C81.588 26.095 81.414 25.945 81.186 25.783L81.39 25.585ZM81.336 26.32C81.528 26.464 81.693 26.605 81.825 26.749L81.621 26.956C81.507 26.818 81.342 26.674 81.132 26.518L81.336 26.32ZM81.6 27.139L81.858 27.241C81.735 27.619 81.597 27.973 81.447 28.303L81.162 28.177C81.33 27.841 81.477 27.493 81.6 27.139ZM84.234 25.645H85.257V25.864C85.161 26.122 85.05 26.395 84.921 26.683C85.119 26.956 85.224 27.196 85.242 27.4C85.242 27.538 85.209 27.64 85.149 27.7C85.056 27.778 84.894 27.817 84.666 27.82L84.576 27.535C84.636 27.544 84.687 27.55 84.726 27.55C84.819 27.544 84.882 27.532 84.915 27.511C84.945 27.487 84.96 27.451 84.96 27.4C84.96 27.199 84.852 26.974 84.639 26.725C84.78 26.425 84.891 26.152 84.972 25.906H84.507V28.318H84.234V25.645ZM86.772 25.684V28.3H86.496V28.075H85.659V28.294H85.383V25.684H86.772ZM85.659 27.802H86.496V27.007H85.659V27.802ZM85.659 26.743H86.496V25.96H85.659V26.743Z" fill="#1C1E22"/>
</svg>
