<svg width="155" height="190" viewBox="0 0 155 190" fill="none" xmlns="http://www.w3.org/2000/svg">
<rect width="155" height="190" fill="white"/>
<rect x="20" y="20" width="115" height="129" fill="#EBEBEB"/>
<path d="M107.502 15.198H105V14.202H105.498V14.7H107.502V15.198ZM105.498 14.202V13.698H106.002V14.202H105.498ZM106.002 13.698V13.2H106.5V13.698H106.002ZM106.5 13.2V12.702H106.998V13.2H106.5ZM106.998 12.702V11.202H107.502V12.702H106.998ZM105.498 11.202V12.198H105V11.202H105.498ZM106.998 11.202H105.498V10.698H106.998V11.202ZM109.998 15.198H108.498V14.7H109.998V15.198ZM109.998 14.7V12.702H109.5V13.2H109.002V13.698H108.498V14.7H108V11.202H108.498V13.2H109.002V12.702H109.5V12.198H109.998V11.202H110.502V14.7H109.998ZM109.998 11.202H108.498V10.698H109.998V11.202ZM112.998 14.202V15.198H112.5V14.202H111V12.702H111.498V13.698H112.5V11.7H112.002V12.702H111.498V11.7H112.002V10.698H112.998V13.698H113.502V14.202H112.998ZM114 12.198V11.7H114.498V12.198H114ZM115.5 10.698V15.198H115.002V11.7H114.498V11.202H115.002V10.698H115.5ZM117 13.2V12.702H119.502V13.2H117ZM121.998 15.198H120.498V14.7H121.998V15.198ZM121.998 14.7V12.702H121.5V13.2H121.002V13.698H120.498V14.7H120V11.202H120.498V13.2H121.002V12.702H121.5V12.198H121.998V11.202H122.502V14.7H121.998ZM121.998 11.202H120.498V10.698H121.998V11.202ZM123.498 15.198V14.7H124.5V15.198H123.498ZM124.5 14.7V14.202H124.998V14.7H124.5ZM124.998 14.202V13.698H123.498V13.2H124.998V11.202H125.502V14.202H124.998ZM123.498 13.2H123V11.202H123.498V13.2ZM124.998 11.202H123.498V10.698H124.998V11.202ZM126 13.2V12.702H128.502V13.2H126ZM129 12.198V11.7H129.498V12.198H129ZM130.5 10.698V15.198H130.002V11.7H129.498V11.202H130.002V10.698H130.5ZM133.998 15.198H132.498V14.7H133.998V15.198ZM133.998 14.7V12.702H133.5V13.2H133.002V13.698H132.498V14.7H132V11.202H132.498V13.2H133.002V12.702H133.5V12.198H133.998V11.202H134.502V14.7H133.998ZM133.998 11.202H132.498V10.698H133.998V11.202Z" fill="#F56E00"/>
<path d="M20.232 164.74H21.764C21.788 164.528 21.804 164.304 21.808 164.072V163.724H22.192V163.984C22.192 164.248 22.176 164.5 22.144 164.74H23.768V165.108H22.24C22.52 165.964 23.06 166.624 23.852 167.092L23.616 167.4C22.848 166.928 22.308 166.268 22.004 165.42C21.74 166.336 21.2 167.008 20.388 167.436L20.144 167.116C20.968 166.716 21.488 166.044 21.7 165.108H20.232V164.74ZM27.732 164.504V165.472H27.352V164.868H24.644V165.472H24.268V164.504H24.988C24.86 164.288 24.728 164.096 24.592 163.928L24.936 163.76C25.072 163.944 25.208 164.152 25.336 164.376L25.08 164.504H26.58C26.744 164.256 26.884 163.988 27.004 163.7L27.396 163.844C27.264 164.104 27.132 164.324 26.996 164.504H27.732ZM24.92 165.12H27.084V165.456C26.832 165.62 26.552 165.776 26.24 165.928V166.068H27.732V166.428H26.24V167.04C26.24 167.276 26.112 167.396 25.86 167.396H25.352L25.26 167.052C25.404 167.056 25.56 167.06 25.732 167.06C25.816 167.06 25.86 167.008 25.86 166.908V166.428H24.28V166.068H25.86V165.764C26.14 165.644 26.368 165.54 26.536 165.456H24.92V165.12ZM25.892 163.68C26.024 163.876 26.152 164.092 26.272 164.328L25.932 164.5C25.812 164.256 25.684 164.04 25.548 163.848L25.892 163.68ZM29.56 165.284V165.66C29.416 165.732 29.276 165.796 29.132 165.856V167C29.132 167.264 29.004 167.4 28.748 167.4H28.372L28.284 167.036C28.4 167.052 28.508 167.06 28.612 167.06C28.708 167.06 28.76 167.008 28.76 166.908V166.004C28.584 166.068 28.408 166.128 28.232 166.184L28.136 165.808C28.348 165.76 28.556 165.704 28.76 165.632V164.788H28.212V164.424H28.76V163.732H29.132V164.424H29.548V164.788H29.132V165.488C29.276 165.424 29.42 165.356 29.56 165.284ZM30.084 165.636V167.412H29.724V163.86H31.568C31.568 164.332 31.54 164.644 31.492 164.8C31.44 164.952 31.28 165.028 31.012 165.028H30.712L30.608 164.7C30.668 164.7 30.744 164.704 30.84 164.704C30.932 164.704 31.004 164.7 31.052 164.692C31.092 164.68 31.128 164.652 31.152 164.612C31.18 164.552 31.196 164.416 31.204 164.204H30.084V165.288H31.596V165.616C31.532 166.028 31.404 166.38 31.212 166.668C31.396 166.836 31.612 166.988 31.868 167.124L31.612 167.42C31.372 167.268 31.168 167.112 30.996 166.944C30.812 167.14 30.588 167.3 30.332 167.424L30.148 167.092C30.38 166.98 30.576 166.836 30.736 166.66C30.48 166.344 30.324 166.004 30.26 165.636H30.084ZM30.6 165.636C30.652 165.908 30.768 166.156 30.948 166.384C31.08 166.168 31.176 165.916 31.24 165.636H30.6ZM34.272 166.656V167.032C33.648 167.16 32.984 167.272 32.272 167.36L32.184 166.996C32.492 166.964 32.796 166.924 33.096 166.88V166.22H32.356V165.856H33.096V165.432H33.48V165.856H34.156V166.22H33.48V166.816C33.748 166.768 34.012 166.712 34.272 166.656ZM32.244 163.864H34.256V164.224H33.252C33.084 164.568 32.928 164.832 32.788 165.02C33.108 164.988 33.42 164.944 33.728 164.892C33.648 164.772 33.568 164.648 33.48 164.524L33.772 164.336C34.036 164.688 34.24 164.992 34.38 165.252L34.064 165.472C34.012 165.376 33.956 165.276 33.9 165.172C33.396 165.264 32.852 165.34 32.264 165.4L32.18 165.06C32.244 165.052 32.296 165.04 32.328 165.024C32.456 164.916 32.628 164.648 32.844 164.224H32.244V163.864ZM35.296 167.376H34.704L34.62 167.008C34.812 167.02 34.992 167.028 35.164 167.028C35.264 167.028 35.316 166.976 35.316 166.872V163.732H35.7V166.968C35.7 167.24 35.564 167.376 35.296 167.376ZM34.536 164.092H34.904V166.544H34.536V164.092ZM39.32 163.856V167.392H38.94V167.112H37.136V167.396H36.756V163.856H39.32ZM37.136 166.74H38.94V165.628H37.136V166.74ZM37.136 165.256H38.94V164.224H37.136V165.256ZM40.768 166.428C40.872 166.428 40.956 166.468 41.028 166.552C41.092 166.64 41.128 166.748 41.128 166.884C41.128 167.088 41.068 167.264 40.948 167.416C40.828 167.568 40.668 167.672 40.468 167.728V167.48C40.576 167.44 40.668 167.38 40.74 167.292C40.804 167.2 40.84 167.108 40.84 167.012C40.816 167.02 40.784 167.024 40.744 167.024C40.66 167.024 40.592 166.996 40.536 166.94C40.48 166.884 40.452 166.812 40.452 166.728C40.452 166.636 40.48 166.564 40.54 166.508C40.596 166.452 40.672 166.428 40.768 166.428ZM44.648 167.376H44.304L44.224 167.016C44.328 167.032 44.424 167.044 44.52 167.044C44.616 167.044 44.664 166.988 44.664 166.884V166.044C44.52 166.096 44.376 166.144 44.232 166.188L44.136 165.804C44.312 165.764 44.488 165.72 44.664 165.664V164.82H44.208V164.456H44.664V163.732H45.032V164.456H45.388V164.82H45.032V165.528C45.16 165.472 45.288 165.412 45.416 165.348V165.728C45.288 165.788 45.16 165.844 45.032 165.9V166.976C45.032 167.24 44.904 167.376 44.648 167.376ZM46.028 164.508C45.888 164.78 45.732 165.02 45.564 165.22L45.316 164.928C45.58 164.632 45.804 164.228 45.988 163.708L46.332 163.784C46.288 163.912 46.244 164.032 46.196 164.144H47.74V164.508H46.028ZM47.624 164.876C47.624 165.604 47.604 166.04 47.568 166.192C47.528 166.344 47.372 166.424 47.092 166.424H47.012L46.912 166.092C47.004 166.092 47.084 166.096 47.156 166.096C47.212 166.096 47.248 166.06 47.26 165.996C47.268 165.932 47.276 165.712 47.28 165.336L46.836 165.476V166.7H46.5V165.584L46.136 165.7V166.804C46.136 166.936 46.184 167.004 46.284 167.004H47.132C47.252 167.004 47.344 166.98 47.4 166.932C47.448 166.88 47.484 166.708 47.5 166.416L47.832 166.524C47.8 166.908 47.744 167.144 47.66 167.224C47.572 167.304 47.416 167.344 47.192 167.344H46.2C45.928 167.344 45.796 167.176 45.796 166.848V165.808L45.524 165.896V165.56L45.796 165.472V164.936H46.136V165.36L46.5 165.244V164.656H46.836V165.132L47.624 164.876ZM48.408 164H49.212C49.164 163.908 49.108 163.82 49.052 163.74L49.428 163.676C49.48 163.772 49.532 163.88 49.58 164H50.44C50.504 163.896 50.556 163.784 50.588 163.672L50.96 163.72C50.924 163.82 50.876 163.912 50.82 164H51.596V164.312H50.1C50.084 164.384 50.064 164.448 50.044 164.512H51.384V164.82H49.932C49.9 164.888 49.868 164.956 49.836 165.02H51.808V165.332H49.648C49.596 165.404 49.544 165.472 49.488 165.54H51.38V167.416H51.012V167.284H49.316V167.416H48.944V166.06C48.748 166.208 48.532 166.344 48.296 166.468L48.12 166.132C48.584 165.928 48.952 165.66 49.224 165.332H48.192V165.02H49.444C49.484 164.956 49.52 164.888 49.552 164.82H48.628V164.512H49.676C49.7 164.444 49.72 164.376 49.736 164.312H48.408V164ZM49.316 166.296V166.496H51.012V166.296H49.316ZM51.012 166.024V165.836H49.316V166.024H51.012ZM51.012 166.988V166.772H49.316V166.988H51.012ZM54.048 165.536H55.624V166.824H54.048V165.536ZM55.28 166.496V165.868H54.388V166.496H55.28ZM52.32 164.232H52.9V163.716H53.264V164.232H53.836V164.568H53.264V165.08H53.812V165.424H53.348V165.908H53.832V166.252H53.348V166.868C53.364 166.872 53.376 166.876 53.392 166.884C53.624 166.964 54.164 167.004 55.012 167.004C55.376 167.004 55.648 166.996 55.824 166.984L55.76 167.36H55.096C54.072 167.36 53.428 167.3 53.168 167.188C52.968 167.096 52.792 166.944 52.636 166.732C52.584 166.972 52.516 167.196 52.436 167.412L52.16 167.168C52.32 166.708 52.412 166.2 52.432 165.64L52.756 165.68C52.748 165.888 52.736 166.084 52.712 166.272C52.796 166.416 52.888 166.54 52.992 166.636V165.424H52.284V165.08H52.9V164.568H52.32V164.232ZM54.456 164.236H53.944V163.884H55.684C55.68 164.596 55.64 165.02 55.568 165.16C55.492 165.3 55.364 165.372 55.18 165.372C55.096 165.372 54.996 165.364 54.876 165.352L54.784 165.02C54.912 165.032 55.016 165.04 55.1 165.048C55.196 165.044 55.252 164.996 55.276 164.908C55.3 164.824 55.316 164.6 55.32 164.236H54.808C54.756 164.504 54.688 164.72 54.604 164.88C54.492 165.08 54.324 165.256 54.108 165.412L53.86 165.1C54.044 164.98 54.188 164.844 54.284 164.696C54.356 164.576 54.416 164.424 54.456 164.236ZM56.232 164.74H57.764C57.788 164.528 57.804 164.304 57.808 164.072V163.724H58.192V163.984C58.192 164.248 58.176 164.5 58.144 164.74H59.768V165.108H58.24C58.52 165.964 59.06 166.624 59.852 167.092L59.616 167.4C58.848 166.928 58.308 166.268 58.004 165.42C57.74 166.336 57.2 167.008 56.388 167.436L56.144 167.116C56.968 166.716 57.488 166.044 57.7 165.108H56.232V164.74ZM61.68 163.944H63.632V164.316H61.68V163.944ZM61.58 164.944H63.804V165.316H63.18V167.012C63.18 167.268 63.036 167.396 62.752 167.396H62.172L62.088 167.024C62.272 167.04 62.452 167.048 62.62 167.048C62.736 167.048 62.796 167.004 62.796 166.92V165.316H61.58V164.944ZM61 163.748L61.348 163.908C61.132 164.348 60.772 164.74 60.26 165.092L60.144 164.712C60.532 164.436 60.816 164.116 61 163.748ZM61.188 164.664L61.532 164.824C61.424 165.04 61.288 165.244 61.124 165.436V167.412H60.752V165.808C60.608 165.932 60.456 166.052 60.288 166.168L60.176 165.792C60.632 165.472 60.972 165.096 61.188 164.664ZM66.192 164.476V165.172H65.824V164.476C65.512 164.852 65.032 165.164 64.384 165.412L64.18 165.076C64.756 164.908 65.192 164.7 65.484 164.456H64.352V164.1H65.824V163.732H66.192V164.1H67.644V164.456H66.516C66.796 164.68 67.228 164.884 67.812 165.068L67.556 165.392C66.928 165.112 66.472 164.808 66.192 164.476ZM64.824 165.3H67.112V165.648C66.852 165.812 66.564 165.972 66.244 166.128V166.18H67.728V166.54H66.244V167.036C66.244 167.284 66.116 167.408 65.864 167.408H65.352L65.252 167.048C65.396 167.056 65.556 167.06 65.728 167.06C65.828 167.06 65.88 167.008 65.88 166.908V166.54H64.276V166.18H65.88V165.952C66.14 165.832 66.348 165.732 66.508 165.648H64.824V165.3ZM68.272 165.22H68.884V164.828H69.264V165.22H69.776V165.588H69.264V165.68C69.456 165.852 69.648 166.044 69.844 166.256L69.628 166.576C69.488 166.36 69.368 166.18 69.264 166.036V167.416H68.884V166.052C68.732 166.384 68.532 166.684 68.288 166.956L68.124 166.532C68.444 166.252 68.68 165.94 68.832 165.588H68.272V165.22ZM71.588 164.936V167.416H71.22V167.264H70.304V167.416H69.94V164.936H71.588ZM70.304 166.928H71.22V166.56H70.304V166.928ZM70.304 166.24H71.22V165.916H70.304V166.24ZM70.304 165.596H71.22V165.272H70.304V165.596ZM68.832 164.332C68.744 164.484 68.644 164.628 68.532 164.756L68.2 164.548C68.44 164.288 68.608 164.008 68.712 163.704L69.076 163.784C69.052 163.856 69.024 163.928 68.996 163.996H69.992V164.332H69.432C69.52 164.452 69.592 164.568 69.648 164.676L69.3 164.808C69.224 164.644 69.132 164.484 69.028 164.332H68.832ZM70.544 164.332C70.464 164.5 70.372 164.652 70.272 164.796L69.952 164.592C70.16 164.308 70.304 164.004 70.392 163.684L70.756 163.764C70.732 163.844 70.704 163.92 70.68 163.996H71.816V164.332H71.144C71.232 164.456 71.304 164.572 71.36 164.676L71.028 164.8C70.948 164.64 70.852 164.484 70.748 164.332H70.544ZM72.768 166.428C72.872 166.428 72.956 166.468 73.028 166.552C73.092 166.64 73.128 166.748 73.128 166.884C73.128 167.088 73.068 167.264 72.948 167.416C72.828 167.568 72.668 167.672 72.468 167.728V167.48C72.576 167.44 72.668 167.38 72.74 167.292C72.804 167.2 72.84 167.108 72.84 167.012C72.816 167.02 72.784 167.024 72.744 167.024C72.66 167.024 72.592 166.996 72.536 166.94C72.48 166.884 72.452 166.812 72.452 166.728C72.452 166.636 72.48 166.564 72.54 166.508C72.596 166.452 72.672 166.428 72.768 166.428ZM76.968 165.216C76.788 165.32 76.592 165.416 76.38 165.496L76.192 165.168C76.688 164.984 77.072 164.744 77.344 164.452H76.344V164.1H77.608C77.68 163.976 77.736 163.848 77.776 163.72L78.164 163.768C78.124 163.888 78.08 163.996 78.032 164.1H79.684V164.452H78.668C78.928 164.752 79.316 164.992 79.832 165.168L79.668 165.512C79.448 165.42 79.252 165.32 79.08 165.216V165.488H78.184V165.952H77.824V165.488H76.968V165.216ZM78.976 165.148C78.672 164.944 78.432 164.712 78.26 164.452H77.824C77.628 164.724 77.38 164.956 77.08 165.148H77.824V164.696H78.184V165.148H78.976ZM76.224 166.132H77.08L77.092 165.936V165.708H77.456V165.936L77.444 166.132H78.548V165.708H78.912V166.132H79.784V166.488H78.912V167.4H78.548V166.488H77.384C77.344 166.648 77.288 166.788 77.216 166.908C77.072 167.132 76.84 167.308 76.52 167.432L76.328 167.128C76.616 167.008 76.816 166.86 76.924 166.68C76.956 166.62 76.98 166.556 77.004 166.488H76.224V166.132ZM81.24 165.124H82.772V166.588H81.24V165.124ZM82.404 166.232V165.48H81.608V166.232H82.404ZM81.704 163.704L82.1 163.756C82.052 163.94 81.992 164.112 81.912 164.272H83.632V166.936C83.632 167.236 83.496 167.388 83.224 167.388H82.632L82.528 167.004L83.096 167.02C83.2 167.02 83.252 166.964 83.252 166.852V164.636H80.78V167.404H80.4V164.272H81.508C81.592 164.088 81.656 163.9 81.704 163.704ZM87.572 163.752L87.756 164.088C87.412 164.208 87.032 164.28 86.616 164.308V164.956H87.852V165.32H87.468V167.416H87.096V165.32H86.616V165.724C86.596 166.428 86.44 166.988 86.148 167.408L85.88 167.12C86.108 166.784 86.232 166.32 86.248 165.724V163.996C86.74 163.988 87.18 163.904 87.572 163.752ZM84.232 164.036H84.944C84.896 163.932 84.84 163.832 84.78 163.74L85.172 163.676C85.22 163.784 85.272 163.904 85.32 164.036H86.06V164.388H84.232V164.036ZM84.192 164.944H84.616C84.564 164.804 84.504 164.672 84.436 164.552L84.768 164.428C84.832 164.572 84.896 164.744 84.952 164.944H85.332C85.396 164.776 85.452 164.604 85.5 164.424L85.84 164.544C85.792 164.692 85.736 164.824 85.676 164.944H86.084V165.292H85.344V165.652H86.016V165.996H85.344V167.068C85.344 167.308 85.212 167.428 84.948 167.428H84.74L84.656 167.076C84.716 167.092 84.772 167.1 84.824 167.1C84.92 167.1 84.968 167.06 84.968 166.98V165.996H84.256V165.652H84.968V165.292H84.192V164.944ZM84.496 166.172L84.84 166.244C84.744 166.648 84.612 167 84.436 167.3L84.124 167.1C84.3 166.812 84.424 166.5 84.496 166.172ZM85.748 166.144C85.852 166.4 85.936 166.632 85.996 166.84L85.676 166.96C85.612 166.712 85.532 166.468 85.436 166.228L85.748 166.144ZM89 164.792C88.84 165.152 88.64 165.452 88.396 165.692L88.148 165.376C88.508 164.996 88.752 164.484 88.88 163.84L89.268 163.908C89.228 164.092 89.184 164.264 89.136 164.424H89.88V163.752H90.26V164.424H91.544V164.792H90.26V165.62H91.464V165.988H90.26V166.9H91.8V167.276H88.252V166.9H89.88V165.988H88.736V165.62H89.88V164.792H89ZM93.216 164.856H94.324V164.316C94.036 164.34 93.732 164.356 93.408 164.356L93.288 164.016C94.156 164.016 94.884 163.92 95.476 163.728L95.664 164.048C95.388 164.144 95.072 164.22 94.712 164.272V164.856H95.828V165.22H94.712V165.74H95.592V167.408H95.216V167.216H93.852V167.412H93.472V165.74H94.324V165.22H93.216V164.856ZM93.852 166.86H95.216V166.096H93.852V166.86ZM92.54 163.76C92.804 163.932 93.032 164.108 93.22 164.284L92.96 164.54C92.8 164.376 92.572 164.196 92.28 164.004L92.54 163.76ZM92.448 164.712C92.72 164.908 92.952 165.104 93.136 165.3L92.872 165.564C92.708 165.38 92.476 165.184 92.18 164.972L92.448 164.712ZM92.836 165.788L93.184 165.924C93.016 166.436 92.828 166.916 92.628 167.364L92.248 167.196C92.476 166.736 92.672 166.268 92.836 165.788Z" fill="#1C1E22"/>
<g clip-path="url(#clip0_1152_2073)">
<path d="M21.9999 171C21.212 171 20.5713 171.643 20.5713 172.433C20.5713 172.726 20.6592 173.008 20.8237 173.246C20.8319 173.26 20.8402 173.273 20.85 173.287L21.8928 174.665C21.9211 174.697 21.9591 174.714 21.9999 174.714C22.0401 174.714 22.0784 174.697 22.1115 174.659L23.1494 173.287C23.1596 173.273 23.1684 173.258 23.1732 173.249C23.3397 173.01 23.4288 172.725 23.4284 172.433C23.4284 171.643 22.7876 171 21.9999 171ZM21.9999 172.945C21.8647 172.945 21.7351 172.891 21.6394 172.795C21.5437 172.699 21.4898 172.569 21.4895 172.433C21.4931 172.3 21.5485 172.173 21.6438 172.079C21.7391 171.986 21.8668 171.934 21.9998 171.934C22.1328 171.934 22.2605 171.986 22.3558 172.079C22.4511 172.173 22.5065 172.3 22.51 172.433C22.5097 172.569 22.4558 172.699 22.3602 172.795C22.2646 172.891 22.135 172.945 21.9999 172.945Z" fill="#1C1E22"/>
</g>
<path d="M25.381 171.588C25.588 171.738 25.765 171.885 25.909 172.035L25.702 172.236C25.576 172.098 25.402 171.948 25.177 171.786L25.381 171.588ZM25.327 172.323C25.519 172.467 25.684 172.608 25.816 172.752L25.612 172.956C25.498 172.818 25.333 172.674 25.123 172.518L25.327 172.323ZM25.594 173.139L25.855 173.241C25.729 173.619 25.591 173.973 25.438 174.306L25.15 174.18C25.321 173.841 25.468 173.493 25.594 173.139ZM25.948 171.705H27.874V171.981H27.655V173.979C27.655 174.192 27.553 174.3 27.352 174.3H26.851L26.791 174.027C26.953 174.039 27.106 174.045 27.253 174.045C27.331 174.045 27.373 173.997 27.373 173.907V171.981H25.948V171.705ZM26.068 172.371H27.052V173.529H26.068V172.371ZM26.788 173.271V172.626H26.332V173.271H26.788ZM28.156 171.792H29.383C29.395 171.702 29.407 171.609 29.416 171.516L29.707 171.555C29.698 171.639 29.689 171.717 29.677 171.792H30.844V172.059H29.632C29.614 172.146 29.596 172.23 29.578 172.311H30.697V173.961C30.697 174.177 30.595 174.288 30.397 174.288H30.112L30.037 174.012L30.304 174.018C30.379 174.018 30.418 173.976 30.418 173.898V172.578H28.588V174.306H28.309V172.311H29.287C29.305 172.227 29.323 172.143 29.338 172.059H28.156V171.792ZM29.2 172.632C29.26 172.734 29.314 172.851 29.365 172.986H29.638C29.698 172.869 29.752 172.746 29.8 172.62L30.058 172.716C30.013 172.812 29.965 172.902 29.911 172.986H30.205V173.235H29.638V173.487H30.286V173.736H29.638V174.261H29.362V173.736H28.717V173.487H29.362V173.235H28.804V172.986H29.092C29.05 172.893 29.002 172.806 28.945 172.725L29.2 172.632ZM31.75 172.692C31.813 172.692 31.867 172.713 31.909 172.761C31.954 172.803 31.978 172.854 31.978 172.92C31.978 172.98 31.954 173.034 31.909 173.079C31.867 173.124 31.813 173.148 31.75 173.148C31.684 173.148 31.633 173.124 31.591 173.079C31.543 173.034 31.522 172.98 31.522 172.92C31.522 172.854 31.543 172.803 31.591 172.761C31.633 172.713 31.684 172.692 31.75 172.692ZM35.02 173.157V174.3H34.747V174.186H33.958V174.3H33.685V173.157H35.02ZM33.958 173.928H34.747V173.415H33.958V173.928ZM34.015 171.513L34.288 171.567C34.264 171.639 34.234 171.708 34.204 171.777H35.053V171.984C34.945 172.215 34.789 172.422 34.582 172.605C34.813 172.743 35.083 172.851 35.392 172.926L35.227 173.166C34.885 173.076 34.597 172.947 34.357 172.782C34.117 172.947 33.829 173.088 33.493 173.208L33.319 172.977C33.64 172.872 33.913 172.749 34.138 172.605C34.03 172.506 33.937 172.398 33.856 172.284C33.76 172.383 33.655 172.473 33.544 172.557L33.373 172.335C33.691 172.11 33.904 171.837 34.015 171.513ZM34.018 172.089C34.111 172.221 34.225 172.341 34.357 172.449C34.513 172.32 34.642 172.179 34.738 172.029H34.06C34.042 172.053 34.03 172.071 34.018 172.089ZM32.89 171.585C33.097 171.735 33.274 171.882 33.418 172.032L33.211 172.236C33.088 172.095 32.914 171.945 32.686 171.783L32.89 171.585ZM32.836 172.32C33.028 172.464 33.193 172.605 33.325 172.749L33.121 172.956C33.007 172.818 32.842 172.674 32.632 172.518L32.836 172.32ZM33.1 173.139L33.358 173.241C33.235 173.619 33.097 173.973 32.947 174.303L32.662 174.177C32.83 173.841 32.977 173.493 33.1 173.139ZM35.734 171.645H36.757V171.864C36.661 172.122 36.55 172.395 36.421 172.683C36.619 172.956 36.724 173.196 36.742 173.4C36.742 173.538 36.709 173.64 36.649 173.7C36.556 173.778 36.394 173.817 36.166 173.82L36.076 173.535C36.136 173.544 36.187 173.55 36.226 173.55C36.319 173.544 36.382 173.532 36.415 173.511C36.445 173.487 36.46 173.451 36.46 173.4C36.46 173.199 36.352 172.974 36.139 172.725C36.28 172.425 36.391 172.152 36.472 171.906H36.007V174.318H35.734V171.645ZM38.272 171.684V174.3H37.996V174.075H37.159V174.294H36.883V171.684H38.272ZM37.159 173.802H37.996V173.007H37.159V173.802ZM37.159 172.743H37.996V171.96H37.159V172.743Z" fill="#1C1E22"/>
<defs>
<clipPath id="clip0_1152_2073">
<rect width="4" height="4" fill="white" transform="translate(20 171)"/>
</clipPath>
</defs>
</svg>
