<svg width="155" height="190" viewBox="0 0 155 190" fill="none" xmlns="http://www.w3.org/2000/svg">
<rect width="155" height="190" fill="white"/>
<rect y="20" width="155" height="129" fill="#EBEBEB"/>
<path d="M123.502 144.198H121V143.202H121.498V143.7H123.502V144.198ZM121.498 143.202V142.698H122.002V143.202H121.498ZM122.002 142.698V142.2H122.5V142.698H122.002ZM122.5 142.2V141.702H122.998V142.2H122.5ZM122.998 141.702V140.202H123.502V141.702H122.998ZM121.498 140.202V141.198H121V140.202H121.498ZM122.998 140.202H121.498V139.698H122.998V140.202ZM125.998 144.198H124.498V143.7H125.998V144.198ZM125.998 143.7V141.702H125.5V142.2H125.002V142.698H124.498V143.7H124V140.202H124.498V142.2H125.002V141.702H125.5V141.198H125.998V140.202H126.502V143.7H125.998ZM125.998 140.202H124.498V139.698H125.998V140.202ZM129.502 144.198H127V143.202H127.498V143.7H129.502V144.198ZM127.498 143.202V142.698H128.002V143.202H127.498ZM128.002 142.698V142.2H128.5V142.698H128.002ZM128.5 142.2V141.702H128.998V142.2H128.5ZM128.998 141.702V140.202H129.502V141.702H128.998ZM127.498 140.202V141.198H127V140.202H127.498ZM128.998 140.202H127.498V139.698H128.998V140.202ZM131.998 143.202V144.198H131.5V143.202H130V141.702H130.498V142.698H131.5V140.7H131.002V141.702H130.498V140.7H131.002V139.698H131.998V142.698H132.502V143.202H131.998ZM133 142.2V141.702H135.502V142.2H133ZM137.998 144.198H136.498V143.7H137.998V144.198ZM137.998 143.7V141.702H137.5V142.2H137.002V142.698H136.498V143.7H136V140.202H136.498V142.2H137.002V141.702H137.5V141.198H137.998V140.202H138.502V143.7H137.998ZM137.998 140.202H136.498V139.698H137.998V140.202ZM139 141.198V140.7H139.498V141.198H139ZM140.5 139.698V144.198H140.002V140.7H139.498V140.202H140.002V139.698H140.5ZM142 142.2V141.702H144.502V142.2H142ZM145 141.198V140.7H145.498V141.198H145ZM146.5 139.698V144.198H146.002V140.7H145.498V140.202H146.002V139.698H146.5ZM149.998 144.198H148.498V143.7H149.998V144.198ZM149.998 143.7V141.702H149.5V142.2H149.002V142.698H148.498V143.7H148V140.202H148.498V142.2H149.002V141.702H149.5V141.198H149.998V140.202H150.502V143.7H149.998ZM149.998 140.202H148.498V139.698H149.998V140.202Z" fill="#F56E00"/>
<path d="M21.664 8.364H22.44V7.736H22.82V8.364H23.616V10.048H22.824V10.84C22.992 10.816 23.148 10.788 23.292 10.76C23.244 10.592 23.196 10.432 23.14 10.28L23.448 10.176C23.58 10.516 23.7 10.904 23.808 11.344L23.46 11.432C23.436 11.316 23.408 11.204 23.384 11.1C22.976 11.188 22.376 11.272 21.576 11.344L21.516 10.96C21.856 10.94 22.168 10.916 22.448 10.888V10.048H21.664V8.364ZM23.248 9.7V8.712H22.82V9.7H23.248ZM22.452 9.7V8.712H22.036V9.7H22.452ZM21.352 7.76L21.668 7.956C21.504 8.212 21.34 8.416 21.18 8.576C21.204 8.624 21.224 8.668 21.24 8.712C21.356 9.036 21.42 9.496 21.432 10.092C21.432 10.74 21.352 11.128 21.192 11.264C21.096 11.332 20.968 11.368 20.808 11.368C20.672 11.368 20.56 11.364 20.48 11.364L20.368 11.008C20.496 11.024 20.616 11.032 20.728 11.032C20.84 11.032 20.912 11.008 20.948 10.968C21.028 10.872 21.072 10.572 21.072 10.072C21.072 9.952 21.068 9.844 21.06 9.74C20.868 9.996 20.648 10.216 20.4 10.396L20.188 10.076C20.536 9.844 20.808 9.572 21.008 9.252C20.98 9.108 20.948 8.98 20.908 8.868C20.9 8.852 20.896 8.84 20.892 8.832C20.748 8.944 20.58 9.056 20.396 9.172L20.192 8.84C20.376 8.752 20.552 8.636 20.72 8.5C20.608 8.324 20.468 8.168 20.304 8.024L20.6 7.792C20.752 7.944 20.88 8.096 20.988 8.248C21.116 8.104 21.236 7.94 21.352 7.76ZM26.612 9.884C26.552 9.9 26.492 9.912 26.436 9.928C26.496 10.112 26.528 10.312 26.532 10.528C26.532 10.848 26.484 11.072 26.396 11.192C26.292 11.336 26.06 11.408 25.696 11.408H25.568L25.44 11.072H25.644C25.868 11.072 26.008 11.04 26.064 10.98C26.128 10.9 26.164 10.752 26.164 10.528C26.164 10.488 26.16 10.448 26.16 10.412C25.728 10.736 25.16 11.004 24.464 11.22L24.272 10.896C25.052 10.676 25.66 10.392 26.096 10.048C26.072 9.968 26.04 9.888 26.008 9.816C25.632 10.096 25.132 10.324 24.512 10.504L24.324 10.176C24.976 10.008 25.484 9.796 25.848 9.536C25.808 9.484 25.772 9.436 25.732 9.388C25.716 9.396 25.704 9.4 25.692 9.408C25.432 9.532 25.064 9.664 24.592 9.804L24.4 9.488C24.768 9.412 25.112 9.308 25.432 9.176C25.528 9.136 25.62 9.096 25.708 9.052H24.812V8.7H27.188V9.052H26.3C26.204 9.116 26.112 9.176 26.024 9.232C26.14 9.36 26.236 9.496 26.316 9.64C26.668 9.536 27.004 9.384 27.324 9.18L27.58 9.436C27.372 9.568 27.152 9.68 26.916 9.776C27.1 10.244 27.4 10.62 27.808 10.908L27.536 11.224C27.112 10.868 26.804 10.42 26.612 9.884ZM26.092 7.692C26.136 7.796 26.176 7.912 26.216 8.04H27.716V8.784H27.336V8.392H24.664V8.784H24.284V8.04H25.832C25.792 7.936 25.748 7.844 25.704 7.76L26.092 7.692ZM31.892 10.292C31.852 10.7 31.792 10.972 31.712 11.1C31.636 11.22 31.476 11.284 31.232 11.284H30.188C29.928 11.284 29.8 11.148 29.8 10.884V9.088H31.212V8.252H29.632V7.884H31.576V9.452H30.172V10.736C30.172 10.856 30.232 10.916 30.352 10.924H31.164C31.308 10.924 31.4 10.868 31.436 10.764C31.468 10.66 31.496 10.46 31.512 10.164L31.892 10.292ZM28.692 7.752C28.952 7.948 29.172 8.144 29.352 8.344L29.092 8.608C28.932 8.42 28.712 8.22 28.428 8.012L28.692 7.752ZM28.164 8.912H29.088V10.636C29.224 10.524 29.372 10.4 29.524 10.26L29.624 10.66C29.356 10.896 29.072 11.108 28.768 11.292L28.624 10.952C28.688 10.896 28.724 10.828 28.724 10.748V9.276H28.164V8.912ZM33.612 7.94H35.528V8.264C34.996 8.848 34.62 9.276 34.404 9.548C34.18 9.828 34.032 10.056 33.96 10.232C33.896 10.392 33.864 10.52 33.864 10.62C33.864 10.692 33.88 10.76 33.92 10.816C33.964 10.872 34.06 10.904 34.212 10.904H35.16C35.28 10.9 35.364 10.844 35.412 10.74C35.456 10.632 35.48 10.392 35.48 10.016L35.84 10.12C35.84 10.588 35.796 10.892 35.712 11.036C35.62 11.18 35.472 11.252 35.272 11.252H34.144C33.904 11.252 33.74 11.2 33.648 11.1C33.544 10.972 33.492 10.812 33.492 10.62C33.492 10.48 33.528 10.32 33.6 10.144C33.68 9.944 33.844 9.684 34.092 9.364C34.308 9.08 34.6 8.724 34.968 8.3H33.612V7.94ZM32.292 8.504L32.596 8.524C32.58 8.924 32.532 9.304 32.448 9.66L32.136 9.576C32.228 9.236 32.28 8.88 32.292 8.504ZM33.42 8.4C33.54 8.668 33.644 8.972 33.74 9.316L33.428 9.396C33.348 9.084 33.252 8.78 33.132 8.492L33.42 8.4ZM32.748 7.732H33.12V11.396H32.748V7.732Z" fill="#1C1E22"/>
<path d="M6.188 171.344H9.808V171.72H6.188V171.344ZM13.144 170.472V169.916H13.516V170.824H10.492V169.916H10.864V170.472H11.816V169.712H12.184V170.472H13.144ZM11.56 171.948C11.816 172.144 12.04 172.34 12.228 172.532C12.568 172.292 12.812 171.992 12.96 171.624H11.624C11.364 171.904 11.028 172.152 10.616 172.372L10.376 172.056C11.024 171.74 11.464 171.356 11.696 170.9L12.076 170.948C12.024 171.064 11.964 171.176 11.892 171.284H13.364V171.584C13.052 172.652 12.152 173.272 10.656 173.444L10.468 173.1C11.044 173.04 11.528 172.912 11.912 172.72C11.744 172.552 11.54 172.38 11.3 172.2L11.56 171.948ZM15.872 171.048C16.26 170.824 16.628 170.572 16.976 170.292H14.416V169.924H17.5V170.292C17.132 170.624 16.716 170.94 16.252 171.24V172.96C16.252 173.24 16.112 173.38 15.836 173.38C15.592 173.38 15.38 173.372 15.2 173.356L15.096 172.988C15.292 173.012 15.504 173.024 15.732 173.024C15.824 173.024 15.872 172.976 15.872 172.888V171.048ZM18.768 172.428C18.872 172.428 18.956 172.468 19.028 172.552C19.092 172.64 19.128 172.748 19.128 172.884C19.128 173.088 19.068 173.264 18.948 173.416C18.828 173.568 18.668 173.672 18.468 173.728V173.48C18.576 173.44 18.668 173.38 18.74 173.292C18.804 173.2 18.84 173.108 18.84 173.012C18.816 173.02 18.784 173.024 18.744 173.024C18.66 173.024 18.592 172.996 18.536 172.94C18.48 172.884 18.452 172.812 18.452 172.728C18.452 172.636 18.48 172.564 18.54 172.508C18.596 172.452 18.672 172.428 18.768 172.428ZM23.704 171.272V171.648C23.528 171.724 23.352 171.796 23.176 171.864V172.988C23.176 173.244 23.04 173.376 22.776 173.376H22.364L22.276 173.008C22.404 173.02 22.528 173.028 22.644 173.028C22.74 173.028 22.792 172.98 22.792 172.888V172C22.604 172.06 22.416 172.116 22.224 172.168L22.132 171.808C22.356 171.76 22.576 171.704 22.792 171.636V170.788H22.196V170.424H22.792V169.736H23.176V170.424H23.664V170.788H23.176V171.5C23.352 171.432 23.528 171.356 23.704 171.272ZM23.764 170H25.796V170.368H25.18V172.956C25.18 173.228 25.048 173.368 24.792 173.368H24.124L24.04 173C24.256 173.012 24.464 173.02 24.66 173.02C24.748 173.02 24.796 172.964 24.796 172.86V170.368H23.764V170ZM28.068 171.544H27.696V171.224C27.632 171.3 27.572 171.368 27.516 171.428L27.224 171.172C27.584 170.82 27.852 170.344 28.028 169.752L28.384 169.892C28.208 170.428 27.988 170.864 27.724 171.192H29.388C29.372 172.184 29.356 172.764 29.332 172.932C29.304 173.092 29.252 173.2 29.18 173.264C29.1 173.32 28.932 173.348 28.672 173.348H28.476L28.368 172.996C28.508 173.004 28.644 173.008 28.776 173.008C28.864 173.008 28.916 172.98 28.94 172.928C28.964 172.88 28.976 172.796 28.984 172.68C28.988 172.564 28.996 172.184 29.004 171.544H28.444C28.376 171.984 28.284 172.336 28.164 172.6C28.012 172.908 27.792 173.184 27.496 173.424L27.252 173.112C27.5 172.904 27.692 172.676 27.824 172.428C27.928 172.204 28.012 171.908 28.068 171.544ZM29.068 169.708C29.216 170.268 29.476 170.728 29.852 171.088L29.596 171.392C29.188 171 28.908 170.5 28.748 169.888L29.068 169.708ZM26.692 173.368H26.324L26.244 173.012C26.356 173.028 26.46 173.036 26.564 173.036C26.648 173.036 26.692 172.992 26.692 172.912V172.056C26.548 172.1 26.408 172.14 26.264 172.18L26.172 171.796C26.348 171.764 26.524 171.72 26.692 171.672V170.788H26.208V170.424H26.692V169.724H27.06V170.424H27.448V170.788H27.06V171.548C27.18 171.5 27.3 171.448 27.42 171.396V171.788L27.06 171.932V173C27.06 173.244 26.936 173.368 26.692 173.368ZM31.652 170.38V173.164H31.288V172.956H30.656V173.28H30.292V170.38H30.672C30.744 170.164 30.8 169.944 30.832 169.712L31.212 169.764C31.172 169.984 31.112 170.188 31.036 170.38H31.652ZM30.656 172.604H31.288V171.816H30.656V172.604ZM30.656 171.476H31.288V170.74H30.656V171.476ZM32.372 171.34C32.636 171.668 32.84 171.952 32.98 172.2L32.68 172.412C32.528 172.148 32.32 171.856 32.064 171.532L32.372 171.34ZM33.716 170.384C33.716 171.764 33.696 172.616 33.656 172.936C33.616 173.224 33.424 173.368 33.084 173.368C33.004 173.368 32.86 173.36 32.66 173.348L32.568 173C32.744 173.008 32.896 173.016 33.024 173.016C33.184 173.016 33.276 172.932 33.3 172.764C33.324 172.564 33.336 171.892 33.344 170.752H32.34C32.228 170.992 32.1 171.212 31.948 171.412L31.72 171.112C31.984 170.728 32.168 170.26 32.264 169.708L32.64 169.756C32.6 169.98 32.544 170.188 32.48 170.384H33.716ZM34.352 170.332H34.72V172.384H34.352V170.332ZM36.528 169.74H36.896V170.324H37.724V172.46C37.724 172.736 37.612 172.876 37.392 172.876H37.128L37.032 172.524L37.272 172.54C37.328 172.54 37.36 172.484 37.36 172.376V170.668H36.896V173.412H36.528V170.668H36.104V172.912H35.744V170.324H36.528V169.74ZM35.072 169.752H35.436V171.728C35.424 172.512 35.144 173.084 34.6 173.444L34.316 173.192C34.812 172.888 35.064 172.4 35.072 171.728V169.752ZM38.352 170.332H38.72V172.384H38.352V170.332ZM40.528 169.74H40.896V170.324H41.724V172.46C41.724 172.736 41.612 172.876 41.392 172.876H41.128L41.032 172.524L41.272 172.54C41.328 172.54 41.36 172.484 41.36 172.376V170.668H40.896V173.412H40.528V170.668H40.104V172.912H39.744V170.324H40.528V169.74ZM39.072 169.752H39.436V171.728C39.424 172.512 39.144 173.084 38.6 173.444L38.316 173.192C38.812 172.888 39.064 172.4 39.072 171.728V169.752ZM43.652 170.38V173.164H43.288V172.956H42.656V173.28H42.292V170.38H42.672C42.744 170.164 42.8 169.944 42.832 169.712L43.212 169.764C43.172 169.984 43.112 170.188 43.036 170.38H43.652ZM42.656 172.604H43.288V171.816H42.656V172.604ZM42.656 171.476H43.288V170.74H42.656V171.476ZM44.372 171.34C44.636 171.668 44.84 171.952 44.98 172.2L44.68 172.412C44.528 172.148 44.32 171.856 44.064 171.532L44.372 171.34ZM45.716 170.384C45.716 171.764 45.696 172.616 45.656 172.936C45.616 173.224 45.424 173.368 45.084 173.368C45.004 173.368 44.86 173.36 44.66 173.348L44.568 173C44.744 173.008 44.896 173.016 45.024 173.016C45.184 173.016 45.276 172.932 45.3 172.764C45.324 172.564 45.336 171.892 45.344 170.752H44.34C44.228 170.992 44.1 171.212 43.948 171.412L43.72 171.112C43.984 170.728 44.168 170.26 44.264 169.708L44.64 169.756C44.6 169.98 44.544 170.188 44.48 170.384H45.716ZM46.768 172.428C46.872 172.428 46.956 172.468 47.028 172.552C47.092 172.64 47.128 172.748 47.128 172.884C47.128 173.088 47.068 173.264 46.948 173.416C46.828 173.568 46.668 173.672 46.468 173.728V173.48C46.576 173.44 46.668 173.38 46.74 173.292C46.804 173.2 46.84 173.108 46.84 173.012C46.816 173.02 46.784 173.024 46.744 173.024C46.66 173.024 46.592 172.996 46.536 172.94C46.48 172.884 46.452 172.812 46.452 172.728C46.452 172.636 46.48 172.564 46.54 172.508C46.596 172.452 46.672 172.428 46.768 172.428ZM53.656 170.296V173.372H53.272V173.212H52.072V173.384H51.696V170.296H52.312C52.36 170.104 52.396 169.908 52.42 169.708L52.804 169.76C52.776 169.952 52.736 170.132 52.688 170.296H53.656ZM52.072 172.84H53.272V171.92H52.072V172.84ZM52.072 171.548H53.272V170.66H52.072V171.548ZM51.52 171.268V171.652C51.384 171.724 51.244 171.788 51.108 171.852V172.984C51.108 173.248 50.976 173.38 50.712 173.38H50.36L50.272 173.012C50.38 173.024 50.484 173.032 50.58 173.032C50.676 173.032 50.728 172.984 50.728 172.888V172.012C50.572 172.072 50.416 172.128 50.256 172.18L50.164 171.796C50.356 171.752 50.544 171.696 50.728 171.632V170.788H50.208V170.424H50.728V169.732H51.108V170.424H51.516V170.788H51.108V171.476C51.248 171.412 51.384 171.34 51.52 171.268ZM55.808 170.912H56.192V173.408H55.808V170.912ZM55.832 169.72H56.168C56.5 170.256 57.068 170.732 57.872 171.14L57.644 171.488C56.908 171.108 56.36 170.636 56 170.076C55.568 170.688 55.02 171.16 54.356 171.492L54.128 171.148C54.864 170.78 55.432 170.304 55.832 169.72ZM59.86 170.3H60.228V170.58H60.904V170.892H60.228V171.216H61.028V171.548H59.06V171.216H59.86V170.892H59.172V170.58H59.86V170.3ZM61.588 169.856V173.04C61.588 173.272 61.448 173.392 61.176 173.392H60.668L60.568 173.032C60.744 173.044 60.908 173.052 61.06 173.052C61.16 173.052 61.212 173.004 61.212 172.908V170.204H58.884V171.44C58.876 172.252 58.736 172.912 58.456 173.416L58.168 173.156C58.384 172.712 58.496 172.152 58.504 171.472V169.856H61.588ZM59.184 171.788H60.864V172.824H59.184V171.788ZM60.5 172.5V172.104H59.548V172.5H60.5ZM65.144 170.472V169.916H65.516V170.824H62.492V169.916H62.864V170.472H63.816V169.712H64.184V170.472H65.144ZM63.56 171.948C63.816 172.144 64.04 172.34 64.228 172.532C64.568 172.292 64.812 171.992 64.96 171.624H63.624C63.364 171.904 63.028 172.152 62.616 172.372L62.376 172.056C63.024 171.74 63.464 171.356 63.696 170.9L64.076 170.948C64.024 171.064 63.964 171.176 63.892 171.284H65.364V171.584C65.052 172.652 64.152 173.272 62.656 173.444L62.468 173.1C63.044 173.04 63.528 172.912 63.912 172.72C63.744 172.552 63.54 172.38 63.3 172.2L63.56 171.948ZM66.352 169.856H67.572V172.316H66.352V169.856ZM67.212 171.976V171.252H66.724V171.976H67.212ZM66.724 170.908H67.212V170.196H66.724V170.908ZM67.836 171.208H69.564V172.316H67.836V171.208ZM69.192 171.984V171.544H68.208V171.984H69.192ZM68.304 170.212H67.78V169.856H69.66C69.648 170.356 69.612 170.672 69.548 170.8C69.48 170.98 69.336 171.072 69.112 171.076C69.024 171.076 68.924 171.068 68.812 171.06L68.704 170.728C68.848 170.744 68.968 170.752 69.072 170.752C69.156 170.748 69.208 170.692 69.232 170.584C69.256 170.532 69.268 170.408 69.276 170.212H68.668C68.6 170.632 68.324 170.94 67.844 171.136L67.644 170.824C68.02 170.696 68.24 170.492 68.304 170.212ZM66.56 172.456L66.9 172.544C66.816 172.88 66.712 173.18 66.584 173.436L66.236 173.312C66.36 173.088 66.468 172.8 66.56 172.456ZM67.608 172.524C67.68 172.772 67.744 173.04 67.8 173.332L67.436 173.42C67.384 173.108 67.324 172.836 67.26 172.6L67.608 172.524ZM68.46 172.484C68.564 172.74 68.66 173.02 68.74 173.324L68.372 173.412C68.3 173.092 68.212 172.808 68.104 172.56L68.46 172.484ZM69.284 172.408C69.504 172.712 69.672 172.98 69.792 173.212L69.488 173.424C69.364 173.172 69.196 172.896 68.988 172.592L69.284 172.408Z" fill="#1C1E22"/>
<g clip-path="url(#clip0_1152_2068)">
<path d="M7.99986 177C7.21203 177 6.57129 177.643 6.57129 178.433C6.57129 178.726 6.65924 179.008 6.82371 179.246C6.83191 179.26 6.84023 179.273 6.85005 179.287L7.89278 180.665C7.9211 180.697 7.95911 180.714 7.99986 180.714C8.04011 180.714 8.07837 180.697 8.11154 180.659L9.14942 179.287C9.15961 179.273 9.16843 179.258 9.17315 179.249C9.33969 179.01 9.42882 178.725 9.42843 178.433C9.42843 177.643 8.78756 177 7.99986 177ZM7.99986 178.945C7.86469 178.945 7.73506 178.891 7.6394 178.795C7.54373 178.699 7.48985 178.569 7.48955 178.433C7.49314 178.3 7.54848 178.173 7.64378 178.079C7.73907 177.986 7.86681 177.934 7.9998 177.934C8.13279 177.934 8.26052 177.986 8.35582 178.079C8.45112 178.173 8.50645 178.3 8.51005 178.433C8.50972 178.569 8.45583 178.699 8.3602 178.795C8.26457 178.891 8.13499 178.945 7.99986 178.945Z" fill="#1C1E22"/>
</g>
<path d="M11.381 177.588C11.588 177.738 11.765 177.885 11.909 178.035L11.702 178.236C11.576 178.098 11.402 177.948 11.177 177.786L11.381 177.588ZM11.327 178.323C11.519 178.467 11.684 178.608 11.816 178.752L11.612 178.956C11.498 178.818 11.333 178.674 11.123 178.518L11.327 178.323ZM11.594 179.139L11.855 179.241C11.729 179.619 11.591 179.973 11.438 180.306L11.15 180.18C11.321 179.841 11.468 179.493 11.594 179.139ZM11.948 177.705H13.874V177.981H13.655V179.979C13.655 180.192 13.553 180.3 13.352 180.3H12.851L12.791 180.027C12.953 180.039 13.106 180.045 13.253 180.045C13.331 180.045 13.373 179.997 13.373 179.907V177.981H11.948V177.705ZM12.068 178.371H13.052V179.529H12.068V178.371ZM12.788 179.271V178.626H12.332V179.271H12.788ZM14.156 177.792H15.383C15.395 177.702 15.407 177.609 15.416 177.516L15.707 177.555C15.698 177.639 15.689 177.717 15.677 177.792H16.844V178.059H15.632C15.614 178.146 15.596 178.23 15.578 178.311H16.697V179.961C16.697 180.177 16.595 180.288 16.397 180.288H16.112L16.037 180.012L16.304 180.018C16.379 180.018 16.418 179.976 16.418 179.898V178.578H14.588V180.306H14.309V178.311H15.287C15.305 178.227 15.323 178.143 15.338 178.059H14.156V177.792ZM15.2 178.632C15.26 178.734 15.314 178.851 15.365 178.986H15.638C15.698 178.869 15.752 178.746 15.8 178.62L16.058 178.716C16.013 178.812 15.965 178.902 15.911 178.986H16.205V179.235H15.638V179.487H16.286V179.736H15.638V180.261H15.362V179.736H14.717V179.487H15.362V179.235H14.804V178.986H15.092C15.05 178.893 15.002 178.806 14.945 178.725L15.2 178.632ZM17.75 178.692C17.813 178.692 17.867 178.713 17.909 178.761C17.954 178.803 17.978 178.854 17.978 178.92C17.978 178.98 17.954 179.034 17.909 179.079C17.867 179.124 17.813 179.148 17.75 179.148C17.684 179.148 17.633 179.124 17.591 179.079C17.543 179.034 17.522 178.98 17.522 178.92C17.522 178.854 17.543 178.803 17.591 178.761C17.633 178.713 17.684 178.692 17.75 178.692ZM21.02 179.157V180.3H20.747V180.186H19.958V180.3H19.685V179.157H21.02ZM19.958 179.928H20.747V179.415H19.958V179.928ZM20.015 177.513L20.288 177.567C20.264 177.639 20.234 177.708 20.204 177.777H21.053V177.984C20.945 178.215 20.789 178.422 20.582 178.605C20.813 178.743 21.083 178.851 21.392 178.926L21.227 179.166C20.885 179.076 20.597 178.947 20.357 178.782C20.117 178.947 19.829 179.088 19.493 179.208L19.319 178.977C19.64 178.872 19.913 178.749 20.138 178.605C20.03 178.506 19.937 178.398 19.856 178.284C19.76 178.383 19.655 178.473 19.544 178.557L19.373 178.335C19.691 178.11 19.904 177.837 20.015 177.513ZM20.018 178.089C20.111 178.221 20.225 178.341 20.357 178.449C20.513 178.32 20.642 178.179 20.738 178.029H20.06C20.042 178.053 20.03 178.071 20.018 178.089ZM18.89 177.585C19.097 177.735 19.274 177.882 19.418 178.032L19.211 178.236C19.088 178.095 18.914 177.945 18.686 177.783L18.89 177.585ZM18.836 178.32C19.028 178.464 19.193 178.605 19.325 178.749L19.121 178.956C19.007 178.818 18.842 178.674 18.632 178.518L18.836 178.32ZM19.1 179.139L19.358 179.241C19.235 179.619 19.097 179.973 18.947 180.303L18.662 180.177C18.83 179.841 18.977 179.493 19.1 179.139ZM21.734 177.645H22.757V177.864C22.661 178.122 22.55 178.395 22.421 178.683C22.619 178.956 22.724 179.196 22.742 179.4C22.742 179.538 22.709 179.64 22.649 179.7C22.556 179.778 22.394 179.817 22.166 179.82L22.076 179.535C22.136 179.544 22.187 179.55 22.226 179.55C22.319 179.544 22.382 179.532 22.415 179.511C22.445 179.487 22.46 179.451 22.46 179.4C22.46 179.199 22.352 178.974 22.139 178.725C22.28 178.425 22.391 178.152 22.472 177.906H22.007V180.318H21.734V177.645ZM24.272 177.684V180.3H23.996V180.075H23.159V180.294H22.883V177.684H24.272ZM23.159 179.802H23.996V179.007H23.159V179.802ZM23.159 178.743H23.996V177.96H23.159V178.743Z" fill="#1C1E22"/>
<circle cx="12" cy="10" r="6" fill="black"/>
<circle cx="140" cy="10" r="1" fill="black"/>
<circle cx="144" cy="10" r="1" fill="black"/>
<circle cx="148" cy="10" r="1" fill="black"/>
<g clip-path="url(#clip1_1152_2068)">
<path d="M13.4953 156.105C13.4953 156.114 13.4961 156.124 13.4961 156.136C13.4961 156.341 13.4531 156.555 13.3648 156.793C13.3328 156.883 13.293 156.974 13.243 157.073L13.2414 157.076L13.2391 157.082L13.2266 157.104C13.2234 157.109 13.2203 157.115 13.2164 157.123L13.2078 157.14C13.1898 157.176 13.1664 157.221 13.1367 157.269C12.8258 157.813 12.3023 158.426 11.5805 159.091C11.2086 159.434 10.8016 159.775 10.3711 160.102C10.3555 160.115 10.3445 160.123 10.3398 160.127L10.3375 160.129C10.2383 160.206 10.1164 160.248 9.99453 160.248C9.87109 160.248 9.75313 160.207 9.65313 160.13L9.65234 160.129C9.64844 160.126 9.63906 160.119 9.62656 160.109C9.02031 159.651 8.55312 159.233 8.26875 158.963C7.45547 158.194 6.91875 157.499 6.67344 156.9C6.66797 156.888 6.66484 156.878 6.66172 156.871L6.66094 156.869C6.55703 156.609 6.50469 156.362 6.50469 156.135C6.50469 156.129 6.50469 156.121 6.50547 156.112C6.50234 156.082 6.5 156.049 6.5 156.011C6.5 154.764 7.45859 153.75 8.63672 153.75C8.92578 153.75 9.20703 153.812 9.47422 153.934C9.66484 154.022 9.84141 154.136 9.99922 154.277C10.157 154.137 10.3328 154.022 10.5234 153.934C10.7914 153.812 11.0734 153.75 11.3633 153.75C12.5414 153.75 13.5 154.764 13.5 156.011C13.5 156.049 13.4977 156.082 13.4953 156.105Z" fill="#FF0004"/>
</g>
<g clip-path="url(#clip2_1152_2068)">
<path d="M22 153.893C20.2838 153.893 18.8926 155.284 18.8926 157C18.8927 158.663 20.1981 160.02 21.8398 160.104L22 160.108H22.001C22.4926 160.108 22.9761 159.992 23.4121 159.769L23.5957 159.667L23.5977 159.666L23.7588 159.572L23.8584 159.514L23.9707 159.544L24.7607 159.759L24.5449 158.971L24.5137 158.859L24.5732 158.758L24.7402 158.467C24.982 158.016 25.1082 157.512 25.1074 157L25.1035 156.84C25.0202 155.198 23.6626 153.893 22 153.893Z" stroke="black" stroke-width="0.553846"/>
</g>
<g clip-path="url(#clip3_1152_2068)">
<path d="M37.0767 157C37.0767 158.699 35.6991 160.077 33.9998 160.077C32.3004 160.077 30.9229 158.699 30.9229 157C30.9229 155.301 32.3004 153.923 33.9998 153.923" stroke="black" stroke-width="0.553846" stroke-linecap="round"/>
<path d="M35.231 153.923H36.7694C36.9394 153.923 37.0771 154.061 37.0771 154.231V155.769" stroke="black" stroke-width="0.553846" stroke-linecap="round"/>
<path d="M33.8039 156.804C33.6958 156.912 33.6958 157.088 33.8039 157.196C33.9121 157.304 34.0874 157.304 34.1956 157.196L33.8039 156.804ZM37.0767 153.923L36.8808 153.727L33.8039 156.804L33.9997 157L34.1956 157.196L37.2725 154.119L37.0767 153.923Z" fill="black"/>
</g>
<g clip-path="url(#clip4_1152_2068)">
<path d="M142.231 153.923H147.769V160.077L145 158.231L142.231 160.077V153.923Z" stroke="black" stroke-width="0.553846" stroke-linecap="round" stroke-linejoin="round"/>
</g>
<defs>
<clipPath id="clip0_1152_2068">
<rect width="4" height="4" fill="white" transform="translate(6 177)"/>
</clipPath>
<clipPath id="clip1_1152_2068">
<rect width="8" height="8" fill="white" transform="translate(6 153)"/>
</clipPath>
<clipPath id="clip2_1152_2068">
<rect width="8" height="8" fill="white" transform="matrix(-1 0 0 1 26 153)"/>
</clipPath>
<clipPath id="clip3_1152_2068">
<rect width="8" height="8" fill="white" transform="translate(30 153)"/>
</clipPath>
<clipPath id="clip4_1152_2068">
<rect width="8" height="8" fill="white" transform="translate(141 153)"/>
</clipPath>
</defs>
</svg>
