<svg width="176" height="130" viewBox="0 0 176 130" fill="none" xmlns="http://www.w3.org/2000/svg">
<rect width="176" height="130" fill="white"/>
<rect x="8" y="8" width="160" height="90" fill="#EBEBEB"/>
<path d="M11.032 110.08V109.02H11.416V110.448H10.196V111.828H11.232V110.768H11.612V112.384H11.232V112.192H8.388V110.768H8.768V111.828H9.804V110.448H8.584V109.02H8.968V110.08H9.804V108.716H10.196V110.08H11.032ZM13 109.792C12.84 110.152 12.64 110.452 12.396 110.692L12.148 110.376C12.508 109.996 12.752 109.484 12.88 108.84L13.268 108.908C13.228 109.092 13.184 109.264 13.136 109.424H13.88V108.752H14.26V109.424H15.544V109.792H14.26V110.62H15.464V110.988H14.26V111.9H15.8V112.276H12.252V111.9H13.88V110.988H12.736V110.62H13.88V109.792H13ZM17.844 110.096H16.528V109.748H19.52V110.74H18.212V111.064H19.664C19.664 111.552 19.628 111.864 19.564 111.996C19.496 112.132 19.344 112.2 19.104 112.204C18.936 112.204 18.768 112.2 18.608 112.196L18.516 111.836C18.704 111.844 18.88 111.852 19.044 111.852C19.156 111.852 19.224 111.812 19.248 111.736C19.264 111.664 19.276 111.548 19.276 111.388H18.212V112.416H17.844V111.456C17.564 111.8 17.092 112.096 16.432 112.348L16.22 112.004C16.804 111.82 17.22 111.612 17.46 111.388H16.412L16.604 110.396H17.844V110.096ZM17.844 110.74H16.94L16.86 111.064H17.844V110.74ZM18.212 110.396H19.132V110.096H18.212V110.396ZM16.82 109.308C16.732 109.44 16.632 109.564 16.524 109.68L16.192 109.476C16.436 109.236 16.612 108.98 16.716 108.704L17.084 108.784C17.056 108.852 17.028 108.916 17.004 108.976H18V109.308H17.436C17.512 109.404 17.576 109.496 17.628 109.584L17.288 109.708C17.212 109.572 17.124 109.436 17.028 109.308H16.82ZM18.52 109.292C18.44 109.432 18.352 109.564 18.252 109.684L17.924 109.48C18.136 109.24 18.288 108.98 18.38 108.704L18.744 108.784C18.72 108.844 18.7 108.904 18.68 108.96H19.808V109.292H19.16C19.24 109.396 19.308 109.492 19.36 109.584L19.024 109.708C18.952 109.564 18.864 109.424 18.76 109.292H18.52ZM20.188 110.344H23.808V110.72H20.188V110.344ZM24.304 110.104H25.724C25.768 109.852 25.8 109.576 25.816 109.276H24.408V108.912H27.592V109.276H26.2C26.18 109.58 26.148 109.856 26.108 110.104H27.708V110.468H26.288C26.568 111.184 27.084 111.736 27.84 112.124L27.604 112.432C26.824 112.008 26.288 111.408 25.992 110.636C25.928 110.86 25.856 111.048 25.768 111.2C25.5 111.676 25.044 112.088 24.404 112.436L24.164 112.124C24.748 111.82 25.164 111.464 25.412 111.048C25.504 110.892 25.58 110.7 25.644 110.468H24.304V110.104ZM28.768 111.428C28.872 111.428 28.956 111.468 29.028 111.552C29.092 111.64 29.128 111.748 29.128 111.884C29.128 112.088 29.068 112.264 28.948 112.416C28.828 112.568 28.668 112.672 28.468 112.728V112.48C28.576 112.44 28.668 112.38 28.74 112.292C28.804 112.2 28.84 112.108 28.84 112.012C28.816 112.02 28.784 112.024 28.744 112.024C28.66 112.024 28.592 111.996 28.536 111.94C28.48 111.884 28.452 111.812 28.452 111.728C28.452 111.636 28.48 111.564 28.54 111.508C28.596 111.452 28.672 111.428 28.768 111.428ZM32.28 108.904H35.72V109.276H34.428C34.356 109.428 34.28 109.576 34.196 109.716V112.42H33.804V110.26C33.436 110.688 32.972 111.072 32.408 111.408L32.156 111.076C33.032 110.58 33.648 109.98 34 109.276H32.28V108.904ZM34.7 109.992C35.148 110.344 35.528 110.7 35.836 111.052L35.536 111.352C35.272 111.012 34.904 110.648 34.428 110.256L34.7 109.992ZM38.868 109.232H37.74L37.612 110.324H38.78L38.868 109.232ZM37.232 110.324L37.36 109.232H36.512V108.864H39.272L39.06 111.932H39.784V112.3H36.216V111.932H37.04L37.188 110.692H36.604V110.324H37.232ZM37.424 111.932H38.656L38.752 110.692H37.568L37.424 111.932ZM40.768 111.428C40.872 111.428 40.956 111.468 41.028 111.552C41.092 111.64 41.128 111.748 41.128 111.884C41.128 112.088 41.068 112.264 40.948 112.416C40.828 112.568 40.668 112.672 40.468 112.728V112.48C40.576 112.44 40.668 112.38 40.74 112.292C40.804 112.2 40.84 112.108 40.84 112.012C40.816 112.02 40.784 112.024 40.744 112.024C40.66 112.024 40.592 111.996 40.536 111.94C40.48 111.884 40.452 111.812 40.452 111.728C40.452 111.636 40.48 111.564 40.54 111.508C40.596 111.452 40.672 111.428 40.768 111.428ZM47.464 112.348H47.212C46.988 112.348 46.88 112.224 46.88 111.984V109.984H46.74C46.708 111.06 46.468 111.852 46.02 112.36L45.752 112.124C46.144 111.668 46.356 110.952 46.384 109.984H46.028V109.628H46.388V108.724H46.744V109.628H47.728V109.984H47.228V111.908C47.228 111.972 47.256 112.008 47.32 112.008H47.404C47.436 112.008 47.46 111.976 47.476 111.912C47.5 111.844 47.512 111.636 47.52 111.288L47.844 111.392C47.82 111.856 47.78 112.132 47.72 112.22C47.664 112.304 47.576 112.348 47.464 112.348ZM44.22 109.1H44.964C44.912 108.984 44.856 108.88 44.792 108.784L45.2 108.72C45.248 108.832 45.3 108.96 45.352 109.1H46.064V109.444H44.22V109.1ZM44.376 109.7H45.872V110.76H45.316V112.016C45.316 112.256 45.196 112.376 44.964 112.376H44.664L44.588 112.032C44.676 112.048 44.764 112.056 44.844 112.056C44.916 112.056 44.956 112.012 44.956 111.924V110.76H44.376V109.7ZM45.52 110.44V110.024H44.724V110.44H45.52ZM44.452 110.94L44.764 111.024C44.68 111.384 44.572 111.704 44.44 111.976L44.128 111.864C44.252 111.62 44.36 111.312 44.452 110.94ZM45.74 110.932C45.852 111.2 45.936 111.444 45.996 111.668L45.696 111.784C45.624 111.52 45.54 111.264 45.436 111.012L45.74 110.932ZM47.212 108.772C47.4 108.988 47.544 109.18 47.644 109.344L47.364 109.536C47.26 109.36 47.112 109.164 46.928 108.948L47.212 108.772ZM48.768 108.84H51.252V110.284H48.768V108.84ZM50.876 109.96V109.712H49.144V109.96H50.876ZM49.144 109.412H50.876V109.164H49.144V109.412ZM49.856 110.86H48.22V110.516H51.784V110.86H50.236V111.232H51.356V111.568H50.236V111.996C50.42 112.012 50.636 112.02 50.876 112.02C51.228 112.02 51.528 112.012 51.768 112.004L51.664 112.36C51.384 112.36 51.128 112.356 50.904 112.352C50.24 112.348 49.788 112.296 49.544 112.2C49.352 112.116 49.176 111.956 49.02 111.72C48.868 111.992 48.676 112.224 48.444 112.408L48.196 112.096C48.556 111.812 48.804 111.432 48.932 110.96L49.292 111.02C49.252 111.164 49.208 111.296 49.16 111.424C49.32 111.672 49.496 111.828 49.696 111.896C49.744 111.912 49.796 111.924 49.856 111.94V110.86ZM53.448 110.212V110.564H54.944V110.212H53.448ZM54.944 110.896H53.448V111.24H54.944V110.896ZM54.944 111.568H53.448V112.404H53.092V110.408C52.884 110.652 52.656 110.876 52.4 111.084L52.156 110.764C52.62 110.396 52.988 109.972 53.252 109.5H52.264V109.132H53.436C53.496 108.988 53.548 108.84 53.596 108.696L53.984 108.74C53.944 108.876 53.9 109.008 53.852 109.132H55.784V109.5H53.688C53.624 109.632 53.552 109.76 53.476 109.884H55.3V112.048C55.3 112.268 55.172 112.38 54.916 112.388H54.468L54.376 112.044C54.524 112.056 54.664 112.064 54.796 112.064C54.892 112.064 54.944 112.02 54.944 111.932V111.568ZM57.748 108.744H58.124V109.096H59.648V109.452H58.124V109.876H59.396V111.232H56.668V109.876H57.748V108.744ZM59.016 110.88V110.232H57.044V110.88H59.016ZM56.66 111.364L56.976 111.52C56.832 111.864 56.66 112.16 56.468 112.408L56.156 112.18C56.348 111.952 56.516 111.68 56.66 111.364ZM57.612 111.492C57.692 111.748 57.764 112.028 57.828 112.328L57.444 112.416C57.396 112.096 57.332 111.812 57.256 111.568L57.612 111.492ZM58.444 111.44C58.56 111.712 58.66 112.004 58.748 112.32L58.372 112.408C58.296 112.072 58.2 111.772 58.088 111.512L58.444 111.44ZM59.244 111.352C59.496 111.68 59.688 111.964 59.824 112.208L59.508 112.428C59.368 112.164 59.18 111.868 58.94 111.548L59.244 111.352ZM60.544 108.856H63.46V110.3H62.188V110.552H63.512V110.88H62.188V111.128H63.744V111.468H60.256V111.128H61.812V110.88H60.488V110.552H61.812V110.3H60.544V108.856ZM63.096 109.98V109.184H62.176V109.98H63.096ZM61.824 109.98V109.184H60.908V109.98H61.824ZM60.604 111.592L60.936 111.68C60.852 111.96 60.744 112.208 60.616 112.416L60.268 112.292C60.396 112.108 60.508 111.872 60.604 111.592ZM61.62 111.632C61.7 111.848 61.776 112.084 61.84 112.336L61.472 112.42C61.42 112.148 61.356 111.912 61.284 111.704L61.62 111.632ZM62.46 111.616C62.568 111.832 62.664 112.068 62.744 112.324L62.38 112.408C62.308 112.136 62.224 111.896 62.12 111.688L62.46 111.616ZM63.256 111.564C63.464 111.812 63.62 112.024 63.732 112.208L63.432 112.42C63.316 112.22 63.16 111.992 62.968 111.744L63.256 111.564ZM61.388 109.264C61.476 109.424 61.552 109.612 61.616 109.824L61.312 109.904C61.252 109.72 61.176 109.54 61.088 109.364L61.388 109.264ZM62.592 109.24L62.904 109.324C62.84 109.544 62.76 109.736 62.664 109.904L62.36 109.796C62.448 109.652 62.524 109.464 62.592 109.24ZM65 111.4C65.152 111.4 65.28 111.452 65.388 111.556C65.496 111.656 65.552 111.78 65.552 111.932C65.552 112.08 65.496 112.208 65.388 112.312C65.28 112.412 65.152 112.464 65 112.464C64.848 112.464 64.716 112.412 64.612 112.316C64.5 112.212 64.448 112.084 64.448 111.932C64.448 111.78 64.5 111.652 64.612 111.552C64.716 111.448 64.848 111.4 65 111.4ZM65 111.664C64.924 111.664 64.86 111.688 64.804 111.744C64.748 111.792 64.724 111.856 64.724 111.932C64.724 112.004 64.748 112.068 64.804 112.124C64.86 112.172 64.924 112.2 65 112.2C65.072 112.2 65.14 112.172 65.196 112.124C65.248 112.068 65.276 112.004 65.276 111.932C65.276 111.856 65.248 111.792 65.196 111.744C65.14 111.688 65.072 111.664 65 111.664Z" fill="black"/>
<path d="M13.381 116.588C13.588 116.738 13.765 116.885 13.909 117.035L13.702 117.236C13.576 117.098 13.402 116.948 13.177 116.786L13.381 116.588ZM13.327 117.323C13.519 117.467 13.684 117.608 13.816 117.752L13.612 117.956C13.498 117.818 13.333 117.674 13.123 117.518L13.327 117.323ZM13.594 118.139L13.855 118.241C13.729 118.619 13.591 118.973 13.438 119.306L13.15 119.18C13.321 118.841 13.468 118.493 13.594 118.139ZM13.948 116.705H15.874V116.981H15.655V118.979C15.655 119.192 15.553 119.3 15.352 119.3H14.851L14.791 119.027C14.953 119.039 15.106 119.045 15.253 119.045C15.331 119.045 15.373 118.997 15.373 118.907V116.981H13.948V116.705ZM14.068 117.371H15.052V118.529H14.068V117.371ZM14.788 118.271V117.626H14.332V118.271H14.788ZM16.156 116.792H17.383C17.395 116.702 17.407 116.609 17.416 116.516L17.707 116.555C17.698 116.639 17.689 116.717 17.677 116.792H18.844V117.059H17.632C17.614 117.146 17.596 117.23 17.578 117.311H18.697V118.961C18.697 119.177 18.595 119.288 18.397 119.288H18.112L18.037 119.012L18.304 119.018C18.379 119.018 18.418 118.976 18.418 118.898V117.578H16.588V119.306H16.309V117.311H17.287C17.305 117.227 17.323 117.143 17.338 117.059H16.156V116.792ZM17.2 117.632C17.26 117.734 17.314 117.851 17.365 117.986H17.638C17.698 117.869 17.752 117.746 17.8 117.62L18.058 117.716C18.013 117.812 17.965 117.902 17.911 117.986H18.205V118.235H17.638V118.487H18.286V118.736H17.638V119.261H17.362V118.736H16.717V118.487H17.362V118.235H16.804V117.986H17.092C17.05 117.893 17.002 117.806 16.945 117.725L17.2 117.632ZM19.75 117.692C19.813 117.692 19.867 117.713 19.909 117.761C19.954 117.803 19.978 117.854 19.978 117.92C19.978 117.98 19.954 118.034 19.909 118.079C19.867 118.124 19.813 118.148 19.75 118.148C19.684 118.148 19.633 118.124 19.591 118.079C19.543 118.034 19.522 117.98 19.522 117.92C19.522 117.854 19.543 117.803 19.591 117.761C19.633 117.713 19.684 117.692 19.75 117.692ZM23.02 118.157V119.3H22.747V119.186H21.958V119.3H21.685V118.157H23.02ZM21.958 118.928H22.747V118.415H21.958V118.928ZM22.015 116.513L22.288 116.567C22.264 116.639 22.234 116.708 22.204 116.777H23.053V116.984C22.945 117.215 22.789 117.422 22.582 117.605C22.813 117.743 23.083 117.851 23.392 117.926L23.227 118.166C22.885 118.076 22.597 117.947 22.357 117.782C22.117 117.947 21.829 118.088 21.493 118.208L21.319 117.977C21.64 117.872 21.913 117.749 22.138 117.605C22.03 117.506 21.937 117.398 21.856 117.284C21.76 117.383 21.655 117.473 21.544 117.557L21.373 117.335C21.691 117.11 21.904 116.837 22.015 116.513ZM22.018 117.089C22.111 117.221 22.225 117.341 22.357 117.449C22.513 117.32 22.642 117.179 22.738 117.029H22.06C22.042 117.053 22.03 117.071 22.018 117.089ZM20.89 116.585C21.097 116.735 21.274 116.882 21.418 117.032L21.211 117.236C21.088 117.095 20.914 116.945 20.686 116.783L20.89 116.585ZM20.836 117.32C21.028 117.464 21.193 117.605 21.325 117.749L21.121 117.956C21.007 117.818 20.842 117.674 20.632 117.518L20.836 117.32ZM21.1 118.139L21.358 118.241C21.235 118.619 21.097 118.973 20.947 119.303L20.662 119.177C20.83 118.841 20.977 118.493 21.1 118.139ZM23.734 116.645H24.757V116.864C24.661 117.122 24.55 117.395 24.421 117.683C24.619 117.956 24.724 118.196 24.742 118.4C24.742 118.538 24.709 118.64 24.649 118.7C24.556 118.778 24.394 118.817 24.166 118.82L24.076 118.535C24.136 118.544 24.187 118.55 24.226 118.55C24.319 118.544 24.382 118.532 24.415 118.511C24.445 118.487 24.46 118.451 24.46 118.4C24.46 118.199 24.352 117.974 24.139 117.725C24.28 117.425 24.391 117.152 24.472 116.906H24.007V119.318H23.734V116.645ZM26.272 116.684V119.3H25.996V119.075H25.159V119.294H24.883V116.684H26.272ZM25.159 118.802H25.996V118.007H25.159V118.802ZM25.159 117.743H25.996V116.96H25.159V117.743Z" fill="black"/>
<g clip-path="url(#clip0_1019_412)">
<path d="M9.99986 116C9.21203 116 8.57129 116.643 8.57129 117.433C8.57129 117.726 8.65924 118.008 8.82371 118.246C8.83191 118.26 8.84023 118.273 8.85005 118.287L9.89278 119.665C9.9211 119.697 9.95911 119.714 9.99986 119.714C10.0401 119.714 10.0784 119.697 10.1115 119.659L11.1494 118.287C11.1596 118.273 11.1684 118.258 11.1732 118.249C11.3397 118.01 11.4288 117.725 11.4284 117.433C11.4284 116.643 10.7876 116 9.99986 116ZM9.99986 117.945C9.86469 117.945 9.73506 117.891 9.6394 117.795C9.54373 117.699 9.48985 117.569 9.48955 117.433C9.49314 117.3 9.54848 117.173 9.64378 117.079C9.73907 116.986 9.86681 116.934 9.9998 116.934C10.1328 116.934 10.2605 116.986 10.3558 117.079C10.4511 117.173 10.5065 117.3 10.51 117.433C10.5097 117.569 10.4558 117.699 10.3602 117.795C10.2646 117.891 10.135 117.945 9.99986 117.945Z" fill="#1C1E22"/>
</g>
<path d="M133.416 115.864V115.128C133.416 114.797 133.557 114.52 133.84 114.296L135.352 113.064C135.608 112.861 135.736 112.627 135.736 112.36V112.096C135.736 111.712 135.536 111.52 135.136 111.52H134.744C134.541 111.52 134.395 111.565 134.304 111.656C134.213 111.747 134.168 111.893 134.168 112.096V112.392C134.168 112.488 134.123 112.536 134.032 112.536H133.52C133.429 112.536 133.384 112.488 133.384 112.392V112.08C133.384 111.691 133.493 111.389 133.712 111.176C133.931 110.963 134.237 110.856 134.632 110.856H135.256C135.645 110.856 135.949 110.963 136.168 111.176C136.387 111.389 136.496 111.691 136.496 112.08V112.408C136.496 112.824 136.333 113.165 136.008 113.432L134.472 114.688C134.349 114.789 134.288 114.909 134.288 115.048V115.304H136.368C136.464 115.304 136.512 115.349 136.512 115.44V115.864C136.512 115.955 136.464 116 136.368 116H133.56C133.464 116 133.416 115.955 133.416 115.864ZM138.73 115.32H139.298C139.682 115.32 139.874 115.123 139.874 114.728V112.128C139.874 111.733 139.682 111.536 139.298 111.536H138.73C138.346 111.536 138.154 111.733 138.154 112.128V114.728C138.154 115.123 138.346 115.32 138.73 115.32ZM139.41 116H138.61C138.216 116 137.909 115.891 137.69 115.672C137.472 115.453 137.362 115.149 137.362 114.76V112.096C137.362 111.701 137.472 111.397 137.69 111.184C137.909 110.965 138.216 110.856 138.61 110.856H139.41C139.8 110.856 140.104 110.965 140.322 111.184C140.541 111.397 140.65 111.701 140.65 112.096V114.76C140.65 115.149 140.541 115.453 140.322 115.672C140.104 115.891 139.8 116 139.41 116ZM141.541 115.864V115.128C141.541 114.797 141.682 114.52 141.965 114.296L143.477 113.064C143.733 112.861 143.861 112.627 143.861 112.36V112.096C143.861 111.712 143.661 111.52 143.261 111.52H142.869C142.666 111.52 142.52 111.565 142.429 111.656C142.338 111.747 142.293 111.893 142.293 112.096V112.392C142.293 112.488 142.248 112.536 142.157 112.536H141.645C141.554 112.536 141.509 112.488 141.509 112.392V112.08C141.509 111.691 141.618 111.389 141.837 111.176C142.056 110.963 142.362 110.856 142.757 110.856H143.381C143.77 110.856 144.074 110.963 144.293 111.176C144.512 111.389 144.621 111.691 144.621 112.08V112.408C144.621 112.824 144.458 113.165 144.133 113.432L142.597 114.688C142.474 114.789 142.413 114.909 142.413 115.048V115.304H144.493C144.589 115.304 144.637 115.349 144.637 115.44V115.864C144.637 115.955 144.589 116 144.493 116H141.685C141.589 116 141.541 115.955 141.541 115.864ZM146.791 113.096H147.231C147.626 113.096 147.823 112.901 147.823 112.512V112.096C147.823 111.712 147.626 111.52 147.231 111.52H146.759C146.562 111.52 146.415 111.565 146.319 111.656C146.229 111.747 146.183 111.893 146.183 112.096V112.328C146.183 112.419 146.138 112.464 146.047 112.464H145.535C145.445 112.464 145.399 112.419 145.399 112.328V112.08C145.399 111.691 145.509 111.389 145.727 111.176C145.946 110.963 146.253 110.856 146.647 110.856H147.343C147.738 110.856 148.045 110.963 148.263 111.176C148.482 111.389 148.591 111.691 148.591 112.08V112.52C148.591 112.989 148.378 113.288 147.951 113.416C148.378 113.517 148.591 113.816 148.591 114.312V114.776C148.591 115.165 148.482 115.467 148.263 115.68C148.045 115.893 147.738 116 147.343 116H146.647C146.253 116 145.946 115.893 145.727 115.68C145.509 115.467 145.399 115.165 145.399 114.776V114.496C145.399 114.4 145.445 114.352 145.535 114.352H146.047C146.138 114.352 146.183 114.4 146.183 114.496V114.76C146.183 114.957 146.229 115.104 146.319 115.2C146.415 115.291 146.562 115.336 146.759 115.336H147.231C147.626 115.336 147.823 115.144 147.823 114.76V114.32C147.823 113.931 147.626 113.736 147.231 113.736H146.791C146.701 113.736 146.655 113.691 146.655 113.6V113.24C146.655 113.144 146.701 113.096 146.791 113.096ZM151.095 113.768H149.511C149.42 113.768 149.375 113.72 149.375 113.624V113.272C149.375 113.176 149.42 113.128 149.511 113.128H151.095C151.185 113.128 151.231 113.176 151.231 113.272V113.624C151.231 113.72 151.185 113.768 151.095 113.768ZM153.379 115.32H153.947C154.331 115.32 154.523 115.123 154.523 114.728V112.128C154.523 111.733 154.331 111.536 153.947 111.536H153.379C152.995 111.536 152.803 111.733 152.803 112.128V114.728C152.803 115.123 152.995 115.32 153.379 115.32ZM154.059 116H153.259C152.864 116 152.558 115.891 152.339 115.672C152.12 115.453 152.011 115.149 152.011 114.76V112.096C152.011 111.701 152.12 111.397 152.339 111.184C152.558 110.965 152.864 110.856 153.259 110.856H154.059C154.448 110.856 154.752 110.965 154.971 111.184C155.19 111.397 155.299 111.701 155.299 112.096V114.76C155.299 115.149 155.19 115.453 154.971 115.672C154.752 115.891 154.448 116 154.059 116ZM155.997 112.112V111.64C155.997 111.555 156.035 111.491 156.109 111.448L156.941 110.944C157.043 110.885 157.128 110.856 157.197 110.856H157.677C157.768 110.856 157.813 110.901 157.813 110.992V115.864C157.813 115.955 157.771 116 157.685 116H157.165C157.075 116 157.029 115.955 157.029 115.864V111.688L156.157 112.192C156.051 112.24 155.997 112.213 155.997 112.112ZM160.431 113.768H158.847C158.756 113.768 158.711 113.72 158.711 113.624V113.272C158.711 113.176 158.756 113.128 158.847 113.128H160.431C160.521 113.128 160.567 113.176 160.567 113.272V113.624C160.567 113.72 160.521 113.768 160.431 113.768ZM161.107 112.112V111.64C161.107 111.555 161.144 111.491 161.219 111.448L162.051 110.944C162.152 110.885 162.237 110.856 162.307 110.856H162.787C162.877 110.856 162.923 110.901 162.923 110.992V115.864C162.923 115.955 162.88 116 162.795 116H162.275C162.184 116 162.139 115.955 162.139 115.864V111.688L161.267 112.192C161.16 112.24 161.107 112.213 161.107 112.112ZM165.332 115.32H165.9C166.284 115.32 166.476 115.123 166.476 114.728V112.128C166.476 111.733 166.284 111.536 165.9 111.536H165.332C164.948 111.536 164.756 111.733 164.756 112.128V114.728C164.756 115.123 164.948 115.32 165.332 115.32ZM166.012 116H165.212C164.817 116 164.511 115.891 164.292 115.672C164.073 115.453 163.964 115.149 163.964 114.76V112.096C163.964 111.701 164.073 111.397 164.292 111.184C164.511 110.965 164.817 110.856 165.212 110.856H166.012C166.401 110.856 166.705 110.965 166.924 111.184C167.143 111.397 167.252 111.701 167.252 112.096V114.76C167.252 115.149 167.143 115.453 166.924 115.672C166.705 115.891 166.401 116 166.012 116Z" fill="#F56E00"/>
<defs>
<clipPath id="clip0_1019_412">
<rect width="4" height="4" fill="white" transform="translate(8 116)"/>
</clipPath>
</defs>
</svg>
