<svg width="155" height="190" viewBox="0 0 155 190" fill="none" xmlns="http://www.w3.org/2000/svg">
<rect width="155" height="190" fill="white"/>
<rect x="12" y="12" width="131" height="166" fill="#EBEBEB"/>
<path d="M107.502 26.198H105V25.202H105.498V25.7H107.502V26.198ZM105.498 25.202V24.698H106.002V25.202H105.498ZM106.002 24.698V24.2H106.5V24.698H106.002ZM106.5 24.2V23.702H106.998V24.2H106.5ZM106.998 23.702V22.202H107.502V23.702H106.998ZM105.498 22.202V23.198H105V22.202H105.498ZM106.998 22.202H105.498V21.698H106.998V22.202ZM109.998 26.198H108.498V25.7H109.998V26.198ZM109.998 25.7V23.702H109.5V24.2H109.002V24.698H108.498V25.7H108V22.202H108.498V24.2H109.002V23.702H109.5V23.198H109.998V22.202H110.502V25.7H109.998ZM109.998 22.202H108.498V21.698H109.998V22.202ZM112.998 25.202V26.198H112.5V25.202H111V23.702H111.498V24.698H112.5V22.7H112.002V23.702H111.498V22.7H112.002V21.698H112.998V24.698H113.502V25.202H112.998ZM114 23.198V22.7H114.498V23.198H114ZM115.5 21.698V26.198H115.002V22.7H114.498V22.202H115.002V21.698H115.5ZM117 24.2V23.702H119.502V24.2H117ZM121.998 26.198H120.498V25.7H121.998V26.198ZM121.998 25.7V23.702H121.5V24.2H121.002V24.698H120.498V25.7H120V22.202H120.498V24.2H121.002V23.702H121.5V23.198H121.998V22.202H122.502V25.7H121.998ZM121.998 22.202H120.498V21.698H121.998V22.202ZM123 23.198V22.7H123.498V23.198H123ZM124.5 21.698V26.198H124.002V22.7H123.498V22.202H124.002V21.698H124.5ZM126 24.2V23.702H128.502V24.2H126ZM129 23.198V22.7H129.498V23.198H129ZM130.5 21.698V26.198H130.002V22.7H129.498V22.202H130.002V21.698H130.5ZM133.998 26.198H132.498V25.7H133.998V26.198ZM133.998 25.7V23.702H133.5V24.2H133.002V24.698H132.498V25.7H132V22.202H132.498V24.2H133.002V23.702H133.5V23.198H133.998V22.202H134.502V25.7H133.998ZM133.998 22.202H132.498V21.698H133.998V22.202Z" fill="#F56E00"/>
<path d="M21.82 158.728H22.204V160.004H23.792V160.372H22.204V162.408H21.82V160.372H20.216V160.004H21.82V158.728ZM25.28 159.024L25.652 159.088C25.428 160.492 25.02 161.576 24.424 162.344L24.176 162.032C24.72 161.288 25.088 160.284 25.28 159.024ZM26.604 158.868C26.692 160.268 27.1 161.316 27.832 162.008L27.628 162.36C26.836 161.656 26.376 160.528 26.252 158.976L26.604 158.868ZM31.144 159.472V158.916H31.516V159.824H28.492V158.916H28.864V159.472H29.816V158.712H30.184V159.472H31.144ZM29.56 160.948C29.816 161.144 30.04 161.34 30.228 161.532C30.568 161.292 30.812 160.992 30.96 160.624H29.624C29.364 160.904 29.028 161.152 28.616 161.372L28.376 161.056C29.024 160.74 29.464 160.356 29.696 159.9L30.076 159.948C30.024 160.064 29.964 160.176 29.892 160.284H31.364V160.584C31.052 161.652 30.152 162.272 28.656 162.444L28.468 162.1C29.044 162.04 29.528 161.912 29.912 161.72C29.744 161.552 29.54 161.38 29.3 161.2L29.56 160.948ZM33.872 160.048C34.26 159.824 34.628 159.572 34.976 159.292H32.416V158.924H35.5V159.292C35.132 159.624 34.716 159.94 34.252 160.24V161.96C34.252 162.24 34.112 162.38 33.836 162.38C33.592 162.38 33.38 162.372 33.2 162.356L33.096 161.988C33.292 162.012 33.504 162.024 33.732 162.024C33.824 162.024 33.872 161.976 33.872 161.888V160.048ZM36.768 161.428C36.872 161.428 36.956 161.468 37.028 161.552C37.092 161.64 37.128 161.748 37.128 161.884C37.128 162.088 37.068 162.264 36.948 162.416C36.828 162.568 36.668 162.672 36.468 162.728V162.48C36.576 162.44 36.668 162.38 36.74 162.292C36.804 162.2 36.84 162.108 36.84 162.012C36.816 162.02 36.784 162.024 36.744 162.024C36.66 162.024 36.592 161.996 36.536 161.94C36.48 161.884 36.452 161.812 36.452 161.728C36.452 161.636 36.48 161.564 36.54 161.508C36.596 161.452 36.672 161.428 36.768 161.428ZM41.564 159.136C41.912 159.56 42.18 159.928 42.364 160.248L42.04 160.468C41.848 160.132 41.58 159.752 41.244 159.336L41.564 159.136ZM42.892 161.2C42.632 161.656 42.224 162.044 41.668 162.372L41.412 162.056C42.08 161.664 42.516 161.184 42.724 160.616C42.884 160.132 42.964 159.508 42.972 158.744H43.364C43.364 159.504 43.28 160.152 43.112 160.68L43.064 160.828C43.376 161.232 43.64 161.632 43.86 162.032L43.568 162.324C43.4 161.972 43.172 161.596 42.892 161.2ZM40.488 162.004L40.36 161.644C40.44 161.576 40.484 161.484 40.484 161.364V158.804H40.876V161.452C41.164 161.332 41.448 161.188 41.736 161.012L41.844 161.384C41.42 161.624 40.968 161.828 40.488 162.004ZM44.956 160.196V160.248C44.932 161.152 44.752 161.868 44.42 162.404L44.14 162.108C44.412 161.66 44.56 161.04 44.58 160.248V159.004C45.628 158.996 46.568 158.908 47.392 158.744L47.58 159.088C46.8 159.236 45.924 159.324 44.956 159.348V159.828H47.796V160.196H44.956ZM47.496 160.668V162.412H47.116V162.252H45.64V162.412H45.26V160.668H47.496ZM45.64 161.88H47.116V161.032H45.64V161.88ZM51.02 158.692C51.204 158.832 51.36 158.972 51.488 159.116L51.304 159.3H51.784V159.664H50.592C50.62 160.136 50.668 160.504 50.736 160.764C50.752 160.832 50.772 160.9 50.792 160.964C50.96 160.668 51.1 160.332 51.212 159.952L51.56 160.1C51.4 160.612 51.2 161.052 50.952 161.412C50.996 161.508 51.04 161.588 51.084 161.656C51.204 161.832 51.3 161.924 51.364 161.924C51.416 161.924 51.468 161.728 51.52 161.336L51.864 161.52C51.764 162.072 51.616 162.352 51.424 162.352C51.248 162.352 51.064 162.232 50.872 161.996C50.808 161.916 50.752 161.828 50.7 161.732C50.432 162.032 50.12 162.26 49.768 162.416L49.552 162.096C49.936 161.924 50.26 161.676 50.524 161.348C50.468 161.204 50.42 161.048 50.376 160.88C50.288 160.556 50.232 160.152 50.204 159.664H48.916V160.248H49.896C49.888 160.972 49.852 161.428 49.788 161.62C49.724 161.788 49.588 161.872 49.38 161.876C49.284 161.876 49.172 161.868 49.048 161.856L48.932 161.512C49.092 161.52 49.224 161.528 49.336 161.528C49.408 161.524 49.452 161.48 49.476 161.392C49.5 161.288 49.512 161.024 49.52 160.608H48.916V160.632C48.9 161.372 48.736 161.964 48.432 162.412L48.144 162.156C48.392 161.792 48.524 161.284 48.536 160.632V159.3H50.184C50.176 159.112 50.176 158.916 50.176 158.712H50.56C50.56 158.92 50.568 159.116 50.576 159.3H51.192C51.084 159.18 50.948 159.052 50.78 158.924L51.02 158.692ZM52.232 159.74H53.764C53.788 159.528 53.804 159.304 53.808 159.072V158.724H54.192V158.984C54.192 159.248 54.176 159.5 54.144 159.74H55.768V160.108H54.24C54.52 160.964 55.06 161.624 55.852 162.092L55.616 162.4C54.848 161.928 54.308 161.268 54.004 160.42C53.74 161.336 53.2 162.008 52.388 162.436L52.144 162.116C52.968 161.716 53.488 161.044 53.7 160.108H52.232V159.74ZM58.18 158.728C58.18 159.08 58.168 159.376 58.152 159.624C58.384 160.688 58.96 161.5 59.872 162.06L59.62 162.392C58.852 161.88 58.316 161.192 58.012 160.336C57.748 161.168 57.196 161.856 56.356 162.4L56.124 162.06C57.204 161.404 57.76 160.504 57.792 159.356C57.792 159.088 57.796 158.88 57.796 158.728H58.18ZM61.872 160.048C62.26 159.824 62.628 159.572 62.976 159.292H60.416V158.924H63.5V159.292C63.132 159.624 62.716 159.94 62.252 160.24V161.96C62.252 162.24 62.112 162.38 61.836 162.38C61.592 162.38 61.38 162.372 61.2 162.356L61.096 161.988C61.292 162.012 61.504 162.024 61.732 162.024C61.824 162.024 61.872 161.976 61.872 161.888V160.048Z" fill="#1C1E22"/>
<g clip-path="url(#clip0_1152_2072)">
<path d="M21.9999 166C21.212 166 20.5713 166.643 20.5713 167.433C20.5713 167.726 20.6592 168.008 20.8237 168.246C20.8319 168.26 20.8402 168.273 20.85 168.287L21.8928 169.665C21.9211 169.697 21.9591 169.714 21.9999 169.714C22.0401 169.714 22.0784 169.697 22.1115 169.659L23.1494 168.287C23.1596 168.273 23.1684 168.258 23.1732 168.249C23.3397 168.01 23.4288 167.725 23.4284 167.433C23.4284 166.643 22.7876 166 21.9999 166ZM21.9999 167.945C21.8647 167.945 21.7351 167.891 21.6394 167.795C21.5437 167.699 21.4898 167.569 21.4895 167.433C21.4931 167.3 21.5485 167.173 21.6438 167.079C21.7391 166.986 21.8668 166.934 21.9998 166.934C22.1328 166.934 22.2605 166.986 22.3558 167.079C22.4511 167.173 22.5065 167.3 22.51 167.433C22.5097 167.569 22.4558 167.699 22.3602 167.795C22.2646 167.891 22.135 167.945 21.9999 167.945Z" fill="#1C1E22"/>
</g>
<path d="M25.381 166.588C25.588 166.738 25.765 166.885 25.909 167.035L25.702 167.236C25.576 167.098 25.402 166.948 25.177 166.786L25.381 166.588ZM25.327 167.323C25.519 167.467 25.684 167.608 25.816 167.752L25.612 167.956C25.498 167.818 25.333 167.674 25.123 167.518L25.327 167.323ZM25.594 168.139L25.855 168.241C25.729 168.619 25.591 168.973 25.438 169.306L25.15 169.18C25.321 168.841 25.468 168.493 25.594 168.139ZM25.948 166.705H27.874V166.981H27.655V168.979C27.655 169.192 27.553 169.3 27.352 169.3H26.851L26.791 169.027C26.953 169.039 27.106 169.045 27.253 169.045C27.331 169.045 27.373 168.997 27.373 168.907V166.981H25.948V166.705ZM26.068 167.371H27.052V168.529H26.068V167.371ZM26.788 168.271V167.626H26.332V168.271H26.788ZM28.156 166.792H29.383C29.395 166.702 29.407 166.609 29.416 166.516L29.707 166.555C29.698 166.639 29.689 166.717 29.677 166.792H30.844V167.059H29.632C29.614 167.146 29.596 167.23 29.578 167.311H30.697V168.961C30.697 169.177 30.595 169.288 30.397 169.288H30.112L30.037 169.012L30.304 169.018C30.379 169.018 30.418 168.976 30.418 168.898V167.578H28.588V169.306H28.309V167.311H29.287C29.305 167.227 29.323 167.143 29.338 167.059H28.156V166.792ZM29.2 167.632C29.26 167.734 29.314 167.851 29.365 167.986H29.638C29.698 167.869 29.752 167.746 29.8 167.62L30.058 167.716C30.013 167.812 29.965 167.902 29.911 167.986H30.205V168.235H29.638V168.487H30.286V168.736H29.638V169.261H29.362V168.736H28.717V168.487H29.362V168.235H28.804V167.986H29.092C29.05 167.893 29.002 167.806 28.945 167.725L29.2 167.632ZM31.75 167.692C31.813 167.692 31.867 167.713 31.909 167.761C31.954 167.803 31.978 167.854 31.978 167.92C31.978 167.98 31.954 168.034 31.909 168.079C31.867 168.124 31.813 168.148 31.75 168.148C31.684 168.148 31.633 168.124 31.591 168.079C31.543 168.034 31.522 167.98 31.522 167.92C31.522 167.854 31.543 167.803 31.591 167.761C31.633 167.713 31.684 167.692 31.75 167.692ZM35.02 168.157V169.3H34.747V169.186H33.958V169.3H33.685V168.157H35.02ZM33.958 168.928H34.747V168.415H33.958V168.928ZM34.015 166.513L34.288 166.567C34.264 166.639 34.234 166.708 34.204 166.777H35.053V166.984C34.945 167.215 34.789 167.422 34.582 167.605C34.813 167.743 35.083 167.851 35.392 167.926L35.227 168.166C34.885 168.076 34.597 167.947 34.357 167.782C34.117 167.947 33.829 168.088 33.493 168.208L33.319 167.977C33.64 167.872 33.913 167.749 34.138 167.605C34.03 167.506 33.937 167.398 33.856 167.284C33.76 167.383 33.655 167.473 33.544 167.557L33.373 167.335C33.691 167.11 33.904 166.837 34.015 166.513ZM34.018 167.089C34.111 167.221 34.225 167.341 34.357 167.449C34.513 167.32 34.642 167.179 34.738 167.029H34.06C34.042 167.053 34.03 167.071 34.018 167.089ZM32.89 166.585C33.097 166.735 33.274 166.882 33.418 167.032L33.211 167.236C33.088 167.095 32.914 166.945 32.686 166.783L32.89 166.585ZM32.836 167.32C33.028 167.464 33.193 167.605 33.325 167.749L33.121 167.956C33.007 167.818 32.842 167.674 32.632 167.518L32.836 167.32ZM33.1 168.139L33.358 168.241C33.235 168.619 33.097 168.973 32.947 169.303L32.662 169.177C32.83 168.841 32.977 168.493 33.1 168.139ZM35.734 166.645H36.757V166.864C36.661 167.122 36.55 167.395 36.421 167.683C36.619 167.956 36.724 168.196 36.742 168.4C36.742 168.538 36.709 168.64 36.649 168.7C36.556 168.778 36.394 168.817 36.166 168.82L36.076 168.535C36.136 168.544 36.187 168.55 36.226 168.55C36.319 168.544 36.382 168.532 36.415 168.511C36.445 168.487 36.46 168.451 36.46 168.4C36.46 168.199 36.352 167.974 36.139 167.725C36.28 167.425 36.391 167.152 36.472 166.906H36.007V169.318H35.734V166.645ZM38.272 166.684V169.3H37.996V169.075H37.159V169.294H36.883V166.684H38.272ZM37.159 168.802H37.996V168.007H37.159V168.802ZM37.159 167.743H37.996V166.96H37.159V167.743Z" fill="#1C1E22"/>
<defs>
<clipPath id="clip0_1152_2072">
<rect width="4" height="4" fill="white" transform="translate(20 166)"/>
</clipPath>
</defs>
</svg>
