<svg width="176" height="130" viewBox="0 0 176 130" fill="none" xmlns="http://www.w3.org/2000/svg">
<rect width="176" height="130" fill="white"/>
<rect x="32" y="32" width="112" height="66" fill="#EBEBEB"/>
<path d="M118.312 25.898V25.346C118.312 25.098 118.418 24.89 118.63 24.722L119.764 23.798C119.956 23.646 120.052 23.47 120.052 23.27V23.072C120.052 22.784 119.902 22.64 119.602 22.64H119.308C119.156 22.64 119.046 22.674 118.978 22.742C118.91 22.81 118.876 22.92 118.876 23.072V23.294C118.876 23.366 118.842 23.402 118.774 23.402H118.39C118.322 23.402 118.288 23.366 118.288 23.294V23.06C118.288 22.768 118.37 22.542 118.534 22.382C118.698 22.222 118.928 22.142 119.224 22.142H119.692C119.984 22.142 120.212 22.222 120.376 22.382C120.54 22.542 120.622 22.768 120.622 23.06V23.306C120.622 23.618 120.5 23.874 120.256 24.074L119.104 25.016C119.012 25.092 118.966 25.182 118.966 25.286V25.478H120.526C120.598 25.478 120.634 25.512 120.634 25.58V25.898C120.634 25.966 120.598 26 120.526 26H118.42C118.348 26 118.312 25.966 118.312 25.898ZM122.298 25.49H122.724C123.012 25.49 123.156 25.342 123.156 25.046V23.096C123.156 22.8 123.012 22.652 122.724 22.652H122.298C122.01 22.652 121.866 22.8 121.866 23.096V25.046C121.866 25.342 122.01 25.49 122.298 25.49ZM122.808 26H122.208C121.912 26 121.682 25.918 121.518 25.754C121.354 25.59 121.272 25.362 121.272 25.07V23.072C121.272 22.776 121.354 22.548 121.518 22.388C121.682 22.224 121.912 22.142 122.208 22.142H122.808C123.1 22.142 123.328 22.224 123.492 22.388C123.656 22.548 123.738 22.776 123.738 23.072V25.07C123.738 25.362 123.656 25.59 123.492 25.754C123.328 25.918 123.1 26 122.808 26ZM125.75 23.96H125.378C125.302 23.96 125.238 23.974 125.186 24.002C125.138 24.03 125.106 24.06 125.09 24.092C125.046 24.184 124.992 24.23 124.928 24.23H124.55C124.482 24.23 124.448 24.196 124.448 24.128V22.244C124.448 22.176 124.482 22.142 124.55 22.142H126.584C126.656 22.142 126.692 22.176 126.692 22.244V22.586C126.692 22.654 126.656 22.688 126.584 22.688H125.036V23.78C125.104 23.584 125.272 23.486 125.54 23.486H125.894C126.182 23.486 126.402 23.562 126.554 23.714C126.706 23.862 126.782 24.082 126.782 24.374V25.07C126.782 25.362 126.7 25.59 126.536 25.754C126.372 25.918 126.144 26 125.852 26H125.342C125.046 26 124.816 25.918 124.652 25.754C124.492 25.59 124.412 25.362 124.412 25.07V24.914C124.412 24.842 124.446 24.806 124.514 24.806H124.892C124.96 24.806 124.994 24.842 124.994 24.914V25.064C124.994 25.356 125.138 25.502 125.426 25.502H125.768C126.064 25.502 126.212 25.356 126.212 25.064V24.458C126.212 24.278 126.176 24.15 126.104 24.074C126.036 23.998 125.918 23.96 125.75 23.96ZM127.244 23.084V22.73C127.244 22.666 127.272 22.618 127.328 22.586L127.952 22.208C128.028 22.164 128.092 22.142 128.144 22.142H128.504C128.572 22.142 128.606 22.176 128.606 22.244V25.898C128.606 25.966 128.574 26 128.51 26H128.12C128.052 26 128.018 25.966 128.018 25.898V22.766L127.364 23.144C127.284 23.18 127.244 23.16 127.244 23.084ZM130.569 24.326H129.381C129.313 24.326 129.279 24.29 129.279 24.218V23.954C129.279 23.882 129.313 23.846 129.381 23.846H130.569C130.637 23.846 130.671 23.882 130.671 23.954V24.218C130.671 24.29 130.637 24.326 130.569 24.326ZM131.076 23.084V22.73C131.076 22.666 131.104 22.618 131.16 22.586L131.784 22.208C131.86 22.164 131.924 22.142 131.976 22.142H132.336C132.404 22.142 132.438 22.176 132.438 22.244V25.898C132.438 25.966 132.406 26 132.342 26H131.952C131.884 26 131.85 25.966 131.85 25.898V22.766L131.196 23.144C131.116 23.18 131.076 23.16 131.076 23.084ZM134.245 25.49H134.671C134.959 25.49 135.103 25.342 135.103 25.046V23.096C135.103 22.8 134.959 22.652 134.671 22.652H134.245C133.957 22.652 133.813 22.8 133.813 23.096V25.046C133.813 25.342 133.957 25.49 134.245 25.49ZM134.755 26H134.155C133.859 26 133.629 25.918 133.465 25.754C133.301 25.59 133.219 25.362 133.219 25.07V23.072C133.219 22.776 133.301 22.548 133.465 22.388C133.629 22.224 133.859 22.142 134.155 22.142H134.755C135.047 22.142 135.275 22.224 135.439 22.388C135.603 22.548 135.685 22.776 135.685 23.072V25.07C135.685 25.362 135.603 25.59 135.439 25.754C135.275 25.918 135.047 26 134.755 26ZM137.571 24.326H136.383C136.315 24.326 136.281 24.29 136.281 24.218V23.954C136.281 23.882 136.315 23.846 136.383 23.846H137.571C137.639 23.846 137.673 23.882 137.673 23.954V24.218C137.673 24.29 137.639 24.326 137.571 24.326ZM139.284 25.49H139.71C139.998 25.49 140.142 25.342 140.142 25.046V23.096C140.142 22.8 139.998 22.652 139.71 22.652H139.284C138.996 22.652 138.852 22.8 138.852 23.096V25.046C138.852 25.342 138.996 25.49 139.284 25.49ZM139.794 26H139.194C138.898 26 138.668 25.918 138.504 25.754C138.34 25.59 138.258 25.362 138.258 25.07V23.072C138.258 22.776 138.34 22.548 138.504 22.388C138.668 22.224 138.898 22.142 139.194 22.142H139.794C140.086 22.142 140.314 22.224 140.478 22.388C140.642 22.548 140.724 22.776 140.724 23.072V25.07C140.724 25.362 140.642 25.59 140.478 25.754C140.314 25.918 140.086 26 139.794 26ZM141.248 23.084V22.73C141.248 22.666 141.276 22.618 141.332 22.586L141.956 22.208C142.032 22.164 142.096 22.142 142.148 22.142H142.508C142.576 22.142 142.61 22.176 142.61 22.244V25.898C142.61 25.966 142.578 26 142.514 26H142.124C142.056 26 142.022 25.966 142.022 25.898V22.766L141.368 23.144C141.288 23.18 141.248 23.16 141.248 23.084Z" fill="#F56E00"/>
<path d="M32.208 107.452C31.952 107.564 31.676 107.664 31.38 107.748L31.188 107.452C31.916 107.26 32.476 107.012 32.872 106.712H33.172C33.496 106.992 34.048 107.236 34.832 107.452L34.64 107.748C34.316 107.656 34.032 107.556 33.784 107.444V107.556H32.208V107.452ZM33.48 107.292C33.3 107.192 33.148 107.088 33.02 106.976C32.868 107.092 32.704 107.196 32.528 107.292H33.48ZM31.776 107.72H34.216V108.444H31.776V107.72ZM33.856 108.184V107.984H32.136V108.184H33.856ZM34.276 108.512L34.424 108.772C34.08 108.82 33.684 108.86 33.232 108.884V109.088H34.472V109.36H33.232V109.548H34.752V109.852H33.232V110.044C33.232 110.284 33.096 110.404 32.828 110.404H32.348L32.272 110.08C32.428 110.096 32.576 110.104 32.712 110.104C32.808 110.104 32.86 110.056 32.86 109.964V109.852H31.252V109.548H32.86V109.36H31.572V109.088H32.86V108.9C32.492 108.916 32.092 108.924 31.66 108.924L31.564 108.64C32.636 108.64 33.54 108.596 34.276 108.512ZM37.272 109.656V110.032C36.648 110.16 35.984 110.272 35.272 110.36L35.184 109.996C35.492 109.964 35.796 109.924 36.096 109.88V109.22H35.356V108.856H36.096V108.432H36.48V108.856H37.156V109.22H36.48V109.816C36.748 109.768 37.012 109.712 37.272 109.656ZM35.244 106.864H37.256V107.224H36.252C36.084 107.568 35.928 107.832 35.788 108.02C36.108 107.988 36.42 107.944 36.728 107.892C36.648 107.772 36.568 107.648 36.48 107.524L36.772 107.336C37.036 107.688 37.24 107.992 37.38 108.252L37.064 108.472C37.012 108.376 36.956 108.276 36.9 108.172C36.396 108.264 35.852 108.34 35.264 108.4L35.18 108.06C35.244 108.052 35.296 108.04 35.328 108.024C35.456 107.916 35.628 107.648 35.844 107.224H35.244V106.864ZM38.296 110.376H37.704L37.62 110.008C37.812 110.02 37.992 110.028 38.164 110.028C38.264 110.028 38.316 109.976 38.316 109.872V106.732H38.7V109.968C38.7 110.24 38.564 110.376 38.296 110.376ZM37.536 107.092H37.904V109.544H37.536V107.092ZM39.676 106.848H42.04V108.14H42.728V108.488H41.164V108.896C41.248 108.988 41.336 109.076 41.432 109.16C41.7 109.008 41.932 108.792 42.124 108.508L42.416 108.752C42.204 109.016 41.964 109.224 41.692 109.372C41.996 109.596 42.344 109.792 42.744 109.964L42.552 110.3C41.976 110.028 41.516 109.7 41.164 109.316V110.008C41.164 110.28 41.044 110.416 40.812 110.416H40.348L40.264 110.056C40.412 110.072 40.552 110.084 40.684 110.084C40.752 110.084 40.788 110.028 40.788 109.92V109.336C40.388 109.688 39.916 110.004 39.372 110.288L39.22 109.936C39.824 109.66 40.348 109.328 40.788 108.94V108.488H39.276V108.14H41.652V107.832H39.812V107.504H41.652V107.188H39.676V106.848ZM39.756 108.572C39.992 108.736 40.192 108.9 40.352 109.06L40.104 109.308C39.96 109.156 39.76 108.992 39.504 108.816L39.756 108.572ZM44.78 107.676C44.604 107.352 44.388 107.1 44.136 106.92L44.452 106.72C44.788 106.956 45.084 107.404 45.344 108.068C45.724 109.004 46.216 109.664 46.824 110.056L46.588 110.356C45.96 109.98 45.436 109.26 45.012 108.192C45 108.164 44.992 108.14 44.984 108.116C44.712 109.084 44.172 109.832 43.364 110.36L43.136 110.036C43.968 109.488 44.516 108.7 44.78 107.676ZM47.54 106.76C47.812 106.972 48.04 107.184 48.224 107.392L47.956 107.656C47.796 107.456 47.572 107.24 47.28 107.008L47.54 106.76ZM49.84 110.344C49.62 110.344 49.38 110.34 49.124 110.336C48.864 110.332 48.652 110.308 48.484 110.268C48.324 110.22 48.184 110.124 48.064 109.988C48.008 109.92 47.96 109.888 47.912 109.888C47.828 109.888 47.684 110.068 47.48 110.428L47.2 110.168C47.4 109.844 47.58 109.64 47.74 109.56V108.428H47.204V108.076H48.096V109.588C48.116 109.604 48.136 109.624 48.156 109.648C48.248 109.756 48.344 109.836 48.444 109.888C48.564 109.944 48.74 109.98 48.976 109.988C49.204 109.992 49.472 109.996 49.784 109.996C49.98 109.996 50.18 109.992 50.38 109.988C50.58 109.984 50.736 109.976 50.844 109.968L50.752 110.344H49.84ZM49.148 107.156H48.376V106.84H50.572V107.108C50.34 107.308 50.092 107.476 49.828 107.62C49.836 107.628 49.844 107.632 49.852 107.64H50.656V109.416C50.656 109.652 50.524 109.772 50.264 109.772H49.956L49.876 109.456L50.16 109.472C50.248 109.472 50.296 109.428 50.296 109.34V109.136H49.72V109.792H49.372V109.136H48.808V109.8H48.448V107.64H49.368C49.236 107.552 49.088 107.46 48.924 107.372L49.148 107.156ZM49.596 107.44C49.764 107.356 49.92 107.26 50.064 107.156H49.168C49.32 107.252 49.464 107.344 49.596 107.44ZM48.808 108.548V108.828H49.372V108.548H48.808ZM49.72 108.548V108.828H50.296V108.548H49.72ZM50.296 108.236V107.956H49.72V108.236H50.296ZM49.372 108.236V107.956H48.808V108.236H49.372ZM54.692 107.112V110.232H54.324V110.004H53.624V110.236H53.256V107.112H54.692ZM53.624 109.648H54.324V107.468H53.624V109.648ZM51.82 107.588C51.728 107.788 51.624 107.972 51.512 108.14L51.18 107.928C51.436 107.552 51.62 107.148 51.728 106.716L52.104 106.796C52.064 106.948 52.016 107.088 51.968 107.224H53.06V107.588H52.516C52.508 107.836 52.496 108.068 52.472 108.28H53.096V108.644H52.42C52.404 108.732 52.384 108.82 52.368 108.9C52.612 109.148 52.86 109.424 53.116 109.728L52.884 110.08C52.636 109.728 52.428 109.452 52.26 109.252C52.092 109.672 51.808 110.028 51.4 110.316L51.152 110.012C51.568 109.704 51.84 109.328 51.972 108.88C51.988 108.804 52.008 108.724 52.024 108.644H51.236V108.28H52.08C52.104 108.068 52.116 107.836 52.124 107.588H51.82ZM56.592 106.704H56.972V107.372H58.148V107.556L58.072 108.448H58.628C58.624 109.248 58.556 109.712 58.428 109.848C58.376 109.904 58.296 109.948 58.184 109.972C58.088 109.992 57.988 110.004 57.892 110.004H57.636L57.532 109.648C57.684 109.648 57.824 109.652 57.956 109.652C58.056 109.644 58.128 109.616 58.172 109.564C58.216 109.508 58.244 109.256 58.256 108.812H56.972V110.416H56.592V108.812H55.212V108.448H56.592V107.736H55.44V107.372H56.592V106.704ZM56.972 108.448H57.7L57.768 107.736H56.972V108.448ZM57.968 106.712C58.26 106.852 58.524 107.02 58.764 107.212L58.564 107.524C58.308 107.3 58.044 107.128 57.772 107L57.968 106.712ZM60.872 108.048C61.26 107.824 61.628 107.572 61.976 107.292H59.416V106.924H62.5V107.292C62.132 107.624 61.716 107.94 61.252 108.24V109.96C61.252 110.24 61.112 110.38 60.836 110.38C60.592 110.38 60.38 110.372 60.2 110.356L60.096 109.988C60.292 110.012 60.504 110.024 60.732 110.024C60.824 110.024 60.872 109.976 60.872 109.888V108.048ZM63.768 109.428C63.872 109.428 63.956 109.468 64.028 109.552C64.092 109.64 64.128 109.748 64.128 109.884C64.128 110.088 64.068 110.264 63.948 110.416C63.828 110.568 63.668 110.672 63.468 110.728V110.48C63.576 110.44 63.668 110.38 63.74 110.292C63.804 110.2 63.84 110.108 63.84 110.012C63.816 110.02 63.784 110.024 63.744 110.024C63.66 110.024 63.592 109.996 63.536 109.94C63.48 109.884 63.452 109.812 63.452 109.728C63.452 109.636 63.48 109.564 63.54 109.508C63.596 109.452 63.672 109.428 63.768 109.428ZM69.94 108.312V107.492H70.304V108.628H69.024C69 108.704 68.976 108.776 68.952 108.844H70.552V110.032C70.552 110.284 70.424 110.412 70.168 110.412H69.848L69.756 110.056L70.048 110.076C70.14 110.076 70.188 110.036 70.188 109.956V109.188H69.616C69.752 109.404 69.88 109.632 70 109.88L69.696 110.028C69.664 109.964 69.636 109.904 69.612 109.848C69.3 109.904 68.816 109.968 68.164 110.04L68.08 109.7C68.152 109.692 68.2 109.676 68.224 109.644C68.304 109.516 68.384 109.364 68.46 109.188H67.82V110.412H67.456V108.844H68.588C68.612 108.772 68.632 108.7 68.656 108.628H67.7V107.492H68.064V108.312H68.336L68.176 108.052C68.384 107.996 68.576 107.928 68.756 107.844C68.58 107.764 68.408 107.696 68.232 107.636L68.392 107.404C68.632 107.484 68.856 107.576 69.072 107.676C69.22 107.588 69.356 107.488 69.484 107.376L69.744 107.536C69.624 107.648 69.504 107.744 69.384 107.828C69.532 107.9 69.676 107.98 69.812 108.064L69.648 108.312H69.94ZM69.248 109.188H68.824C68.744 109.372 68.668 109.532 68.592 109.668C68.892 109.64 69.184 109.604 69.464 109.556C69.392 109.42 69.32 109.3 69.248 109.188ZM69.092 108.008C68.9 108.104 68.66 108.208 68.364 108.312H69.632C69.452 108.2 69.272 108.096 69.092 108.008ZM69.104 106.692C69.148 106.788 69.188 106.888 69.228 107H70.728V107.348H67.272V107H68.844C68.804 106.912 68.76 106.828 68.716 106.756L69.104 106.692ZM73.612 108.884C73.552 108.9 73.492 108.912 73.436 108.928C73.496 109.112 73.528 109.312 73.532 109.528C73.532 109.848 73.484 110.072 73.396 110.192C73.292 110.336 73.06 110.408 72.696 110.408H72.568L72.44 110.072H72.644C72.868 110.072 73.008 110.04 73.064 109.98C73.128 109.9 73.164 109.752 73.164 109.528C73.164 109.488 73.16 109.448 73.16 109.412C72.728 109.736 72.16 110.004 71.464 110.22L71.272 109.896C72.052 109.676 72.66 109.392 73.096 109.048C73.072 108.968 73.04 108.888 73.008 108.816C72.632 109.096 72.132 109.324 71.512 109.504L71.324 109.176C71.976 109.008 72.484 108.796 72.848 108.536C72.808 108.484 72.772 108.436 72.732 108.388C72.716 108.396 72.704 108.4 72.692 108.408C72.432 108.532 72.064 108.664 71.592 108.804L71.4 108.488C71.768 108.412 72.112 108.308 72.432 108.176C72.528 108.136 72.62 108.096 72.708 108.052H71.812V107.7H74.188V108.052H73.3C73.204 108.116 73.112 108.176 73.024 108.232C73.14 108.36 73.236 108.496 73.316 108.64C73.668 108.536 74.004 108.384 74.324 108.18L74.58 108.436C74.372 108.568 74.152 108.68 73.916 108.776C74.1 109.244 74.4 109.62 74.808 109.908L74.536 110.224C74.112 109.868 73.804 109.42 73.612 108.884ZM73.092 106.692C73.136 106.796 73.176 106.912 73.216 107.04H74.716V107.784H74.336V107.392H71.664V107.784H71.284V107.04H72.832C72.792 106.936 72.748 106.844 72.704 106.76L73.092 106.692ZM77.664 106.692L78.032 106.82C77.956 106.956 77.876 107.076 77.788 107.188H78.8V107.556H75.196V107.188H76.236C76.164 107.044 76.084 106.912 76 106.792L76.4 106.728C76.484 106.864 76.564 107.016 76.644 107.188H77.368C77.48 107.032 77.576 106.868 77.664 106.692ZM76.596 110.388H76.284L76.184 110.016L76.472 110.028C76.56 110.028 76.608 109.964 76.608 109.84V109.572H75.824V110.42H75.452V107.804H76.976V109.924C76.976 110.232 76.848 110.388 76.596 110.388ZM75.824 109.236H76.608V108.864H75.824V109.236ZM75.824 108.528H76.608V108.156H75.824V108.528ZM78.156 110.376H77.616L77.536 110.012C77.704 110.028 77.864 110.036 78.024 110.036C78.12 110.036 78.168 109.98 78.168 109.872V107.72H78.548V109.968C78.548 110.24 78.416 110.376 78.156 110.376ZM77.344 108.02H77.712V109.728H77.344V108.02ZM80.652 107.38V110.164H80.288V109.956H79.656V110.28H79.292V107.38H79.672C79.744 107.164 79.8 106.944 79.832 106.712L80.212 106.764C80.172 106.984 80.112 107.188 80.036 107.38H80.652ZM79.656 109.604H80.288V108.816H79.656V109.604ZM79.656 108.476H80.288V107.74H79.656V108.476ZM81.372 108.34C81.636 108.668 81.84 108.952 81.98 109.2L81.68 109.412C81.528 109.148 81.32 108.856 81.064 108.532L81.372 108.34ZM82.716 107.384C82.716 108.764 82.696 109.616 82.656 109.936C82.616 110.224 82.424 110.368 82.084 110.368C82.004 110.368 81.86 110.36 81.66 110.348L81.568 110C81.744 110.008 81.896 110.016 82.024 110.016C82.184 110.016 82.276 109.932 82.3 109.764C82.324 109.564 82.336 108.892 82.344 107.752H81.34C81.228 107.992 81.1 108.212 80.948 108.412L80.72 108.112C80.984 107.728 81.168 107.26 81.264 106.708L81.64 106.756C81.6 106.98 81.544 107.188 81.48 107.384H82.716ZM86.448 108.584V110.412H86.076V110.264H83.94V110.416H83.568V108.584H86.448ZM83.94 109.908H84.832V109.592H83.94V109.908ZM85.208 109.908H86.076V109.592H85.208V109.908ZM83.94 109.256H84.832V108.936H83.94V109.256ZM85.208 108.936V109.256H86.076V108.936H85.208ZM84.592 107.32C84.756 107.704 84.884 108.06 84.972 108.38L84.608 108.512C84.576 108.4 84.544 108.292 84.512 108.188C84.208 108.312 83.828 108.428 83.376 108.536L83.24 108.188C83.328 108.124 83.372 108.036 83.372 107.924V107.016C83.896 106.968 84.332 106.856 84.68 106.688L84.868 107.004C84.572 107.156 84.196 107.264 83.74 107.32V108.076C84.008 107.996 84.228 107.924 84.4 107.852C84.348 107.704 84.292 107.56 84.236 107.42L84.592 107.32ZM85.38 107.236H84.992V106.864H86.644C86.628 107.544 86.592 107.972 86.532 108.144C86.46 108.356 86.3 108.464 86.06 108.468C85.972 108.468 85.872 108.46 85.76 108.452L85.648 108.116C85.796 108.128 85.92 108.136 86.02 108.136C86.124 108.132 86.192 108.06 86.22 107.924C86.244 107.832 86.256 107.604 86.264 107.236H85.744C85.704 107.512 85.656 107.736 85.592 107.908C85.504 108.124 85.376 108.32 85.204 108.492L84.98 108.208C85.104 108.068 85.2 107.912 85.264 107.744C85.312 107.608 85.348 107.44 85.38 107.236ZM88.896 107.324C89.08 107.452 89.24 107.576 89.368 107.704L89.14 107.936H90.088V108.24C89.868 108.616 89.372 108.904 88.604 109.096L88.468 108.764C89.02 108.676 89.416 108.512 89.652 108.264H87.924V107.936H89.108C88.992 107.816 88.84 107.688 88.656 107.556L88.896 107.324ZM88.836 106.724H89.164C89.524 107.096 90.064 107.404 90.784 107.652L90.572 107.968C89.916 107.736 89.392 107.432 89 107.052C88.564 107.44 88.044 107.752 87.436 107.992L87.22 107.672C87.884 107.424 88.42 107.108 88.836 106.724ZM89.472 110.344H88.588C88.3 110.344 88.156 110.2 88.156 109.92V109.224H88.54V109.84C88.54 109.948 88.592 110.004 88.7 110.004H89.404C89.504 110.004 89.576 109.98 89.624 109.94C89.688 109.896 89.728 109.764 89.744 109.544L90.096 109.652C90.056 109.988 89.988 110.188 89.892 110.252C89.796 110.312 89.656 110.344 89.472 110.344ZM87.712 108.964L88.08 109.04C87.956 109.5 87.776 109.896 87.54 110.228L87.212 110.024C87.448 109.696 87.616 109.34 87.712 108.964ZM89.204 109.072C89.316 109.236 89.412 109.412 89.492 109.6L89.14 109.756C89.056 109.54 88.964 109.348 88.86 109.18L89.204 109.072ZM90.112 108.876C90.412 109.26 90.64 109.596 90.8 109.88L90.476 110.104C90.316 109.792 90.096 109.444 89.824 109.06L90.112 108.876Z" fill="black"/>
<path d="M36.381 114.588C36.588 114.738 36.765 114.885 36.909 115.035L36.702 115.236C36.576 115.098 36.402 114.948 36.177 114.786L36.381 114.588ZM36.327 115.323C36.519 115.467 36.684 115.608 36.816 115.752L36.612 115.956C36.498 115.818 36.333 115.674 36.123 115.518L36.327 115.323ZM36.594 116.139L36.855 116.241C36.729 116.619 36.591 116.973 36.438 117.306L36.15 117.18C36.321 116.841 36.468 116.493 36.594 116.139ZM36.948 114.705H38.874V114.981H38.655V116.979C38.655 117.192 38.553 117.3 38.352 117.3H37.851L37.791 117.027C37.953 117.039 38.106 117.045 38.253 117.045C38.331 117.045 38.373 116.997 38.373 116.907V114.981H36.948V114.705ZM37.068 115.371H38.052V116.529H37.068V115.371ZM37.788 116.271V115.626H37.332V116.271H37.788ZM39.156 114.792H40.383C40.395 114.702 40.407 114.609 40.416 114.516L40.707 114.555C40.698 114.639 40.689 114.717 40.677 114.792H41.844V115.059H40.632C40.614 115.146 40.596 115.23 40.578 115.311H41.697V116.961C41.697 117.177 41.595 117.288 41.397 117.288H41.112L41.037 117.012L41.304 117.018C41.379 117.018 41.418 116.976 41.418 116.898V115.578H39.588V117.306H39.309V115.311H40.287C40.305 115.227 40.323 115.143 40.338 115.059H39.156V114.792ZM40.2 115.632C40.26 115.734 40.314 115.851 40.365 115.986H40.638C40.698 115.869 40.752 115.746 40.8 115.62L41.058 115.716C41.013 115.812 40.965 115.902 40.911 115.986H41.205V116.235H40.638V116.487H41.286V116.736H40.638V117.261H40.362V116.736H39.717V116.487H40.362V116.235H39.804V115.986H40.092C40.05 115.893 40.002 115.806 39.945 115.725L40.2 115.632ZM42.75 115.692C42.813 115.692 42.867 115.713 42.909 115.761C42.954 115.803 42.978 115.854 42.978 115.92C42.978 115.98 42.954 116.034 42.909 116.079C42.867 116.124 42.813 116.148 42.75 116.148C42.684 116.148 42.633 116.124 42.591 116.079C42.543 116.034 42.522 115.98 42.522 115.92C42.522 115.854 42.543 115.803 42.591 115.761C42.633 115.713 42.684 115.692 42.75 115.692ZM44.373 116.58C44.241 116.898 44.037 117.141 43.761 117.309L43.596 117.093C43.926 116.901 44.136 116.592 44.229 116.163H43.686V115.887H44.271C44.28 115.794 44.286 115.698 44.286 115.602V115.434H43.728V115.167H44.46C44.568 114.975 44.658 114.765 44.733 114.543L45 114.642C44.916 114.846 44.832 115.023 44.745 115.167H45.111V115.434H44.553V115.536C44.553 115.662 44.547 115.779 44.538 115.887H45.156V116.163H44.499C44.487 116.223 44.472 116.283 44.457 116.337C44.667 116.502 44.883 116.688 45.102 116.898L44.943 117.135C44.712 116.889 44.523 116.703 44.373 116.58ZM44.019 114.558C44.151 114.732 44.256 114.885 44.328 115.017L44.115 115.164C44.037 115.023 43.932 114.867 43.8 114.699L44.019 114.558ZM45.273 114.654H46.293V114.864C46.197 115.173 46.092 115.458 45.978 115.722C46.206 116.022 46.323 116.265 46.326 116.454C46.326 116.634 46.284 116.76 46.206 116.826C46.122 116.898 45.954 116.934 45.699 116.934L45.615 116.655C45.717 116.664 45.801 116.67 45.87 116.67C45.948 116.667 45.999 116.652 46.02 116.622C46.041 116.595 46.053 116.538 46.056 116.454C46.053 116.268 45.93 116.022 45.69 115.722C45.792 115.494 45.891 115.224 45.99 114.912H45.546V117.306H45.273V114.654ZM46.887 115.266L47.13 115.332C47.094 115.638 47.022 115.932 46.92 116.217L46.665 116.13C46.773 115.86 46.845 115.572 46.887 115.266ZM48.117 114.651H48.393V115.386L48.576 115.305C48.696 115.527 48.804 115.77 48.894 116.037L48.663 116.154C48.582 115.908 48.492 115.686 48.393 115.488V117.21H48.117V114.651ZM48.945 114.555H49.218V117.312H48.945V114.555ZM47.742 115.332C47.862 115.554 47.97 115.8 48.063 116.07L47.832 116.187C47.748 115.926 47.652 115.695 47.547 115.491V115.503C47.541 116.331 47.352 116.934 46.983 117.315L46.773 117.129C47.103 116.79 47.268 116.247 47.274 115.503V114.579H47.547V115.419L47.742 115.332Z" fill="black"/>
<g clip-path="url(#clip0_1019_411)">
<path d="M32.9999 114C32.212 114 31.5713 114.643 31.5713 115.433C31.5713 115.726 31.6592 116.008 31.8237 116.246C31.8319 116.26 31.8402 116.273 31.85 116.287L32.8928 117.665C32.9211 117.697 32.9591 117.714 32.9999 117.714C33.0401 117.714 33.0784 117.697 33.1115 117.659L34.1494 116.287C34.1596 116.273 34.1684 116.258 34.1732 116.249C34.3397 116.01 34.4288 115.725 34.4284 115.433C34.4284 114.643 33.7876 114 32.9999 114ZM32.9999 115.945C32.8647 115.945 32.7351 115.891 32.6394 115.795C32.5437 115.699 32.4898 115.569 32.4895 115.433C32.4931 115.3 32.5485 115.173 32.6438 115.079C32.7391 114.986 32.8668 114.934 32.9998 114.934C33.1328 114.934 33.2605 114.986 33.3558 115.079C33.4511 115.173 33.5065 115.3 33.51 115.433C33.5097 115.569 33.4558 115.699 33.3602 115.795C33.2646 115.891 33.135 115.945 32.9999 115.945Z" fill="#1C1E22"/>
</g>
<defs>
<clipPath id="clip0_1019_411">
<rect width="4" height="4" fill="white" transform="translate(31 114)"/>
</clipPath>
</defs>
</svg>
