<svg width="155" height="190" viewBox="0 0 155 190" fill="none" xmlns="http://www.w3.org/2000/svg">
<rect width="155" height="190" fill="white"/>
<rect x="6" y="20" width="143" height="129" fill="#EBEBEB"/>
<path d="M117.502 144.198H115V143.202H115.498V143.7H117.502V144.198ZM115.498 143.202V142.698H116.002V143.202H115.498ZM116.002 142.698V142.2H116.5V142.698H116.002ZM116.5 142.2V141.702H116.998V142.2H116.5ZM116.998 141.702V140.202H117.502V141.702H116.998ZM115.498 140.202V141.198H115V140.202H115.498ZM116.998 140.202H115.498V139.698H116.998V140.202ZM119.998 144.198H118.498V143.7H119.998V144.198ZM119.998 143.7V141.702H119.5V142.2H119.002V142.698H118.498V143.7H118V140.202H118.498V142.2H119.002V141.702H119.5V141.198H119.998V140.202H120.502V143.7H119.998ZM119.998 140.202H118.498V139.698H119.998V140.202ZM123.502 144.198H121V143.202H121.498V143.7H123.502V144.198ZM121.498 143.202V142.698H122.002V143.202H121.498ZM122.002 142.698V142.2H122.5V142.698H122.002ZM122.5 142.2V141.702H122.998V142.2H122.5ZM122.998 141.702V140.202H123.502V141.702H122.998ZM121.498 140.202V141.198H121V140.202H121.498ZM122.998 140.202H121.498V139.698H122.998V140.202ZM124 143.7V143.202H124.498V143.7H125.998V144.198H124.498V143.7H124ZM124.498 142.2V141.702H125.002V141.198H125.5V141.702H125.998V142.2H126.502V143.7H125.998V142.2H124.498ZM124 140.202V139.698H126.502V140.7H125.998V141.198H125.5V140.7H125.998V140.202H124ZM127 142.2V141.702H129.502V142.2H127ZM131.998 144.198H130.498V143.7H131.998V144.198ZM131.998 143.7V141.702H131.5V142.2H131.002V142.698H130.498V143.7H130V140.202H130.498V142.2H131.002V141.702H131.5V141.198H131.998V140.202H132.502V143.7H131.998ZM131.998 140.202H130.498V139.698H131.998V140.202ZM134.998 143.202V144.198H134.5V143.202H133V141.702H133.498V142.698H134.5V140.7H134.002V141.702H133.498V140.7H134.002V139.698H134.998V142.698H135.502V143.202H134.998ZM136 142.2V141.702H138.502V142.2H136ZM140.998 144.198H139.498V143.7H140.998V144.198ZM140.998 143.7V141.702H140.5V142.2H140.002V142.698H139.498V143.7H139V140.202H139.498V142.2H140.002V141.702H140.5V141.198H140.998V140.202H141.502V143.7H140.998ZM140.998 140.202H139.498V139.698H140.998V140.202ZM142.498 144.198V143.7H143.5V144.198H142.498ZM143.5 143.7V143.202H143.998V143.7H143.5ZM143.998 143.202V142.698H142.498V142.2H143.998V140.202H144.502V143.202H143.998ZM142.498 142.2H142V140.202H142.498V142.2ZM143.998 140.202H142.498V139.698H143.998V140.202Z" fill="#F56E00"/>
<path d="M21.664 8.364H22.44V7.736H22.82V8.364H23.616V10.048H22.824V10.84C22.992 10.816 23.148 10.788 23.292 10.76C23.244 10.592 23.196 10.432 23.14 10.28L23.448 10.176C23.58 10.516 23.7 10.904 23.808 11.344L23.46 11.432C23.436 11.316 23.408 11.204 23.384 11.1C22.976 11.188 22.376 11.272 21.576 11.344L21.516 10.96C21.856 10.94 22.168 10.916 22.448 10.888V10.048H21.664V8.364ZM23.248 9.7V8.712H22.82V9.7H23.248ZM22.452 9.7V8.712H22.036V9.7H22.452ZM21.352 7.76L21.668 7.956C21.504 8.212 21.34 8.416 21.18 8.576C21.204 8.624 21.224 8.668 21.24 8.712C21.356 9.036 21.42 9.496 21.432 10.092C21.432 10.74 21.352 11.128 21.192 11.264C21.096 11.332 20.968 11.368 20.808 11.368C20.672 11.368 20.56 11.364 20.48 11.364L20.368 11.008C20.496 11.024 20.616 11.032 20.728 11.032C20.84 11.032 20.912 11.008 20.948 10.968C21.028 10.872 21.072 10.572 21.072 10.072C21.072 9.952 21.068 9.844 21.06 9.74C20.868 9.996 20.648 10.216 20.4 10.396L20.188 10.076C20.536 9.844 20.808 9.572 21.008 9.252C20.98 9.108 20.948 8.98 20.908 8.868C20.9 8.852 20.896 8.84 20.892 8.832C20.748 8.944 20.58 9.056 20.396 9.172L20.192 8.84C20.376 8.752 20.552 8.636 20.72 8.5C20.608 8.324 20.468 8.168 20.304 8.024L20.6 7.792C20.752 7.944 20.88 8.096 20.988 8.248C21.116 8.104 21.236 7.94 21.352 7.76ZM26.612 9.884C26.552 9.9 26.492 9.912 26.436 9.928C26.496 10.112 26.528 10.312 26.532 10.528C26.532 10.848 26.484 11.072 26.396 11.192C26.292 11.336 26.06 11.408 25.696 11.408H25.568L25.44 11.072H25.644C25.868 11.072 26.008 11.04 26.064 10.98C26.128 10.9 26.164 10.752 26.164 10.528C26.164 10.488 26.16 10.448 26.16 10.412C25.728 10.736 25.16 11.004 24.464 11.22L24.272 10.896C25.052 10.676 25.66 10.392 26.096 10.048C26.072 9.968 26.04 9.888 26.008 9.816C25.632 10.096 25.132 10.324 24.512 10.504L24.324 10.176C24.976 10.008 25.484 9.796 25.848 9.536C25.808 9.484 25.772 9.436 25.732 9.388C25.716 9.396 25.704 9.4 25.692 9.408C25.432 9.532 25.064 9.664 24.592 9.804L24.4 9.488C24.768 9.412 25.112 9.308 25.432 9.176C25.528 9.136 25.62 9.096 25.708 9.052H24.812V8.7H27.188V9.052H26.3C26.204 9.116 26.112 9.176 26.024 9.232C26.14 9.36 26.236 9.496 26.316 9.64C26.668 9.536 27.004 9.384 27.324 9.18L27.58 9.436C27.372 9.568 27.152 9.68 26.916 9.776C27.1 10.244 27.4 10.62 27.808 10.908L27.536 11.224C27.112 10.868 26.804 10.42 26.612 9.884ZM26.092 7.692C26.136 7.796 26.176 7.912 26.216 8.04H27.716V8.784H27.336V8.392H24.664V8.784H24.284V8.04H25.832C25.792 7.936 25.748 7.844 25.704 7.76L26.092 7.692ZM31.892 10.292C31.852 10.7 31.792 10.972 31.712 11.1C31.636 11.22 31.476 11.284 31.232 11.284H30.188C29.928 11.284 29.8 11.148 29.8 10.884V9.088H31.212V8.252H29.632V7.884H31.576V9.452H30.172V10.736C30.172 10.856 30.232 10.916 30.352 10.924H31.164C31.308 10.924 31.4 10.868 31.436 10.764C31.468 10.66 31.496 10.46 31.512 10.164L31.892 10.292ZM28.692 7.752C28.952 7.948 29.172 8.144 29.352 8.344L29.092 8.608C28.932 8.42 28.712 8.22 28.428 8.012L28.692 7.752ZM28.164 8.912H29.088V10.636C29.224 10.524 29.372 10.4 29.524 10.26L29.624 10.66C29.356 10.896 29.072 11.108 28.768 11.292L28.624 10.952C28.688 10.896 28.724 10.828 28.724 10.748V9.276H28.164V8.912ZM33.612 7.94H35.528V8.264C34.996 8.848 34.62 9.276 34.404 9.548C34.18 9.828 34.032 10.056 33.96 10.232C33.896 10.392 33.864 10.52 33.864 10.62C33.864 10.692 33.88 10.76 33.92 10.816C33.964 10.872 34.06 10.904 34.212 10.904H35.16C35.28 10.9 35.364 10.844 35.412 10.74C35.456 10.632 35.48 10.392 35.48 10.016L35.84 10.12C35.84 10.588 35.796 10.892 35.712 11.036C35.62 11.18 35.472 11.252 35.272 11.252H34.144C33.904 11.252 33.74 11.2 33.648 11.1C33.544 10.972 33.492 10.812 33.492 10.62C33.492 10.48 33.528 10.32 33.6 10.144C33.68 9.944 33.844 9.684 34.092 9.364C34.308 9.08 34.6 8.724 34.968 8.3H33.612V7.94ZM32.292 8.504L32.596 8.524C32.58 8.924 32.532 9.304 32.448 9.66L32.136 9.576C32.228 9.236 32.28 8.88 32.292 8.504ZM33.42 8.4C33.54 8.668 33.644 8.972 33.74 9.316L33.428 9.396C33.348 9.084 33.252 8.78 33.132 8.492L33.42 8.4ZM32.748 7.732H33.12V11.396H32.748V7.732Z" fill="#1C1E22"/>
<path d="M9.412 170.764V173.408H9.028V173.264H7V173.408H6.612V170.764H7.648C7.696 170.588 7.732 170.408 7.756 170.224H6.192V169.852H9.816V170.224H8.132C8.104 170.412 8.068 170.592 8.02 170.764H9.412ZM7 172.892H9.028V172.176H7V172.892ZM7 171.828H9.028V171.128H7V171.828ZM10.304 171.104H11.724C11.768 170.852 11.8 170.576 11.816 170.276H10.408V169.912H13.592V170.276H12.2C12.18 170.58 12.148 170.856 12.108 171.104H13.708V171.468H12.288C12.568 172.184 13.084 172.736 13.84 173.124L13.604 173.432C12.824 173.008 12.288 172.408 11.992 171.636C11.928 171.86 11.856 172.048 11.768 172.2C11.5 172.676 11.044 173.088 10.404 173.436L10.164 173.124C10.748 172.82 11.164 172.464 11.412 172.048C11.504 171.892 11.58 171.7 11.644 171.468H10.304V171.104ZM14.352 169.856H15.572V172.316H14.352V169.856ZM15.212 171.976V171.252H14.724V171.976H15.212ZM14.724 170.908H15.212V170.196H14.724V170.908ZM15.836 171.208H17.564V172.316H15.836V171.208ZM17.192 171.984V171.544H16.208V171.984H17.192ZM16.304 170.212H15.78V169.856H17.66C17.648 170.356 17.612 170.672 17.548 170.8C17.48 170.98 17.336 171.072 17.112 171.076C17.024 171.076 16.924 171.068 16.812 171.06L16.704 170.728C16.848 170.744 16.968 170.752 17.072 170.752C17.156 170.748 17.208 170.692 17.232 170.584C17.256 170.532 17.268 170.408 17.276 170.212H16.668C16.6 170.632 16.324 170.94 15.844 171.136L15.644 170.824C16.02 170.696 16.24 170.492 16.304 170.212ZM14.56 172.456L14.9 172.544C14.816 172.88 14.712 173.18 14.584 173.436L14.236 173.312C14.36 173.088 14.468 172.8 14.56 172.456ZM15.608 172.524C15.68 172.772 15.744 173.04 15.8 173.332L15.436 173.42C15.384 173.108 15.324 172.836 15.26 172.6L15.608 172.524ZM16.46 172.484C16.564 172.74 16.66 173.02 16.74 173.324L16.372 173.412C16.3 173.092 16.212 172.808 16.104 172.56L16.46 172.484ZM17.284 172.408C17.504 172.712 17.672 172.98 17.792 173.212L17.488 173.424C17.364 173.172 17.196 172.896 16.988 172.592L17.284 172.408ZM18.768 172.428C18.872 172.428 18.956 172.468 19.028 172.552C19.092 172.64 19.128 172.748 19.128 172.884C19.128 173.088 19.068 173.264 18.948 173.416C18.828 173.568 18.668 173.672 18.468 173.728V173.48C18.576 173.44 18.668 173.38 18.74 173.292C18.804 173.2 18.84 173.108 18.84 173.012C18.816 173.02 18.784 173.024 18.744 173.024C18.66 173.024 18.592 172.996 18.536 172.94C18.48 172.884 18.452 172.812 18.452 172.728C18.452 172.636 18.48 172.564 18.54 172.508C18.596 172.452 18.672 172.428 18.768 172.428ZM22.932 169.708L23.304 169.752C23.272 169.86 23.236 169.964 23.204 170.064H23.9V170.384C23.832 170.656 23.708 170.896 23.528 171.1C23.668 171.172 23.804 171.252 23.936 171.332L23.728 171.628C23.6 171.536 23.448 171.44 23.268 171.344C23.036 171.52 22.744 171.664 22.4 171.776L22.228 171.468C22.5 171.388 22.732 171.284 22.924 171.164C22.772 171.088 22.616 171.012 22.448 170.936C22.536 170.752 22.616 170.576 22.688 170.408H22.284V170.064H22.82C22.86 169.94 22.9 169.82 22.932 169.708ZM23.204 170.94C23.36 170.78 23.476 170.604 23.552 170.408H23.064C23.004 170.544 22.94 170.672 22.872 170.796C22.984 170.84 23.096 170.888 23.204 170.94ZM24.164 170.332H24.052V169.992H25.584V170.312C25.492 170.608 25.344 170.86 25.144 171.072C25.324 171.184 25.544 171.284 25.8 171.376L25.628 171.692C25.328 171.588 25.076 171.46 24.872 171.312C24.68 171.448 24.464 171.56 24.22 171.656L24.052 171.344C24.26 171.272 24.444 171.188 24.604 171.084C24.388 170.864 24.24 170.612 24.164 170.332ZM24.864 170.876C25.02 170.716 25.136 170.532 25.212 170.332H24.5C24.548 170.532 24.672 170.712 24.864 170.876ZM23.776 171.656H24.156C24.156 171.768 24.148 171.876 24.132 171.98H25.52C25.512 172.644 25.452 173.04 25.332 173.168C25.216 173.296 25.016 173.364 24.728 173.364C24.584 173.364 24.416 173.356 24.216 173.348L24.12 173.012L24.644 173.032C24.852 173.028 24.984 172.988 25.04 172.916C25.088 172.84 25.12 172.64 25.132 172.316H24.048C24.012 172.42 23.968 172.512 23.916 172.6C23.72 172.928 23.256 173.204 22.524 173.42L22.272 173.116C22.912 172.94 23.332 172.728 23.532 172.48C23.572 172.428 23.604 172.372 23.632 172.316H22.464V171.98H23.744C23.76 171.876 23.772 171.768 23.776 171.656ZM27.624 169.732H28.008V170.156C28.004 170.276 28 170.392 27.992 170.508H29.516C29.5 171.212 29.476 171.78 29.436 172.216C29.396 172.644 29.328 172.944 29.232 173.116C29.136 173.28 28.984 173.368 28.772 173.384H28.216L28.112 173.016C28.28 173.024 28.436 173.028 28.584 173.028C28.796 173.028 28.936 172.896 29 172.636C29.068 172.36 29.112 171.772 29.132 170.876H27.96C27.896 171.432 27.78 171.9 27.608 172.276C27.368 172.768 26.98 173.148 26.444 173.412L26.24 173.092C26.768 172.804 27.124 172.44 27.316 171.996C27.44 171.684 27.528 171.308 27.576 170.876H26.452V170.508H27.608C27.616 170.388 27.62 170.272 27.624 170.156V169.732ZM30.664 173.368H30.3L30.216 173.004C30.324 173.02 30.428 173.028 30.532 173.028C30.628 173.028 30.68 172.976 30.68 172.876V172.02C30.528 172.076 30.376 172.132 30.22 172.18L30.124 171.796C30.312 171.756 30.496 171.704 30.68 171.64V170.788H30.2V170.424H30.68V169.724H31.056V170.424H31.456V170.788H31.056V171.492C31.2 171.424 31.344 171.352 31.48 171.28V171.668C31.34 171.74 31.2 171.804 31.056 171.868V172.976C31.056 173.236 30.924 173.368 30.664 173.368ZM33.548 171.648V173.416H33.184V173.176H32.052V173.416H31.692V171.648H33.548ZM32.052 172.82H33.184V171.996H32.052V172.82ZM31.572 171.352L31.504 171.016C31.712 170.952 32 170.516 32.376 169.708L32.744 169.836C32.52 170.292 32.288 170.676 32.052 170.988C32.444 170.964 32.824 170.92 33.192 170.864C33.092 170.676 32.988 170.496 32.88 170.328L33.208 170.168C33.424 170.516 33.636 170.9 33.836 171.316L33.492 171.484C33.444 171.38 33.4 171.276 33.352 171.18C32.816 171.256 32.224 171.312 31.572 171.352ZM34.268 171.556H36.012C36.056 171.364 36.084 171.156 36.096 170.932V169.728H36.476V170.932C36.468 171.156 36.444 171.364 36.404 171.556H37.752V171.928H36.3C36.276 171.992 36.248 172.056 36.22 172.12C36.82 172.46 37.324 172.8 37.74 173.14L37.468 173.408C37.128 173.096 36.66 172.764 36.064 172.408C36.032 172.456 36 172.5 35.968 172.544C35.66 172.92 35.16 173.208 34.472 173.412L34.268 173.092C34.964 172.88 35.44 172.612 35.688 172.284C35.764 172.172 35.832 172.056 35.888 171.928H34.268V171.556ZM34.62 170.56C34.948 170.704 35.252 170.876 35.528 171.076L35.32 171.392C35.028 171.168 34.728 170.988 34.42 170.856L34.62 170.56ZM35.06 169.92C35.34 170.044 35.6 170.192 35.836 170.364L35.632 170.668C35.384 170.476 35.124 170.324 34.86 170.216L35.06 169.92ZM38.472 170.424H39.732C39.764 170.356 39.792 170.288 39.82 170.22C39.444 170.24 39.036 170.252 38.604 170.252L38.496 169.94C39.624 169.94 40.576 169.864 41.344 169.716L41.52 170.016C41.14 170.096 40.696 170.156 40.192 170.196C40.164 170.276 40.136 170.352 40.108 170.424H41.544V170.748H39.956C39.916 170.816 39.88 170.884 39.84 170.948H41.776V171.284H39.616C39.56 171.352 39.508 171.42 39.456 171.484H41.396V173.416H41.036V173.264H39.304V173.416H38.944V172C38.76 172.16 38.564 172.308 38.356 172.452L38.152 172.128C38.544 171.864 38.876 171.58 39.148 171.284H38.256V170.948H39.42C39.468 170.88 39.516 170.812 39.556 170.748H38.472V170.424ZM39.304 172.276V172.464H41.036V172.276H39.304ZM41.036 171.988V171.792H39.304V171.988H41.036ZM39.304 172.752V172.956H41.036V172.752H39.304ZM42.184 170.64H42.664V169.768H43.052V170.64H43.772V169.732H44.144V170.64H44.868V169.732H45.24V170.64H45.812V171.004H45.24V172.264H43.772V171.004H43.052V172.876H45.676V173.264H42.664V171.004H42.184V170.64ZM44.144 171.004V171.896H44.868V171.004H44.144ZM46.6 169.852H49.416V171.508H48.704C48.96 171.776 49.348 171.992 49.868 172.152L49.704 172.488C49.352 172.352 49.056 172.196 48.816 172.02V173.42H48.432V171.892H48.652C48.508 171.768 48.392 171.64 48.296 171.508H47.704C47.596 171.644 47.472 171.772 47.328 171.888H47.632C47.632 172.208 47.584 172.484 47.488 172.708C47.372 172.996 47.1 173.232 46.672 173.424L46.42 173.12C46.772 172.976 47.004 172.796 47.116 172.584C47.196 172.42 47.24 172.208 47.248 171.952C46.992 172.14 46.688 172.308 46.328 172.452L46.124 172.12C46.644 171.956 47.032 171.752 47.288 171.508H46.6V169.852ZM49.052 171.176V170.832H48.184V171.176H49.052ZM47.816 171.176V170.832H46.964V171.176H47.816ZM46.964 170.52H47.816V170.188H46.964V170.52ZM48.184 170.188V170.52H49.052V170.188H48.184ZM50.768 172.428C50.872 172.428 50.956 172.468 51.028 172.552C51.092 172.64 51.128 172.748 51.128 172.884C51.128 173.088 51.068 173.264 50.948 173.416C50.828 173.568 50.668 173.672 50.468 173.728V173.48C50.576 173.44 50.668 173.38 50.74 173.292C50.804 173.2 50.84 173.108 50.84 173.012C50.816 173.02 50.784 173.024 50.744 173.024C50.66 173.024 50.592 172.996 50.536 172.94C50.48 172.884 50.452 172.812 50.452 172.728C50.452 172.636 50.48 172.564 50.54 172.508C50.596 172.452 50.672 172.428 50.768 172.428ZM57.496 170.168V173.348H57.108V173.12H54.892V173.348H54.508V170.168H57.496ZM54.892 172.748H57.108V170.54H54.892V172.748ZM58.268 170.704H59.584V171.004C59.392 171.892 58.988 172.564 58.376 173.02L58.136 172.708C58.656 172.324 59.012 171.776 59.208 171.072H58.268V170.704ZM61.332 170.328L61.64 170.556C61.336 170.932 61.016 171.248 60.688 171.508C60.996 171.996 61.392 172.4 61.876 172.72L61.636 173.068C60.988 172.544 60.516 171.964 60.224 171.332V172.972C60.224 173.252 60.092 173.396 59.832 173.396H59.304L59.22 173.024C59.388 173.04 59.548 173.048 59.7 173.048C59.792 173.048 59.84 172.988 59.84 172.876V169.712H60.224V170.54C60.304 170.78 60.404 171.004 60.516 171.216C60.816 170.952 61.088 170.656 61.332 170.328ZM63.36 171.444L63.276 171.124C63.308 171.112 63.336 171.1 63.352 171.092C63.492 171.008 63.668 170.788 63.884 170.436H63.252V170.096H64.32C64.272 169.968 64.22 169.848 64.164 169.736L64.552 169.672C64.604 169.8 64.656 169.94 64.708 170.096H65.732V170.436H64.276C64.116 170.716 63.976 170.932 63.848 171.084C64.248 171.056 64.652 171.02 65.052 170.976C64.976 170.876 64.9 170.776 64.82 170.676L65.128 170.488C65.404 170.816 65.616 171.104 65.76 171.352L65.444 171.572C65.388 171.476 65.328 171.376 65.264 171.28C64.68 171.348 64.044 171.404 63.36 171.444ZM62.56 169.756C62.8 169.924 63.008 170.096 63.176 170.268L62.904 170.54C62.756 170.38 62.548 170.204 62.284 170.02L62.56 169.756ZM62.464 170.712C62.712 170.904 62.924 171.1 63.092 171.292L62.82 171.564C62.672 171.38 62.464 171.184 62.192 170.976L62.464 170.712ZM62.788 171.792L63.124 171.92C62.972 172.432 62.8 172.912 62.612 173.36L62.264 173.204C62.464 172.744 62.64 172.272 62.788 171.792ZM64.144 171.58H64.528V173.332H64.144V171.58ZM63.492 171.58H63.86C63.844 172.108 63.792 172.492 63.704 172.74C63.608 172.996 63.444 173.216 63.22 173.408L62.976 173.108C63.16 172.956 63.288 172.776 63.364 172.568C63.436 172.368 63.476 172.04 63.492 171.58ZM65.452 173.372H65.276C65.004 173.372 64.872 173.252 64.872 173.02V171.58H65.232V172.948C65.232 172.992 65.252 173.02 65.292 173.028H65.436C65.488 173.02 65.516 172.964 65.524 172.868C65.532 172.764 65.54 172.612 65.54 172.42L65.872 172.544C65.872 172.92 65.844 173.152 65.792 173.236C65.74 173.316 65.628 173.36 65.452 173.372ZM69.02 169.692C69.204 169.832 69.36 169.972 69.488 170.116L69.304 170.3H69.784V170.664H68.592C68.62 171.136 68.668 171.504 68.736 171.764C68.752 171.832 68.772 171.9 68.792 171.964C68.96 171.668 69.1 171.332 69.212 170.952L69.56 171.1C69.4 171.612 69.2 172.052 68.952 172.412C68.996 172.508 69.04 172.588 69.084 172.656C69.204 172.832 69.3 172.924 69.364 172.924C69.416 172.924 69.468 172.728 69.52 172.336L69.864 172.52C69.764 173.072 69.616 173.352 69.424 173.352C69.248 173.352 69.064 173.232 68.872 172.996C68.808 172.916 68.752 172.828 68.7 172.732C68.432 173.032 68.12 173.26 67.768 173.416L67.552 173.096C67.936 172.924 68.26 172.676 68.524 172.348C68.468 172.204 68.42 172.048 68.376 171.88C68.288 171.556 68.232 171.152 68.204 170.664H66.916V171.248H67.896C67.888 171.972 67.852 172.428 67.788 172.62C67.724 172.788 67.588 172.872 67.38 172.876C67.284 172.876 67.172 172.868 67.048 172.856L66.932 172.512C67.092 172.52 67.224 172.528 67.336 172.528C67.408 172.524 67.452 172.48 67.476 172.392C67.5 172.288 67.512 172.024 67.52 171.608H66.916V171.632C66.9 172.372 66.736 172.964 66.432 173.412L66.144 173.156C66.392 172.792 66.524 172.284 66.536 171.632V170.3H68.184C68.176 170.112 68.176 169.916 68.176 169.712H68.56C68.56 169.92 68.568 170.116 68.576 170.3H69.192C69.084 170.18 68.948 170.052 68.78 169.924L69.02 169.692ZM70.508 169.784C70.784 169.984 71.02 170.18 71.212 170.38L70.936 170.648C70.768 170.464 70.536 170.264 70.236 170.048L70.508 169.784ZM70.436 170.764C70.692 170.956 70.912 171.144 71.088 171.336L70.816 171.608C70.664 171.424 70.444 171.232 70.164 171.024L70.436 170.764ZM70.792 171.852L71.14 171.988C70.972 172.492 70.788 172.964 70.584 173.408L70.2 173.24C70.428 172.788 70.624 172.324 70.792 171.852ZM71.264 169.94H73.832V170.308H73.54V172.972C73.54 173.256 73.404 173.4 73.136 173.4H72.468L72.388 173.036C72.604 173.052 72.808 173.06 73.004 173.06C73.108 173.06 73.164 172.996 73.164 172.876V170.308H71.264V169.94ZM71.424 170.828H72.736V172.372H71.424V170.828ZM72.384 172.028V171.168H71.776V172.028H72.384Z" fill="#1C1E22"/>
<g clip-path="url(#clip0_1152_2067)">
<path d="M7.99986 177C7.21203 177 6.57129 177.643 6.57129 178.433C6.57129 178.726 6.65924 179.008 6.82371 179.246C6.83191 179.26 6.84023 179.273 6.85005 179.287L7.89278 180.665C7.9211 180.697 7.95911 180.714 7.99986 180.714C8.04011 180.714 8.07837 180.697 8.11154 180.659L9.14942 179.287C9.15961 179.273 9.16843 179.258 9.17315 179.249C9.33969 179.01 9.42882 178.725 9.42843 178.433C9.42843 177.643 8.78756 177 7.99986 177ZM7.99986 178.945C7.86469 178.945 7.73506 178.891 7.6394 178.795C7.54373 178.699 7.48985 178.569 7.48955 178.433C7.49314 178.3 7.54848 178.173 7.64378 178.079C7.73907 177.986 7.86681 177.934 7.9998 177.934C8.13279 177.934 8.26052 177.986 8.35582 178.079C8.45112 178.173 8.50645 178.3 8.51005 178.433C8.50972 178.569 8.45583 178.699 8.3602 178.795C8.26457 178.891 8.13499 178.945 7.99986 178.945Z" fill="#1C1E22"/>
</g>
<path d="M11.381 177.588C11.588 177.738 11.765 177.885 11.909 178.035L11.702 178.236C11.576 178.098 11.402 177.948 11.177 177.786L11.381 177.588ZM11.327 178.323C11.519 178.467 11.684 178.608 11.816 178.752L11.612 178.956C11.498 178.818 11.333 178.674 11.123 178.518L11.327 178.323ZM11.594 179.139L11.855 179.241C11.729 179.619 11.591 179.973 11.438 180.306L11.15 180.18C11.321 179.841 11.468 179.493 11.594 179.139ZM11.948 177.705H13.874V177.981H13.655V179.979C13.655 180.192 13.553 180.3 13.352 180.3H12.851L12.791 180.027C12.953 180.039 13.106 180.045 13.253 180.045C13.331 180.045 13.373 179.997 13.373 179.907V177.981H11.948V177.705ZM12.068 178.371H13.052V179.529H12.068V178.371ZM12.788 179.271V178.626H12.332V179.271H12.788ZM14.156 177.792H15.383C15.395 177.702 15.407 177.609 15.416 177.516L15.707 177.555C15.698 177.639 15.689 177.717 15.677 177.792H16.844V178.059H15.632C15.614 178.146 15.596 178.23 15.578 178.311H16.697V179.961C16.697 180.177 16.595 180.288 16.397 180.288H16.112L16.037 180.012L16.304 180.018C16.379 180.018 16.418 179.976 16.418 179.898V178.578H14.588V180.306H14.309V178.311H15.287C15.305 178.227 15.323 178.143 15.338 178.059H14.156V177.792ZM15.2 178.632C15.26 178.734 15.314 178.851 15.365 178.986H15.638C15.698 178.869 15.752 178.746 15.8 178.62L16.058 178.716C16.013 178.812 15.965 178.902 15.911 178.986H16.205V179.235H15.638V179.487H16.286V179.736H15.638V180.261H15.362V179.736H14.717V179.487H15.362V179.235H14.804V178.986H15.092C15.05 178.893 15.002 178.806 14.945 178.725L15.2 178.632ZM17.75 178.692C17.813 178.692 17.867 178.713 17.909 178.761C17.954 178.803 17.978 178.854 17.978 178.92C17.978 178.98 17.954 179.034 17.909 179.079C17.867 179.124 17.813 179.148 17.75 179.148C17.684 179.148 17.633 179.124 17.591 179.079C17.543 179.034 17.522 178.98 17.522 178.92C17.522 178.854 17.543 178.803 17.591 178.761C17.633 178.713 17.684 178.692 17.75 178.692ZM21.02 179.157V180.3H20.747V180.186H19.958V180.3H19.685V179.157H21.02ZM19.958 179.928H20.747V179.415H19.958V179.928ZM20.015 177.513L20.288 177.567C20.264 177.639 20.234 177.708 20.204 177.777H21.053V177.984C20.945 178.215 20.789 178.422 20.582 178.605C20.813 178.743 21.083 178.851 21.392 178.926L21.227 179.166C20.885 179.076 20.597 178.947 20.357 178.782C20.117 178.947 19.829 179.088 19.493 179.208L19.319 178.977C19.64 178.872 19.913 178.749 20.138 178.605C20.03 178.506 19.937 178.398 19.856 178.284C19.76 178.383 19.655 178.473 19.544 178.557L19.373 178.335C19.691 178.11 19.904 177.837 20.015 177.513ZM20.018 178.089C20.111 178.221 20.225 178.341 20.357 178.449C20.513 178.32 20.642 178.179 20.738 178.029H20.06C20.042 178.053 20.03 178.071 20.018 178.089ZM18.89 177.585C19.097 177.735 19.274 177.882 19.418 178.032L19.211 178.236C19.088 178.095 18.914 177.945 18.686 177.783L18.89 177.585ZM18.836 178.32C19.028 178.464 19.193 178.605 19.325 178.749L19.121 178.956C19.007 178.818 18.842 178.674 18.632 178.518L18.836 178.32ZM19.1 179.139L19.358 179.241C19.235 179.619 19.097 179.973 18.947 180.303L18.662 180.177C18.83 179.841 18.977 179.493 19.1 179.139ZM21.734 177.645H22.757V177.864C22.661 178.122 22.55 178.395 22.421 178.683C22.619 178.956 22.724 179.196 22.742 179.4C22.742 179.538 22.709 179.64 22.649 179.7C22.556 179.778 22.394 179.817 22.166 179.82L22.076 179.535C22.136 179.544 22.187 179.55 22.226 179.55C22.319 179.544 22.382 179.532 22.415 179.511C22.445 179.487 22.46 179.451 22.46 179.4C22.46 179.199 22.352 178.974 22.139 178.725C22.28 178.425 22.391 178.152 22.472 177.906H22.007V180.318H21.734V177.645ZM24.272 177.684V180.3H23.996V180.075H23.159V180.294H22.883V177.684H24.272ZM23.159 179.802H23.996V179.007H23.159V179.802ZM23.159 178.743H23.996V177.96H23.159V178.743Z" fill="#1C1E22"/>
<circle cx="12" cy="10" r="6" fill="black"/>
<circle cx="140" cy="10" r="1" fill="black"/>
<circle cx="144" cy="10" r="1" fill="black"/>
<circle cx="148" cy="10" r="1" fill="black"/>
<g clip-path="url(#clip1_1152_2067)">
<path d="M13.4953 156.105C13.4953 156.114 13.4961 156.124 13.4961 156.136C13.4961 156.341 13.4531 156.555 13.3648 156.793C13.3328 156.883 13.293 156.974 13.243 157.073L13.2414 157.076L13.2391 157.082L13.2266 157.104C13.2234 157.109 13.2203 157.115 13.2164 157.123L13.2078 157.14C13.1898 157.176 13.1664 157.221 13.1367 157.269C12.8258 157.813 12.3023 158.426 11.5805 159.091C11.2086 159.434 10.8016 159.775 10.3711 160.102C10.3555 160.115 10.3445 160.123 10.3398 160.127L10.3375 160.129C10.2383 160.206 10.1164 160.248 9.99453 160.248C9.87109 160.248 9.75313 160.207 9.65313 160.13L9.65234 160.129C9.64844 160.126 9.63906 160.119 9.62656 160.109C9.02031 159.651 8.55312 159.233 8.26875 158.963C7.45547 158.194 6.91875 157.499 6.67344 156.9C6.66797 156.888 6.66484 156.878 6.66172 156.871L6.66094 156.869C6.55703 156.609 6.50469 156.362 6.50469 156.135C6.50469 156.129 6.50469 156.121 6.50547 156.112C6.50234 156.082 6.5 156.049 6.5 156.011C6.5 154.764 7.45859 153.75 8.63672 153.75C8.92578 153.75 9.20703 153.812 9.47422 153.934C9.66484 154.022 9.84141 154.136 9.99922 154.277C10.157 154.137 10.3328 154.022 10.5234 153.934C10.7914 153.812 11.0734 153.75 11.3633 153.75C12.5414 153.75 13.5 154.764 13.5 156.011C13.5 156.049 13.4977 156.082 13.4953 156.105Z" fill="#FF0004"/>
</g>
<g clip-path="url(#clip2_1152_2067)">
<path d="M22 153.893C20.2838 153.893 18.8926 155.284 18.8926 157C18.8927 158.663 20.1981 160.02 21.8398 160.104L22 160.108H22.001C22.4926 160.108 22.9761 159.992 23.4121 159.769L23.5957 159.667L23.5977 159.666L23.7588 159.572L23.8584 159.514L23.9707 159.544L24.7607 159.759L24.5449 158.971L24.5137 158.859L24.5732 158.758L24.7402 158.467C24.982 158.016 25.1082 157.512 25.1074 157L25.1035 156.84C25.0202 155.198 23.6626 153.893 22 153.893Z" stroke="black" stroke-width="0.553846"/>
</g>
<g clip-path="url(#clip3_1152_2067)">
<path d="M37.0767 157C37.0767 158.699 35.6991 160.077 33.9998 160.077C32.3004 160.077 30.9229 158.699 30.9229 157C30.9229 155.301 32.3004 153.923 33.9998 153.923" stroke="black" stroke-width="0.553846" stroke-linecap="round"/>
<path d="M35.231 153.923H36.7694C36.9394 153.923 37.0771 154.061 37.0771 154.231V155.769" stroke="black" stroke-width="0.553846" stroke-linecap="round"/>
<path d="M33.8039 156.804C33.6958 156.912 33.6958 157.088 33.8039 157.196C33.9121 157.304 34.0874 157.304 34.1956 157.196L33.8039 156.804ZM37.0767 153.923L36.8808 153.727L33.8039 156.804L33.9997 157L34.1956 157.196L37.2725 154.119L37.0767 153.923Z" fill="black"/>
</g>
<g clip-path="url(#clip4_1152_2067)">
<path d="M142.231 153.923H147.769V160.077L145 158.231L142.231 160.077V153.923Z" stroke="black" stroke-width="0.553846" stroke-linecap="round" stroke-linejoin="round"/>
</g>
<defs>
<clipPath id="clip0_1152_2067">
<rect width="4" height="4" fill="white" transform="translate(6 177)"/>
</clipPath>
<clipPath id="clip1_1152_2067">
<rect width="8" height="8" fill="white" transform="translate(6 153)"/>
</clipPath>
<clipPath id="clip2_1152_2067">
<rect width="8" height="8" fill="white" transform="matrix(-1 0 0 1 26 153)"/>
</clipPath>
<clipPath id="clip3_1152_2067">
<rect width="8" height="8" fill="white" transform="translate(30 153)"/>
</clipPath>
<clipPath id="clip4_1152_2067">
<rect width="8" height="8" fill="white" transform="translate(141 153)"/>
</clipPath>
</defs>
</svg>
