<svg width="24" height="24" viewBox="0 0 24 24" fill="none" xmlns="http://www.w3.org/2000/svg">
<path d="M5.48263 1.94954V1.104C5.48263 0.494769 5.98294 0 6.60325 0C7.22171 0 7.72386 0.494769 7.72386 1.104V1.94954H14.7448V1.104C14.7448 0.494769 15.2469 0 15.8654 0C16.4857 0 16.986 0.494769 16.986 1.104V1.94954H18.4445C20.7208 1.94954 22.5725 3.77538 22.5725 6.01846V8.52923C22.6017 8.67299 22.6017 8.82116 22.5725 8.96492V18.3803C22.5725 20.6289 20.7171 22.4548 18.4426 22.4548L3.88202 22.4363C1.78848 22.2425 0.143555 20.4997 0.143555 18.3858V6.01662C0.143555 3.77538 1.99525 1.94954 4.27525 1.94954H5.48263ZM5.48263 3.61108H4.27525C2.92386 3.60923 1.82725 4.68923 1.82725 6.01846V7.64308C1.85063 7.64237 1.87402 7.64237 1.8974 7.64308H20.8888V6.01846C20.8888 4.68923 19.7922 3.60738 18.4426 3.60738H16.9842V4.88308C16.9842 5.49231 16.4839 5.99077 15.8636 5.99077C15.5686 5.99274 15.285 5.87758 15.0749 5.67059C14.8648 5.4636 14.7454 5.1817 14.7429 4.88677V3.60738H7.72386V4.88308C7.72386 5.49231 7.22171 5.99077 6.60325 5.99077C6.30831 5.99274 6.02466 5.87758 5.81455 5.67059C5.60445 5.4636 5.48507 5.1817 5.48263 4.88677V3.60738V3.61108ZM20.8906 9.85292H1.90109L1.83094 9.85108V18.3858C1.83094 19.7151 2.9294 20.7951 4.27709 20.7951H18.4426C19.7922 20.7951 20.8888 19.7132 20.8888 18.3858V9.85292H20.8906ZM11.8999 18.0074H10.8291C10.6829 18.0084 10.5379 17.9805 10.4025 17.9255C10.2671 17.8704 10.1438 17.7892 10.0397 17.6866C9.93569 17.5839 9.85288 17.4617 9.79604 17.327C9.7392 17.1923 9.70944 17.0477 9.70848 16.9015C9.70848 16.2923 10.2088 15.7975 10.8291 15.7975H11.8999C12.5183 15.7975 13.0205 16.2923 13.0205 16.9015C13.0198 17.0478 12.9902 17.1925 12.9334 17.3273C12.8767 17.4621 12.7939 17.5844 12.6897 17.6871C12.5856 17.7898 12.4623 17.871 12.3267 17.926C12.1912 17.9809 12.0461 18.0086 11.8999 18.0074ZM6.89678 14.5348H5.82602C5.67982 14.5357 5.53487 14.5079 5.39944 14.4529C5.264 14.3978 5.14073 14.3166 5.03667 14.2139C4.93261 14.1113 4.8498 13.9891 4.79296 13.8544C4.73612 13.7197 4.70637 13.5751 4.7054 13.4289C4.7054 12.8197 5.20571 12.3249 5.82602 12.3249H6.89678C7.51525 12.3249 8.0174 12.8197 8.0174 13.4289C8.0174 14.04 7.51525 14.5348 6.89678 14.5348ZM11.8999 14.5348H10.8291C10.6829 14.5357 10.5379 14.5079 10.4025 14.4529C10.2671 14.3978 10.1438 14.3166 10.0397 14.2139C9.93569 14.1113 9.85288 13.9891 9.79604 13.8544C9.7392 13.7197 9.70944 13.5751 9.70848 13.4289C9.70848 12.8197 10.2088 12.3249 10.8291 12.3249H11.8999C12.5183 12.3249 13.0205 12.8197 13.0205 13.4289C13.0205 14.04 12.5183 14.5348 11.8999 14.5348ZM16.89 14.5348H15.8192C15.6731 14.5357 15.5281 14.5079 15.3927 14.4529C15.2572 14.3978 15.134 14.3166 15.0299 14.2139C14.9258 14.1113 14.843 13.9891 14.7862 13.8544C14.7294 13.7197 14.6996 13.5751 14.6986 13.4289C14.6986 12.8197 15.2008 12.3249 15.8192 12.3249H16.89C17.5103 12.3249 18.0125 12.8197 18.0125 13.4289C18.0125 14.04 17.5103 14.5348 16.89 14.5348ZM6.89678 18.0055H5.82602C5.53108 18.0075 5.24743 17.8924 5.03732 17.6854C4.82722 17.4784 4.70784 17.1965 4.7054 16.9015C4.7054 16.2923 5.20571 15.7975 5.82602 15.7975H6.89678C7.51525 15.7975 8.0174 16.2923 8.0174 16.9015C8.01668 17.0478 7.98709 17.1925 7.93033 17.3273C7.87358 17.4621 7.79077 17.5844 7.68667 17.6871C7.58256 17.7898 7.45919 17.871 7.32365 17.926C7.1881 17.9809 7.04304 18.0086 6.89678 18.0074V18.0055ZM16.89 18.0055H15.8192C15.5243 18.0075 15.2407 17.8924 15.0306 17.6854C14.8204 17.4784 14.7011 17.1965 14.6986 16.9015C14.6986 16.2923 15.2008 15.7975 15.8192 15.7975H16.89C17.5103 15.7975 18.0125 16.2923 18.0125 16.9015C18.0125 17.5126 17.5103 18.0074 16.89 18.0074V18.0055Z" fill="#FFC300"/>
</svg>
