<svg width="26" height="26" viewBox="0 0 26 26" fill="none" xmlns="http://www.w3.org/2000/svg">
<path d="M13 2.90051C7.42203 2.90051 2.90039 7.42216 2.90039 13.0001C2.90039 18.4038 7.14393 22.8166 12.4805 23.087L13 23.0997H13.001C14.7131 23.1023 16.3956 22.6673 17.8896 21.839L18.1865 21.6681L18.1904 21.6661L18.7139 21.3585L19.04 21.17L19.4033 21.2687L21.9688 21.9679L21.2695 19.4064L21.1699 19.0402L21.3623 18.713C21.5047 18.4712 21.6199 18.273 21.71 18.1163L21.9062 17.7667C22.6429 16.3929 23.0498 14.868 23.0957 13.3126L23.0996 13.0011V13.0001C23.0996 7.42216 18.578 2.90051 13 2.90051Z" stroke="black" stroke-width="1.8"/>
</svg>
