<svg width="155" height="190" viewBox="0 0 155 190" fill="none" xmlns="http://www.w3.org/2000/svg">
<rect width="155" height="190" fill="white"/>
<rect y="41" width="155" height="108" fill="#EBEBEB"/>
<path d="M65.502 172.198H63V171.202H63.498V171.7H65.502V172.198ZM63.498 171.202V170.698H64.002V171.202H63.498ZM64.002 170.698V170.2H64.5V170.698H64.002ZM64.5 170.2V169.702H64.998V170.2H64.5ZM64.998 169.702V168.202H65.502V169.702H64.998ZM63.498 168.202V169.198H63V168.202H63.498ZM64.998 168.202H63.498V167.698H64.998V168.202ZM67.998 172.198H66.498V171.7H67.998V172.198ZM67.998 171.7V169.702H67.5V170.2H67.002V170.698H66.498V171.7H66V168.202H66.498V170.2H67.002V169.702H67.5V169.198H67.998V168.202H68.502V171.7H67.998ZM67.998 168.202H66.498V167.698H67.998V168.202ZM70.998 172.198H69.498V171.7H70.998V172.198ZM70.998 171.7V169.702H71.502V171.7H70.998ZM69.498 171.7H69V170.698H69.498V171.7ZM70.998 169.702H69V167.698H71.502V168.202H69.498V169.198H70.998V169.702ZM72 169.198V168.7H72.498V169.198H72ZM73.5 167.698V172.198H73.002V168.7H72.498V168.202H73.002V167.698H73.5ZM75 170.2V169.702H77.502V170.2H75ZM78 169.198V168.7H78.498V169.198H78ZM79.5 167.698V172.198H79.002V168.7H78.498V168.202H79.002V167.698H79.5ZM82.998 172.198H81.498V171.7H82.998V172.198ZM82.998 171.7V169.702H82.5V170.2H82.002V170.698H81.498V171.7H81V168.202H81.498V170.2H82.002V169.702H82.5V169.198H82.998V168.202H83.502V171.7H82.998ZM82.998 168.202H81.498V167.698H82.998V168.202ZM84 170.2V169.702H86.502V170.2H84ZM88.998 172.198H87.498V171.7H88.998V172.198ZM88.998 171.7V169.702H88.5V170.2H88.002V170.698H87.498V171.7H87V168.202H87.498V170.2H88.002V169.702H88.5V169.198H88.998V168.202H89.502V171.7H88.998ZM88.998 168.202H87.498V167.698H88.998V168.202ZM90 169.198V168.7H90.498V169.198H90ZM91.5 167.698V172.198H91.002V168.7H90.498V168.202H91.002V167.698H91.5Z" fill="#F56E00"/>
<path d="M47.648 17.556V17.916C47.24 18.06 46.78 18.18 46.26 18.272L46.212 17.904C46.76 17.816 47.24 17.7 47.648 17.556ZM46.848 14.7L47.204 14.836C47.012 15.32 46.82 15.712 46.62 16.016C46.772 16 46.928 15.98 47.088 15.956C47.16 15.82 47.232 15.68 47.312 15.532L47.644 15.652C47.304 16.276 47.02 16.736 46.788 17.024C47.056 16.968 47.328 16.892 47.6 16.796V17.136C47.152 17.288 46.732 17.388 46.332 17.44L46.232 17.1C46.3 17.072 46.356 17.036 46.404 16.992C46.532 16.856 46.696 16.628 46.892 16.3C46.692 16.328 46.48 16.356 46.264 16.388L46.172 16.04C46.228 16.016 46.28 15.968 46.328 15.9C46.528 15.54 46.704 15.14 46.848 14.7ZM47.588 15.184H48.512V14.732H48.892V15.184H49.812V15.552H48.892V16.056H49.696V16.424H47.72V16.056H48.512V15.552H47.588V15.184ZM49.612 16.736V18.4H49.244V18.24H48.188V18.4H47.816V16.736H49.612ZM48.188 17.88H49.244V17.096H48.188V17.88ZM52.056 15.816V16.224C52.224 16.188 52.384 16.152 52.544 16.112L52.6 16.428C52.332 16.492 52.016 16.556 51.648 16.62L51.556 16.308C51.644 16.276 51.692 16.224 51.692 16.144V14.94C52.292 14.908 52.86 14.832 53.4 14.712L53.58 15.012C53.384 15.056 53.184 15.096 52.976 15.128C52.976 15.264 52.984 15.384 53 15.484H53.66V15.816H53.08C53.124 15.952 53.176 16.052 53.236 16.124C53.308 16.208 53.376 16.252 53.436 16.252C53.484 16.252 53.54 16.144 53.6 15.928L53.876 16.092C53.768 16.428 53.632 16.6 53.472 16.6C53.336 16.6 53.204 16.544 53.084 16.44C52.956 16.328 52.852 16.16 52.772 15.936C52.756 15.896 52.744 15.856 52.736 15.816H52.056ZM52.652 15.172C52.456 15.192 52.256 15.212 52.056 15.228V15.484H52.676C52.664 15.384 52.656 15.28 52.652 15.172ZM53.528 16.692V18.408H53.16V18.244H52.092V18.408H51.732V16.692H53.528ZM52.092 17.916H53.16V17.628H52.092V17.916ZM52.092 17.312H53.16V17.012H52.092V17.312ZM50.62 14.708L50.992 14.744C50.96 14.996 50.924 15.232 50.892 15.452H51.472V15.664C51.448 16.304 51.34 16.86 51.156 17.328C51.324 17.5 51.46 17.656 51.572 17.796L51.32 18.088C51.224 17.964 51.116 17.828 50.988 17.684C50.828 17.972 50.636 18.22 50.412 18.428L50.172 18.128C50.4 17.928 50.588 17.688 50.732 17.408C50.58 17.252 50.416 17.088 50.236 16.916C50.324 16.576 50.4 16.208 50.468 15.816H50.176V15.452H50.524C50.56 15.212 50.592 14.964 50.62 14.708ZM50.884 17.06C51.016 16.692 51.096 16.28 51.12 15.816H50.836C50.764 16.212 50.688 16.544 50.612 16.808C50.708 16.896 50.796 16.98 50.884 17.06ZM55.872 16.048C56.26 15.824 56.628 15.572 56.976 15.292H54.416V14.924H57.5V15.292C57.132 15.624 56.716 15.94 56.252 16.24V17.96C56.252 18.24 56.112 18.38 55.836 18.38C55.592 18.38 55.38 18.372 55.2 18.356L55.096 17.988C55.292 18.012 55.504 18.024 55.732 18.024C55.824 18.024 55.872 17.976 55.872 17.888V16.048ZM58.768 17.428C58.872 17.428 58.956 17.468 59.028 17.552C59.092 17.64 59.128 17.748 59.128 17.884C59.128 18.088 59.068 18.264 58.948 18.416C58.828 18.568 58.668 18.672 58.468 18.728V18.48C58.576 18.44 58.668 18.38 58.74 18.292C58.804 18.2 58.84 18.108 58.84 18.012C58.816 18.02 58.784 18.024 58.744 18.024C58.66 18.024 58.592 17.996 58.536 17.94C58.48 17.884 58.452 17.812 58.452 17.728C58.452 17.636 58.48 17.564 58.54 17.508C58.596 17.452 58.672 17.428 58.768 17.428ZM63.448 16.212V16.564H64.944V16.212H63.448ZM64.944 16.896H63.448V17.24H64.944V16.896ZM64.944 17.568H63.448V18.404H63.092V16.408C62.884 16.652 62.656 16.876 62.4 17.084L62.156 16.764C62.62 16.396 62.988 15.972 63.252 15.5H62.264V15.132H63.436C63.496 14.988 63.548 14.84 63.596 14.696L63.984 14.74C63.944 14.876 63.9 15.008 63.852 15.132H65.784V15.5H63.688C63.624 15.632 63.552 15.76 63.476 15.884H65.3V18.048C65.3 18.268 65.172 18.38 64.916 18.388H64.468L64.376 18.044C64.524 18.056 64.664 18.064 64.796 18.064C64.892 18.064 64.944 18.02 64.944 17.932V17.568ZM67.872 16.048C68.26 15.824 68.628 15.572 68.976 15.292H66.416V14.924H69.5V15.292C69.132 15.624 68.716 15.94 68.252 16.24V17.96C68.252 18.24 68.112 18.38 67.836 18.38C67.592 18.38 67.38 18.372 67.2 18.356L67.096 17.988C67.292 18.012 67.504 18.024 67.732 18.024C67.824 18.024 67.872 17.976 67.872 17.888V16.048ZM73.376 15.168V18.408H72.992V18.184H71.008V18.408H70.624V15.168H71.488C71.568 15.02 71.632 14.868 71.672 14.708L72.06 14.764C72.02 14.908 71.96 15.04 71.888 15.168H73.376ZM71.008 17.824H72.992V17.264H71.008V17.824ZM71.008 16.912H72.992V16.388H71.008V16.912ZM71.008 16.036H72.992V15.532H71.008V16.036ZM77.816 17.248C77.768 17.676 77.704 17.956 77.62 18.092C77.54 18.216 77.36 18.28 77.088 18.28H74.996C74.656 18.28 74.488 18.124 74.488 17.812V16.22H76.992V15.272H74.44V14.908H77.372V16.584H74.872V17.664C74.872 17.824 74.972 17.908 75.164 17.916H77.028C77.2 17.916 77.308 17.86 77.356 17.748C77.396 17.64 77.428 17.432 77.444 17.124L77.816 17.248ZM79.652 15.38V18.164H79.288V17.956H78.656V18.28H78.292V15.38H78.672C78.744 15.164 78.8 14.944 78.832 14.712L79.212 14.764C79.172 14.984 79.112 15.188 79.036 15.38H79.652ZM78.656 17.604H79.288V16.816H78.656V17.604ZM78.656 16.476H79.288V15.74H78.656V16.476ZM80.372 16.34C80.636 16.668 80.84 16.952 80.98 17.2L80.68 17.412C80.528 17.148 80.32 16.856 80.064 16.532L80.372 16.34ZM81.716 15.384C81.716 16.764 81.696 17.616 81.656 17.936C81.616 18.224 81.424 18.368 81.084 18.368C81.004 18.368 80.86 18.36 80.66 18.348L80.568 18C80.744 18.008 80.896 18.016 81.024 18.016C81.184 18.016 81.276 17.932 81.3 17.764C81.324 17.564 81.336 16.892 81.344 15.752H80.34C80.228 15.992 80.1 16.212 79.948 16.412L79.72 16.112C79.984 15.728 80.168 15.26 80.264 14.708L80.64 14.756C80.6 14.98 80.544 15.188 80.48 15.384H81.716ZM83.78 18.368H83.192L83.1 17.972C83.292 17.988 83.468 18 83.636 18C83.788 18 83.868 17.92 83.868 17.764V14.78H84.264V17.864C84.264 18.2 84.1 18.368 83.78 18.368ZM82.792 15.708L83.172 15.86C82.988 16.648 82.744 17.252 82.444 17.668L82.112 17.376C82.416 16.96 82.644 16.404 82.792 15.708ZM85.2 15.608C85.488 16.312 85.712 16.924 85.868 17.452L85.524 17.688C85.356 17.132 85.132 16.512 84.852 15.824L85.2 15.608ZM88.612 16.884C88.552 16.9 88.492 16.912 88.436 16.928C88.496 17.112 88.528 17.312 88.532 17.528C88.532 17.848 88.484 18.072 88.396 18.192C88.292 18.336 88.06 18.408 87.696 18.408H87.568L87.44 18.072H87.644C87.868 18.072 88.008 18.04 88.064 17.98C88.128 17.9 88.164 17.752 88.164 17.528C88.164 17.488 88.16 17.448 88.16 17.412C87.728 17.736 87.16 18.004 86.464 18.22L86.272 17.896C87.052 17.676 87.66 17.392 88.096 17.048C88.072 16.968 88.04 16.888 88.008 16.816C87.632 17.096 87.132 17.324 86.512 17.504L86.324 17.176C86.976 17.008 87.484 16.796 87.848 16.536C87.808 16.484 87.772 16.436 87.732 16.388C87.716 16.396 87.704 16.4 87.692 16.408C87.432 16.532 87.064 16.664 86.592 16.804L86.4 16.488C86.768 16.412 87.112 16.308 87.432 16.176C87.528 16.136 87.62 16.096 87.708 16.052H86.812V15.7H89.188V16.052H88.3C88.204 16.116 88.112 16.176 88.024 16.232C88.14 16.36 88.236 16.496 88.316 16.64C88.668 16.536 89.004 16.384 89.324 16.18L89.58 16.436C89.372 16.568 89.152 16.68 88.916 16.776C89.1 17.244 89.4 17.62 89.808 17.908L89.536 18.224C89.112 17.868 88.804 17.42 88.612 16.884ZM88.092 14.692C88.136 14.796 88.176 14.912 88.216 15.04H89.716V15.784H89.336V15.392H86.664V15.784H86.284V15.04H87.832C87.792 14.936 87.748 14.844 87.704 14.76L88.092 14.692ZM90.768 17.428C90.872 17.428 90.956 17.468 91.028 17.552C91.092 17.64 91.128 17.748 91.128 17.884C91.128 18.088 91.068 18.264 90.948 18.416C90.828 18.568 90.668 18.672 90.468 18.728V18.48C90.576 18.44 90.668 18.38 90.74 18.292C90.804 18.2 90.84 18.108 90.84 18.012C90.816 18.02 90.784 18.024 90.744 18.024C90.66 18.024 90.592 17.996 90.536 17.94C90.48 17.884 90.452 17.812 90.452 17.728C90.452 17.636 90.48 17.564 90.54 17.508C90.596 17.452 90.672 17.428 90.768 17.428ZM96.044 16.548V16.936C95.828 17.008 95.6 17.072 95.36 17.136V17.972C95.36 18.228 95.224 18.36 94.956 18.36H94.508L94.424 17.996C94.564 18.012 94.696 18.02 94.824 18.02C94.924 18.02 94.976 17.972 94.976 17.876V17.224C94.736 17.276 94.492 17.324 94.236 17.364L94.184 16.984C94.46 16.94 94.724 16.892 94.976 16.84V16.124H94.184V15.76H94.976V15.336C94.776 15.376 94.572 15.408 94.36 15.44L94.28 15.08C94.84 15.02 95.336 14.904 95.768 14.728L95.9 15.084C95.728 15.144 95.548 15.2 95.36 15.252V15.76H96.224C96.2 15.448 96.188 15.104 96.188 14.728H96.572C96.572 15.12 96.584 15.464 96.608 15.76H97.816V16.124H96.64C96.664 16.388 96.7 16.608 96.748 16.784C96.764 16.86 96.784 16.928 96.804 16.992C96.976 16.784 97.128 16.548 97.256 16.284L97.584 16.456C97.404 16.824 97.192 17.14 96.944 17.404C96.992 17.512 97.036 17.604 97.084 17.676C97.204 17.856 97.296 17.948 97.36 17.948C97.412 17.948 97.464 17.74 97.516 17.324L97.852 17.5C97.752 18.068 97.604 18.356 97.412 18.356C97.24 18.356 97.06 18.236 96.872 18C96.796 17.904 96.728 17.796 96.668 17.668C96.392 17.9 96.084 18.084 95.74 18.216L95.528 17.888C95.904 17.752 96.232 17.556 96.512 17.3C96.464 17.168 96.424 17.032 96.388 16.888C96.332 16.672 96.288 16.416 96.256 16.124H95.36V16.752C95.6 16.688 95.828 16.62 96.044 16.548ZM97.012 14.764C97.296 14.944 97.536 15.124 97.736 15.304L97.46 15.576C97.292 15.4 97.06 15.212 96.756 15.008L97.012 14.764ZM99.892 14.704H100.264V15.608L101.464 15.34C101.464 16.216 101.44 16.748 101.4 16.936C101.36 17.16 101.176 17.272 100.852 17.272H100.676L100.572 16.92C100.704 16.924 100.82 16.928 100.92 16.928C101.004 16.928 101.056 16.856 101.076 16.716C101.088 16.636 101.096 16.336 101.1 15.816L100.264 15.996V17.444H99.892V16.076L99.124 16.24V17.656C99.124 17.832 99.212 17.92 99.392 17.92H101.112C101.248 17.92 101.344 17.892 101.408 17.84C101.464 17.784 101.504 17.596 101.524 17.268L101.872 17.384C101.84 17.808 101.78 18.064 101.688 18.156C101.592 18.24 101.424 18.284 101.176 18.284H99.3C98.932 18.284 98.752 18.092 98.752 17.708V16.32L98.148 16.448V16.08L98.752 15.948V15.02H99.124V15.864L99.892 15.692V14.704ZM103.516 17.528V17.848C103.516 17.94 103.564 17.988 103.664 17.988H104.98C105.092 17.988 105.176 17.964 105.232 17.924C105.296 17.876 105.336 17.736 105.36 17.5L105.72 17.62C105.68 17.972 105.604 18.184 105.496 18.256C105.4 18.32 105.252 18.352 105.052 18.352H103.548C103.268 18.352 103.132 18.208 103.132 17.928V17.172C102.88 17.284 102.608 17.4 102.316 17.516L102.156 17.16C102.784 16.988 103.372 16.72 103.924 16.36H102.212V15.996H103.58V15.548H102.516V15.18H103.58V14.708H103.964V15.18H104.908V15.54C105.08 15.356 105.236 15.168 105.372 14.972L105.668 15.196C105.452 15.496 105.224 15.764 104.984 15.996H105.804V16.36H104.564C104.516 16.396 104.472 16.432 104.424 16.464C104.176 16.632 103.876 16.808 103.516 16.992V17.188C104.232 17.112 104.868 16.984 105.42 16.8L105.548 17.16C104.92 17.34 104.244 17.464 103.516 17.528ZM104.42 15.996C104.596 15.852 104.756 15.7 104.9 15.548H103.964V15.996H104.42ZM107.872 16.048C108.26 15.824 108.628 15.572 108.976 15.292H106.416V14.924H109.5V15.292C109.132 15.624 108.716 15.94 108.252 16.24V17.96C108.252 18.24 108.112 18.38 107.836 18.38C107.592 18.38 107.38 18.372 107.2 18.356L107.096 17.988C107.292 18.012 107.504 18.024 107.732 18.024C107.824 18.024 107.872 17.976 107.872 17.888V16.048Z" fill="black"/>
<path d="M70.4999 22C69.712 22 69.0713 22.6427 69.0713 23.4326C69.0713 23.7258 69.1592 24.0081 69.3237 24.2455C69.3319 24.2598 69.3402 24.2735 69.35 24.2868L70.3928 25.6652C70.4211 25.6968 70.4591 25.7143 70.4999 25.7143C70.5401 25.7143 70.5784 25.6967 70.6115 25.6594L71.6494 24.2867C71.6596 24.273 71.6684 24.258 71.6732 24.2493C71.8397 24.0098 71.9288 23.7247 71.9284 23.4326C71.9284 22.6427 71.2876 22 70.4999 22ZM70.4999 23.9448C70.3647 23.9447 70.2351 23.8908 70.1394 23.7949C70.0437 23.699 69.9898 23.5688 69.9895 23.4331C69.9931 23.2995 70.0485 23.1727 70.1438 23.0795C70.2391 22.9863 70.3668 22.9342 70.4998 22.9342C70.6328 22.9342 70.7605 22.9863 70.8558 23.0795C70.9511 23.1727 71.0065 23.2995 71.01 23.4331C71.0097 23.5688 70.9558 23.6989 70.8602 23.7948C70.7646 23.8907 70.635 23.9447 70.4999 23.9448Z" fill="#1C1E22"/>
<path d="M73.881 22.588C74.088 22.738 74.265 22.885 74.409 23.035L74.202 23.236C74.076 23.098 73.902 22.948 73.677 22.786L73.881 22.588ZM73.827 23.323C74.019 23.467 74.184 23.608 74.316 23.752L74.112 23.956C73.998 23.818 73.833 23.674 73.623 23.518L73.827 23.323ZM74.094 24.139L74.355 24.241C74.229 24.619 74.091 24.973 73.938 25.306L73.65 25.18C73.821 24.841 73.968 24.493 74.094 24.139ZM74.448 22.705H76.374V22.981H76.155V24.979C76.155 25.192 76.053 25.3 75.852 25.3H75.351L75.291 25.027C75.453 25.039 75.606 25.045 75.753 25.045C75.831 25.045 75.873 24.997 75.873 24.907V22.981H74.448V22.705ZM74.568 23.371H75.552V24.529H74.568V23.371ZM75.288 24.271V23.626H74.832V24.271H75.288ZM76.656 22.792H77.883C77.895 22.702 77.907 22.609 77.916 22.516L78.207 22.555C78.198 22.639 78.189 22.717 78.177 22.792H79.344V23.059H78.132C78.114 23.146 78.096 23.23 78.078 23.311H79.197V24.961C79.197 25.177 79.095 25.288 78.897 25.288H78.612L78.537 25.012L78.804 25.018C78.879 25.018 78.918 24.976 78.918 24.898V23.578H77.088V25.306H76.809V23.311H77.787C77.805 23.227 77.823 23.143 77.838 23.059H76.656V22.792ZM77.7 23.632C77.76 23.734 77.814 23.851 77.865 23.986H78.138C78.198 23.869 78.252 23.746 78.3 23.62L78.558 23.716C78.513 23.812 78.465 23.902 78.411 23.986H78.705V24.235H78.138V24.487H78.786V24.736H78.138V25.261H77.862V24.736H77.217V24.487H77.862V24.235H77.304V23.986H77.592C77.55 23.893 77.502 23.806 77.445 23.725L77.7 23.632ZM80.25 23.692C80.313 23.692 80.367 23.713 80.409 23.761C80.454 23.803 80.478 23.854 80.478 23.92C80.478 23.98 80.454 24.034 80.409 24.079C80.367 24.124 80.313 24.148 80.25 24.148C80.184 24.148 80.133 24.124 80.091 24.079C80.043 24.034 80.022 23.98 80.022 23.92C80.022 23.854 80.043 23.803 80.091 23.761C80.133 23.713 80.184 23.692 80.25 23.692ZM83.52 24.157V25.3H83.247V25.186H82.458V25.3H82.185V24.157H83.52ZM82.458 24.928H83.247V24.415H82.458V24.928ZM82.515 22.513L82.788 22.567C82.764 22.639 82.734 22.708 82.704 22.777H83.553V22.984C83.445 23.215 83.289 23.422 83.082 23.605C83.313 23.743 83.583 23.851 83.892 23.926L83.727 24.166C83.385 24.076 83.097 23.947 82.857 23.782C82.617 23.947 82.329 24.088 81.993 24.208L81.819 23.977C82.14 23.872 82.413 23.749 82.638 23.605C82.53 23.506 82.437 23.398 82.356 23.284C82.26 23.383 82.155 23.473 82.044 23.557L81.873 23.335C82.191 23.11 82.404 22.837 82.515 22.513ZM82.518 23.089C82.611 23.221 82.725 23.341 82.857 23.449C83.013 23.32 83.142 23.179 83.238 23.029H82.56C82.542 23.053 82.53 23.071 82.518 23.089ZM81.39 22.585C81.597 22.735 81.774 22.882 81.918 23.032L81.711 23.236C81.588 23.095 81.414 22.945 81.186 22.783L81.39 22.585ZM81.336 23.32C81.528 23.464 81.693 23.605 81.825 23.749L81.621 23.956C81.507 23.818 81.342 23.674 81.132 23.518L81.336 23.32ZM81.6 24.139L81.858 24.241C81.735 24.619 81.597 24.973 81.447 25.303L81.162 25.177C81.33 24.841 81.477 24.493 81.6 24.139ZM84.234 22.645H85.257V22.864C85.161 23.122 85.05 23.395 84.921 23.683C85.119 23.956 85.224 24.196 85.242 24.4C85.242 24.538 85.209 24.64 85.149 24.7C85.056 24.778 84.894 24.817 84.666 24.82L84.576 24.535C84.636 24.544 84.687 24.55 84.726 24.55C84.819 24.544 84.882 24.532 84.915 24.511C84.945 24.487 84.96 24.451 84.96 24.4C84.96 24.199 84.852 23.974 84.639 23.725C84.78 23.425 84.891 23.152 84.972 22.906H84.507V25.318H84.234V22.645ZM86.772 22.684V25.3H86.496V25.075H85.659V25.294H85.383V22.684H86.772ZM85.659 24.802H86.496V24.007H85.659V24.802ZM85.659 23.743H86.496V22.96H85.659V23.743Z" fill="#1C1E22"/>
</svg>
