<svg width="155" height="190" viewBox="0 0 155 190" fill="none" xmlns="http://www.w3.org/2000/svg">
<rect width="155" height="190" fill="white"/>
<rect x="6" y="6" width="143" height="143" fill="#EBEBEB"/>
<path d="M117.502 144.198H115V143.202H115.498V143.7H117.502V144.198ZM115.498 143.202V142.698H116.002V143.202H115.498ZM116.002 142.698V142.2H116.5V142.698H116.002ZM116.5 142.2V141.702H116.998V142.2H116.5ZM116.998 141.702V140.202H117.502V141.702H116.998ZM115.498 140.202V141.198H115V140.202H115.498ZM116.998 140.202H115.498V139.698H116.998V140.202ZM119.998 144.198H118.498V143.7H119.998V144.198ZM119.998 143.7V141.702H119.5V142.2H119.002V142.698H118.498V143.7H118V140.202H118.498V142.2H119.002V141.702H119.5V141.198H119.998V140.202H120.502V143.7H119.998ZM119.998 140.202H118.498V139.698H119.998V140.202ZM123.502 144.198H121V143.202H121.498V143.7H123.502V144.198ZM121.498 143.202V142.698H122.002V143.202H121.498ZM122.002 142.698V142.2H122.5V142.698H122.002ZM122.5 142.2V141.702H122.998V142.2H122.5ZM122.998 141.702V140.202H123.502V141.702H122.998ZM121.498 140.202V141.198H121V140.202H121.498ZM122.998 140.202H121.498V139.698H122.998V140.202ZM124 143.7V143.202H124.498V143.7H125.998V144.198H124.498V143.7H124ZM124.498 142.2V141.702H125.002V141.198H125.5V141.702H125.998V142.2H126.502V143.7H125.998V142.2H124.498ZM124 140.202V139.698H126.502V140.7H125.998V141.198H125.5V140.7H125.998V140.202H124ZM127 142.2V141.702H129.502V142.2H127ZM131.998 144.198H130.498V143.7H131.998V144.198ZM131.998 143.7V141.702H131.5V142.2H131.002V142.698H130.498V143.7H130V140.202H130.498V142.2H131.002V141.702H131.5V141.198H131.998V140.202H132.502V143.7H131.998ZM131.998 140.202H130.498V139.698H131.998V140.202ZM133 141.198V140.7H133.498V141.198H133ZM134.5 139.698V144.198H134.002V140.7H133.498V140.202H134.002V139.698H134.5ZM136 142.2V141.702H138.502V142.2H136ZM139 141.198V140.7H139.498V141.198H139ZM140.5 139.698V144.198H140.002V140.7H139.498V140.202H140.002V139.698H140.5ZM143.998 144.198H142.498V143.7H143.998V144.198ZM143.998 143.7V141.702H143.5V142.2H143.002V142.698H142.498V143.7H142V140.202H142.498V142.2H143.002V141.702H143.5V141.198H143.998V140.202H144.502V143.7H143.998ZM143.998 140.202H142.498V139.698H143.998V140.202Z" fill="#F56E00"/>
<path d="M9.032 165.08V164.02H9.416V165.448H8.196V166.828H9.232V165.768H9.612V167.384H9.232V167.192H6.388V165.768H6.768V166.828H7.804V165.448H6.584V164.02H6.968V165.08H7.804V163.716H8.196V165.08H9.032ZM11 164.792C10.84 165.152 10.64 165.452 10.396 165.692L10.148 165.376C10.508 164.996 10.752 164.484 10.88 163.84L11.268 163.908C11.228 164.092 11.184 164.264 11.136 164.424H11.88V163.752H12.26V164.424H13.544V164.792H12.26V165.62H13.464V165.988H12.26V166.9H13.8V167.276H10.252V166.9H11.88V165.988H10.736V165.62H11.88V164.792H11ZM15.844 165.096H14.528V164.748H17.52V165.74H16.212V166.064H17.664C17.664 166.552 17.628 166.864 17.564 166.996C17.496 167.132 17.344 167.2 17.104 167.204C16.936 167.204 16.768 167.2 16.608 167.196L16.516 166.836C16.704 166.844 16.88 166.852 17.044 166.852C17.156 166.852 17.224 166.812 17.248 166.736C17.264 166.664 17.276 166.548 17.276 166.388H16.212V167.416H15.844V166.456C15.564 166.8 15.092 167.096 14.432 167.348L14.22 167.004C14.804 166.82 15.22 166.612 15.46 166.388H14.412L14.604 165.396H15.844V165.096ZM15.844 165.74H14.94L14.86 166.064H15.844V165.74ZM16.212 165.396H17.132V165.096H16.212V165.396ZM14.82 164.308C14.732 164.44 14.632 164.564 14.524 164.68L14.192 164.476C14.436 164.236 14.612 163.98 14.716 163.704L15.084 163.784C15.056 163.852 15.028 163.916 15.004 163.976H16V164.308H15.436C15.512 164.404 15.576 164.496 15.628 164.584L15.288 164.708C15.212 164.572 15.124 164.436 15.028 164.308H14.82ZM16.52 164.292C16.44 164.432 16.352 164.564 16.252 164.684L15.924 164.48C16.136 164.24 16.288 163.98 16.38 163.704L16.744 163.784C16.72 163.844 16.7 163.904 16.68 163.96H17.808V164.292H17.16C17.24 164.396 17.308 164.492 17.36 164.584L17.024 164.708C16.952 164.564 16.864 164.424 16.76 164.292H16.52ZM18.188 165.344H21.808V165.72H18.188V165.344ZM22.304 165.104H23.724C23.768 164.852 23.8 164.576 23.816 164.276H22.408V163.912H25.592V164.276H24.2C24.18 164.58 24.148 164.856 24.108 165.104H25.708V165.468H24.288C24.568 166.184 25.084 166.736 25.84 167.124L25.604 167.432C24.824 167.008 24.288 166.408 23.992 165.636C23.928 165.86 23.856 166.048 23.768 166.2C23.5 166.676 23.044 167.088 22.404 167.436L22.164 167.124C22.748 166.82 23.164 166.464 23.412 166.048C23.504 165.892 23.58 165.7 23.644 165.468H22.304V165.104ZM26.768 166.428C26.872 166.428 26.956 166.468 27.028 166.552C27.092 166.64 27.128 166.748 27.128 166.884C27.128 167.088 27.068 167.264 26.948 167.416C26.828 167.568 26.668 167.672 26.468 167.728V167.48C26.576 167.44 26.668 167.38 26.74 167.292C26.804 167.2 26.84 167.108 26.84 167.012C26.816 167.02 26.784 167.024 26.744 167.024C26.66 167.024 26.592 166.996 26.536 166.94C26.48 166.884 26.452 166.812 26.452 166.728C26.452 166.636 26.48 166.564 26.54 166.508C26.596 166.452 26.672 166.428 26.768 166.428ZM30.28 163.904H33.72V164.276H32.428C32.356 164.428 32.28 164.576 32.196 164.716V167.42H31.804V165.26C31.436 165.688 30.972 166.072 30.408 166.408L30.156 166.076C31.032 165.58 31.648 164.98 32 164.276H30.28V163.904ZM32.7 164.992C33.148 165.344 33.528 165.7 33.836 166.052L33.536 166.352C33.272 166.012 32.904 165.648 32.428 165.256L32.7 164.992ZM36.868 164.232H35.74L35.612 165.324H36.78L36.868 164.232ZM35.232 165.324L35.36 164.232H34.512V163.864H37.272L37.06 166.932H37.784V167.3H34.216V166.932H35.04L35.188 165.692H34.604V165.324H35.232ZM35.424 166.932H36.656L36.752 165.692H35.568L35.424 166.932ZM38.768 166.428C38.872 166.428 38.956 166.468 39.028 166.552C39.092 166.64 39.128 166.748 39.128 166.884C39.128 167.088 39.068 167.264 38.948 167.416C38.828 167.568 38.668 167.672 38.468 167.728V167.48C38.576 167.44 38.668 167.38 38.74 167.292C38.804 167.2 38.84 167.108 38.84 167.012C38.816 167.02 38.784 167.024 38.744 167.024C38.66 167.024 38.592 166.996 38.536 166.94C38.48 166.884 38.452 166.812 38.452 166.728C38.452 166.636 38.48 166.564 38.54 166.508C38.596 166.452 38.672 166.428 38.768 166.428ZM45.464 167.348H45.212C44.988 167.348 44.88 167.224 44.88 166.984V164.984H44.74C44.708 166.06 44.468 166.852 44.02 167.36L43.752 167.124C44.144 166.668 44.356 165.952 44.384 164.984H44.028V164.628H44.388V163.724H44.744V164.628H45.728V164.984H45.228V166.908C45.228 166.972 45.256 167.008 45.32 167.008H45.404C45.436 167.008 45.46 166.976 45.476 166.912C45.5 166.844 45.512 166.636 45.52 166.288L45.844 166.392C45.82 166.856 45.78 167.132 45.72 167.22C45.664 167.304 45.576 167.348 45.464 167.348ZM42.22 164.1H42.964C42.912 163.984 42.856 163.88 42.792 163.784L43.2 163.72C43.248 163.832 43.3 163.96 43.352 164.1H44.064V164.444H42.22V164.1ZM42.376 164.7H43.872V165.76H43.316V167.016C43.316 167.256 43.196 167.376 42.964 167.376H42.664L42.588 167.032C42.676 167.048 42.764 167.056 42.844 167.056C42.916 167.056 42.956 167.012 42.956 166.924V165.76H42.376V164.7ZM43.52 165.44V165.024H42.724V165.44H43.52ZM42.452 165.94L42.764 166.024C42.68 166.384 42.572 166.704 42.44 166.976L42.128 166.864C42.252 166.62 42.36 166.312 42.452 165.94ZM43.74 165.932C43.852 166.2 43.936 166.444 43.996 166.668L43.696 166.784C43.624 166.52 43.54 166.264 43.436 166.012L43.74 165.932ZM45.212 163.772C45.4 163.988 45.544 164.18 45.644 164.344L45.364 164.536C45.26 164.36 45.112 164.164 44.928 163.948L45.212 163.772ZM46.768 163.84H49.252V165.284H46.768V163.84ZM48.876 164.96V164.712H47.144V164.96H48.876ZM47.144 164.412H48.876V164.164H47.144V164.412ZM47.856 165.86H46.22V165.516H49.784V165.86H48.236V166.232H49.356V166.568H48.236V166.996C48.42 167.012 48.636 167.02 48.876 167.02C49.228 167.02 49.528 167.012 49.768 167.004L49.664 167.36C49.384 167.36 49.128 167.356 48.904 167.352C48.24 167.348 47.788 167.296 47.544 167.2C47.352 167.116 47.176 166.956 47.02 166.72C46.868 166.992 46.676 167.224 46.444 167.408L46.196 167.096C46.556 166.812 46.804 166.432 46.932 165.96L47.292 166.02C47.252 166.164 47.208 166.296 47.16 166.424C47.32 166.672 47.496 166.828 47.696 166.896C47.744 166.912 47.796 166.924 47.856 166.94V165.86ZM51.448 165.212V165.564H52.944V165.212H51.448ZM52.944 165.896H51.448V166.24H52.944V165.896ZM52.944 166.568H51.448V167.404H51.092V165.408C50.884 165.652 50.656 165.876 50.4 166.084L50.156 165.764C50.62 165.396 50.988 164.972 51.252 164.5H50.264V164.132H51.436C51.496 163.988 51.548 163.84 51.596 163.696L51.984 163.74C51.944 163.876 51.9 164.008 51.852 164.132H53.784V164.5H51.688C51.624 164.632 51.552 164.76 51.476 164.884H53.3V167.048C53.3 167.268 53.172 167.38 52.916 167.388H52.468L52.376 167.044C52.524 167.056 52.664 167.064 52.796 167.064C52.892 167.064 52.944 167.02 52.944 166.932V166.568ZM55.748 163.744H56.124V164.096H57.648V164.452H56.124V164.876H57.396V166.232H54.668V164.876H55.748V163.744ZM57.016 165.88V165.232H55.044V165.88H57.016ZM54.66 166.364L54.976 166.52C54.832 166.864 54.66 167.16 54.468 167.408L54.156 167.18C54.348 166.952 54.516 166.68 54.66 166.364ZM55.612 166.492C55.692 166.748 55.764 167.028 55.828 167.328L55.444 167.416C55.396 167.096 55.332 166.812 55.256 166.568L55.612 166.492ZM56.444 166.44C56.56 166.712 56.66 167.004 56.748 167.32L56.372 167.408C56.296 167.072 56.2 166.772 56.088 166.512L56.444 166.44ZM57.244 166.352C57.496 166.68 57.688 166.964 57.824 167.208L57.508 167.428C57.368 167.164 57.18 166.868 56.94 166.548L57.244 166.352ZM58.544 163.856H61.46V165.3H60.188V165.552H61.512V165.88H60.188V166.128H61.744V166.468H58.256V166.128H59.812V165.88H58.488V165.552H59.812V165.3H58.544V163.856ZM61.096 164.98V164.184H60.176V164.98H61.096ZM59.824 164.98V164.184H58.908V164.98H59.824ZM58.604 166.592L58.936 166.68C58.852 166.96 58.744 167.208 58.616 167.416L58.268 167.292C58.396 167.108 58.508 166.872 58.604 166.592ZM59.62 166.632C59.7 166.848 59.776 167.084 59.84 167.336L59.472 167.42C59.42 167.148 59.356 166.912 59.284 166.704L59.62 166.632ZM60.46 166.616C60.568 166.832 60.664 167.068 60.744 167.324L60.38 167.408C60.308 167.136 60.224 166.896 60.12 166.688L60.46 166.616ZM61.256 166.564C61.464 166.812 61.62 167.024 61.732 167.208L61.432 167.42C61.316 167.22 61.16 166.992 60.968 166.744L61.256 166.564ZM59.388 164.264C59.476 164.424 59.552 164.612 59.616 164.824L59.312 164.904C59.252 164.72 59.176 164.54 59.088 164.364L59.388 164.264ZM60.592 164.24L60.904 164.324C60.84 164.544 60.76 164.736 60.664 164.904L60.36 164.796C60.448 164.652 60.524 164.464 60.592 164.24ZM63 166.4C63.152 166.4 63.28 166.452 63.388 166.556C63.496 166.656 63.552 166.78 63.552 166.932C63.552 167.08 63.496 167.208 63.388 167.312C63.28 167.412 63.152 167.464 63 167.464C62.848 167.464 62.716 167.412 62.612 167.316C62.5 167.212 62.448 167.084 62.448 166.932C62.448 166.78 62.5 166.652 62.612 166.552C62.716 166.448 62.848 166.4 63 166.4ZM63 166.664C62.924 166.664 62.86 166.688 62.804 166.744C62.748 166.792 62.724 166.856 62.724 166.932C62.724 167.004 62.748 167.068 62.804 167.124C62.86 167.172 62.924 167.2 63 167.2C63.072 167.2 63.14 167.172 63.196 167.124C63.248 167.068 63.276 167.004 63.276 166.932C63.276 166.856 63.248 166.792 63.196 166.744C63.14 166.688 63.072 166.664 63 166.664Z" fill="#1C1E22"/>
<g clip-path="url(#clip0_1152_2044)">
<path d="M7.99986 171C7.21203 171 6.57129 171.643 6.57129 172.433C6.57129 172.726 6.65924 173.008 6.82371 173.246C6.83191 173.26 6.84023 173.273 6.85005 173.287L7.89278 174.665C7.9211 174.697 7.95911 174.714 7.99986 174.714C8.04011 174.714 8.07837 174.697 8.11154 174.659L9.14942 173.287C9.15961 173.273 9.16843 173.258 9.17315 173.249C9.33969 173.01 9.42882 172.725 9.42843 172.433C9.42843 171.643 8.78756 171 7.99986 171ZM7.99986 172.945C7.86469 172.945 7.73506 172.891 7.6394 172.795C7.54373 172.699 7.48985 172.569 7.48955 172.433C7.49314 172.3 7.54848 172.173 7.64378 172.079C7.73907 171.986 7.86681 171.934 7.9998 171.934C8.13279 171.934 8.26052 171.986 8.35582 172.079C8.45112 172.173 8.50645 172.3 8.51005 172.433C8.50972 172.569 8.45583 172.699 8.3602 172.795C8.26457 172.891 8.13499 172.945 7.99986 172.945Z" fill="#1C1E22"/>
</g>
<path d="M11.381 171.588C11.588 171.738 11.765 171.885 11.909 172.035L11.702 172.236C11.576 172.098 11.402 171.948 11.177 171.786L11.381 171.588ZM11.327 172.323C11.519 172.467 11.684 172.608 11.816 172.752L11.612 172.956C11.498 172.818 11.333 172.674 11.123 172.518L11.327 172.323ZM11.594 173.139L11.855 173.241C11.729 173.619 11.591 173.973 11.438 174.306L11.15 174.18C11.321 173.841 11.468 173.493 11.594 173.139ZM11.948 171.705H13.874V171.981H13.655V173.979C13.655 174.192 13.553 174.3 13.352 174.3H12.851L12.791 174.027C12.953 174.039 13.106 174.045 13.253 174.045C13.331 174.045 13.373 173.997 13.373 173.907V171.981H11.948V171.705ZM12.068 172.371H13.052V173.529H12.068V172.371ZM12.788 173.271V172.626H12.332V173.271H12.788ZM14.156 171.792H15.383C15.395 171.702 15.407 171.609 15.416 171.516L15.707 171.555C15.698 171.639 15.689 171.717 15.677 171.792H16.844V172.059H15.632C15.614 172.146 15.596 172.23 15.578 172.311H16.697V173.961C16.697 174.177 16.595 174.288 16.397 174.288H16.112L16.037 174.012L16.304 174.018C16.379 174.018 16.418 173.976 16.418 173.898V172.578H14.588V174.306H14.309V172.311H15.287C15.305 172.227 15.323 172.143 15.338 172.059H14.156V171.792ZM15.2 172.632C15.26 172.734 15.314 172.851 15.365 172.986H15.638C15.698 172.869 15.752 172.746 15.8 172.62L16.058 172.716C16.013 172.812 15.965 172.902 15.911 172.986H16.205V173.235H15.638V173.487H16.286V173.736H15.638V174.261H15.362V173.736H14.717V173.487H15.362V173.235H14.804V172.986H15.092C15.05 172.893 15.002 172.806 14.945 172.725L15.2 172.632ZM17.75 172.692C17.813 172.692 17.867 172.713 17.909 172.761C17.954 172.803 17.978 172.854 17.978 172.92C17.978 172.98 17.954 173.034 17.909 173.079C17.867 173.124 17.813 173.148 17.75 173.148C17.684 173.148 17.633 173.124 17.591 173.079C17.543 173.034 17.522 172.98 17.522 172.92C17.522 172.854 17.543 172.803 17.591 172.761C17.633 172.713 17.684 172.692 17.75 172.692ZM21.02 173.157V174.3H20.747V174.186H19.958V174.3H19.685V173.157H21.02ZM19.958 173.928H20.747V173.415H19.958V173.928ZM20.015 171.513L20.288 171.567C20.264 171.639 20.234 171.708 20.204 171.777H21.053V171.984C20.945 172.215 20.789 172.422 20.582 172.605C20.813 172.743 21.083 172.851 21.392 172.926L21.227 173.166C20.885 173.076 20.597 172.947 20.357 172.782C20.117 172.947 19.829 173.088 19.493 173.208L19.319 172.977C19.64 172.872 19.913 172.749 20.138 172.605C20.03 172.506 19.937 172.398 19.856 172.284C19.76 172.383 19.655 172.473 19.544 172.557L19.373 172.335C19.691 172.11 19.904 171.837 20.015 171.513ZM20.018 172.089C20.111 172.221 20.225 172.341 20.357 172.449C20.513 172.32 20.642 172.179 20.738 172.029H20.06C20.042 172.053 20.03 172.071 20.018 172.089ZM18.89 171.585C19.097 171.735 19.274 171.882 19.418 172.032L19.211 172.236C19.088 172.095 18.914 171.945 18.686 171.783L18.89 171.585ZM18.836 172.32C19.028 172.464 19.193 172.605 19.325 172.749L19.121 172.956C19.007 172.818 18.842 172.674 18.632 172.518L18.836 172.32ZM19.1 173.139L19.358 173.241C19.235 173.619 19.097 173.973 18.947 174.303L18.662 174.177C18.83 173.841 18.977 173.493 19.1 173.139ZM21.734 171.645H22.757V171.864C22.661 172.122 22.55 172.395 22.421 172.683C22.619 172.956 22.724 173.196 22.742 173.4C22.742 173.538 22.709 173.64 22.649 173.7C22.556 173.778 22.394 173.817 22.166 173.82L22.076 173.535C22.136 173.544 22.187 173.55 22.226 173.55C22.319 173.544 22.382 173.532 22.415 173.511C22.445 173.487 22.46 173.451 22.46 173.4C22.46 173.199 22.352 172.974 22.139 172.725C22.28 172.425 22.391 172.152 22.472 171.906H22.007V174.318H21.734V171.645ZM24.272 171.684V174.3H23.996V174.075H23.159V174.294H22.883V171.684H24.272ZM23.159 173.802H23.996V173.007H23.159V173.802ZM23.159 172.743H23.996V171.96H23.159V172.743Z" fill="#1C1E22"/>
<defs>
<clipPath id="clip0_1152_2044">
<rect width="4" height="4" fill="white" transform="translate(6 171)"/>
</clipPath>
</defs>
</svg>
